<?xml version="1.0" encoding="UTF-8"?>
<svg id="Layer_1" xmlns="http://www.w3.org/2000/svg" version="1.1" viewBox="0 0 100 100">
  <!-- Generator: Adobe Illustrator 30.3.0, SVG Export Plug-In . SVG Version: 2.1.3 Build 182)  -->
  <path d="M98.8,63c-.2.5-.5.9-.8,1.2,0,.3,0,.5,0,.8,0,.7-.7.7-.7,1.4v-.7s0,.7-.7,1.4l-.7.7s0,.7-.7.7c0,.7-.7,1.4-.7,2.1,0,0,0,.1-.1.2.3-.3.6-.6.8-.9,0,.5-.3.9-.5,1.4.1-.2.2-.5.5-.7,0,.4-.3.9-.7,1.3,0,0,0,0,0,0-.7.7-.7,1.4-1.4,2.1-1.7,1.1-2.5,1.8-3.4,2.7.5-.6,1-1.3,1.3-2.1,0-.7.7-.7.7-.7,0,0,.7-1.4,1.4-1.4.3-.7.7-1.1,1-1.6.5-1.1.6-2.2,1.1-2.6.7-2.1,1.4-4.2,2.1-6.3,0,0,0-.2,0-.3-.2.6-.5,1.2-.8,1.7,0,.7-.7,1.4-.7,2.1s-.7.7-.7,1.4c-.1.3-.3.5-.5.8,0,.2-.2.4-.2.6,0,.7,0,1.4-.7,2.1,0-.7.7-1.4.7-2.1s0-.2,0-.3c-.2.4-.5.8-.7,1.2v.5c0,.7-.7.7-.7,1.4-.7.7-1.4,2.1-2.1,2.8-.7.7-1.4,2.1-2.1,2.8l-1.4,2.1v-.7l-.7.7-1.4,1.4c.6-.6,1.2-1.2,1.3-1.9-.4.4-.8.8-1.3,1.1h0c-.7.7-1.4,1.4-2.1,2.1-1.4,1.4-2.8,2.1-4.2,2.8l-.7.7c-.7.7-1.4.7-2.1,1.4.8-.8,1.8-1.6,2.8-2.4-1.8,1.1-3.6,2.2-5.5,3.1-.7.5-1.6.8-2.4,1.1-.1.1-.3.2-.5.2,0,0,0,0-.1,0h.2c-.3,0-.6.2-.9.3,0,0,0,0,0,0-1.3.4-2.6.8-4,1.1.7-.7,2.1-.7,2.8-1.4s1.4-.7,2.1-.7c.7-.7,2.1-.7,2.8-1.4.7,0,.7-.7,1.4-.7h.7l1.4-.7,2.1-1.4s.6-.5,1.2-.6c.3-.3.6-.5.9-.8.7-.7,1.4-1.4,2.1-2.1l.7-.7c.6-.6,1.2-1.2,1.9-1.3l.6-.5c1-1,1.9-2,2.4-3.1.3-.3.5-.6.8-.9,0,0,0-.1.1-.2-.3.2-.6.4-.9.4-.7.7-1.4,1.4-2.1,2.1-.7.7-2.1,2.1-2.8,2.8,1.4-1.4,2.8-2.8,3.5-4.2.7-.7.7-1.4,1.4-1.4.3-.3.5-.6.8-.8-.2.6-.4,1.1-.8,1.5.3-.5.5-1,.8-1.5.4-.4.6-.8.6-1.3-.2.2-.2.5-.3.7.3-.7.7-1.4,1-2.1.7-.7,1.4-2.1,1.4-2.8s.3-.9.5-1.1c.5-1.3,1.1-2.7,1.6-3.7.5-1.4.9-2.9,1.1-4.3,1-3.2,1.7-6.6,1.7-9.6v-7.7s0-1.4-.7-1.4v-1.4c0-.7-.7-1.4-.7-2.1s-.7-1.4-.7-2.1c-.7-1.4-.7-2.8-1.4-4.2-1.4-2.8-2.1-5.6-4.2-8.3-1.2-2.5-3-4.4-4.9-6.8v.5c.6.6,1.1,1.2,1.7,2.2-.1,0-.3,0-.3,0,0,0-.6-.5-1.3-1,0-.1-.1-.2-.1-.4-.2,0-.2,0-.4-.1-.5-.5-1-1-1-1.3h.7l-1.4-1.4s.7.7.7,0c-.5-.5-.9-.9-1.4-1.4,0,0,0,0,0,0-.7-.5-1.4-1-1.4-1.4l-.7-.7c-.7-.7-.7-1.4-1.4-1.4l.7.7s-.7-.5-1.6-1c.3.2.6.3.9.3l-1.4-.7s.2.1.3.3c-1.2-.8-2.7-1.7-3.1-1.7.7.7,1.4.7,2.1,1.4l1.4,1.4h-.7l1.4.7q.7.7,1.4,1.4t1.4,1.4c.7.7,1.4,1.4,1.4,1.4.4.8.8,1.4,1.2,1.8-.1,0-.3,0-.4-.1.1.2.3.3.6.3.2.2.5.5.7.7-.3-.3-.8-.7-1.3-1.1-.3-.2-.5-.4-.6-.7,0,0-.2-.2-.2-.3,0,0,0,0,0,0,0,0,0,0,0,0-.2-.2-.5-.4-.6-.7-.7,0-.7-.7-1.4-1.4l-1.4-1.4c-3.5-2.3-7-4.6-10.4-7q.7,0,1.4.7c.7,0,1.4.7,2.1.7l-2.8-1.4c0-.7-2.8-.7-2.8-.7-2.1-.7-4.2-1.4-5.6-1.4-2.1-.7-4.2-.7-6.3-.7h-.7c1.4,0,2.8.7,3.5.7,1.4,0,3.5.7,4.9,1.4.7,0,1.4,0,2.1.7,0,0,.7.7,1.4.7l2.1.7c.7.7,1.4.7,1.4.7.7,0,1.4.7,1.4.7l1.4.7c.3.3.5.4.8.5-.5-.2-1-.5-1.5-.5,0,0-.7,0-.7-.7h-.7c-.2,0-.4-.1-.6-.2,0,0,0,0,0,0-.2-.2-.4-.4-.8-.4h-.7c.5,0,.7,0,1,.3-.3-.2-.6-.3-1-.3l1.4.7s.7,0,1.4.7c1.4.7,2.8,1.4,4.2,2.1,1.4.7,2.8,1.4,3.5,2.8.7.7,1.4,1.4,2.1,2.1.7,0,.7.7,1.4.7l.7.7.5.9c.5.2.9.7.9,1.2.7.7,1.4,1.4,2.1,2.1.3.5.7,1.1,1.1,1.6-.1,0-.2-.2-.4-.2l-1.4-1.4c0-.7-.7-1.4-1.4-2.1-.3-.3-.5-.5-.7-.7-.7-.7-1.4-.7-1.4-1.4l-1.4-.7s2.1,2.8,2.8,3.5c0,0,0,.7.7.7l.7.7,2.8,5.6-.7-.7c0-.7-.7-1.4-.7-1.4l-.7-.7s-.7-.7,0-.7l-.7-.7-2.1-2.1.7.7s-.7-1.4-1.4-1.4l-.7-.7,1.4.7c-.5-.5-.9-.9-1.4-1.4s-1.4-1.1-2.6-2l.6.6.7.7.7.7c-1-1-2-1.8-3-2.5-.2,0-.4-.2-.5-.2,0,0,0,0,0,0-1.6-1.3-3.3-2.4-4.9-4.1,0,0,.7.7,1.4.7s.7.7,1.4.7l-.7-.7-.7-.7h.7s-2.1-1.4-2.8-1.4c-1.4,0-3.5-.7-4.9-.7-1.4-.7-2.8-1.4-4.2-2.1l-2.8-.7h.7s-1.4,0-1.4-.7l-2.1-.7h-.7c.7,0,1.4.7,2.1.7h-2.1q.7,0,1.4.7c.7,0,2.1.7,2.8.7,2.1,1.4,3.5,2.1,4.2,2.1s1.4.7,2.8,1.4c.3.3.9.5,1.4.7.4,0,.7.2,1.1.4-.1-.1-.2-.2-.4-.4,0,0-.3,0-.7-.3.2.1.4.3.7.3,0,0,.3,0,.5.4.3.1.6.3.9.3-.4,0-.6,0-.8-.2,0,0,0,0,0,.2.6.6,1.2.7,1.9,1.2.4,0,.8.3,1,.5l.6.3,1.4.7h-.7c0,.2.2.5.3.7-.3-.2-.7-.3-1-.7-.7-.7-1.4-.7-2.1-1.4-.7,0-1.4,0-2.1-.7-.7,0-.7-.7-1.4-.7l-1.4-.7c0,.2,0,.2,0,.3.2.1.5.2.7.4h-.7q-.7,0-1.4-.7c.3,0,.5,0,.8,0,0,0,0,0,0,0h1.4l-.7-.7q-.7,0-1.4-.7c-.7.7-1.4.7-2.1,0-.5,0-2.1-.7-2.9-1.1-.4,0-.8-.3-1.3-.3-.7,0-1.4,0-2.1-.7h-2.1c-.7,0-1.4,0-2.1-.7h4.2c-.7,0-1.4,0-1.4-.7-.1,0-.3,0-.4-.1.1,0,.2-.1.3-.2-.1,0-.2,0-.3.1-.6-.2-1.1-.5-1.7-.5h-1.4c-.7-.7-1.4-.7-2.1,0h-4.9c.7,0,1.4,0,2.8-.7h6.3c-.7,0-1.4-.7-2.8-.7h-9l-2.8.7h-1.4c-.3,0-.6,0-.9,0h.2c0,0-2.1.6-2.1.6-.7,0-1.4,0-2.1.7-.7,0-1.4.7-2.1.7l1.4-.7s.7-.7,1.4-.7c-1.1,0-2.3.9-3.7,1.6.1,0,.3-.2.3-.2l-1.4.7c0,.2,0,.3-.2.4.8-.4,1.5-.7,1.9-.9,0,0,0,0,0,.1-.5.3-1.2.7-1.8.9-.6.4-1.5.8-1.9.8,0,0,0,0,0,0l1.3-.7h0c0,0-.2,0-.3.1,0,0,.2,0,.2-.1h-.5c-.7,0-.7.7-1.4.7-.7.7-1.4.7-1.4,1.4h0c-.3.1-.6.3-.6.6,0,0,0,0,0,0h0c0,0-.7.8-.7.8.7-.7,1.4-.7,2.1-1.4,0,0,0,0,0,0,1.8-.9,3.6-1.7,5.4-2.4-.2,0-.3,0-.5,0,0,.2-.2.3-.6.3,0,0,.2,0,.4-.3-.2,0-.5.1-.7.2-.4.2-.8.4-1.2.8.3-.3.7-.5,1.1-.8-.1,0-.3,0-.4,0,.2,0,.5-.1.7-.2,0,0,0,0,.1,0,0,0,0,0,0,0,0,0,0,0,0,0,.1,0,.3,0,.4-.1,0,0,.2-.1.2-.3,0,.1,0,.1,0,.2.3,0,.5-.2.7-.2.6-.6,1.2-.7,1.8-.7-.3.2-.6.4-.8.6,1.5-.5,3-1,4.6-1.3h.7q-.7,0-1.4.7s-1.4.7-2.1.7c-.4-.4-1.1-.3-1.9,0h.5l-.7.7c-.2-.1-.4-.2-.6-.2-1.1.7-2,1.2-2.8,1.6-.7.7-1.4.7-2.8,1.4-.7.7-2.1,1.4-2.8,1.4,0,0-1,.5-1.3,1.1-.2.1-.5.3-.8.3,0,0,.7-.7,0-.7l-.7.7s-.7.7-1.4.7,0,0,0,0c-.1,1.5-.7,2.1-1.3,2.1l-.7.7s-.7.7-1.4.7c0,0,0,.7-.7.7l-1.4,1.4v-.7c-.7,1.4-1.4,2.1-2.1,2.8,0,0,0,.7-.7.7,0,.7-.7,1.4-.7,1.4.7,0,1.4-.7,1.4-1.4,0,0,1.4-1.4,1.4-2.1.7,0,.7-.7,1.4-1.4q.7,0,1.4-.7c1-.5,1.7-1.3,2.6-2.1-.1.2-.2.4-.5.7l-2.1,2.1-2.1,2.1c-.7.7-1.4,1.4-2.1,2.1-.7,1.4-1.4,2.8-2.1,3.5,0-.7.7-.7.7-1.4s.7-.7.7-1.4c-.7.7-.7,1.4-1.4,2.1l-.7.7-.4.4c.1.3-.3.5-.3,1s-.7,1.4-.7,2.1l-.7.7c0,.7-.7,1.4-.7,1.4.6-.6,1.2-1.2,1.7-1.7l-1,1.7s0,.7-.7.7l-.7,1.4c0-.7.7-1.4.7-2.1v-.7s-.7.7-.7,1.4-.7,1.4-.7,1.4v-.7c0,.7-.7,1.4-.7,2.1v-1.4s0,.7-.7.7c0,0,0,.7-.7.7l-.6,3.4c.5,1.7.5,2.9-.1,3.5v6.3c0-1.4,0-2.8.7-4.2,0-.7,0-1.4.7-2.1,0,0,.7-1.4.7-2.1v.7c0-.7,0-2.1.7-2.8v-1.4l.7-1.4v2.1c0,.2-.2.5-.3.7,0,0,.2-.2.3,0,0-.3,0-.5,0-.8,0-.2.2-.4.3-.6.1-.2.2-.4.4-.6,0,0,0,0-.1,0,2.1-5.4,5.1-10.4,9-14.6-.6.1-1.2.7-1.2,1.3l-1.4,1.4.7-1.4-.7.7c-.5,1-.9,1.6-1.1,2.2,0,0,0,0,0,0-.1.2-.3.5-.3.7,0,0,0,.6-.6.7.2-.2.4-.4.6-.7-.2,0-.3.1-.5.3l.5-1s-.2.4-.5.8l.5-1.5c.7-.7.7-1.4,1.4-1.4v-.7l.7-.7c.7,0,.7-.6,2-.7,1.1-1.2,2.3-2.4,3.6-3.5,2.8-2.8,5.6-4.2,8.3-6.3,1.4-.7,2.8-1.4,4.2-2.1,1.4,0,2.8-.7,4.2-1.4l-.7.7,1.4-.7c.7,0,2.1-.7,3.5-.7s2.1-.7,3.5-.7c.7-.7,2.1-.7,2.1-.7-.7,0-1.4.7-2.1.7h.7l2.1-.7h2.8l-1.4.7h3.5s3.5.7,4.2.7c2.1.7,3.5,1.4,4.9,1.4-1.4,0-2.8,0-4.9-.7h-4.2c0,.7-.7,0-.7,0h-4.9c-.7.7-2.1.7-2.8.7.7-.7,2.1-.7,2.8-.7h-4.2s1.4,0,1.4-.7c0,.7-1.4.7-2.1.7,0,0-1.4,0-1.4.7-.7,0-1.4.7-2.1.7,0,0-.7,0-.7.7,0,0,.7-.7,1.4-.7,0,0-.7.7-1.4.7l-1.4.7-2.8.7c-.7,0-1.4.7-1.4.7h-.7c-.7,0-1.4.7-2.1,1.4-2.8,0-4.2.7-5.6,2.1l.7-.7-2.1,1.4c-.5.5-.9.9-1.4,1.4-.7.7-1.4,1.4-2.1,2.1-1.4,1.4-2.8,2.8-4.2,4.9-1.4,1.4-2.8,3.5-3.5,4.9-.7,1.4-1.4,2.8-2.1,4.2,0,.7-.7,1.4-.7,2.1,0,0-.7.7-.7,1.4l-.7,1.4v2.1c0-.7.7-1.4.7-2.1.7-2.1,1.4-3.5,2.1-5.6.7-.7.7-1.4,1.4-2.1,0-.7.7-.7.7-1.4,0,0,.7-.7.7-1.4,0,.7-.7,1.4-.7,2.1-.3.3-.5.6-.7.9v1.2c-.3.8-.7,1.7-1.1,2.5.2.3.2.5-.3,1v-.3c-.5,1-1,2.1-1.4,3.1,0-.9.2-1.8.4-2.7-.4,1-.7,1.8-1,2.7,0-.2.3-.3.6-.7,0,.7,0,1.4-.7,2.1v-.7c0-.3,0-.5,0-.6-.2.7-.6,1.4-.8,2v.7s0,1.4-.7,2.1v1.4s0,0,0,.2c0,.2-.1.5-.2.7,0,.3,0,.6.1.9-.3.7.2,1.8.2,2.4v-.7c0-1.4,0-2.1.7-3.5v-1.4c0-.7,0-1.4.7-1.4,0-.7,1.4-3.5,1.4-3.5,0,1-.3,1.9-.5,2.9,0,.2-.2.4-.2.6v.7c0,.7,0,1.4-.7,2.1v1.4l.7-2.1c0,1.4-.3,2.7-.5,4.1.1-.6.2-1.2.5-2v.7c.7-1.4.7-2.8,1.4-4.9,0-.5.3-1.1.5-1.8,0,.1,0,.2.2.4v2.1l-.7,2.1-.7,4.2v4.2c0,.7.7,1.4,0,1.4,0,.7.7,1.4.7,2.1v2.8s0-.7-.7-1.4v2.8c.7.7,1.4,2.8,1.4,2.8v-.7s.7,1.4,0,1.4v.4c.2.2.4.3.7.3,0,.4-.3.3-.5,0l.5,1.4v.7l-.7-.7s0,.7.7,1.4q0,.7.7,1.4c0,.7.7,1.4.7,2.8.7.7.7,2.1,1.4,2.8,0,0,.7,1.4,1.4,1.4,0,0-.7-.7-.7-1.4s-.7-.7-.7-1.4-.5-1.3-.6-1.9c.2.4.4,1,.6,1.5v-.3s0,.7.7.7c0,0,0,0,0,0,0-.3,0-.5,0-.7-.7-1.4-1.4-2.1-1.4-2.8v-.7s0-.2-.1-.4c-.2-.6-.6-1.1-.6-1.7.3,1,.9,1.9,1.4,2.8h0s0,0,0,0c.3.3.5.7.6,1,0,0,0,0-.1,0,0,0,0,0-.1,0,0,.1.1.3.3.4,0,.1,0,.3,0,.4.2.4.4.7.7,1.1l-.7-.7c.7.7.7,1.4,1.4,1.4l.7,1.4.7.7.7.7.7.7c.2,0,.3.2.4.2,0-.1-.1-.3-.2-.4,0,0,0,0,0,0,0,.1.2.3.3.5.2.3.4.6.8,1-.2-.2-.4-.4-.5-.6,0,0,0,0,0,.1-.3-.3-.5-.5-.9-.9h-.7c0,.3.2.5.3.7-.3-.3-.6-.7-.8-1,.1.2.3.3.5.3-.7-.7-1.4-1.4-1.4-2.1l-.7-.7s.7.7.7,1.4c-.4-.4-.6-.8-.9-1.1,0,.1.2.2.2.4,0,0,.7.7.7,1.4l-.5-.5c-.3-.5-.5-1-.7-1.5,0,0,0,0-.1,0v.7s0,.7.7.7c0,.7.7.7.7,1.4.7,1.4,1.4,2.1,2.1,3.5.6.8,1.1,1.6,1.7,2.4l.3.3s.7,0,.7.7l1.4,1.4c.6.6,1.6,1.1,2.3,1.7-.3-.2-.6-.3-.9-.3h-.7s0,.2,0,.3c-.3-.2-.5-.3-.8-.3-.7-.7-2.1-2.1-2.8-2.8,0,0,0-.1,0-.2-.4-.4-.9-.8-1.3-1.2-.7-.7-1.4-1.4-2.1-2.1-.7-.7-.7-1.4-1.4-1.4,0-.7-.7-1.4-.7-1.4,0,0-.7-.7-.7-1.4l.7.7v-.7c0-.7-.7-.7-.7-1.4-.7-.7-1.4-2.1-1.4-2.8-1.4-1.4-2.1-2.8-2.1-4.2l-.7-2.1v-.7c0-.7,0-1.4-.7-2.1,0-.7-.7-2.1-.7-2.8,0-1.4-.7-3.5-.7-4.9v2.5c0,0,0,.3,0,.3v1.4c0,1,.3,1.9.5,2.7,0-.1-.2-.3-.5-.6,1.4,2.8,1.4,6.3,2.8,9,0,0,0,0,0,0-.2-.5-.5-1-.7-1.5,0-.6-2.2-6.3-2.2-7.9l-.6-1.8c0-.7-.7-2.1-.7-2.8v2.1c0,1.4.7,3.5.7,4.9v1.4c0,.5.3.9.5,1.2.2,1.5.4,3.1.9,4.4.7,2.1,1.4,4.2,1.4,5.6s.7,1.4,1.4,2.1c0,.7.7.7.7,1.4,0,0,.2.3.4.6.3.5.5,1,1,1.5l-.7-.7c0,.7.7,1.4,1.4,1.4.7.7,1.4,2.1,2.1,2.8.3.7.9,1.2,1.4,1.7,0-2.4-.7-3.1-1.4-3.8l.7.7c0-.7-.7-1.4-1.4-1.4,0,0-.7-.7-.7-1.4,0,0,.7,0,.7.7,0-.7-.7-.7-.7-1.4,0,0,0-.7-.7-.7,0,0-.7-.7-.7-1.4,1.4,1.4,2.8,3.5,4.2,4.9,1.4,1.4,2.1,2.1,2.8,3.5,0,0-.7-.7-1.4-.7.7.7,1.4,1.4,2.8,2.1,2.1,1.4,3.5,2.8,5.6,3.5.8.3,1.5.6,2.3,1,0,0-.2-.1-.2-.3.6,0,.7,0,.7.5,1.2.6,2.3,1.2,3.5,1.6,0,0,.3.1.4.2.1,0,.3.2.3.5h-1.4l2.8,1.4c.7,0,1.4.7,1.4.7.3,0,.5,0,.8,0,0,0,0,0,0,0h.7c.7,0,1.4.7,2.1.7,0,0,1.4.7,2.1.7h-1.4c-.7,0-1.4-.7-1.4,0h.7c.5,0,1,0,1.5.3,1.7-.4,3.1-.5,4.3-.5l.5.2h-.7c1.4,0,2.1.7,3.5.7h2.1c-.7,0-1.4,0-2.1-.7h2.8c-1.4,0-2.1,0-3.5-.7-2.1-.7-3.5-.7-4.9-1.4.7,0,2.1.7,2.8.7,1.4,0,2.1.7,3.5.7h5.6s.7-.7.7,0h5.6s2.1,0,2.8-.7h1.4c2.1-.7,4.2-.7,6.3-1.4.7,0,1.4-.7,2.8-1.4.7-.7,2.1-1.4,2.8-1.4,1.4-.7,2.8-1.4,3.5-2.1-1.4.7-2.1,1.4-3.5,1.4-1.4.7-2.8,1.4-4.2,1.4s-.6.1-.9.3c0,0,.2-.1.2-.3l-.3.3c-.3.2-.7.3-1,.3,0,0-.4,0-.8,0h.1c.7,0,1.4-.8,2.1-.8s.7,0,1.4-.7h-.4c-1.3.5-2.5,1-3.7,1.4,1.5-.6,2.7-1.2,4-1.9,0,0,.1,0,.1-.2.2,0,.3,0,.5,0,.1,0,.3-.1.4-.2.1-.1.3-.2.5-.5.7-.7,2.1-.7,2.8-1.4.7-.7,1.4-.7,2.1-1.4.2-.2.4-.3.6-.4.2-.1.5-.3.8-.3.7-.7,1.4-.7,2.1-1.4,0,0,0,0,0,0,1.1-1.1,2.3-2.2,3.4-2.7.7,0,.7-.7,1.4-.7.4-.4.9-.8,1.3-1.2-.4.4-.7.8-1.1,1.1.2-.1.6-.4.9-.7-.2.2-.4.4-.4.8.2-.2.5-.5.7-.7h0s0,0,0,0c.4-.4.8-.8,1.4-1.4,0-.7.7-.7,1.4-1.4.5-.3.9-.7,1.3-1.1,0,0,.1-.1.1-.3l.5-.5c.1-.2.3-.4.4-.7.2,0,.3-.2.5-.2v.7c.7-.7.7-1.4,1.4-2.1.7-.7.7-1.4.7-1.4l.7-1.4-.7.7c.5-.5.7-1,.9-1.7,0,0-.1.1-.2.2.1-.5.6-.6.6-1.3s.7-1.4.7-2.1l-.7,1.4c0,.7-.7.7-.7,1.4l-.7.7-.7.7.7-1.4c0-.7.7-.7.7-1.4.7-.7.7-1.4,1.4-2.8v.7c.7,0,.7-1.4.7-2.1-.7,0,0-1.4,0-2.1.1-.2.1-.4.2-.6ZM96.5,44.2v1.4s0-2.8-.7-3.5c.7,0,.7,1.4.7,2.1ZM58.2,5.2c-.7-.7,0-.7.7,0h-.7ZM65.9,9.4c-.7.7-.7,0-.7,0h.7ZM47.1,3.8h-1.4c.7-.7,1.4-.7,1.4,0ZM36.9,4.2h-.2c-.1,0-.2.1-.3.1l.7-.4c0,0-.1.2-.2.2ZM2.6,40v-1.4c.7.7,0,1.4,0,1.4ZM21.4,13.6c-1.4.7-2.1,1.4-3.5,2.1.7,0,.7-.7,1.4-1.4,2.1-.7,3.5-2.1,5.6-2.8-1.4.7-2.8,1.4-3.5,2.1ZM39.5,5.9s.3-.2.7-.4c-.2.1-.4.2-.7.4ZM7.5,46.3c0-.7.7-.7,0,0h0ZM4.7,61.6c.5.5.6,1.3.6,2-.6-.7-.6-1.3-.6-2ZM6.1,67.1q.7.7.7,1.4c0,.3,0,.5,0,.7-.4-.5-.8-1.1-.8-2.1ZM8.2,72c-.3,0-.5-.3-.6-.7,0-.3,0-.7,0-.7,0,.3,0,.5,0,.7,0,.2.3.3.6.7l.7,1.4s-.7-.7-.7-1.4ZM9.5,74.8c.3.3.5.7.8,1-.4-.5-.8-1-.8-1.7-.3-.9-.6-1.6-.9-2.3,0,0,0,.1.2.2,0,0,1.4,1.4.7,2.1.4.4.8,1.1,1.3,1.9-.5-.6-.6-1.3-1.3-1.9l1.3,1.9c0,0,0,.2.1.3,0,.2,0,.3,0,.4-.2-.3-.5-.5-.7-.8.2.3.5.6.7.9,0,0,0,0,0,.1-.4-.7-.9-1.5-1.5-2.1ZM11.1,76.9c0,.2.2.3.5.6l.7.7c0,.2,0,.4,0,.6-.5-.6-.9-1.2-1.3-1.9ZM20,86.6l-.7-.7s.2,0,.4.2c.3.1.6.3.7.7-.2-.2-.5-.4-.7-.6.1.1.2.2.2.4ZM22,87.3s0,0-.1,0c0,0,0,0,.2,0h0ZM68,83.1l.7-.7,1.4-.7c0,.7-1.4,1.4-2.1,1.4ZM73.6,19.8c-.7-.7-2.1-1.4-2.8-2.1.7,0,1.4.7,1.4.7.7,0,1.4.7,1.4,1.4ZM72.9,15c.7.7,1.4.7,1.4.7l.7.7-1.4-.7-.7-.7ZM73.6,21.2l-.7-.7s.7,0,.7.7ZM71.5,79.7c.7-.7,2.1-.7,2.8-1.4-.7.7-2.1,1.4-2.8,2.1-1.4.7-2.1.7-3.5,1.4,0,0,0-.7.7-.7,0,0,.7-.7,1.4-.7s.7-.7,1.4-.7ZM72.9,85.2l.7-.7c-.7.7-.7,1.4-.7.7ZM69.4,85.2c2.1-.7,4.2-2.1,6.3-2.8-2.1,1.4-4.2,2.1-6.3,2.8ZM74.9,80.3c-.7,0,0-.7,0,0h0ZM76.3,79c-.7.7-.7,0,0,0h0ZM75.6,23.3c0-.7.7,0,0,0h0ZM77.7,78.3l1.4-1.4-.7.7c-.3.3-.5.5-.7.7ZM77.2,73.6c.2-.5.7-1,1.2-1.6l.3-.3c.8-.1.3.3-.3.3,0,.5-.8,1-1.2,1.6ZM79.1,79.7c0-.7.7-.7.7-.7l-.7.7ZM79,78.9c.4-.5.8-1,.8-.6-.2.2-.5.4-.8.6ZM80.5,77.6c0-.3.3-.5.8-.8-.3.3-.5.5-.8.8ZM81.2,76.2c-.7,0,0-.7.7-.7.7-.7.7-1.4,1.4-1.4,0-.7.7-.7.7-.7l-.7.7c0,.7-.7.7-.7.7l-.7.7c-.7,0-.7.7-.7.7ZM83.3,31s-.7-.7-.7-1.4q.7.7.7,1.4c.7,0,.7.7,0,0ZM83.3,71.3l-.7,1.4c0-.7.7-1.4.7-1.4ZM84,72c.7-.7.7-1.4,1.4-1.4.2-.2.5-.5.7-.7-.7,1.4-1.4,2.1-2.1,2.1.7,0,0,.7,0,0,0,.7-.7.7-.7,1.4-.7.7-1.4,1.4-2.1,2.1.7-.7,2.1-2.1,2.8-3.5ZM84.7,73.4h0c-.2.2-.5.5-.7.7,0,0,0-.7.7-.7ZM83.3,75.5c0,.7-.7.7,0,0h0ZM82.6,76.2c.8-.8,1.5-1.7,2.1-2.5v.4c-.7.7-1.4,1.4-2.1,2.1ZM85.2,76.6c-.1.3-.3.6-.7.7.2-.2.4-.5.6-.7-.1.1-.2.2-.4.2l.7-.7s0,.2-.2.4ZM87.1,74.6c.1-.2.3-.4.4-.5,0,0,0,.3-.4.5ZM88.2,69.9c-.9,1.3-2,2.6-3.3,3.9.6-.7,1.3-1.9,1.9-2.5l1.4-2.1v-.3c.5-.6.9-1.3,1.4-1.8.7-2,1.9-3.4,2.6-5.2-1.2,2.8-2.6,5.6-4,8ZM86.4,69.6c.3-.3.7-.7,1-1,0,0,0,.7-.7.7l-.3.3ZM93,31c-.7-.7-.7-1.4-1.4-2.1l.7.7s0,.7.7,1.4ZM90.9,26.8s.7.7.7,1.4c0,0-.7-.7-.7-1.4ZM90.9,24c-.7,0-.7-.7-.7-.7l.7.7ZM90.2,24l.7,2.1-.7-1.4c0-.7-.6-1.3-.7-2,.4.4.7.9.7,1.3ZM92.3,32.3l-.3-.3c-.1-.2-.2-.5-.3-.7-.5-.8-.8-1.5-.8-2.5-.7-1.4-1.4-2.8-2.1-4.2,0-.7-.7-1.4-.7-1.4,0-.7-.7-.7-.7-1.4h0c.5.7,1,1.4,1.4,2.1.7.7,4.2,8.3,3.5,8.3ZM88.9,21.9c.2.2.4.5.6.7-.6,0-.6,0-.6-.7ZM86.8,17.7c.6.9,1.2,1.7,1.7,2.5.3.5.5.9.9,1.4-.3-.5-.6-.9-.9-1.4,0-.1-.2-.3-.3-.4-.7-.7-1.4-1.4-1.4-2.1ZM88,26.7c-.2-1.9-.7-3-1.3-4.1-.7-1.4-1.4-2.1-2.1-3.5,1.4,1.4,2.1,3.5,2.8,4.9.7.7.7,2.1,1.4,2.8l.7,1.4s.7.7.7,1.4.7,1.4.7,2.1c0-.7-.7-1.4-1.4-2.1,0,.7.7,2.1,1.4,3.5.7,1.4.7,2.8,1.4,3.5v-.7c.7.7.7,1.4.7,2.8,0-1.4-.7-1.4-.7-2.1,0,1.4.7,2.1.7,3.5v1.4c.7,0,0,1.4.7,2.1v-4.2c0-1.2-.2-2.4-.5-3.6.4.7.5,1.7.5,2.2,0,1.4,0,2.1.7,3.5v11.8c0,.7,0,2.1-.7,2.8,0,.7-.7,2.1-.7,2.8,0,0,0,.2,0,.5.2-.4.5-.9.7-1.2-.4,1.1-.9,2.2-1.4,3.3,0-.5.2-1,.3-1.4,0,0-.2.2-.3.2v-1.4s0,2.1-.7,1.4c-.2,0-.2-.1-.3-.2-.1.5-.2,1-.3,1.6.4.1-.1.7-.1,1.3v-.7s0,1.1-.5,1.3c-.2.7-.4,1.3-.9,2.2,0-.7.7-2.1.7-2.8s0-.7.7-1.4v-.7s0-.6.2-1c-.2-.3-.2-.6-.2-1.1.3-.7.5-1.4.7-2v-2.2c0,.7,0,1.4-.7,1.4,0,1.4-.7,2.1-.7,3.5-.5,1-.7,2-1,3-.2.2-.3.6-.3.9,0,0,0,.1,0,.2h0c0,.3,0,.7,0,.7,0,.7-.7,1.4-.7,2.1l-.7.7c0,.7-.7.7-.7,1.4l-.7.7c0-.7.7-.7.7-1.4s.7-.7.7-1.4c.6-.6,1.1-1.7,1.3-2.4,0,.2-.2.3-.6.3l-.7,1.4c-.7.7-1.4,1.4-1.4,2.8-1-.3-1.5-.3-1.8-.2,0,0-.1.2-.3.2,0,0,0,0,0,0-.1,0-.2.2-.3.3.1-.2.3-.4.4-.6.1-.7.7-1.7,1.2-1.8,1.2-1.9,2.1-3.7,2.9-5.6.7-2.1,1.4-4.2,2.1-6.3,0-.7.7-4.9.7-4.9v2.1c.7-2.8.7-5.6.7-8.3s0-2.1-.7-2.8c-.1,0-.1,0-.2,0,.1.3.2.6.2.6v1.4c0-.7-.7-1.4-.7-2.1l.7.7s-.4-.5-.2-.6c-.2-.7-.5-1.7-.5-2.2,0,0,.7.7.7,1.4v-2.8c0-1.4-.7-2.1-1.4-3.5-.3-.7-.7-1.5-.9-2.4-.2-.3-.5-.6-.5-1.1.2.2.2.4.3.5,0-.2,0-.3,0-.5-.3-.5-.5-1-.9-1.4l.7.7s0,.3.2.7c0-.5-.2-1-.2-1.4,0-.8,0-1.5-.1-2.1-.5,0-.6,0-.6-.7l.6.6ZM88.2,60.2l-.7.7c0-.5.3-1,.5-1.5.2-.4.2-.6.2-.6v1.4q0,.7-.7,1.4s-.7.7-.7,1.4c0-.7.7-2.1,1.4-2.8ZM86.8,57.4c0-.2.1-.4.2-.6.2.2-.2.6-.2.6ZM88.2,53.9c0,.7-.7,2.1-.7,2.8,0-1.4.7-2.1.7-2.8ZM88.2,42.8v2.1c-.7,0,0-2.1,0-2.1ZM88.9,51.8v1.4q-.7-.7,0-1.4ZM86.1,24.7c.2.2.3.3.7.7,0,0,0,.2.1.4l.6,1.7c-.7,0-.7-1.4-.7-1.4l-.7-1.4c-.7,0-.7-.7-.7-.7.3.3.5.5.7.7ZM85.4,28.9c0,.7.7.7.7,1.4s.7.7.7,1.4v1.4c0,.7.7,1.4.7,2.1v-2.1c0-.3,0-.6,0-1,.4.7.8,1.4.8,2.4s0,1.4.7,2.1v2.5c0,0,0,.3,0,.3v.7l-.7-.7v-.7c.7-.7,0-1.4-.7-2.1v2.1s-.7-.7-.7-1.4v1.4c0,.7,0,1.4.7,2.1v-.7c0,.4.2.8.4,1.4-.1-.2-.2-.5-.4-.7v4.2c0,.7.7,1.4,0,2.1v1.4c0,.7,0,2.1-.7,2.8,0,.7,0,1.4-.7,2.8v-1.4c0,.7-.7,1.4-.7,1.4v-13.2c0-2.1-.7-4.2-.7-6.3s-.4-1.4-.5-2.2c-.1,0-.2-.2-.2-.6,0-1.4-.7-2.1-.7-2.8l.7.7c.7,0,0-.7,0-1.4s0-.7-.7-1.4c0,0-.4,0-.6-.6-.4-.2-.6-.8-.1-.8.2.2.4.5.6.7,0,0,0,0,0,0,0,0,0-.1-.2-.3,0,0,0,0,0,0,0,0,.1.2.1.3,0,0,0,0,0,0,.4.5.7.9.7,1.4s1.6,3.3,1.9,3.9c0-.1,0-.3.2-.4,0,0,0,.7.7.7,0-.4-.2-.5-.4-.6-.2-.4-.3-.8-.3-.8-.7-.7-1.4-1.4-1.4-2.1l.7.7ZM82.2,24.8s0,0-.1-.1c0,0,.1,0,.2,0,0,0,0,.2.1.2,0,0-.1,0-.2,0ZM83.7,22.8c0,0,.1,0,.2,0-.1.4-.3.2-.2,0ZM85,27.7c0,0-.1-.2-.3-.2.2,0,.2,0,.2-.2,0,.1,0,.3.1.4ZM84.7,26.8c0,.1,0,.2.1.3-.2-.4-.6-.8-.1-.3ZM83.9,22.5s0,0,0,0c-.5,0-.6-.5-.6-.6.2.2.4.4.6.6ZM83.3,22c0,.1,0,.2,0,.3-.2-.2-.4-.4-.8-.4l-.7-.7c-.2-.2-.5-.5-.7-.7,1,.5,1.6,1,2.1,1.5ZM79.1,16.3c.7.7,1.2,1.3,1.7,2,1,.7,1.8,1.7,1.8,2.2-.7-.7-1.4-1.4-2.8-2.1l-.7-.7c.7-.7,0-1.4,0-1.4ZM77.7,20.5c.7.7,1.4,1.4,2.1,2.1l.7.7s0,0,0,0c.4.5.8.9.8,1.4.7.7.7,1.4.7,1.4l.7,1.4-.7-.7c0,.2.1.3.2.4-.3-.2-.6-.4-.9-.4,0,0,.7.7.7,1.4s.1.3.2.4c-.3-.2-.6-.4-.9-.4l-.7-1.4-.7-.7c-.5-.5-.7-1-1-1.5-.6-.2-1.1-.6-1.1-.6.5,0,.7.3,1,.5-.1-.2-.2-.3-.3-.5,0-2.1-1.4-3.5-2.8-4.9.7.7,1.4.7,2.1,1.4ZM75.6,17.7l1.4,1.4c-.7,0-1.4-1.4-1.4-1.4ZM76.3,17.7c-.7-.7-1.4-.7-1.4-1.4.5.5.9.9,1.4,1.4ZM75.6,18.4c-.7-.7-1.4-.7-1.4-1.4,0,0,.7,0,.7.7l.7.7ZM72.9,13.6l1.4.7h-.7c0,.2.1.2.2.3,0,0,0,0,.1,0,0,0,0,0-.1,0,.1.1.2.2.4.2.4.3.7.5.7.8-.7,0-.7-.7-1.4-.7-.7-.7-1.4-.7-1.4-.7,0-.3.5-.2,1.1,0-.2-.2-.4-.5-.4-.8ZM72.2,13.6l-.7-.7s.7,0,.7.7ZM70.1,12.2s.7,0,.7.7c-.3-.3-.7-.5-1-.7h.3ZM68.7,11.5c0,.5-.3.3-.7,0,.2,0,.5,0,.7,0ZM69.4,12.9s.7,0,.7.7c0,0,2.1.7,1.4.7h-1.4c.2-.2.3-.3.5-.3-.4-.2-.8-.4-1.2-.4-.7-.7-1.4-1.4-2.8-2.1l2.8,1.4ZM65.9,15.6s.4,0,.9.4c-.2,0-.3,0-.5,0,.3.2.6.4,1,.4l.6.6c.4.2.8.5.8.8h-.7s.7,0,1.4.7h-.7c-.7,0-1.4-.7-2.1-.7h.7l-.7-.7c-.7-1.4-1.4-1.4-2.1-2.1q.7,0,1.4.7ZM65.9,83.8c-1.4.7-2.8,1.4-4.9,1.4,1.4-.7,3.5-.7,4.9-1.4ZM63.1,90.1s.4,0,.8,0c0,0,0,0,0,0,0,.7-.7.7-1.4.7h-.7c.7,0,1.4-.7,1.4-.7ZM60.4,89c.2-.1.4-.1.6-.3h1.4c-.7,0-1.4.2-2,.3ZM64.5,93.6s-1.4.7-2.1.7l2.1-.7ZM63.1,92.2q.7-.7,1.4-.7c-.7,0-1.4.7-1.4.7ZM62.7,89.3c.6-.2,1.2-.3,1.8-.6-.5.5-1.2.6-1.8.6ZM62.6,15.1l.5.5c-.3-.3-.5-.5-.7-.6-.2,0-.3,0-.7,0,0,0,.3,0,.7,0,0,0,0,0,.2,0ZM60.3,13.6c.7,0,.7.7,1.4.7-.7,0-1.4,0-1.4-.7ZM60.3,12.9c.6,0,.7.4,1.1.6-.4-.2-.8-.4-1.1-.6ZM58.9,9.4c0,.7-.7,0-.7,0h.7ZM58.9,12.2h.7l1.4.7c-.4,0-.7-.1-1.1-.2,0,0,0-.2-.3-.5,0,.2,0,.4.2.4-1-.2-2-.6-2.9-1.1.7,0,1.4,0,2.1.7ZM54.8,85.9c1.4,0,3.5-.7,4.9-.7-1.4.7-2.8.7-4.9.7ZM57.5,88.7c-.7.7-1.4.7-1.4.7l.7-.7h.7ZM36,10.8c2.1-.7,3.5-.7,5.6-1.4-1.4.7-2.8.7-4.2,1.4h-1.4c-1.4.7-2.8.7-3.5,1.4.7-.7,2.1-1.4,3.5-1.4ZM31.1,14.3c2.1-.7,4.2-2.1,7-2.1s2.1-.7,3.5-.7h.7c-.7,0-1.4.7-2.1.7h.7c-.4,0-.7.2-1.1.4.1-.1.2-.2.4-.4-4.2,1.4-4.9,1.4-6.3,2.1,0,0-.7,0-1.4.7h-1.1c-.3.2-.6.3-1,.7h-.7c.7,0,0,.7-.7.7l.7-.7c-.7,0-.7.7-1.4.7l-1.4.7s.3-.3.7-.7l-.4.2c.1,0,.3-.2.4-.3,0,0,0,0,0,0l.2-.2c1-.7,2.1-1.3,3.3-1.9ZM31.2,16.3h0c0,0,0,0,0,.1,0,0,0,0,.1-.1ZM29.7,16.3c0,.7-.7.7,0,0h0ZM29,18.4c.7,0,0,.7,0,0h0ZM26.2,15s.7,0,1.4-.7c.7,0,.7-.7,1.4-.7h.7s-.7.7-1.4.7h-.7c-.5.5-1.4.9-2.1,1.2.2-.2.4-.4.7-.5ZM26.9,17.7c-.7,0,0-.7,0,0h0ZM26.2,18.4c.7-.7,2.1-.7,2.8-1.4-.7.7-1.4.7-2.8,1.4q-.7.7-1.4.7c.7,0,.7-.7,1.4-.7ZM24.2,14.3s-.7.7-1.4.7c.7,0,.7-.7,1.4-.7ZM22.1,15.6c-.7.7-.7,0,0,0h0ZM22.1,20.5l-1.4,1.4,1.4-1.4s0,0,0,0ZM20,17l.7-.7c0,.7-.7.7-.7.7,0,.7-.7.7-1.4,1.4q.7-.7,1.4-1.4ZM22.1,17c-.5.5-.7.9-.9,1.4-.6.5-1.2,1-1.2,1.4,0,0,0,0,0,0l-1.4,1.4c-.7,0-.7.7-1.4,1.4s-1.4,1.4-2.1,2.1c-.3.3-.6.7-.9,1.1,0-.2.2-.3.2-.4,0-.7.7-1.4.7-2.1,2.1-2.1,4.2-4.2,7-6.3ZM15.1,25.4l.7-.7c0,.7-.7.7-.7.7ZM15.8,25.4l-.7.7s0-.7.7-.7ZM12.3,32.3s0-.7.7-.7c0-.7.7-1.4.7-1.4,0,.7-.7.7-.7,1.4-.7.7-1.4,1.4-2.1,2.8v-.7l.7-1.4v.7l.7-.7ZM12.3,29.6l.7-.7s0,.7-.7.7ZM13,27.5s0-.3.4-.5c-.1.2-.3.4-.4.5ZM14.1,30.4c0,0,.1-.2.3-.2,0,0,0,.7-.7.7,0,0,.2-.2.4-.5ZM9.5,32.3v-.7c0-.7.7-.7.7-1.4-.7-.7,0-1.4,0-1.4.7-.7.7-1.4,1.4-1.4v.4c.4-.3.7-.6.7-1.1.7-.7,1.4-2.1,2.1-2.8q0,.7-.7,1.4s-.7,1.4-1.4,1.4c0,0,0,.7-.7,1.4,0,1.4-.7,2.1-.7,2.8,0,0,0,.7-.7,1.4l.7-1.4-1.4,2.8.7-2.8c0,.7-.7,1.4-.7,1.4ZM10.9,45.6s0,.4,0,.3v1.8q-.7-.7,0-2.1ZM10.9,63c0,.7-.7-.7,0,0h0ZM10.2,44.9v-.7c-.2.7-.3,1.4-.7,2.1,0-1.4,0-2.1.7-3.5,0-.7,0-2.1.7-2.1v1.4c-.3.7-.5,1.4-.7,2.1,0,0,.7.7,0,.7ZM9.5,60.9v2c-.5-2.5-.7-5-.7-7.6,0,.7,1.4,7,1.4,7l-.7-1.4ZM10.2,63.6s0-.7-.7-.7c0,0,0,0,0,0,.7,0,.7,0,.7.7ZM9.5,51.8v-2.8c.7.7,0,2.1,0,2.8ZM9.5,36.5l.7-.7-.7,1.4v-.7s-.7,2.1-.7,1.4c0,.7-.7,1.4-.7,2.1v-.7s0-2.1.7-2.1v.7c0-.7.7-1.4.7-1.4ZM8.8,33c0,.7-.7,1.4-.7,1.4l.7-1.4ZM7.5,40v-.7l-.5.9c.2-1.1.6-2.2,1.2-3.7,0,1.4-.7,2.1-.7,3.5ZM8.8,63.6c0-.7,0-1.4-.7-2.1.7,0,.7.7.7.7.7,0,.7,1.4.7,2.1s0,.3,0,.4c-.2-.4-.4-.7-.7-1.1ZM10.2,68.5c0-1.4-.7-2.1-.7-2.8.7.7.7,1.4.7,2.8ZM10.9,71.2c-.6-.6-.6-.7-.6-1.3-.7-.7-.7-1.4-.7-1.4q.7.7.7,1.4c.2.4.4.9.6,1.3ZM9.6,63.2c.1.6.6,1.2.6,1.8.1,0,.2,0,.2,0,0,0,0-.1,0-.2,0-.1-.2-.2-.2-.5.7.7,1.4,2.1,1.4,2.8s.7,1.4.7,2.1c0,0-.7-.7-.7-1.4s-.7-.7-.7-1.4c0,.7.7,1.4.7,2.8-.9-1.9-1.6-3.9-2-6ZM11.6,68.5c.7.7.7,1.4.7,1.4,0,0-.7-.7-.7-1.4ZM12.3,70.6s0-.1,0-.2c.3.2.5.2,0,.2ZM12.4,64.3c0-.3,0-.7,0-.7,0,.3,0,.5,0,.7,0,.2.3.3.6.7-.3,0-.5-.3-.6-.7ZM15.8,75.5c-.3-.3-.5-.7-.7-1,0,0,.2,0,.3.1.2.3.3.5.5.8,0,0,0,0-.1,0ZM15.1,72c0-.7-.7-1.4-.7-2.1s-.7-.7-.7-1.4-.7-1.4-.7-2.1c1.1,2.3,1.8,4.5,3.2,6.8-.3-.2-.5-.7-1.1-1.2ZM15.8,31.6c-.7.7-.7,0,0,0v.7c0,.7-.7.7-.7.7,0,0,0-.7.7-.7-.7,0,0-.7,0-.7ZM15.8,71.3s-.7-.7-.7-1.4l-.7-.7q.7,0,.7.7c.7,0,.7.7.7,1.4ZM14.4,39.3c0-.7.7-.7,0,0h0ZM13,36.5c0-.7.7-1.4.7-2.1l.7-.7c-.7,1.4-.7,2.1-1.4,2.8ZM15.8,69.2c.7,0,.7.7,0,0h0ZM16.2,31.5l.3-.5s0-.7.7-.7c0-.1.1-.3.2-.4-.8-.7-1-.2-1.6.4,0,.7-.7.7-.7,1.4-.2.2-.3.5-.4.7,0-.3,0-.7-.3-.7l-.7,2.1v-.7c0,.7-.7,1.4-.7,2.1,0,0,0,.7-.7,1.4,0,.7,0,1.4-.7,1.4,0,.7-.7.7-.7,1.4,0-1.4.7-2.8,1.4-4.2.7-.7,1.4-2.1,2.1-3.5,1.4-2.1,2.8-4.2,4.9-6.3.7-1.4,2.1-2.8,3.5-3.5.7-.7,1.4-.7,2.1-1.4l.7-.7s.7-.7,1.4-.7l-.7.7s-.7,0-.7.7c.4-.4.9-.6,1.3-.9,0,.2-.2.4-.6.9,0,0,.7-.7,1.4-.7-.7,0-.7.7-1.4.7l-.7.7c-.6.6-1.1.7-1.3,1.2.2-.2.3-.3.6-.5,0,0,.2-.1.2-.2-.3.3-.7.6-.9.9-.7.7-.7,1.4-1.4,1.4l-.6.6c-.2.4-.5.8-.8.8v-.3c-.4.3-.7.7-.9,1,0,0,.1,0,.2,0l-.7.7c.7,0-.7,1.4-.7,1.4-.7,0-.7.7-.7,1.4l-.7.7c-.2-.2-.3-.2-.4-.3-.1.1-.2.2-.3.3,0,.7-.7.7-.7,1.4-.1-.1-.2-.1-.3-.2ZM23.5,83.8l1.4,1.4c-.7,0-.7-.7-1.4-1.4ZM24.9,88.7s-.7,0-.7-.7c.4.4.7.7.7.7ZM22.8,26.1c.7-.7,1.4-2.1,2.8-2.8-.7,1.4-2.1,2.1-2.8,2.8ZM25.5,78.3s0,0,0,0c0,0,0,0,0,0h0ZM25.8,87.6c0,0-.1,0-.2-.1,0,0,0,0,0-.2.1.1.2.2.2.3ZM25.5,76.9c.7,0,.7.7.7.7l-.7-.7ZM27.6,85.9h-.7l-.7-.7,1.4.7ZM21.4,72.7s-.7,0-.7-.7l-.7-.7q-.7,0-.7-.7c0-.7-.7-.7-.7-1.4.7.7,1.4,2.1,2.1,2.8l.7.7ZM17.2,62.3c-.7,0-.7-.7,0,0h0ZM16.5,69.9l.7.7s-.7,0-.7-.7ZM17.2,64.3c.7.7.7,1.4,1.4,2.1.3.3.5.9.7,1.4.2.5.3,1,.7,1.4l-.7-.7s0-.7-.7-.7c0,0-.7-.7,0-1.4-.7-.7-1.4-1.4-1.4-2.1ZM18.6,76.9c0,.4.2.6.4.8-.4-.4-.9-.8-.4-.8ZM18.6,76.2q.7.7,1.4,1.4c-.7-.7-1.4-1.4-1.4-1.4ZM20,72l.7.7c.1.1.3.4.4.6,0,0,.2.1.3.1.5.5.9.9,1.4,1.4,0,0,.7.7.7,1.4,0-.7.7,0,0,0-1.1-1.1-1.8-2.1-2.3-2.9-.6-.1-1.1-.7-1.1-1.3ZM22.8,76.2c0-.3-.1-.4-.3-.6-.1,0-.3,0-.3-.1-.4-.5-.8-.9-.8-1.4l.7.7c0,.4.2.6.4.8.2,0,.3.2.3.6ZM20.7,78.3l.7.7s-.7,0-.7-.7ZM21.4,80.3l-.7-.7s.7,0,.7.7ZM20.7,74.1c0-.3.1,0,.3.3l-.3-.3ZM22.3,81.5c.4.5,1.2,1.1,1.2,1.6-.7-.7-1.4-1.4-2.1-2.1l-.7-.7c.5,0,1.1.8,1.6,1.2ZM21.4,83.1c0-.1,0-.2,0-.3.4.3.7.6.7,1l-.7-.7ZM22.8,83.1l-.7-.7c.7.7,1.4.7.7.7ZM23.8,89.1c.2,0,.3,0,.5.1.4.2.8.4,1.3.8-.3-.3-.7-.5-1.1-.8.1,0,.2,0,.4,0-.2,0-.3-.1-.4-.2-.6-.4-1.2-.8-1.6-1.2l.7.7c.2.2.4.3.6.4-.4-.2-.6-.4-.6-.4,0,0-.1,0-.2,0-.3-.3-.5-.5-.5-.7l2.1,1.4-.7-.7c1.4.7,2.1,1.4,2.8,2.1l.7.7s.7,0,1.4.7h.7c.2.2.3.3.4.4.3.2.6.3,1,.3-.5,0-.7,0-1-.3-.2,0-.3,0-.5-.2,0-.2-.2-.2-.6-.2.2.2.3.2.5.3,0,0,0,0,0,0-.3-.2-.5-.4-.5-.4-.5-.2-.9-.5-1.4-.7-.5,0-2.6-1.3-3.9-2.4ZM29.7,83.1c0,0-.2-.3-.3-.4.3.2.6.4,1,.4.5.5,1.1,1,1.8,1.4-.1-.2-.2-.4-.4-.8,0,0,.7,0,.7.7,0,0,1.2.4,1.8.9.3.2.5.5,1,.5-.3,0-.5,0-.7,0,0,0,0,0,0,0l1.4.7c-.5,0-1.1,0-1.8-.3-.3-.2-.6-.4-1-.4-.7,0-1.4-.7-2.1-1.4s-.7-.7-1.4-1.4l-1.4-.7c.7,0,.7.7,1.4.7ZM30.4,81.7s.7,0,.7.7l-.7-.7ZM31.8,83.1c-.7,0-.7-.7,0,0h0ZM35.3,85.2h.7s.7,0,1.4.7l-1.4-.7c0,.7-.7,0-.7,0-.7,0-1.4-.7-2.1-1.4.7.7,1.4.7,2.1,1.4ZM34.8,83.5c.4.3,1,.3.5.3s-.3-.1-.4-.3c0,0,0,0,0,0ZM33.9,90.1l-.7-.7s.2,0,.4.1c.5.2,1,.6,1,.6,0,0-.4,0-.9-.4,0,.1.2.2.2.4ZM33.9,88.7l-.7-.7-.7-.7s2.1.7,2.1,1.4l2.8,1.4c.4,0,.9.2,1.3.4h0c-.4-.1-.9-.3-1.3-.4.4,0,.6.2.9.4-.1,0-.2.1-.2.3h.7l1.1.3c.1.1.3.2.3.4-.7,0-1.4-.7-2.1-.7-1.4-.7-2.8-.7-4.2-2.1ZM39.8,91c0,0-.2-.1-.3-.2,0,0,.1,0,.1,0,0,0-.2,0-.3,0,0,0,0,0,0,0h0s0,0,0,0c.6,0,1.2.4,1.8.6-.5-.2-1-.3-1.5-.5,0,0,0,.1.1.2ZM39.5,88.7c-.7,0-1.4-.7-2.8-1.4,1.4.7,2.1.7,3.5,1.4l2.1.7c-.7,0-2.8-.7-2.8-.7ZM36,85.9s.6.3,1.2.5c-.7-.2-1.2-.5-1.2-.5ZM32.5,88.7c-.7,0-1.4,0-1.4-.7.7,0,.7.7,1.4.7ZM31.1,86.5c-.2-.2-.4-.3-.7-.6.6,0,.7.5.7.6ZM27.6,92.2c.7.3,1.4.7,2.1,1-.7-.3-1.6-.5-2.1-1ZM29.7,92.6s0,0,0,0c0,0,0,0,0,0,0,0,0,0,0,0ZM30.4,93.6c.1,0,.2,0,.4.1,0,0,0,0,0,0-.1,0-.3-.1-.4-.2ZM30.6,93h0c0,0-.1,0-.2,0h0s0,0,0,0c-.2-.1-.5-.2-.7-.4l.7.4c0,0,.1,0,.2,0,0,0,0,0,0,0,.3.3.8.5,1.2.6-.6,0-.7-.5-1.2-.6ZM31.1,88.7s.7,0,.7.7l-.7-.7ZM32.1,93.5c.5.2,1.1.4,1.8.7-.5,0-1.2-.3-1.8-.7ZM32.9,92.5l1,.3h-.4c-.2-.1-.4-.2-.6-.3ZM33.8,95s0,0,.1,0l1.4.7s-.7-.4-1.5-.7ZM34.6,92.2c.7,0,.7.7,1.4.7-.7,0-1.4-.7-1.4-.7ZM32.5,90.1l3.5,1.4c-1.4,0-2.1-.7-3.5-1.4ZM36,90.8c.7,0,.7.7,0,0h0ZM36.7,95.7h.7c0,.7,0,0-.7,0ZM36.2,93.8c.4.2.8.4,1.2.5-.6,0-.7,0-1.2-.5ZM37.4,92.2l-.7-.7s.7,0,.7.7c1.4.7,2.8.7,3.5,1.4-1.4,0-2.1-.7-3.5-1.4ZM39.9,91.1l1.7.4s-.9,0-1.7-.4ZM42.5,91.6c.4,0,.8.2,1.1.6-.5-.2-1-.3-1.5-.5.1,0,.3,0,.4-.1ZM43.6,95c.7-.7,1.4-.7,1.4,0h-1.4ZM45.3,88.7h-2.4l-2.1-.7h.7c-.7,0-1.4,0-2.1-.7,0-.6.1-.7.3-.8-.3,0-.6-.1-.9-.2,0-.3.3-.2,1,.2.2,0,.4.2.4.2q-.7-.7-1.4-.7s-.7,0-.7-.7l-.7-.7h.4c0,0-.1,0-.2,0,0,0-.2,0-.3-.1-.4-.1-.8-.3-1.3-.5-.7-.7-1.4-.7-2.1-1.4-.6,0-.7-.5-1.3-.6,0,0,0,0,0,0,.2.2.3.3.6.6l.7.7c-.4,0-.8-.3-1.3-.6,0,0,0,0-.1,0,0,0,0,0,.1,0-.3-.2-.5-.5-.8-.7h.7c-.2-.2-.3-.3-.7-.7-.2-.2-.6-.5-.9-.7h-.5c.2.2.3.3.7.7,0,0-.7,0-.7-.7-.2-.2-.3-.3-.7-.7,0,0,.6.3,1.2.7h.2c.7,0,.7.7,1.4.7l-.7-.7s1.4.7.7.7c.7,0,1.4.7,2.1,1.4.7.7,1.4.7,2.1,1.4.6,0,.7,0,1.2.5.2.1.4.3.6.4.3,0,.6.1,1-.2.7,0,1.4.7,1.4.7,0,.4-.2.6-.4.8.2,0,.3.1.4.2-.2,0-.3,0-.5-.1-.1.1-.2.2-.2.5.3-.3.6-.3.9-.3.2,0,.4.1.5.3,0,0,.7.7,1.4.7,0,0,1.4.7,2.1.7h-.7c.7,0,1.4.7,2.1.7h-1.1ZM41.8,86.5c.7-.4,2,.2,3.2.8,0,0,0,0,0,0-1.1-.3-2.2-.5-3.2-.8ZM45.7,88h.7c.6,0,1.2,0,1.8.5-.7-.2-2-.5-2.5-.5ZM48.2,88.5c-.6-.4-1.1-.5-1.1-.5.6,0,1.2,0,1.3.6,0,0-.1,0-.2,0ZM46.4,87.3c0-.7,1.4,0,1.4,0h-1.4ZM47.1,86.6h1.4c0,.7-.7.7-1.4,0ZM49.9,13.6c0-.7.7-.7,0,0h0ZM52,88.7c.7.7,0,.7,0,0h0ZM52,86.6h1.4c-.7,0-.7.7-1.4,0ZM53.7,12.9h-4.5c-.7.7-1.4.7-1.4,0-.2,0-.4.1-.6.2,0-.2.2-.2.6-.2h-3.5c-.7,0-2.1.7-2.8.7h.7l-4.2,1.4h-1.4c-.5.5-1.1.7-1.6,1.1,0-.1.2-.2.2-.4-.7,0-1.4.7-2.1,1.4-.3,0-.7.2-1,.3l-.3.3h.7c0-.7.7-.7,0,0,.7,0,.7-.7,1.4-.7h.7s.7-.7,1.4-.7l1.4-.7c-2.1,1.4-2.8,1.4-3.5,2.1h.7l-2.4,1.2c.1-.1.3-.2.3-.5l-1.4.7c-.7,0-.7.7-1.4.7-1.3,0-2,.6-2.6.7.4-.2.8-.4,1.3-.7.7-.7,1.4-.7,2.1-1.4.6,0,1.1-.5,1.7-1-.3.2-.7.3-1,.3,0,0-.7.7-1.4.7,0-.7.7-.7,1.4-.7h-.7c.7-.7,1.4-.7,2.1-1.4.7,0,1.4-.7,2.1-1.4-.7,0-.7.7-1.4.7s-1.1.4-1.7.6c0,0,0-.1.1-.2.8-.4,1.6-.7,2.3-1.1,1.6-.6,3.1-1.1,4.7-1.4-.2,0-.4,0-.5,0q.7-.7,1.4-.7c.2,0,.5,0,.7,0,0,0,0,0,0,0,0,0,0,0,0,0,.4,0,.9-.2,1.3-.6-.6.6-1.3,1-1.9,1.2,1.5-.3,3.1-.5,4.6-.5h-1.4s2.1-.7,2.8-.7,2.1,0,2.8-.7h5.6l2.8.7h-3.5l4.2.7h-3.9ZM56.9,95c.6,0,1.7-.5,2-.2-.6.1-1.2.2-2,.2ZM56.2,91.5h-2.1c.7-.7,1.4,0,2.1,0s1.4,0,2.1-.7c.7,0,1.4-.7,2.1,0h.7c-1.4.7-3.5.7-4.9.7ZM61.7,91.5h-2.1s1.4-.7,2.1,0ZM60.3,92.2h1.4s-1.4.7-1.4,0ZM67.4,95.2c-.5.2-1,.5-1.5.5h-.7l1.4-.7h1.4s-.3,0-.6.2ZM65.9,94.8c-.5.3-1,.6-1.4.7,0,.1-.2.2-.6.2l.4-.2c0,0,.1-.2.2-.3-1.3.3-2.4.5-2.7.5.7,0,2.1-.7,2.8-.7,1.4-.7,2.1-1.4,3.5-1.4,0,0,.7-.7.7,0s-1.3.8-2.8,1.2ZM82.6,83.8c-.7.7-1.4,1.4-2.1,2.1-.7,0-1.4.7-1.4.7-.7.7-1.4,1.4-2.8,2.1-2.1.7-4.2,2.1-6.3,2.8l.7-.7c-.7,0-1.4.7-2.1.7s-2.1.7-2.8.7c.9-.4,2-.6,3-1,.4-.2.8-.4,1.1-.4l1.4-.7s-.8.4-1.5.6c.3-.2.6-.3.8-.6-.7,0-1.4.7-2.8.7s-.2,0-.2,0c.7-.4,1.4-.8,2.3-.8,1.4-.7,2.8-.7,4.2-1.4h-.7l.7-.7c0-.7.7-.7,1.4-.7-.7,0-1.4.7-1.4.7.7,0,1.4-.7,2.1-.7l-.7.7c1.4-.7,2.8-1.4,3.5-2.1,1.3-.8,2.5-1.8,3.8-2.8-.2.2-.3.3-.3.7ZM84,82.4v-.2c.5-.4.9-.7,1.4-1.2l-.7.7c.8-.8,1.8-1.7,2.7-2.6-1.5,1.6-3.4,3.8-3.4,3.3ZM91.6,76.2c.7-.7,1.4-2.1,2.1-2.8.7-.7.7-1.4,1.4-2.1,0,0,0-.7.7-.7-1.4,2.1-2.8,4.2-4.2,5.6Z"/>
  <polygon points="11.6 69.9 11.6 69.9 11.6 69.9 11.6 69.9"/>
</svg>