<svg width="229" height="222" viewBox="0 0 229 222" fill="none" xmlns="http://www.w3.org/2000/svg">
<g clip-path="url(#clip0_186_115)">
<mask id="mask0_186_115" style="mask-type:luminance" maskUnits="userSpaceOnUse" x="19" y="16" width="192" height="189">
<path d="M210.21 16.1H19.67V204.76H210.21V16.1Z" fill="white"/>
</mask>
<g mask="url(#mask0_186_115)">
<path d="M66.74 55.28H94.42C94.95 55.28 95.39 55.71 95.39 56.25C95.39 56.78 94.96 57.22 94.42 57.22H66.74C66.21 57.22 65.77 56.79 65.77 56.25C65.77 55.72 66.2 55.28 66.74 55.28Z" fill="#D5DADF"/>
<path d="M66.74 49.47H100.22C100.75 49.47 101.19 49.9 101.19 50.44C101.19 50.97 100.76 51.41 100.22 51.41H66.74C66.21 51.41 65.77 50.98 65.77 50.44C65.77 49.91 66.2 49.47 66.74 49.47Z" fill="#D5DADF"/>
<path d="M66.74 64.07H78.64C79.17 64.07 79.61 64.5 79.61 65.04C79.61 65.57 79.18 66.01 78.64 66.01H66.74C66.21 66.01 65.77 65.58 65.77 65.04C65.77 64.51 66.2 64.07 66.74 64.07Z" fill="#D5DADF"/>
<path d="M60.57 44.16H21.55V73.12H60.57V44.16Z" fill="#E6E9EC"/>
<path d="M36.7 57.74C38.1139 57.74 39.26 56.5939 39.26 55.18C39.26 53.7662 38.1139 52.62 36.7 52.62C35.2862 52.62 34.14 53.7662 34.14 55.18C34.14 56.5939 35.2862 57.74 36.7 57.74Z" fill="#F8F9FA"/>
<path d="M60.56 55.7V73.13H21.55V63.95C24.63 61.29 29.16 59.14 33.18 64.16C40.05 72.76 41.96 57.29 51.93 53.43C55.36 52.1 58.26 53.43 60.57 55.71L60.56 55.7Z" fill="#F8F9FA"/>
<path d="M160.92 60.9C160.69 60.82 160.51 60.73 160.38 60.63C160.25 60.53 160.18 60.44 160.18 60.36C160.18 60.3 160.2 60.23 160.25 60.14C160.3 60.05 160.35 59.97 160.41 59.89C160.47 59.82 160.52 59.78 160.55 59.78C160.56 59.78 160.58 59.78 160.59 59.8C160.6 59.81 160.62 59.82 160.64 59.83C160.7 59.86 160.74 59.88 160.78 59.9H160.8C161.05 60.04 161.31 60.14 161.58 60.23C161.85 60.31 162.17 60.34 162.53 60.31C162.95 60.28 163.27 60.18 163.5 60.01C163.73 59.84 163.84 59.55 163.84 59.15C163.84 58.88 163.77 58.65 163.64 58.47C163.51 58.29 163.34 58.14 163.14 58.02C162.94 57.91 162.67 57.78 162.33 57.65C162.32 57.65 162.3 57.64 162.29 57.63C162.28 57.63 162.26 57.63 162.25 57.61C161.57 57.34 161.08 57.04 160.78 56.7C160.47 56.37 160.32 55.97 160.32 55.5C160.32 55.12 160.41 54.78 160.59 54.49C160.77 54.2 161.03 53.98 161.38 53.82C161.73 53.66 162.15 53.58 162.64 53.58C162.86 53.58 163.12 53.61 163.41 53.67C163.7 53.73 163.94 53.8 164.13 53.89C164.32 53.98 164.42 54.08 164.42 54.19C164.42 54.24 164.4 54.31 164.36 54.4C164.32 54.49 164.27 54.57 164.22 54.65C164.17 54.72 164.12 54.76 164.09 54.76C164.07 54.76 164.01 54.74 163.91 54.69L163.76 54.62C163.4 54.45 163.02 54.36 162.6 54.36C162.18 54.36 161.86 54.46 161.61 54.66C161.36 54.86 161.24 55.13 161.24 55.47C161.24 55.68 161.3 55.87 161.43 56.02C161.55 56.17 161.71 56.3 161.89 56.4C162.07 56.5 162.33 56.62 162.67 56.76H162.7C163.43 57.08 163.95 57.41 164.29 57.77C164.62 58.13 164.79 58.55 164.79 59.05C164.79 59.7 164.59 60.21 164.19 60.58C163.79 60.95 163.21 61.14 162.44 61.15C161.93 61.15 161.44 61.08 160.95 60.9H160.92ZM162.26 61.65V53.18C162.26 53.05 162.35 52.99 162.54 52.99H162.59C162.77 52.99 162.87 53.05 162.87 53.18V61.65C162.87 61.78 162.78 61.84 162.59 61.84H162.54C162.35 61.84 162.26 61.78 162.26 61.65Z" fill="#A4AFB7"/>
<path d="M165.46 61.06C165.39 61.03 165.35 60.99 165.35 60.92C165.35 60.87 165.38 60.81 165.44 60.73L167.17 58.22L165.57 55.85C165.51 55.77 165.48 55.71 165.48 55.66C165.48 55.54 165.64 55.48 165.97 55.48H166.07C166.19 55.48 166.29 55.49 166.36 55.51C166.43 55.53 166.49 55.57 166.53 55.64L167.54 57.17C167.59 57.24 167.63 57.3 167.66 57.36C167.69 57.41 167.71 57.46 167.73 57.49L167.76 57.54L167.79 57.49C167.85 57.38 167.91 57.27 167.98 57.17L169 55.63C169.04 55.57 169.09 55.53 169.18 55.51C169.26 55.49 169.36 55.48 169.48 55.48H169.52C169.68 55.48 169.79 55.5 169.86 55.52C169.93 55.55 169.97 55.59 169.97 55.66C169.97 55.71 169.94 55.77 169.88 55.85L168.27 58.2L170 60.73C170.06 60.81 170.09 60.87 170.09 60.92C170.09 61.04 169.93 61.1 169.6 61.1H169.5C169.38 61.1 169.28 61.09 169.21 61.07C169.14 61.05 169.08 61.01 169.04 60.94L167.91 59.24C167.86 59.17 167.82 59.11 167.79 59.05C167.76 59 167.74 58.95 167.72 58.92C167.71 58.89 167.69 58.87 167.69 58.87L167.66 58.92C167.6 59.03 167.54 59.14 167.47 59.24L166.32 60.95C166.28 61.01 166.22 61.05 166.14 61.07C166.06 61.09 165.96 61.1 165.84 61.1H165.81C165.65 61.1 165.53 61.08 165.46 61.06Z" fill="#A4AFB7"/>
<path d="M170.64 61.06C170.57 61.03 170.53 60.99 170.53 60.92C170.53 60.87 170.56 60.81 170.62 60.73L172.35 58.22L170.75 55.85C170.69 55.77 170.66 55.71 170.66 55.66C170.66 55.54 170.82 55.48 171.15 55.48H171.25C171.37 55.48 171.47 55.49 171.54 55.51C171.61 55.53 171.67 55.57 171.71 55.64L172.72 57.17C172.77 57.24 172.81 57.3 172.84 57.36C172.87 57.41 172.89 57.46 172.91 57.49L172.94 57.54L172.97 57.49C173.03 57.38 173.09 57.27 173.16 57.17L174.18 55.63C174.22 55.57 174.27 55.53 174.36 55.51C174.44 55.49 174.54 55.48 174.66 55.48H174.7C174.86 55.48 174.97 55.5 175.04 55.52C175.11 55.55 175.15 55.59 175.15 55.66C175.15 55.71 175.12 55.77 175.06 55.85L173.45 58.2L175.18 60.73C175.24 60.81 175.27 60.87 175.27 60.92C175.27 61.04 175.11 61.1 174.78 61.1H174.68C174.56 61.1 174.46 61.09 174.39 61.07C174.32 61.05 174.26 61.01 174.22 60.94L173.09 59.24C173.04 59.17 173 59.11 172.97 59.05C172.94 59 172.92 58.95 172.9 58.92C172.89 58.89 172.87 58.87 172.87 58.87L172.84 58.92C172.78 59.03 172.72 59.14 172.65 59.24L171.5 60.95C171.46 61.01 171.4 61.05 171.32 61.07C171.24 61.09 171.14 61.1 171.02 61.1H170.99C170.83 61.1 170.71 61.08 170.64 61.06Z" fill="#A4AFB7"/>
<path d="M175.82 61.06C175.75 61.03 175.71 60.99 175.71 60.92C175.71 60.87 175.74 60.81 175.8 60.73L177.53 58.22L175.93 55.85C175.87 55.77 175.84 55.71 175.84 55.66C175.84 55.54 176 55.48 176.33 55.48H176.43C176.55 55.48 176.65 55.49 176.72 55.51C176.79 55.53 176.85 55.57 176.89 55.64L177.9 57.17C177.95 57.24 177.99 57.3 178.02 57.36C178.05 57.41 178.07 57.46 178.09 57.49L178.12 57.54L178.15 57.49C178.21 57.38 178.27 57.27 178.34 57.17L179.36 55.63C179.4 55.57 179.45 55.53 179.54 55.51C179.62 55.49 179.72 55.48 179.84 55.48H179.88C180.04 55.48 180.15 55.5 180.22 55.52C180.29 55.55 180.33 55.59 180.33 55.66C180.33 55.71 180.3 55.77 180.24 55.85L178.63 58.2L180.36 60.73C180.42 60.81 180.45 60.87 180.45 60.92C180.45 61.04 180.29 61.1 179.96 61.1H179.86C179.74 61.1 179.64 61.09 179.57 61.07C179.5 61.05 179.44 61.01 179.4 60.94L178.27 59.24C178.22 59.17 178.18 59.11 178.15 59.05C178.12 59 178.1 58.95 178.08 58.92C178.07 58.89 178.05 58.87 178.05 58.87L178.02 58.92C177.96 59.03 177.9 59.14 177.83 59.24L176.68 60.95C176.64 61.01 176.58 61.05 176.5 61.07C176.42 61.09 176.32 61.1 176.2 61.1H176.17C176.01 61.1 175.89 61.08 175.82 61.06Z" fill="#A4AFB7"/>
<path d="M181.22 60.87V60.17C181.22 60.01 181.36 59.94 181.65 59.94H181.83C182.11 59.94 182.26 60.02 182.26 60.17V60.87C182.26 61.03 182.12 61.11 181.83 61.11H181.65C181.37 61.11 181.22 61.03 181.22 60.87Z" fill="#A4AFB7"/>
<path d="M183.11 61.06C183.04 61.03 183 60.99 183 60.92C183 60.87 183.03 60.81 183.09 60.73L184.82 58.22L183.22 55.85C183.16 55.77 183.13 55.71 183.13 55.66C183.13 55.54 183.29 55.48 183.62 55.48H183.72C183.84 55.48 183.94 55.49 184.01 55.51C184.08 55.53 184.14 55.57 184.18 55.64L185.19 57.17C185.24 57.24 185.28 57.3 185.31 57.36C185.34 57.41 185.36 57.46 185.38 57.49L185.41 57.54L185.44 57.49C185.5 57.38 185.56 57.27 185.63 57.17L186.65 55.63C186.69 55.57 186.74 55.53 186.83 55.51C186.91 55.49 187.01 55.48 187.13 55.48H187.17C187.33 55.48 187.44 55.5 187.51 55.52C187.58 55.55 187.62 55.59 187.62 55.66C187.62 55.71 187.59 55.77 187.53 55.85L185.92 58.2L187.65 60.73C187.71 60.81 187.74 60.87 187.74 60.92C187.74 61.04 187.58 61.1 187.25 61.1H187.15C187.03 61.1 186.93 61.09 186.86 61.07C186.79 61.05 186.73 61.01 186.69 60.94L185.56 59.24C185.51 59.17 185.47 59.11 185.44 59.05C185.41 59 185.39 58.95 185.37 58.92C185.36 58.89 185.34 58.87 185.34 58.87L185.31 58.92C185.25 59.03 185.19 59.14 185.12 59.24L183.97 60.95C183.93 61.01 183.87 61.05 183.79 61.07C183.71 61.09 183.61 61.1 183.49 61.1H183.46C183.3 61.1 183.18 61.08 183.11 61.06Z" fill="#A4AFB7"/>
<path d="M203.08 53.88H205.59C206.62 53.88 207.45 54.71 207.45 55.74H201.21C201.21 54.71 202.04 53.88 203.07 53.88H203.08Z" fill="#E6E9EC"/>
<path d="M204.34 54.73C204.809 54.73 205.19 54.3495 205.19 53.88C205.19 53.4106 204.809 53.03 204.34 53.03C203.871 53.03 203.49 53.4106 203.49 53.88C203.49 54.3495 203.871 54.73 204.34 54.73Z" fill="#E6E9EC"/>
<path d="M206.34 61.4H202.34C201.99 61.4 201.69 61.13 201.66 60.78L201.23 56.27H207.47L207.04 60.78C207.01 61.13 206.71 61.4 206.36 61.4H206.34Z" fill="#E6E9EC"/>
<path d="M26.56 170.43H47.04C47.57 170.43 48.01 170.86 48.01 171.4C48.01 171.93 47.58 172.37 47.04 172.37H26.56C26.03 172.37 25.59 171.94 25.59 171.4C25.59 170.87 26.02 170.43 26.56 170.43Z" fill="#D5DADF"/>
<path d="M89.64 170.43H103.12C103.65 170.43 104.09 170.86 104.09 171.4C104.09 171.93 103.66 172.37 103.12 172.37H89.64C89.11 172.37 88.67 171.94 88.67 171.4C88.67 170.87 89.1 170.43 89.64 170.43Z" fill="#D5DADF"/>
<path d="M152.82 169.9H166.3C166.83 169.9 167.27 170.33 167.27 170.87C167.27 171.4 166.84 171.84 166.3 171.84H152.82C152.29 171.84 151.85 171.41 151.85 170.87C151.85 170.34 152.28 169.9 152.82 169.9Z" fill="#D5DADF"/>
<path d="M89.64 178.37H111.12C111.65 178.37 112.09 178.8 112.09 179.34C112.09 179.87 111.66 180.31 111.12 180.31H89.64C89.11 180.31 88.67 179.88 88.67 179.34C88.67 178.81 89.1 178.37 89.64 178.37Z" fill="#D5DADF"/>
<path d="M89.64 183.62H118.12C118.65 183.62 119.09 184.05 119.09 184.59C119.09 185.12 118.66 185.56 118.12 185.56H89.64C89.11 185.56 88.67 185.13 88.67 184.59C88.67 184.06 89.1 183.62 89.64 183.62Z" fill="#D5DADF"/>
<path d="M89.64 188.87H118.12C118.65 188.87 119.09 189.3 119.09 189.84C119.09 190.37 118.66 190.81 118.12 190.81H89.64C89.11 190.81 88.67 190.38 88.67 189.84C88.67 189.31 89.1 188.87 89.64 188.87Z" fill="#D5DADF"/>
<path d="M89.64 194.69H118.12C118.65 194.69 119.09 195.12 119.09 195.66C119.09 196.19 118.66 196.63 118.12 196.63H89.64C89.11 196.63 88.67 196.2 88.67 195.66C88.67 195.13 89.1 194.69 89.64 194.69Z" fill="#D5DADF"/>
<path d="M66.74 95.63H94.42C94.95 95.63 95.39 96.06 95.39 96.6C95.39 97.13 94.96 97.57 94.42 97.57H66.74C66.21 97.57 65.77 97.14 65.77 96.6C65.77 96.07 66.2 95.63 66.74 95.63Z" fill="#D5DADF"/>
<path d="M66.74 89.83H100.22C100.75 89.83 101.19 90.26 101.19 90.8C101.19 91.33 100.76 91.77 100.22 91.77H66.74C66.21 91.77 65.77 91.34 65.77 90.8C65.77 90.27 66.2 89.83 66.74 89.83Z" fill="#D5DADF"/>
<path d="M66.74 104.43H78.64C79.17 104.43 79.61 104.86 79.61 105.4C79.61 105.93 79.18 106.37 78.64 106.37H66.74C66.21 106.37 65.77 105.94 65.77 105.4C65.77 104.87 66.2 104.43 66.74 104.43Z" fill="#D5DADF"/>
<path d="M60.57 84.52H21.55V113.48H60.57V84.52Z" fill="#E6E9EC"/>
<path d="M36.7 98.09C38.1139 98.09 39.26 96.9439 39.26 95.53C39.26 94.1162 38.1139 92.97 36.7 92.97C35.2862 92.97 34.14 94.1162 34.14 95.53C34.14 96.9439 35.2862 98.09 36.7 98.09Z" fill="#F8F9FA"/>
<path d="M60.56 96.06V113.49H21.55V104.31C24.63 101.65 29.16 99.5 33.18 104.52C40.05 113.12 41.96 97.65 51.93 93.79C55.36 92.46 58.26 93.79 60.57 96.07L60.56 96.06Z" fill="#F8F9FA"/>
<path d="M160.92 101.25C160.69 101.17 160.51 101.08 160.38 100.98C160.25 100.88 160.18 100.79 160.18 100.71C160.18 100.65 160.2 100.58 160.25 100.49C160.3 100.4 160.35 100.32 160.41 100.24C160.47 100.17 160.52 100.13 160.55 100.13C160.56 100.13 160.58 100.13 160.59 100.15C160.6 100.16 160.62 100.17 160.64 100.18C160.7 100.21 160.74 100.23 160.78 100.25H160.8C161.05 100.39 161.31 100.49 161.58 100.58C161.85 100.66 162.17 100.69 162.53 100.66C162.95 100.63 163.27 100.53 163.5 100.36C163.73 100.19 163.84 99.9 163.84 99.5C163.84 99.23 163.77 99 163.64 98.82C163.51 98.64 163.34 98.49 163.14 98.37C162.94 98.26 162.67 98.13 162.33 98C162.32 98 162.3 97.99 162.29 97.98C162.28 97.98 162.26 97.98 162.25 97.96C161.57 97.69 161.08 97.39 160.78 97.05C160.47 96.72 160.32 96.32 160.32 95.85C160.32 95.47 160.41 95.13 160.59 94.84C160.77 94.55 161.03 94.33 161.38 94.17C161.73 94.01 162.15 93.93 162.64 93.93C162.86 93.93 163.12 93.96 163.41 94.02C163.7 94.08 163.94 94.15 164.13 94.24C164.32 94.33 164.42 94.43 164.42 94.54C164.42 94.59 164.4 94.66 164.36 94.75C164.32 94.84 164.27 94.92 164.22 95C164.17 95.07 164.12 95.11 164.09 95.11C164.07 95.11 164.01 95.09 163.91 95.04L163.76 94.97C163.4 94.8 163.02 94.71 162.6 94.71C162.18 94.71 161.86 94.81 161.61 95.01C161.36 95.21 161.24 95.48 161.24 95.82C161.24 96.03 161.3 96.22 161.43 96.37C161.55 96.52 161.71 96.65 161.89 96.75C162.07 96.85 162.33 96.97 162.67 97.11H162.7C163.43 97.43 163.95 97.76 164.29 98.12C164.62 98.48 164.79 98.9 164.79 99.4C164.79 100.05 164.59 100.56 164.19 100.93C163.79 101.3 163.21 101.49 162.44 101.5C161.93 101.5 161.44 101.43 160.95 101.25H160.92ZM162.26 102V93.53C162.26 93.4 162.35 93.34 162.54 93.34H162.59C162.77 93.34 162.87 93.4 162.87 93.53V102C162.87 102.13 162.78 102.19 162.59 102.19H162.54C162.35 102.19 162.26 102.13 162.26 102Z" fill="#A4AFB7"/>
<path d="M165.46 101.41C165.39 101.38 165.35 101.34 165.35 101.27C165.35 101.22 165.38 101.16 165.44 101.08L167.17 98.57L165.57 96.2C165.51 96.12 165.48 96.06 165.48 96.01C165.48 95.89 165.64 95.83 165.97 95.83H166.07C166.19 95.83 166.29 95.84 166.36 95.86C166.43 95.88 166.49 95.92 166.53 95.99L167.54 97.52C167.59 97.59 167.63 97.65 167.66 97.71C167.69 97.76 167.71 97.81 167.73 97.84L167.76 97.89L167.79 97.84C167.85 97.73 167.91 97.62 167.98 97.52L169 95.98C169.04 95.92 169.09 95.88 169.18 95.86C169.26 95.84 169.36 95.83 169.48 95.83H169.52C169.68 95.83 169.79 95.85 169.86 95.87C169.93 95.9 169.97 95.94 169.97 96.01C169.97 96.06 169.94 96.12 169.88 96.2L168.27 98.55L170 101.08C170.06 101.16 170.09 101.22 170.09 101.27C170.09 101.39 169.93 101.45 169.6 101.45H169.5C169.38 101.45 169.28 101.44 169.21 101.42C169.14 101.4 169.08 101.36 169.04 101.29L167.91 99.59C167.86 99.52 167.82 99.46 167.79 99.4C167.76 99.35 167.74 99.3 167.72 99.27C167.71 99.24 167.69 99.22 167.69 99.22L167.66 99.27C167.6 99.38 167.54 99.49 167.47 99.59L166.32 101.3C166.28 101.36 166.22 101.4 166.14 101.42C166.06 101.44 165.96 101.45 165.84 101.45H165.81C165.65 101.45 165.53 101.43 165.46 101.41Z" fill="#A4AFB7"/>
<path d="M170.64 101.41C170.57 101.38 170.53 101.34 170.53 101.27C170.53 101.22 170.56 101.16 170.62 101.08L172.35 98.57L170.75 96.2C170.69 96.12 170.66 96.06 170.66 96.01C170.66 95.89 170.82 95.83 171.15 95.83H171.25C171.37 95.83 171.47 95.84 171.54 95.86C171.61 95.88 171.67 95.92 171.71 95.99L172.72 97.52C172.77 97.59 172.81 97.65 172.84 97.71C172.87 97.76 172.89 97.81 172.91 97.84L172.94 97.89L172.97 97.84C173.03 97.73 173.09 97.62 173.16 97.52L174.18 95.98C174.22 95.92 174.27 95.88 174.36 95.86C174.44 95.84 174.54 95.83 174.66 95.83H174.7C174.86 95.83 174.97 95.85 175.04 95.87C175.11 95.9 175.15 95.94 175.15 96.01C175.15 96.06 175.12 96.12 175.06 96.2L173.45 98.55L175.18 101.08C175.24 101.16 175.27 101.22 175.27 101.27C175.27 101.39 175.11 101.45 174.78 101.45H174.68C174.56 101.45 174.46 101.44 174.39 101.42C174.32 101.4 174.26 101.36 174.22 101.29L173.09 99.59C173.04 99.52 173 99.46 172.97 99.4C172.94 99.35 172.92 99.3 172.9 99.27C172.89 99.24 172.87 99.22 172.87 99.22L172.84 99.27C172.78 99.38 172.72 99.49 172.65 99.59L171.5 101.3C171.46 101.36 171.4 101.4 171.32 101.42C171.24 101.44 171.14 101.45 171.02 101.45H170.99C170.83 101.45 170.71 101.43 170.64 101.41Z" fill="#A4AFB7"/>
<path d="M175.82 101.41C175.75 101.38 175.71 101.34 175.71 101.27C175.71 101.22 175.74 101.16 175.8 101.08L177.53 98.57L175.93 96.2C175.87 96.12 175.84 96.06 175.84 96.01C175.84 95.89 176 95.83 176.33 95.83H176.43C176.55 95.83 176.65 95.84 176.72 95.86C176.79 95.88 176.85 95.92 176.89 95.99L177.9 97.52C177.95 97.59 177.99 97.65 178.02 97.71C178.05 97.76 178.07 97.81 178.09 97.84L178.12 97.89L178.15 97.84C178.21 97.73 178.27 97.62 178.34 97.52L179.36 95.98C179.4 95.92 179.45 95.88 179.54 95.86C179.62 95.84 179.72 95.83 179.84 95.83H179.88C180.04 95.83 180.15 95.85 180.22 95.87C180.29 95.9 180.33 95.94 180.33 96.01C180.33 96.06 180.3 96.12 180.24 96.2L178.63 98.55L180.36 101.08C180.42 101.16 180.45 101.22 180.45 101.27C180.45 101.39 180.29 101.45 179.96 101.45H179.86C179.74 101.45 179.64 101.44 179.57 101.42C179.5 101.4 179.44 101.36 179.4 101.29L178.27 99.59C178.22 99.52 178.18 99.46 178.15 99.4C178.12 99.35 178.1 99.3 178.08 99.27C178.07 99.24 178.05 99.22 178.05 99.22L178.02 99.27C177.96 99.38 177.9 99.49 177.83 99.59L176.68 101.3C176.64 101.36 176.58 101.4 176.5 101.42C176.42 101.44 176.32 101.45 176.2 101.45H176.17C176.01 101.45 175.89 101.43 175.82 101.41Z" fill="#A4AFB7"/>
<path d="M181.22 101.22V100.52C181.22 100.36 181.36 100.29 181.65 100.29H181.83C182.11 100.29 182.26 100.37 182.26 100.52V101.22C182.26 101.38 182.12 101.46 181.83 101.46H181.65C181.37 101.46 181.22 101.38 181.22 101.22Z" fill="#A4AFB7"/>
<path d="M183.11 101.41C183.04 101.38 183 101.34 183 101.27C183 101.22 183.03 101.16 183.09 101.08L184.82 98.57L183.22 96.2C183.16 96.12 183.13 96.06 183.13 96.01C183.13 95.89 183.29 95.83 183.62 95.83H183.72C183.84 95.83 183.94 95.84 184.01 95.86C184.08 95.88 184.14 95.92 184.18 95.99L185.19 97.52C185.24 97.59 185.28 97.65 185.31 97.71C185.34 97.76 185.36 97.81 185.38 97.84L185.41 97.89L185.44 97.84C185.5 97.73 185.56 97.62 185.63 97.52L186.65 95.98C186.69 95.92 186.74 95.88 186.83 95.86C186.91 95.84 187.01 95.83 187.13 95.83H187.17C187.33 95.83 187.44 95.85 187.51 95.87C187.58 95.9 187.62 95.94 187.62 96.01C187.62 96.06 187.59 96.12 187.53 96.2L185.92 98.55L187.65 101.08C187.71 101.16 187.74 101.22 187.74 101.27C187.74 101.39 187.58 101.45 187.25 101.45H187.15C187.03 101.45 186.93 101.44 186.86 101.42C186.79 101.4 186.73 101.36 186.69 101.29L185.56 99.59C185.51 99.52 185.47 99.46 185.44 99.4C185.41 99.35 185.39 99.3 185.37 99.27C185.36 99.24 185.34 99.22 185.34 99.22L185.31 99.27C185.25 99.38 185.19 99.49 185.12 99.59L183.97 101.3C183.93 101.36 183.87 101.4 183.79 101.42C183.71 101.44 183.61 101.45 183.49 101.45H183.46C183.3 101.45 183.18 101.43 183.11 101.41Z" fill="#A4AFB7"/>
<path d="M203.08 94.23H205.59C206.62 94.23 207.45 95.06 207.45 96.09H201.21C201.21 95.06 202.04 94.23 203.07 94.23H203.08Z" fill="#E6E9EC"/>
<path d="M204.34 95.08C204.809 95.08 205.19 94.6995 205.19 94.23C205.19 93.7606 204.809 93.38 204.34 93.38C203.871 93.38 203.49 93.7606 203.49 94.23C203.49 94.6995 203.871 95.08 204.34 95.08Z" fill="#E6E9EC"/>
<path d="M206.34 101.75H202.34C201.99 101.75 201.69 101.48 201.66 101.13L201.23 96.62H207.47L207.04 101.13C207.01 101.48 206.71 101.75 206.36 101.75H206.34Z" fill="#E6E9EC"/>
<path d="M66.74 135.98H94.42C94.95 135.98 95.39 136.41 95.39 136.95C95.39 137.48 94.96 137.92 94.42 137.92H66.74C66.21 137.92 65.77 137.49 65.77 136.95C65.77 136.42 66.2 135.98 66.74 135.98Z" fill="#D5DADF"/>
<path d="M66.74 130.18H100.22C100.75 130.18 101.19 130.61 101.19 131.15C101.19 131.68 100.76 132.12 100.22 132.12H66.74C66.21 132.12 65.77 131.69 65.77 131.15C65.77 130.62 66.2 130.18 66.74 130.18Z" fill="#D5DADF"/>
<path d="M66.74 144.78H78.64C79.17 144.78 79.61 145.21 79.61 145.75C79.61 146.28 79.18 146.72 78.64 146.72H66.74C66.21 146.72 65.77 146.29 65.77 145.75C65.77 145.22 66.2 144.78 66.74 144.78Z" fill="#D5DADF"/>
<path d="M60.57 124.87H21.55V153.83H60.57V124.87Z" fill="#E6E9EC"/>
<path d="M36.7 138.45C38.1139 138.45 39.26 137.304 39.26 135.89C39.26 134.476 38.1139 133.33 36.7 133.33C35.2862 133.33 34.14 134.476 34.14 135.89C34.14 137.304 35.2862 138.45 36.7 138.45Z" fill="#F8F9FA"/>
<path d="M60.56 136.41V153.84H21.55V144.66C24.63 142 29.16 139.85 33.18 144.87C40.05 153.47 41.96 138 51.93 134.14C55.36 132.81 58.26 134.14 60.57 136.42L60.56 136.41Z" fill="#F8F9FA"/>
<path d="M160.92 141.61C160.69 141.53 160.51 141.44 160.38 141.34C160.25 141.24 160.18 141.15 160.18 141.07C160.18 141.01 160.2 140.94 160.25 140.85C160.3 140.76 160.35 140.68 160.41 140.6C160.47 140.53 160.52 140.49 160.55 140.49C160.56 140.49 160.58 140.49 160.59 140.51C160.6 140.52 160.62 140.53 160.64 140.54C160.7 140.57 160.74 140.59 160.78 140.61H160.8C161.05 140.75 161.31 140.85 161.58 140.94C161.85 141.02 162.17 141.05 162.53 141.02C162.95 140.99 163.27 140.89 163.5 140.72C163.73 140.55 163.84 140.26 163.84 139.86C163.84 139.59 163.77 139.36 163.64 139.18C163.51 139 163.34 138.85 163.14 138.73C162.94 138.62 162.67 138.49 162.33 138.36C162.32 138.36 162.3 138.35 162.29 138.34C162.28 138.34 162.26 138.34 162.25 138.32C161.57 138.05 161.08 137.75 160.78 137.41C160.47 137.08 160.32 136.68 160.32 136.21C160.32 135.83 160.41 135.49 160.59 135.2C160.77 134.91 161.03 134.69 161.38 134.53C161.73 134.37 162.15 134.29 162.64 134.29C162.86 134.29 163.12 134.32 163.41 134.38C163.7 134.44 163.94 134.51 164.13 134.6C164.32 134.69 164.42 134.79 164.42 134.9C164.42 134.95 164.4 135.02 164.36 135.11C164.32 135.2 164.27 135.28 164.22 135.36C164.17 135.43 164.12 135.47 164.09 135.47C164.07 135.47 164.01 135.45 163.91 135.4L163.76 135.33C163.4 135.16 163.02 135.07 162.6 135.07C162.18 135.07 161.86 135.17 161.61 135.37C161.36 135.57 161.24 135.84 161.24 136.18C161.24 136.39 161.3 136.58 161.43 136.73C161.55 136.88 161.71 137.01 161.89 137.11C162.07 137.21 162.33 137.33 162.67 137.47H162.7C163.43 137.79 163.95 138.12 164.29 138.48C164.62 138.84 164.79 139.26 164.79 139.76C164.79 140.41 164.59 140.92 164.19 141.29C163.79 141.66 163.21 141.85 162.44 141.86C161.93 141.86 161.44 141.79 160.95 141.61H160.92ZM162.26 142.35V133.88C162.26 133.75 162.35 133.69 162.54 133.69H162.59C162.77 133.69 162.87 133.75 162.87 133.88V142.35C162.87 142.48 162.78 142.54 162.59 142.54H162.54C162.35 142.54 162.26 142.48 162.26 142.35Z" fill="#A4AFB7"/>
<path d="M165.46 141.77C165.39 141.74 165.35 141.7 165.35 141.63C165.35 141.58 165.38 141.52 165.44 141.44L167.17 138.93L165.57 136.56C165.51 136.48 165.48 136.42 165.48 136.37C165.48 136.25 165.64 136.19 165.97 136.19H166.07C166.19 136.19 166.29 136.2 166.36 136.22C166.43 136.24 166.49 136.28 166.53 136.35L167.54 137.88C167.59 137.95 167.63 138.01 167.66 138.07C167.69 138.12 167.71 138.17 167.73 138.2L167.76 138.25L167.79 138.2C167.85 138.09 167.91 137.98 167.98 137.88L169 136.34C169.04 136.28 169.09 136.24 169.18 136.22C169.26 136.2 169.36 136.19 169.48 136.19H169.52C169.68 136.19 169.79 136.21 169.86 136.23C169.93 136.26 169.97 136.3 169.97 136.37C169.97 136.42 169.94 136.48 169.88 136.56L168.27 138.91L170 141.44C170.06 141.52 170.09 141.58 170.09 141.63C170.09 141.75 169.93 141.81 169.6 141.81H169.5C169.38 141.81 169.28 141.8 169.21 141.78C169.14 141.76 169.08 141.72 169.04 141.65L167.91 139.95C167.86 139.88 167.82 139.82 167.79 139.76C167.76 139.71 167.74 139.66 167.72 139.63C167.71 139.6 167.69 139.58 167.69 139.58L167.66 139.63C167.6 139.74 167.54 139.85 167.47 139.95L166.32 141.66C166.28 141.72 166.22 141.76 166.14 141.78C166.06 141.8 165.96 141.81 165.84 141.81H165.81C165.65 141.81 165.53 141.79 165.46 141.77Z" fill="#A4AFB7"/>
<path d="M170.64 141.77C170.57 141.74 170.53 141.7 170.53 141.63C170.53 141.58 170.56 141.52 170.62 141.44L172.35 138.93L170.75 136.56C170.69 136.48 170.66 136.42 170.66 136.37C170.66 136.25 170.82 136.19 171.15 136.19H171.25C171.37 136.19 171.47 136.2 171.54 136.22C171.61 136.24 171.67 136.28 171.71 136.35L172.72 137.88C172.77 137.95 172.81 138.01 172.84 138.07C172.87 138.12 172.89 138.17 172.91 138.2L172.94 138.25L172.97 138.2C173.03 138.09 173.09 137.98 173.16 137.88L174.18 136.34C174.22 136.28 174.27 136.24 174.36 136.22C174.44 136.2 174.54 136.19 174.66 136.19H174.7C174.86 136.19 174.97 136.21 175.04 136.23C175.11 136.26 175.15 136.3 175.15 136.37C175.15 136.42 175.12 136.48 175.06 136.56L173.45 138.91L175.18 141.44C175.24 141.52 175.27 141.58 175.27 141.63C175.27 141.75 175.11 141.81 174.78 141.81H174.68C174.56 141.81 174.46 141.8 174.39 141.78C174.32 141.76 174.26 141.72 174.22 141.65L173.09 139.95C173.04 139.88 173 139.82 172.97 139.76C172.94 139.71 172.92 139.66 172.9 139.63C172.89 139.6 172.87 139.58 172.87 139.58L172.84 139.63C172.78 139.74 172.72 139.85 172.65 139.95L171.5 141.66C171.46 141.72 171.4 141.76 171.32 141.78C171.24 141.8 171.14 141.81 171.02 141.81H170.99C170.83 141.81 170.71 141.79 170.64 141.77Z" fill="#A4AFB7"/>
<path d="M175.82 141.77C175.75 141.74 175.71 141.7 175.71 141.63C175.71 141.58 175.74 141.52 175.8 141.44L177.53 138.93L175.93 136.56C175.87 136.48 175.84 136.42 175.84 136.37C175.84 136.25 176 136.19 176.33 136.19H176.43C176.55 136.19 176.65 136.2 176.72 136.22C176.79 136.24 176.85 136.28 176.89 136.35L177.9 137.88C177.95 137.95 177.99 138.01 178.02 138.07C178.05 138.12 178.07 138.17 178.09 138.2L178.12 138.25L178.15 138.2C178.21 138.09 178.27 137.98 178.34 137.88L179.36 136.34C179.4 136.28 179.45 136.24 179.54 136.22C179.62 136.2 179.72 136.19 179.84 136.19H179.88C180.04 136.19 180.15 136.21 180.22 136.23C180.29 136.26 180.33 136.3 180.33 136.37C180.33 136.42 180.3 136.48 180.24 136.56L178.63 138.91L180.36 141.44C180.42 141.52 180.45 141.58 180.45 141.63C180.45 141.75 180.29 141.81 179.96 141.81H179.86C179.74 141.81 179.64 141.8 179.57 141.78C179.5 141.76 179.44 141.72 179.4 141.65L178.27 139.95C178.22 139.88 178.18 139.82 178.15 139.76C178.12 139.71 178.1 139.66 178.08 139.63C178.07 139.6 178.05 139.58 178.05 139.58L178.02 139.63C177.96 139.74 177.9 139.85 177.83 139.95L176.68 141.66C176.64 141.72 176.58 141.76 176.5 141.78C176.42 141.8 176.32 141.81 176.2 141.81H176.17C176.01 141.81 175.89 141.79 175.82 141.77Z" fill="#A4AFB7"/>
<path d="M181.22 141.58V140.88C181.22 140.72 181.36 140.65 181.65 140.65H181.83C182.11 140.65 182.26 140.73 182.26 140.88V141.58C182.26 141.74 182.12 141.82 181.83 141.82H181.65C181.37 141.82 181.22 141.74 181.22 141.58Z" fill="#A4AFB7"/>
<path d="M183.11 141.77C183.04 141.74 183 141.7 183 141.63C183 141.58 183.03 141.52 183.09 141.44L184.82 138.93L183.22 136.56C183.16 136.48 183.13 136.42 183.13 136.37C183.13 136.25 183.29 136.19 183.62 136.19H183.72C183.84 136.19 183.94 136.2 184.01 136.22C184.08 136.24 184.14 136.28 184.18 136.35L185.19 137.88C185.24 137.95 185.28 138.01 185.31 138.07C185.34 138.12 185.36 138.17 185.38 138.2L185.41 138.25L185.44 138.2C185.5 138.09 185.56 137.98 185.63 137.88L186.65 136.34C186.69 136.28 186.74 136.24 186.83 136.22C186.91 136.2 187.01 136.19 187.13 136.19H187.17C187.33 136.19 187.44 136.21 187.51 136.23C187.58 136.26 187.62 136.3 187.62 136.37C187.62 136.42 187.59 136.48 187.53 136.56L185.92 138.91L187.65 141.44C187.71 141.52 187.74 141.58 187.74 141.63C187.74 141.75 187.58 141.81 187.25 141.81H187.15C187.03 141.81 186.93 141.8 186.86 141.78C186.79 141.76 186.73 141.72 186.69 141.65L185.56 139.95C185.51 139.88 185.47 139.82 185.44 139.76C185.41 139.71 185.39 139.66 185.37 139.63C185.36 139.6 185.34 139.58 185.34 139.58L185.31 139.63C185.25 139.74 185.19 139.85 185.12 139.95L183.97 141.66C183.93 141.72 183.87 141.76 183.79 141.78C183.71 141.8 183.61 141.81 183.49 141.81H183.46C183.3 141.81 183.18 141.79 183.11 141.77Z" fill="#A4AFB7"/>
<path d="M203.08 134.58H205.59C206.62 134.58 207.45 135.41 207.45 136.44H201.21C201.21 135.41 202.04 134.58 203.07 134.58H203.08Z" fill="#E6E9EC"/>
<path d="M204.34 135.43C204.809 135.43 205.19 135.049 205.19 134.58C205.19 134.111 204.809 133.73 204.34 133.73C203.871 133.73 203.49 134.111 203.49 134.58C203.49 135.049 203.871 135.43 204.34 135.43Z" fill="#E6E9EC"/>
<path d="M206.34 142.1H202.34C201.99 142.1 201.69 141.83 201.66 141.48L201.23 136.97H207.47L207.04 141.48C207.01 141.83 206.71 142.1 206.36 142.1H206.34Z" fill="#E6E9EC"/>
<path d="M76.59 178.24H26.3C25.7808 178.24 25.36 178.661 25.36 179.18V185.21C25.36 185.729 25.7808 186.15 26.3 186.15H76.59C77.1091 186.15 77.53 185.729 77.53 185.21V179.18C77.53 178.661 77.1091 178.24 76.59 178.24Z" fill="#E6E9EC"/>
<path d="M76.59 189.15H26.3C25.7808 189.15 25.36 189.571 25.36 190.09V196.12C25.36 196.639 25.7808 197.06 26.3 197.06H76.59C77.1091 197.06 77.53 196.639 77.53 196.12V190.09C77.53 189.571 77.1091 189.15 76.59 189.15Z" stroke="#E6E9EC" stroke-width="0.42" stroke-miterlimit="10"/>
<path d="M77.64 164.83H24.82C23.014 164.83 21.55 166.294 21.55 168.1V198.42C21.55 200.226 23.014 201.69 24.82 201.69H77.64C79.446 201.69 80.91 200.226 80.91 198.42V168.1C80.91 166.294 79.446 164.83 77.64 164.83Z" stroke="#E6E9EC" stroke-width="0.43" stroke-miterlimit="10"/>
<path d="M133.57 180.29C133.51 180.27 133.46 180.24 133.42 180.22C133.38 180.19 133.37 180.17 133.37 180.15C133.37 180.13 133.37 180.11 133.39 180.09C133.41 180.07 133.42 180.04 133.43 180.02C133.45 180 133.46 179.99 133.47 179.99C133.47 179.99 133.47 179.99 133.48 179.99C133.48 179.99 133.48 179.99 133.49 179.99C133.51 179.99 133.52 180 133.53 180.01C133.6 180.05 133.67 180.08 133.74 180.1C133.81 180.12 133.9 180.13 134 180.12C134.11 180.12 134.2 180.08 134.26 180.04C134.32 179.99 134.35 179.92 134.35 179.81C134.35 179.74 134.33 179.67 134.3 179.62C134.26 179.57 134.22 179.53 134.16 179.5C134.1 179.47 134.03 179.44 133.94 179.4C133.94 179.4 133.94 179.4 133.93 179.4C133.93 179.4 133.93 179.4 133.92 179.4C133.74 179.33 133.6 179.24 133.52 179.15C133.44 179.06 133.4 178.95 133.4 178.83C133.4 178.73 133.42 178.63 133.47 178.56C133.52 178.48 133.59 178.42 133.68 178.38C133.77 178.34 133.89 178.31 134.02 178.31C134.08 178.31 134.15 178.31 134.23 178.33C134.31 178.35 134.37 178.37 134.42 178.39C134.47 178.42 134.5 178.44 134.5 178.47C134.5 178.48 134.5 178.5 134.48 178.53C134.47 178.56 134.46 178.58 134.44 178.6C134.43 178.62 134.41 178.63 134.4 178.63C134.4 178.63 134.38 178.63 134.35 178.61L134.31 178.59C134.21 178.54 134.11 178.52 133.99 178.52C133.87 178.52 133.79 178.55 133.72 178.6C133.65 178.65 133.62 178.73 133.62 178.82C133.62 178.88 133.64 178.93 133.67 178.97C133.7 179.01 133.75 179.05 133.8 179.07C133.85 179.1 133.92 179.13 134.01 179.17C134.21 179.26 134.35 179.35 134.44 179.44C134.53 179.54 134.57 179.65 134.57 179.79C134.57 179.97 134.52 180.11 134.41 180.21C134.3 180.31 134.14 180.36 133.93 180.37C133.79 180.37 133.66 180.35 133.52 180.3L133.57 180.29ZM133.93 180.5V178.2C133.93 178.2 133.96 178.15 134.01 178.15H134.02C134.07 178.15 134.1 178.17 134.1 178.2V180.5C134.1 180.5 134.07 180.55 134.02 180.55H134.01C133.96 180.55 133.93 180.53 133.93 180.5Z" fill="#E6E9EC"/>
<path d="M134.8 180.34C134.8 180.34 134.77 180.32 134.77 180.3C134.77 180.29 134.77 180.27 134.79 180.25L135.26 179.57L134.83 178.93C134.83 178.93 134.81 178.89 134.81 178.88C134.81 178.85 134.85 178.83 134.94 178.83H134.97C134.97 178.83 135.03 178.83 135.05 178.83C135.07 178.83 135.08 178.85 135.1 178.86L135.38 179.27C135.38 179.27 135.4 179.31 135.41 179.32C135.41 179.33 135.42 179.35 135.43 179.36C135.45 179.33 135.46 179.3 135.48 179.27L135.76 178.85C135.76 178.85 135.79 178.82 135.81 178.82C135.83 178.82 135.86 178.82 135.89 178.82H135.9C135.9 178.82 135.97 178.82 135.99 178.83C136.01 178.83 136.02 178.85 136.02 178.87C136.02 178.88 136.02 178.9 136 178.92L135.56 179.56L136.03 180.25C136.03 180.25 136.05 180.29 136.05 180.3C136.05 180.33 136.01 180.35 135.92 180.35H135.89C135.89 180.35 135.83 180.35 135.81 180.35C135.79 180.35 135.78 180.33 135.76 180.32L135.45 179.86C135.45 179.86 135.43 179.82 135.42 179.81C135.42 179.8 135.41 179.78 135.4 179.77V179.76C135.4 179.76 135.37 179.83 135.35 179.86L135.04 180.32C135.04 180.32 135.01 180.35 134.99 180.35C134.97 180.35 134.94 180.35 134.91 180.35C134.91 180.35 134.83 180.35 134.81 180.34H134.8Z" fill="#E6E9EC"/>
<path d="M136.21 180.34C136.21 180.34 136.18 180.32 136.18 180.3C136.18 180.29 136.18 180.27 136.2 180.25L136.67 179.57L136.24 178.93C136.24 178.93 136.22 178.89 136.22 178.88C136.22 178.85 136.26 178.83 136.35 178.83H136.38C136.38 178.83 136.44 178.83 136.46 178.83C136.48 178.83 136.49 178.85 136.51 178.86L136.79 179.27C136.79 179.27 136.81 179.31 136.82 179.32C136.82 179.33 136.83 179.35 136.84 179.36C136.86 179.33 136.87 179.3 136.89 179.27L137.17 178.85C137.17 178.85 137.2 178.82 137.22 178.82C137.24 178.82 137.27 178.82 137.3 178.82H137.31C137.31 178.82 137.38 178.82 137.4 178.83C137.42 178.83 137.43 178.85 137.43 178.87C137.43 178.88 137.43 178.9 137.41 178.92L136.97 179.56L137.44 180.25C137.44 180.25 137.46 180.29 137.46 180.3C137.46 180.33 137.42 180.35 137.33 180.35H137.3C137.3 180.35 137.24 180.35 137.22 180.35C137.2 180.35 137.19 180.33 137.17 180.32L136.86 179.86C136.86 179.86 136.84 179.82 136.83 179.81C136.83 179.8 136.82 179.78 136.81 179.77V179.76C136.81 179.76 136.78 179.83 136.76 179.86L136.45 180.32C136.45 180.32 136.42 180.35 136.4 180.35C136.38 180.35 136.35 180.35 136.32 180.35C136.32 180.35 136.24 180.35 136.22 180.34H136.21Z" fill="#E6E9EC"/>
<path d="M137.61 180.34C137.61 180.34 137.58 180.32 137.58 180.3C137.58 180.29 137.58 180.27 137.6 180.25L138.07 179.57L137.64 178.93C137.64 178.93 137.62 178.89 137.62 178.88C137.62 178.85 137.66 178.83 137.75 178.83H137.78C137.78 178.83 137.84 178.83 137.86 178.83C137.88 178.83 137.89 178.85 137.91 178.86L138.19 179.27C138.19 179.27 138.21 179.31 138.22 179.32C138.22 179.33 138.23 179.35 138.24 179.36C138.26 179.33 138.27 179.3 138.29 179.27L138.57 178.85C138.57 178.85 138.6 178.82 138.62 178.82C138.64 178.82 138.67 178.82 138.7 178.82H138.71C138.71 178.82 138.78 178.82 138.8 178.83C138.82 178.83 138.83 178.85 138.83 178.87C138.83 178.88 138.83 178.9 138.81 178.92L138.37 179.56L138.84 180.25C138.84 180.25 138.86 180.29 138.86 180.3C138.86 180.33 138.82 180.35 138.73 180.35H138.7C138.7 180.35 138.64 180.35 138.62 180.35C138.6 180.35 138.59 180.33 138.57 180.32L138.26 179.86C138.26 179.86 138.24 179.82 138.23 179.81C138.23 179.8 138.22 179.78 138.21 179.77V179.76C138.21 179.76 138.18 179.83 138.16 179.86L137.85 180.32C137.85 180.32 137.82 180.35 137.8 180.35C137.78 180.35 137.75 180.35 137.72 180.35C137.72 180.35 137.64 180.35 137.62 180.34H137.61Z" fill="#E6E9EC"/>
<path d="M139.08 180.29V180.1C139.08 180.1 139.12 180.04 139.2 180.04H139.25C139.33 180.04 139.37 180.06 139.37 180.1V180.29C139.37 180.29 139.33 180.35 139.25 180.35H139.2C139.12 180.35 139.08 180.33 139.08 180.29Z" fill="#E6E9EC"/>
<path d="M139.59 180.34C139.59 180.34 139.56 180.32 139.56 180.3C139.56 180.29 139.56 180.27 139.58 180.25L140.05 179.57L139.62 178.93C139.62 178.93 139.6 178.89 139.6 178.88C139.6 178.85 139.64 178.83 139.73 178.83H139.76C139.76 178.83 139.82 178.83 139.84 178.83C139.86 178.83 139.87 178.85 139.89 178.86L140.17 179.27C140.17 179.27 140.19 179.31 140.2 179.32C140.2 179.33 140.21 179.35 140.22 179.36C140.24 179.33 140.25 179.3 140.27 179.27L140.55 178.85C140.55 178.85 140.58 178.82 140.6 178.82C140.62 178.82 140.65 178.82 140.68 178.82H140.69C140.69 178.82 140.76 178.82 140.78 178.83C140.8 178.83 140.81 178.85 140.81 178.87C140.81 178.88 140.81 178.9 140.79 178.92L140.35 179.56L140.82 180.25C140.82 180.25 140.84 180.29 140.84 180.3C140.84 180.33 140.8 180.35 140.71 180.35H140.68C140.68 180.35 140.62 180.35 140.6 180.35C140.58 180.35 140.57 180.33 140.55 180.32L140.24 179.86C140.24 179.86 140.22 179.82 140.21 179.81C140.21 179.8 140.2 179.78 140.19 179.77V179.76C140.19 179.76 140.16 179.83 140.14 179.86L139.83 180.32C139.83 180.32 139.8 180.35 139.78 180.35C139.76 180.35 139.73 180.35 139.7 180.35C139.7 180.35 139.62 180.35 139.6 180.34H139.59Z" fill="#E6E9EC"/>
<path d="M133.57 185.55C133.51 185.53 133.46 185.5 133.42 185.48C133.38 185.45 133.37 185.43 133.37 185.41C133.37 185.39 133.37 185.37 133.39 185.35C133.41 185.33 133.42 185.3 133.43 185.28C133.45 185.26 133.46 185.25 133.47 185.25C133.47 185.25 133.47 185.25 133.48 185.25C133.48 185.25 133.48 185.25 133.49 185.25C133.51 185.25 133.52 185.26 133.53 185.27C133.6 185.31 133.67 185.34 133.74 185.36C133.81 185.38 133.9 185.39 134 185.38C134.11 185.38 134.2 185.34 134.26 185.3C134.32 185.25 134.35 185.18 134.35 185.07C134.35 185 134.33 184.93 134.3 184.88C134.26 184.83 134.22 184.79 134.16 184.76C134.1 184.73 134.03 184.7 133.94 184.66C133.94 184.66 133.94 184.66 133.93 184.66C133.93 184.66 133.93 184.66 133.92 184.66C133.74 184.59 133.6 184.5 133.52 184.41C133.44 184.32 133.4 184.21 133.4 184.09C133.4 183.99 133.42 183.89 133.47 183.82C133.52 183.74 133.59 183.68 133.68 183.64C133.77 183.6 133.89 183.57 134.02 183.57C134.08 183.57 134.15 183.57 134.23 183.59C134.31 183.61 134.37 183.63 134.42 183.65C134.47 183.68 134.5 183.7 134.5 183.73C134.5 183.74 134.5 183.76 134.48 183.79C134.47 183.82 134.46 183.84 134.44 183.86C134.43 183.88 134.41 183.89 134.4 183.89C134.4 183.89 134.38 183.89 134.35 183.87L134.31 183.85C134.21 183.8 134.11 183.78 133.99 183.78C133.87 183.78 133.79 183.81 133.72 183.86C133.65 183.91 133.62 183.99 133.62 184.08C133.62 184.14 133.64 184.19 133.67 184.23C133.7 184.27 133.75 184.31 133.8 184.33C133.85 184.36 133.92 184.39 134.01 184.43C134.21 184.52 134.35 184.61 134.44 184.7C134.53 184.8 134.57 184.91 134.57 185.05C134.57 185.23 134.52 185.37 134.41 185.47C134.3 185.57 134.14 185.62 133.93 185.63C133.79 185.63 133.66 185.61 133.52 185.56L133.57 185.55ZM133.93 185.75V183.45C133.93 183.45 133.96 183.4 134.01 183.4H134.02C134.07 183.4 134.1 183.42 134.1 183.45V185.75C134.1 185.75 134.07 185.8 134.02 185.8H134.01C133.96 185.8 133.93 185.78 133.93 185.75Z" fill="#E6E9EC"/>
<path d="M134.8 185.59C134.8 185.59 134.77 185.57 134.77 185.55C134.77 185.54 134.77 185.52 134.79 185.5L135.26 184.82L134.83 184.18C134.83 184.18 134.81 184.14 134.81 184.13C134.81 184.1 134.85 184.08 134.94 184.08H134.97C134.97 184.08 135.03 184.08 135.05 184.08C135.07 184.08 135.08 184.1 135.1 184.11L135.38 184.52C135.38 184.52 135.4 184.56 135.41 184.57C135.41 184.58 135.42 184.6 135.43 184.61C135.45 184.58 135.46 184.55 135.48 184.52L135.76 184.1C135.76 184.1 135.79 184.07 135.81 184.07C135.83 184.07 135.86 184.07 135.89 184.07H135.9C135.9 184.07 135.97 184.07 135.99 184.08C136.01 184.08 136.02 184.1 136.02 184.12C136.02 184.13 136.02 184.15 136 184.17L135.56 184.81L136.03 185.5C136.03 185.5 136.05 185.54 136.05 185.55C136.05 185.58 136.01 185.6 135.92 185.6H135.89C135.89 185.6 135.83 185.6 135.81 185.6C135.79 185.6 135.78 185.58 135.76 185.57L135.45 185.11C135.45 185.11 135.43 185.07 135.42 185.06C135.42 185.05 135.41 185.03 135.4 185.02V185.01C135.4 185.01 135.37 185.08 135.35 185.11L135.04 185.57C135.04 185.57 135.01 185.6 134.99 185.6C134.97 185.6 134.94 185.6 134.91 185.6C134.91 185.6 134.83 185.6 134.81 185.59H134.8Z" fill="#E6E9EC"/>
<path d="M136.21 185.59C136.21 185.59 136.18 185.57 136.18 185.55C136.18 185.54 136.18 185.52 136.2 185.5L136.67 184.82L136.24 184.18C136.24 184.18 136.22 184.14 136.22 184.13C136.22 184.1 136.26 184.08 136.35 184.08H136.38C136.38 184.08 136.44 184.08 136.46 184.08C136.48 184.08 136.49 184.1 136.51 184.11L136.79 184.52C136.79 184.52 136.81 184.56 136.82 184.57C136.82 184.58 136.83 184.6 136.84 184.61C136.86 184.58 136.87 184.55 136.89 184.52L137.17 184.1C137.17 184.1 137.2 184.07 137.22 184.07C137.24 184.07 137.27 184.07 137.3 184.07H137.31C137.31 184.07 137.38 184.07 137.4 184.08C137.42 184.08 137.43 184.1 137.43 184.12C137.43 184.13 137.43 184.15 137.41 184.17L136.97 184.81L137.44 185.5C137.44 185.5 137.46 185.54 137.46 185.55C137.46 185.58 137.42 185.6 137.33 185.6H137.3C137.3 185.6 137.24 185.6 137.22 185.6C137.2 185.6 137.19 185.58 137.17 185.57L136.86 185.11C136.86 185.11 136.84 185.07 136.83 185.06C136.83 185.05 136.82 185.03 136.81 185.02V185.01C136.81 185.01 136.78 185.08 136.76 185.11L136.45 185.57C136.45 185.57 136.42 185.6 136.4 185.6C136.38 185.6 136.35 185.6 136.32 185.6C136.32 185.6 136.24 185.6 136.22 185.59H136.21Z" fill="#E6E9EC"/>
<path d="M137.61 185.59C137.61 185.59 137.58 185.57 137.58 185.55C137.58 185.54 137.58 185.52 137.6 185.5L138.07 184.82L137.64 184.18C137.64 184.18 137.62 184.14 137.62 184.13C137.62 184.1 137.66 184.08 137.75 184.08H137.78C137.78 184.08 137.84 184.08 137.86 184.08C137.88 184.08 137.89 184.1 137.91 184.11L138.19 184.52C138.19 184.52 138.21 184.56 138.22 184.57C138.22 184.58 138.23 184.6 138.24 184.61C138.26 184.58 138.27 184.55 138.29 184.52L138.57 184.1C138.57 184.1 138.6 184.07 138.62 184.07C138.64 184.07 138.67 184.07 138.7 184.07H138.71C138.71 184.07 138.78 184.07 138.8 184.08C138.82 184.08 138.83 184.1 138.83 184.12C138.83 184.13 138.83 184.15 138.81 184.17L138.37 184.81L138.84 185.5C138.84 185.5 138.86 185.54 138.86 185.55C138.86 185.58 138.82 185.6 138.73 185.6H138.7C138.7 185.6 138.64 185.6 138.62 185.6C138.6 185.6 138.59 185.58 138.57 185.57L138.26 185.11C138.26 185.11 138.24 185.07 138.23 185.06C138.23 185.05 138.22 185.03 138.21 185.02V185.01C138.21 185.01 138.18 185.08 138.16 185.11L137.85 185.57C137.85 185.57 137.82 185.6 137.8 185.6C137.78 185.6 137.75 185.6 137.72 185.6C137.72 185.6 137.64 185.6 137.62 185.59H137.61Z" fill="#E6E9EC"/>
<path d="M139.08 185.54V185.35C139.08 185.35 139.12 185.29 139.2 185.29H139.25C139.33 185.29 139.37 185.31 139.37 185.35V185.54C139.37 185.54 139.33 185.6 139.25 185.6H139.2C139.12 185.6 139.08 185.58 139.08 185.54Z" fill="#E6E9EC"/>
<path d="M139.59 185.59C139.59 185.59 139.56 185.57 139.56 185.55C139.56 185.54 139.56 185.52 139.58 185.5L140.05 184.82L139.62 184.18C139.62 184.18 139.6 184.14 139.6 184.13C139.6 184.1 139.64 184.08 139.73 184.08H139.76C139.76 184.08 139.82 184.08 139.84 184.08C139.86 184.08 139.87 184.1 139.89 184.11L140.17 184.52C140.17 184.52 140.19 184.56 140.2 184.57C140.2 184.58 140.21 184.6 140.22 184.61C140.24 184.58 140.25 184.55 140.27 184.52L140.55 184.1C140.55 184.1 140.58 184.07 140.6 184.07C140.62 184.07 140.65 184.07 140.68 184.07H140.69C140.69 184.07 140.76 184.07 140.78 184.08C140.8 184.08 140.81 184.1 140.81 184.12C140.81 184.13 140.81 184.15 140.79 184.17L140.35 184.81L140.82 185.5C140.82 185.5 140.84 185.54 140.84 185.55C140.84 185.58 140.8 185.6 140.71 185.6H140.68C140.68 185.6 140.62 185.6 140.6 185.6C140.58 185.6 140.57 185.58 140.55 185.57L140.24 185.11C140.24 185.11 140.22 185.07 140.21 185.06C140.21 185.05 140.2 185.03 140.19 185.02V185.01C140.19 185.01 140.16 185.08 140.14 185.11L139.83 185.57C139.83 185.57 139.8 185.6 139.78 185.6C139.76 185.6 139.73 185.6 139.7 185.6C139.7 185.6 139.62 185.6 139.6 185.59H139.59Z" fill="#E6E9EC"/>
<path d="M133.57 190.8C133.51 190.78 133.46 190.75 133.42 190.73C133.38 190.7 133.37 190.68 133.37 190.66C133.37 190.64 133.37 190.62 133.39 190.6C133.41 190.58 133.42 190.55 133.43 190.53C133.45 190.51 133.46 190.5 133.47 190.5C133.47 190.5 133.47 190.5 133.48 190.5C133.48 190.5 133.48 190.5 133.49 190.5C133.51 190.5 133.52 190.51 133.53 190.52C133.6 190.56 133.67 190.59 133.74 190.61C133.81 190.63 133.9 190.64 134 190.63C134.11 190.63 134.2 190.59 134.26 190.55C134.32 190.5 134.35 190.43 134.35 190.32C134.35 190.25 134.33 190.18 134.3 190.13C134.26 190.08 134.22 190.04 134.16 190.01C134.1 189.98 134.03 189.95 133.94 189.91C133.94 189.91 133.94 189.91 133.93 189.91C133.93 189.91 133.93 189.91 133.92 189.91C133.74 189.84 133.6 189.75 133.52 189.66C133.44 189.57 133.4 189.46 133.4 189.34C133.4 189.24 133.42 189.14 133.47 189.07C133.52 188.99 133.59 188.93 133.68 188.89C133.77 188.85 133.89 188.82 134.02 188.82C134.08 188.82 134.15 188.82 134.23 188.84C134.31 188.86 134.37 188.88 134.42 188.9C134.47 188.93 134.5 188.95 134.5 188.98C134.5 188.99 134.5 189.01 134.48 189.04C134.47 189.07 134.46 189.09 134.44 189.11C134.43 189.13 134.41 189.14 134.4 189.14C134.4 189.14 134.38 189.14 134.35 189.12L134.31 189.1C134.21 189.05 134.11 189.03 133.99 189.03C133.87 189.03 133.79 189.06 133.72 189.11C133.65 189.16 133.62 189.24 133.62 189.33C133.62 189.39 133.64 189.44 133.67 189.48C133.7 189.52 133.75 189.56 133.8 189.58C133.85 189.61 133.92 189.64 134.01 189.68C134.21 189.77 134.35 189.86 134.44 189.95C134.53 190.05 134.57 190.16 134.57 190.3C134.57 190.48 134.52 190.62 134.41 190.72C134.3 190.82 134.14 190.87 133.93 190.88C133.79 190.88 133.66 190.86 133.52 190.81L133.57 190.8ZM133.93 191V188.7C133.93 188.7 133.96 188.65 134.01 188.65H134.02C134.07 188.65 134.1 188.67 134.1 188.7V191C134.1 191 134.07 191.05 134.02 191.05H134.01C133.96 191.05 133.93 191.03 133.93 191Z" fill="#E6E9EC"/>
<path d="M134.8 190.84C134.8 190.84 134.77 190.82 134.77 190.8C134.77 190.79 134.77 190.77 134.79 190.75L135.26 190.07L134.83 189.43C134.83 189.43 134.81 189.39 134.81 189.38C134.81 189.35 134.85 189.33 134.94 189.33H134.97C134.97 189.33 135.03 189.33 135.05 189.33C135.07 189.33 135.08 189.35 135.1 189.36L135.38 189.77C135.38 189.77 135.4 189.81 135.41 189.82C135.41 189.83 135.42 189.85 135.43 189.86C135.45 189.83 135.46 189.8 135.48 189.77L135.76 189.35C135.76 189.35 135.79 189.32 135.81 189.32C135.83 189.32 135.86 189.32 135.89 189.32H135.9C135.9 189.32 135.97 189.32 135.99 189.33C136.01 189.33 136.02 189.35 136.02 189.37C136.02 189.38 136.02 189.4 136 189.42L135.56 190.06L136.03 190.75C136.03 190.75 136.05 190.79 136.05 190.8C136.05 190.83 136.01 190.85 135.92 190.85H135.89C135.89 190.85 135.83 190.85 135.81 190.85C135.79 190.85 135.78 190.83 135.76 190.82L135.45 190.36C135.45 190.36 135.43 190.32 135.42 190.31C135.42 190.3 135.41 190.28 135.4 190.27V190.26C135.4 190.26 135.37 190.33 135.35 190.36L135.04 190.82C135.04 190.82 135.01 190.85 134.99 190.85C134.97 190.85 134.94 190.85 134.91 190.85C134.91 190.85 134.83 190.85 134.81 190.84H134.8Z" fill="#E6E9EC"/>
<path d="M136.21 190.84C136.21 190.84 136.18 190.82 136.18 190.8C136.18 190.79 136.18 190.77 136.2 190.75L136.67 190.07L136.24 189.43C136.24 189.43 136.22 189.39 136.22 189.38C136.22 189.35 136.26 189.33 136.35 189.33H136.38C136.38 189.33 136.44 189.33 136.46 189.33C136.48 189.33 136.49 189.35 136.51 189.36L136.79 189.77C136.79 189.77 136.81 189.81 136.82 189.82C136.82 189.83 136.83 189.85 136.84 189.86C136.86 189.83 136.87 189.8 136.89 189.77L137.17 189.35C137.17 189.35 137.2 189.32 137.22 189.32C137.24 189.32 137.27 189.32 137.3 189.32H137.31C137.31 189.32 137.38 189.32 137.4 189.33C137.42 189.33 137.43 189.35 137.43 189.37C137.43 189.38 137.43 189.4 137.41 189.42L136.97 190.06L137.44 190.75C137.44 190.75 137.46 190.79 137.46 190.8C137.46 190.83 137.42 190.85 137.33 190.85H137.3C137.3 190.85 137.24 190.85 137.22 190.85C137.2 190.85 137.19 190.83 137.17 190.82L136.86 190.36C136.86 190.36 136.84 190.32 136.83 190.31C136.83 190.3 136.82 190.28 136.81 190.27V190.26C136.81 190.26 136.78 190.33 136.76 190.36L136.45 190.82C136.45 190.82 136.42 190.85 136.4 190.85C136.38 190.85 136.35 190.85 136.32 190.85C136.32 190.85 136.24 190.85 136.22 190.84H136.21Z" fill="#E6E9EC"/>
<path d="M137.61 190.84C137.61 190.84 137.58 190.82 137.58 190.8C137.58 190.79 137.58 190.77 137.6 190.75L138.07 190.07L137.64 189.43C137.64 189.43 137.62 189.39 137.62 189.38C137.62 189.35 137.66 189.33 137.75 189.33H137.78C137.78 189.33 137.84 189.33 137.86 189.33C137.88 189.33 137.89 189.35 137.91 189.36L138.19 189.77C138.19 189.77 138.21 189.81 138.22 189.82C138.22 189.83 138.23 189.85 138.24 189.86C138.26 189.83 138.27 189.8 138.29 189.77L138.57 189.35C138.57 189.35 138.6 189.32 138.62 189.32C138.64 189.32 138.67 189.32 138.7 189.32H138.71C138.71 189.32 138.78 189.32 138.8 189.33C138.82 189.33 138.83 189.35 138.83 189.37C138.83 189.38 138.83 189.4 138.81 189.42L138.37 190.06L138.84 190.75C138.84 190.75 138.86 190.79 138.86 190.8C138.86 190.83 138.82 190.85 138.73 190.85H138.7C138.7 190.85 138.64 190.85 138.62 190.85C138.6 190.85 138.59 190.83 138.57 190.82L138.26 190.36C138.26 190.36 138.24 190.32 138.23 190.31C138.23 190.3 138.22 190.28 138.21 190.27V190.26C138.21 190.26 138.18 190.33 138.16 190.36L137.85 190.82C137.85 190.82 137.82 190.85 137.8 190.85C137.78 190.85 137.75 190.85 137.72 190.85C137.72 190.85 137.64 190.85 137.62 190.84H137.61Z" fill="#E6E9EC"/>
<path d="M139.08 190.79V190.6C139.08 190.6 139.12 190.54 139.2 190.54H139.25C139.33 190.54 139.37 190.56 139.37 190.6V190.79C139.37 190.79 139.33 190.85 139.25 190.85H139.2C139.12 190.85 139.08 190.83 139.08 190.79Z" fill="#E6E9EC"/>
<path d="M139.59 190.84C139.59 190.84 139.56 190.82 139.56 190.8C139.56 190.79 139.56 190.77 139.58 190.75L140.05 190.07L139.62 189.43C139.62 189.43 139.6 189.39 139.6 189.38C139.6 189.35 139.64 189.33 139.73 189.33H139.76C139.76 189.33 139.82 189.33 139.84 189.33C139.86 189.33 139.87 189.35 139.89 189.36L140.17 189.77C140.17 189.77 140.19 189.81 140.2 189.82C140.2 189.83 140.21 189.85 140.22 189.86C140.24 189.83 140.25 189.8 140.27 189.77L140.55 189.35C140.55 189.35 140.58 189.32 140.6 189.32C140.62 189.32 140.65 189.32 140.68 189.32H140.69C140.69 189.32 140.76 189.32 140.78 189.33C140.8 189.33 140.81 189.35 140.81 189.37C140.81 189.38 140.81 189.4 140.79 189.42L140.35 190.06L140.82 190.75C140.82 190.75 140.84 190.79 140.84 190.8C140.84 190.83 140.8 190.85 140.71 190.85H140.68C140.68 190.85 140.62 190.85 140.6 190.85C140.58 190.85 140.57 190.83 140.55 190.82L140.24 190.36C140.24 190.36 140.22 190.32 140.21 190.31C140.21 190.3 140.2 190.28 140.19 190.27V190.26C140.19 190.26 140.16 190.33 140.14 190.36L139.83 190.82C139.83 190.82 139.8 190.85 139.78 190.85C139.76 190.85 139.73 190.85 139.7 190.85C139.7 190.85 139.62 190.85 139.6 190.84H139.59Z" fill="#E6E9EC"/>
<path d="M128.4 197.3C128.29 197.26 128.21 197.22 128.15 197.18C128.09 197.13 128.06 197.09 128.06 197.06C128.06 197.03 128.07 197 128.09 196.96C128.11 196.92 128.14 196.88 128.16 196.85C128.19 196.82 128.21 196.8 128.23 196.8C128.23 196.8 128.24 196.8 128.25 196.8C128.25 196.8 128.26 196.8 128.27 196.81C128.3 196.82 128.32 196.83 128.33 196.84C128.45 196.9 128.57 196.95 128.69 196.99C128.82 197.03 128.96 197.04 129.13 197.03C129.32 197.02 129.47 196.97 129.58 196.89C129.69 196.81 129.74 196.68 129.74 196.49C129.74 196.36 129.71 196.26 129.65 196.17C129.59 196.08 129.51 196.01 129.42 195.96C129.33 195.91 129.2 195.85 129.05 195.79C129.05 195.79 129.04 195.79 129.03 195.79C129.03 195.79 129.02 195.79 129.01 195.79C128.7 195.66 128.47 195.52 128.33 195.37C128.19 195.21 128.12 195.03 128.12 194.82C128.12 194.64 128.16 194.49 128.24 194.35C128.32 194.22 128.44 194.11 128.61 194.04C128.77 193.97 128.97 193.93 129.19 193.93C129.29 193.93 129.41 193.94 129.55 193.97C129.69 194 129.8 194.03 129.88 194.07C129.97 194.11 130.01 194.16 130.01 194.21C130.01 194.23 130.01 194.27 129.98 194.31C129.96 194.35 129.94 194.39 129.91 194.42C129.89 194.45 129.86 194.47 129.85 194.47C129.84 194.47 129.81 194.46 129.77 194.44L129.7 194.41C129.53 194.33 129.35 194.29 129.16 194.29C128.97 194.29 128.82 194.34 128.7 194.43C128.58 194.52 128.53 194.65 128.53 194.81C128.53 194.91 128.56 194.99 128.62 195.07C128.68 195.14 128.75 195.2 128.84 195.25C128.93 195.3 129.05 195.35 129.2 195.42H129.21C129.55 195.57 129.79 195.72 129.95 195.89C130.1 196.06 130.18 196.25 130.18 196.48C130.18 196.78 130.09 197.02 129.9 197.19C129.71 197.36 129.44 197.45 129.09 197.46C128.86 197.46 128.62 197.43 128.4 197.35V197.3ZM129.03 197.64V193.71C129.03 193.65 129.07 193.62 129.16 193.62H129.18C129.27 193.62 129.31 193.65 129.31 193.71V197.64C129.31 197.7 129.27 197.73 129.18 197.73H129.16C129.07 197.73 129.03 197.7 129.03 197.64Z" fill="#E6E9EC"/>
<path d="M130.51 197.37C130.51 197.37 130.46 197.34 130.46 197.31C130.46 197.29 130.47 197.26 130.5 197.22L131.3 196.06L130.56 194.96C130.56 194.96 130.52 194.89 130.52 194.87C130.52 194.81 130.6 194.79 130.75 194.79H130.79C130.85 194.79 130.89 194.79 130.92 194.8C130.95 194.81 130.98 194.83 131 194.86L131.47 195.57C131.47 195.57 131.51 195.63 131.52 195.66C131.53 195.68 131.54 195.71 131.55 195.72V195.74L131.58 195.72C131.61 195.67 131.64 195.62 131.67 195.57L132.15 194.86C132.15 194.86 132.19 194.82 132.23 194.81C132.27 194.81 132.32 194.8 132.37 194.8H132.39C132.46 194.8 132.52 194.8 132.55 194.82C132.58 194.83 132.6 194.85 132.6 194.88C132.6 194.9 132.59 194.93 132.56 194.97L131.81 196.06L132.61 197.23C132.61 197.23 132.65 197.3 132.65 197.32C132.65 197.38 132.57 197.4 132.42 197.4H132.38C132.32 197.4 132.28 197.4 132.25 197.39C132.22 197.38 132.19 197.36 132.17 197.33L131.65 196.54C131.65 196.54 131.61 196.48 131.6 196.45C131.59 196.43 131.58 196.4 131.57 196.39C131.57 196.38 131.56 196.37 131.56 196.37V196.39C131.52 196.44 131.49 196.49 131.46 196.54L130.93 197.33C130.93 197.33 130.88 197.37 130.85 197.38C130.81 197.38 130.77 197.39 130.71 197.39H130.7C130.62 197.39 130.57 197.39 130.54 197.37H130.51Z" fill="#E6E9EC"/>
<path d="M132.91 197.37C132.91 197.37 132.86 197.34 132.86 197.31C132.86 197.29 132.87 197.26 132.9 197.22L133.7 196.06L132.96 194.96C132.96 194.96 132.92 194.89 132.92 194.87C132.92 194.81 133 194.79 133.15 194.79H133.19C133.25 194.79 133.29 194.79 133.32 194.8C133.35 194.81 133.38 194.83 133.4 194.86L133.87 195.57C133.87 195.57 133.91 195.63 133.92 195.66C133.93 195.68 133.94 195.71 133.95 195.72V195.74L133.98 195.72C134.01 195.67 134.04 195.62 134.07 195.57L134.55 194.86C134.55 194.86 134.59 194.82 134.63 194.81C134.67 194.81 134.72 194.8 134.77 194.8H134.79C134.86 194.8 134.92 194.8 134.95 194.82C134.98 194.83 135 194.85 135 194.88C135 194.9 134.99 194.93 134.96 194.97L134.21 196.06L135.01 197.23C135.01 197.23 135.05 197.3 135.05 197.32C135.05 197.38 134.97 197.4 134.82 197.4H134.78C134.72 197.4 134.68 197.4 134.65 197.39C134.62 197.38 134.59 197.36 134.57 197.33L134.05 196.54C134.05 196.54 134.01 196.48 134 196.45C133.99 196.43 133.98 196.4 133.97 196.39C133.97 196.38 133.96 196.37 133.96 196.37V196.39C133.92 196.44 133.89 196.49 133.86 196.54L133.33 197.33C133.33 197.33 133.28 197.37 133.25 197.38C133.21 197.38 133.17 197.39 133.11 197.39H133.1C133.02 197.39 132.97 197.39 132.94 197.37H132.91Z" fill="#E6E9EC"/>
<path d="M135.31 197.37C135.31 197.37 135.26 197.34 135.26 197.31C135.26 197.29 135.27 197.26 135.3 197.22L136.1 196.06L135.36 194.96C135.36 194.96 135.32 194.89 135.32 194.87C135.32 194.81 135.4 194.79 135.55 194.79H135.59C135.65 194.79 135.69 194.79 135.72 194.8C135.75 194.81 135.78 194.83 135.8 194.86L136.27 195.57C136.27 195.57 136.31 195.63 136.32 195.66C136.33 195.68 136.34 195.71 136.35 195.72V195.74L136.38 195.72C136.41 195.67 136.44 195.62 136.47 195.57L136.95 194.86C136.95 194.86 136.99 194.82 137.03 194.81C137.07 194.81 137.12 194.8 137.17 194.8H137.19C137.26 194.8 137.32 194.8 137.35 194.82C137.38 194.83 137.4 194.85 137.4 194.88C137.4 194.9 137.39 194.93 137.36 194.97L136.61 196.06L137.41 197.23C137.41 197.23 137.45 197.3 137.45 197.32C137.45 197.38 137.37 197.4 137.22 197.4H137.18C137.12 197.4 137.08 197.4 137.05 197.39C137.02 197.38 136.99 197.36 136.97 197.33L136.45 196.54C136.45 196.54 136.41 196.48 136.4 196.45C136.39 196.43 136.38 196.4 136.37 196.39C136.37 196.38 136.36 196.37 136.36 196.37V196.39C136.32 196.44 136.29 196.49 136.26 196.54L135.73 197.33C135.73 197.33 135.68 197.37 135.65 197.38C135.61 197.38 135.57 197.39 135.51 197.39H135.5C135.42 197.39 135.37 197.39 135.34 197.37H135.31Z" fill="#E6E9EC"/>
<path d="M137.82 197.28V196.95C137.82 196.88 137.89 196.84 138.02 196.84H138.1C138.23 196.84 138.3 196.88 138.3 196.95V197.28C138.3 197.35 138.23 197.39 138.1 197.39H138.02C137.89 197.39 137.82 197.35 137.82 197.28Z" fill="#E6E9EC"/>
<path d="M138.7 197.37C138.7 197.37 138.65 197.34 138.65 197.31C138.65 197.29 138.66 197.26 138.69 197.22L139.49 196.06L138.75 194.96C138.75 194.96 138.71 194.89 138.71 194.87C138.71 194.81 138.79 194.79 138.94 194.79H138.98C139.04 194.79 139.08 194.79 139.11 194.8C139.14 194.81 139.17 194.83 139.19 194.86L139.66 195.57C139.66 195.57 139.7 195.63 139.71 195.66C139.72 195.68 139.73 195.71 139.74 195.72V195.74L139.77 195.72C139.8 195.67 139.83 195.62 139.86 195.57L140.34 194.86C140.34 194.86 140.38 194.82 140.42 194.81C140.46 194.81 140.51 194.8 140.56 194.8H140.58C140.65 194.8 140.71 194.8 140.74 194.82C140.77 194.83 140.79 194.85 140.79 194.88C140.79 194.9 140.78 194.93 140.75 194.97L140 196.06L140.8 197.23C140.8 197.23 140.84 197.3 140.84 197.32C140.84 197.38 140.76 197.4 140.61 197.4H140.57C140.51 197.4 140.47 197.4 140.44 197.39C140.41 197.38 140.38 197.36 140.36 197.33L139.84 196.54C139.84 196.54 139.8 196.48 139.79 196.45C139.78 196.43 139.77 196.4 139.76 196.39C139.76 196.38 139.75 196.37 139.75 196.37V196.39C139.71 196.44 139.68 196.49 139.65 196.54L139.12 197.33C139.12 197.33 139.07 197.37 139.04 197.38C139 197.38 138.96 197.39 138.9 197.39H138.89C138.81 197.39 138.76 197.39 138.73 197.37H138.7Z" fill="#E6E9EC"/>
<path d="M140.76 164.83H87.94C86.134 164.83 84.67 166.294 84.67 168.1V198.42C84.67 200.226 86.134 201.69 87.94 201.69H140.76C142.566 201.69 144.03 200.226 144.03 198.42V168.1C144.03 166.294 142.566 164.83 140.76 164.83Z" stroke="#E6E9EC" stroke-width="0.42" stroke-miterlimit="10"/>
<path d="M160.53 178.62H153.21V184.06H160.53V178.62Z" fill="#E6E9EC"/>
<path d="M156.05 181.16C156.315 181.16 156.53 180.945 156.53 180.68C156.53 180.415 156.315 180.2 156.05 180.2C155.785 180.2 155.57 180.415 155.57 180.68C155.57 180.945 155.785 181.16 156.05 181.16Z" fill="#F8F9FA"/>
<path d="M160.53 180.78V184.05H153.21V182.33C153.79 181.83 154.64 181.43 155.39 182.37C156.68 183.98 157.04 181.08 158.91 180.36C159.55 180.11 160.1 180.36 160.53 180.79V180.78Z" fill="#F8F9FA"/>
<path d="M174.51 178.62H167.19V184.06H174.51V178.62Z" fill="#E6E9EC"/>
<path d="M170.04 181.16C170.305 181.16 170.52 180.945 170.52 180.68C170.52 180.415 170.305 180.2 170.04 180.2C169.775 180.2 169.56 180.415 169.56 180.68C169.56 180.945 169.775 181.16 170.04 181.16Z" fill="#F8F9FA"/>
<path d="M174.51 180.78V184.05H167.19V182.33C167.77 181.83 168.62 181.43 169.37 182.37C170.66 183.98 171.02 181.08 172.89 180.36C173.53 180.11 174.08 180.36 174.51 180.79V180.78Z" fill="#F8F9FA"/>
<path d="M188.5 178.62H181.18V184.06H188.5V178.62Z" fill="#E6E9EC"/>
<path d="M184.02 181.16C184.285 181.16 184.5 180.945 184.5 180.68C184.5 180.415 184.285 180.2 184.02 180.2C183.755 180.2 183.54 180.415 183.54 180.68C183.54 180.945 183.755 181.16 184.02 181.16Z" fill="#F8F9FA"/>
<path d="M188.5 180.78V184.05H181.18V182.33C181.76 181.83 182.61 181.43 183.36 182.37C184.65 183.98 185.01 181.08 186.88 180.36C187.52 180.11 188.07 180.36 188.5 180.79V180.78Z" fill="#F8F9FA"/>
<path d="M202.49 178.62H195.17V184.06H202.49V178.62Z" fill="#E6E9EC"/>
<path d="M198.01 181.16C198.275 181.16 198.49 180.945 198.49 180.68C198.49 180.415 198.275 180.2 198.01 180.2C197.745 180.2 197.53 180.415 197.53 180.68C197.53 180.945 197.745 181.16 198.01 181.16Z" fill="#F8F9FA"/>
<path d="M202.49 180.78V184.05H195.17V182.33C195.75 181.83 196.6 181.43 197.35 182.37C198.64 183.98 199 181.08 200.87 180.36C201.51 180.11 202.06 180.36 202.49 180.79V180.78Z" fill="#F8F9FA"/>
<path d="M202.84 190.05H152.55C152.031 190.05 151.61 190.471 151.61 190.99V197.02C151.61 197.539 152.031 197.96 152.55 197.96H202.84C203.359 197.96 203.78 197.539 203.78 197.02V190.99C203.78 190.471 203.359 190.05 202.84 190.05Z" fill="#E6E9EC"/>
<path d="M203.89 164.83H151.07C149.264 164.83 147.8 166.294 147.8 168.1V198.42C147.8 200.226 149.264 201.69 151.07 201.69H203.89C205.696 201.69 207.16 200.226 207.16 198.42V168.1C207.16 166.294 205.696 164.83 203.89 164.83Z" stroke="#E6E9EC" stroke-width="0.42" stroke-miterlimit="10"/>
<path d="M39.71 181.23H63.19C63.72 181.23 64.16 181.66 64.16 182.2C64.16 182.73 63.73 183.17 63.19 183.17H39.71C39.18 183.17 38.74 182.74 38.74 182.2C38.74 181.67 39.17 181.23 39.71 181.23Z" fill="#D5DADF"/>
<path d="M39.71 192.14H63.19C63.72 192.14 64.16 192.57 64.16 193.11C64.16 193.64 63.73 194.08 63.19 194.08H39.71C39.18 194.08 38.74 193.65 38.74 193.11C38.74 192.58 39.17 192.14 39.71 192.14Z" fill="#D5DADF"/>
<path d="M170.96 193.29H184.44C184.97 193.29 185.41 193.72 185.41 194.26C185.41 194.79 184.98 195.23 184.44 195.23H170.96C170.43 195.23 169.99 194.8 169.99 194.26C169.99 193.73 170.42 193.29 170.96 193.29Z" fill="#D5DADF"/>
<path d="M143.36 52.68H120.38C119.043 52.68 117.96 53.7635 117.96 55.1V60.38C117.96 61.7166 119.043 62.8 120.38 62.8H143.36C144.696 62.8 145.78 61.7166 145.78 60.38V55.1C145.78 53.7635 144.696 52.68 143.36 52.68Z" fill="#E6E9EC"/>
<path d="M124.09 58.09H121.37C121.18 58.09 121.03 57.94 121.03 57.75C121.03 57.56 121.18 57.41 121.37 57.41H124.09C124.28 57.41 124.43 57.56 124.43 57.75C124.43 57.94 124.28 58.09 124.09 58.09Z" fill="#A4AFB7"/>
<path d="M142.33 58.09H139.59C139.4 58.09 139.25 57.94 139.25 57.75C139.25 57.56 139.4 57.41 139.59 57.41H142.33C142.52 57.41 142.67 57.56 142.67 57.75C142.67 57.94 142.52 58.09 142.33 58.09Z" fill="#A4AFB7"/>
<path d="M140.96 59.45C140.77 59.45 140.62 59.3 140.62 59.11V56.37C140.62 56.18 140.77 56.03 140.96 56.03C141.15 56.03 141.3 56.18 141.3 56.37V59.11C141.3 59.3 141.15 59.45 140.96 59.45Z" fill="#A4AFB7"/>
<path d="M130.58 59.54V59.25L130.96 58.88C131.87 58.02 132.28 57.56 132.28 57.02C132.28 56.66 132.11 56.33 131.58 56.33C131.26 56.33 130.99 56.49 130.83 56.63L130.68 56.29C130.93 56.08 131.28 55.93 131.68 55.93C132.44 55.93 132.77 56.45 132.77 56.96C132.77 57.62 132.29 58.14 131.55 58.86L131.27 59.12L132.86 59.13V59.53H130.59L130.58 59.54Z" fill="#A4AFB7"/>
<path d="M127.63 55.04C127.63 54.924 127.536 54.83 127.42 54.83C127.304 54.83 127.21 54.924 127.21 55.04V60.43C127.21 60.546 127.304 60.64 127.42 60.64C127.536 60.64 127.63 60.546 127.63 60.43V55.04Z" fill="#A4AFB7"/>
<path d="M136.33 55.04C136.33 54.924 136.236 54.83 136.12 54.83C136.004 54.83 135.91 54.924 135.91 55.04V60.43C135.91 60.546 136.004 60.64 136.12 60.64C136.236 60.64 136.33 60.546 136.33 60.43V55.04Z" fill="#A4AFB7"/>
<path d="M143.36 93.58H120.38C119.043 93.58 117.96 94.6635 117.96 96V101.28C117.96 102.617 119.043 103.7 120.38 103.7H143.36C144.696 103.7 145.78 102.617 145.78 101.28V96C145.78 94.6635 144.696 93.58 143.36 93.58Z" fill="#E6E9EC"/>
<path d="M124.09 98.99H121.37C121.18 98.99 121.03 98.84 121.03 98.65C121.03 98.46 121.18 98.31 121.37 98.31H124.09C124.28 98.31 124.43 98.46 124.43 98.65C124.43 98.84 124.28 98.99 124.09 98.99Z" fill="#A4AFB7"/>
<path d="M142.33 98.99H139.59C139.4 98.99 139.25 98.84 139.25 98.65C139.25 98.46 139.4 98.31 139.59 98.31H142.33C142.52 98.31 142.67 98.46 142.67 98.65C142.67 98.84 142.52 98.99 142.33 98.99Z" fill="#A4AFB7"/>
<path d="M140.96 100.36C140.77 100.36 140.62 100.21 140.62 100.02V97.28C140.62 97.09 140.77 96.94 140.96 96.94C141.15 96.94 141.3 97.09 141.3 97.28V100.02C141.3 100.21 141.15 100.36 140.96 100.36Z" fill="#A4AFB7"/>
<path d="M130.58 100.45V100.16L130.96 99.79C131.87 98.93 132.28 98.47 132.28 97.93C132.28 97.57 132.11 97.24 131.58 97.24C131.26 97.24 130.99 97.4 130.83 97.54L130.68 97.2C130.93 96.99 131.28 96.84 131.68 96.84C132.44 96.84 132.77 97.36 132.77 97.87C132.77 98.53 132.29 99.05 131.55 99.77L131.27 100.03L132.86 100.04V100.44H130.59L130.58 100.45Z" fill="#A4AFB7"/>
<path d="M127.63 95.95C127.63 95.834 127.536 95.74 127.42 95.74C127.304 95.74 127.21 95.834 127.21 95.95V101.34C127.21 101.456 127.304 101.55 127.42 101.55C127.536 101.55 127.63 101.456 127.63 101.34V95.95Z" fill="#A4AFB7"/>
<path d="M136.33 95.95C136.33 95.834 136.236 95.74 136.12 95.74C136.004 95.74 135.91 95.834 135.91 95.95V101.34C135.91 101.456 136.004 101.55 136.12 101.55C136.236 101.55 136.33 101.456 136.33 101.34V95.95Z" fill="#A4AFB7"/>
<path d="M143.36 133.94H120.38C119.043 133.94 117.96 135.023 117.96 136.36V141.64C117.96 142.977 119.043 144.06 120.38 144.06H143.36C144.696 144.06 145.78 142.977 145.78 141.64V136.36C145.78 135.023 144.696 133.94 143.36 133.94Z" fill="#E6E9EC"/>
<path d="M124.09 139.34H121.37C121.18 139.34 121.03 139.19 121.03 139C121.03 138.81 121.18 138.66 121.37 138.66H124.09C124.28 138.66 124.43 138.81 124.43 139C124.43 139.19 124.28 139.34 124.09 139.34Z" fill="#A4AFB7"/>
<path d="M142.33 139.34H139.59C139.4 139.34 139.25 139.19 139.25 139C139.25 138.81 139.4 138.66 139.59 138.66H142.33C142.52 138.66 142.67 138.81 142.67 139C142.67 139.19 142.52 139.34 142.33 139.34Z" fill="#A4AFB7"/>
<path d="M140.96 140.71C140.77 140.71 140.62 140.56 140.62 140.37V137.63C140.62 137.44 140.77 137.29 140.96 137.29C141.15 137.29 141.3 137.44 141.3 137.63V140.37C141.3 140.56 141.15 140.71 140.96 140.71Z" fill="#A4AFB7"/>
<path d="M130.58 140.8V140.51L130.96 140.14C131.87 139.28 132.28 138.82 132.28 138.28C132.28 137.92 132.11 137.59 131.58 137.59C131.26 137.59 130.99 137.75 130.83 137.89L130.68 137.55C130.93 137.34 131.28 137.19 131.68 137.19C132.44 137.19 132.77 137.71 132.77 138.22C132.77 138.88 132.29 139.4 131.55 140.12L131.27 140.38L132.86 140.39V140.79H130.59L130.58 140.8Z" fill="#A4AFB7"/>
<path d="M127.63 136.3C127.63 136.184 127.536 136.09 127.42 136.09C127.304 136.09 127.21 136.184 127.21 136.3V141.69C127.21 141.806 127.304 141.9 127.42 141.9C127.536 141.9 127.63 141.806 127.63 141.69V136.3Z" fill="#A4AFB7"/>
<path d="M136.33 136.3C136.33 136.184 136.236 136.09 136.12 136.09C136.004 136.09 135.91 136.184 135.91 136.3V141.69C135.91 141.806 136.004 141.9 136.12 141.9C136.236 141.9 136.33 141.806 136.33 141.69V136.3Z" fill="#A4AFB7"/>
<path d="M28.8257 19.5598H27.4338C27.3941 19.3316 27.3209 19.1294 27.2142 18.9532C27.1076 18.7746 26.9748 18.6232 26.816 18.4992C26.6573 18.3751 26.4761 18.2821 26.2727 18.22C26.0717 18.1555 25.8546 18.1233 25.6214 18.1233C25.2071 18.1233 24.8399 18.2275 24.5198 18.4359C24.1998 18.6418 23.9492 18.9445 23.7681 19.344C23.5869 19.7409 23.4964 20.226 23.4964 20.7991C23.4964 21.3822 23.5869 21.8734 23.7681 22.2729C23.9517 22.6698 24.2022 22.97 24.5198 23.1735C24.8399 23.3744 25.2058 23.4749 25.6177 23.4749C25.8459 23.4749 26.0593 23.4452 26.2578 23.3856C26.4588 23.3236 26.6386 23.233 26.7974 23.1139C26.9587 22.9948 27.0939 22.8485 27.2031 22.6748C27.3147 22.5011 27.3916 22.3026 27.4338 22.0793L28.8257 22.0868C28.7736 22.449 28.6607 22.7889 28.487 23.1065C28.3158 23.4241 28.0913 23.7044 27.8134 23.9476C27.5355 24.1882 27.2105 24.3768 26.8384 24.5133C26.4662 24.6472 26.0531 24.7142 25.5991 24.7142C24.9292 24.7142 24.3313 24.5592 23.8053 24.249C23.2793 23.9389 22.8649 23.4911 22.5623 22.9055C22.2596 22.32 22.1082 21.6179 22.1082 20.7991C22.1082 19.9779 22.2608 19.2757 22.566 18.6927C22.8712 18.1072 23.2867 17.6593 23.8127 17.3492C24.3387 17.0391 24.9342 16.884 25.5991 16.884C26.0233 16.884 26.4178 16.9435 26.7825 17.0626C27.1473 17.1817 27.4723 17.3566 27.7576 17.5874C28.0429 17.8156 28.2774 18.096 28.461 18.4285C28.6471 18.7584 28.7686 19.1356 28.8257 19.5598ZM31.6755 24.7254C31.3133 24.7254 30.987 24.6609 30.6967 24.5319C30.4089 24.4004 30.1807 24.2068 30.012 23.9513C29.8457 23.6957 29.7626 23.3807 29.7626 23.006C29.7626 22.6835 29.8222 22.4168 29.9412 22.2059C30.0603 21.995 30.2228 21.8263 30.4288 21.6997C30.6347 21.5732 30.8667 21.4777 31.1247 21.4132C31.3852 21.3462 31.6544 21.2978 31.9323 21.268C32.2672 21.2333 32.5389 21.2023 32.7473 21.175C32.9557 21.1452 33.1071 21.1006 33.2014 21.041C33.2981 20.979 33.3465 20.8835 33.3465 20.7544V20.7321C33.3465 20.4518 33.2634 20.2347 33.0972 20.0808C32.9309 19.927 32.6915 19.8501 32.3789 19.8501C32.0489 19.8501 31.7872 19.9221 31.5936 20.066C31.4026 20.2099 31.2736 20.3798 31.2066 20.5758L29.9487 20.3972C30.0479 20.0498 30.2117 19.7595 30.4399 19.5263C30.6682 19.2906 30.9473 19.1145 31.2773 18.9979C31.6073 18.8788 31.972 18.8192 32.3714 18.8192C32.6468 18.8192 32.921 18.8515 33.1939 18.916C33.4668 18.9805 33.7162 19.0872 33.942 19.236C34.1677 19.3824 34.3488 19.5821 34.4853 19.8352C34.6242 20.0883 34.6937 20.4046 34.6937 20.7842V24.61H33.3986V23.8248H33.3539C33.2721 23.9835 33.1567 24.1324 33.0078 24.2714C32.8615 24.4078 32.6766 24.5182 32.4533 24.6026C32.2325 24.6844 31.9732 24.7254 31.6755 24.7254ZM32.0253 23.7354C32.2958 23.7354 32.5302 23.6821 32.7287 23.5754C32.9272 23.4662 33.0798 23.3223 33.1865 23.1437C33.2956 22.9651 33.3502 22.7703 33.3502 22.5594V21.8858C33.308 21.9205 33.2361 21.9528 33.1344 21.9826C33.0351 22.0123 32.9235 22.0384 32.7994 22.0607C32.6754 22.0831 32.5526 22.1029 32.431 22.1203C32.3094 22.1376 32.204 22.1525 32.1147 22.1649C31.9137 22.1922 31.7338 22.2369 31.575 22.2989C31.4162 22.3609 31.2909 22.4478 31.1991 22.5594C31.1073 22.6686 31.0614 22.81 31.0614 22.9837C31.0614 23.2318 31.152 23.4191 31.3331 23.5456C31.5142 23.6722 31.745 23.7354 32.0253 23.7354ZM36.0484 24.61V18.8937H37.3547V19.8464H37.4142C37.5184 19.5164 37.697 19.2621 37.9501 19.0835C38.2057 18.9023 38.4972 18.8118 38.8247 18.8118C38.8991 18.8118 38.9822 18.8155 39.074 18.8229C39.1683 18.8279 39.2465 18.8366 39.3085 18.849V20.0883C39.2514 20.0684 39.1609 20.0511 39.0368 20.0362C38.9152 20.0188 38.7974 20.0101 38.6833 20.0101C38.4376 20.0101 38.2168 20.0635 38.0208 20.1702C37.8273 20.2744 37.6747 20.4195 37.5631 20.6056C37.4514 20.7917 37.3956 21.0063 37.3956 21.2494V24.61H36.0484ZM43.365 18.8937V19.9357H40.0789V18.8937H43.365ZM40.8902 17.5241H42.2374V22.8906C42.2374 23.0718 42.2647 23.2107 42.3193 23.3075C42.3763 23.4017 42.4508 23.4662 42.5426 23.501C42.6343 23.5357 42.7361 23.5531 42.8477 23.5531C42.9321 23.5531 43.009 23.5469 43.0785 23.5345C43.1504 23.5221 43.205 23.5109 43.2422 23.501L43.4692 24.5542C43.3973 24.579 43.2943 24.6063 43.1603 24.6361C43.0288 24.6658 42.8676 24.6832 42.6765 24.6882C42.3391 24.6981 42.0352 24.6472 41.7647 24.5356C41.4943 24.4215 41.2797 24.2453 41.1209 24.0071C40.9646 23.7689 40.8877 23.4712 40.8902 23.1139V17.5241ZM47.1508 24.61V16.9882H50.009C50.5945 16.9882 51.0858 17.0974 51.4827 17.3157C51.8822 17.534 52.1836 17.8342 52.3871 18.2163C52.593 18.5959 52.696 19.0276 52.696 19.5114C52.696 20.0002 52.593 20.4344 52.3871 20.814C52.1812 21.1936 51.8772 21.4926 51.4753 21.7109C51.0734 21.9267 50.5784 22.0347 49.9904 22.0347H48.0961V20.8996H49.8043C50.1467 20.8996 50.4271 20.84 50.6454 20.721C50.8637 20.6019 51.025 20.4381 51.1292 20.2297C51.2359 20.0213 51.2892 19.7819 51.2892 19.5114C51.2892 19.241 51.2359 19.0028 51.1292 18.7969C51.025 18.591 50.8625 18.4309 50.6417 18.3168C50.4233 18.2002 50.1417 18.1419 49.7969 18.1419H48.5315V24.61H47.1508ZM55.3783 24.7254C55.0161 24.7254 54.6898 24.6609 54.3995 24.5319C54.1117 24.4004 53.8835 24.2068 53.7148 23.9513C53.5485 23.6957 53.4654 23.3807 53.4654 23.006C53.4654 22.6835 53.525 22.4168 53.6441 22.2059C53.7631 21.995 53.9257 21.8263 54.1316 21.6997C54.3375 21.5732 54.5695 21.4777 54.8275 21.4132C55.088 21.3462 55.3572 21.2978 55.6351 21.268C55.9701 21.2333 56.2417 21.2023 56.4501 21.175C56.6585 21.1452 56.8099 21.1006 56.9042 21.041C57.0009 20.979 57.0493 20.8835 57.0493 20.7544V20.7321C57.0493 20.4518 56.9662 20.2347 56.8 20.0808C56.6337 19.927 56.3943 19.8501 56.0817 19.8501C55.7517 19.8501 55.49 19.9221 55.2964 20.066C55.1054 20.2099 54.9764 20.3798 54.9094 20.5758L53.6515 20.3972C53.7507 20.0498 53.9145 19.7595 54.1427 19.5263C54.371 19.2906 54.6501 19.1145 54.9801 18.9979C55.3101 18.8788 55.6748 18.8192 56.0743 18.8192C56.3497 18.8192 56.6238 18.8515 56.8967 18.916C57.1696 18.9805 57.419 19.0872 57.6448 19.236C57.8705 19.3824 58.0517 19.5821 58.1881 19.8352C58.3271 20.0883 58.3965 20.4046 58.3965 20.7842V24.61H57.1014V23.8248H57.0568C56.9749 23.9835 56.8595 24.1324 56.7106 24.2714C56.5643 24.4078 56.3794 24.5182 56.1561 24.6026C55.9353 24.6844 55.676 24.7254 55.3783 24.7254ZM55.7281 23.7354C55.9986 23.7354 56.233 23.6821 56.4315 23.5754C56.63 23.4662 56.7826 23.3223 56.8893 23.1437C56.9985 22.9651 57.053 22.7703 57.053 22.5594V21.8858C57.0109 21.9205 56.9389 21.9528 56.8372 21.9826C56.7379 22.0123 56.6263 22.0384 56.5022 22.0607C56.3782 22.0831 56.2554 22.1029 56.1338 22.1203C56.0122 22.1376 55.9068 22.1525 55.8175 22.1649C55.6165 22.1922 55.4366 22.2369 55.2778 22.2989C55.119 22.3609 54.9938 22.4478 54.902 22.5594C54.8102 22.6686 54.7643 22.81 54.7643 22.9837C54.7643 23.2318 54.8548 23.4191 55.0359 23.5456C55.217 23.6722 55.4478 23.7354 55.7281 23.7354ZM62.2372 26.8727C61.7534 26.8727 61.3378 26.807 60.9905 26.6755C60.6431 26.5465 60.364 26.3728 60.1531 26.1545C59.9422 25.9361 59.7958 25.6942 59.714 25.4288L60.9272 25.1348C60.9818 25.2464 61.0612 25.3568 61.1654 25.466C61.2696 25.5776 61.4098 25.6694 61.5859 25.7414C61.7646 25.8158 61.9891 25.853 62.2595 25.853C62.6416 25.853 62.958 25.76 63.2085 25.5739C63.4591 25.3903 63.5844 25.0876 63.5844 24.6658V23.5829H63.5174C63.448 23.7218 63.3462 23.8645 63.2123 24.0108C63.0808 24.1572 62.9059 24.28 62.6875 24.3793C62.4717 24.4785 62.2 24.5281 61.8725 24.5281C61.4333 24.5281 61.0351 24.4252 60.6779 24.2192C60.3231 24.0108 60.0402 23.7007 59.8293 23.2889C59.6209 22.8745 59.5167 22.356 59.5167 21.7332C59.5167 21.1055 59.6209 20.5758 59.8293 20.1441C60.0402 19.7099 60.3243 19.3812 60.6816 19.1579C61.0389 18.9321 61.4371 18.8192 61.8762 18.8192C62.2112 18.8192 62.4866 18.8763 62.7024 18.9904C62.9207 19.1021 63.0944 19.2373 63.2234 19.3961C63.3524 19.5524 63.4504 19.7 63.5174 19.8389H63.5919V18.8937H64.9205V24.7031C64.9205 25.1918 64.8039 25.5962 64.5706 25.9163C64.3374 26.2364 64.0186 26.4758 63.6142 26.6346C63.2098 26.7933 62.7508 26.8727 62.2372 26.8727ZM62.2484 23.4712C62.5337 23.4712 62.7768 23.4017 62.9778 23.2628C63.1788 23.1239 63.3314 22.9241 63.4356 22.6636C63.5398 22.4031 63.5919 22.0905 63.5919 21.7258C63.5919 21.366 63.5398 21.0509 63.4356 20.7805C63.3338 20.5101 63.1825 20.3004 62.9815 20.1515C62.783 20.0002 62.5387 19.9245 62.2484 19.9245C61.9482 19.9245 61.6976 20.0027 61.4966 20.159C61.2956 20.3153 61.1443 20.5299 61.0426 20.8028C60.9409 21.0733 60.89 21.3809 60.89 21.7258C60.89 22.0756 60.9409 22.382 61.0426 22.645C61.1468 22.9055 61.2994 23.109 61.5003 23.2554C61.7038 23.3993 61.9531 23.4712 62.2484 23.4712ZM68.8319 24.7217C68.2587 24.7217 67.7638 24.6026 67.347 24.3644C66.9326 24.1237 66.6138 23.7838 66.3905 23.3447C66.1672 22.903 66.0556 22.3833 66.0556 21.7853C66.0556 21.1973 66.1672 20.6813 66.3905 20.2371C66.6163 19.7906 66.9314 19.4432 67.3358 19.1951C67.7402 18.9445 68.2153 18.8192 68.7612 18.8192C69.1135 18.8192 69.4459 18.8763 69.7585 18.9904C70.0736 19.1021 70.3515 19.2757 70.5922 19.5114C70.8353 19.7471 71.0264 20.0473 71.1653 20.4121C71.3042 20.7743 71.3737 21.206 71.3737 21.7072V22.1203H66.6882V21.2122H70.0823C70.0798 20.9542 70.024 20.7247 69.9149 20.5237C69.8057 20.3203 69.6531 20.1602 69.4571 20.0436C69.2636 19.927 69.0378 19.8687 68.7798 19.8687C68.5044 19.8687 68.2625 19.9357 68.0541 20.0697C67.8456 20.2012 67.6831 20.3748 67.5665 20.5907C67.4524 20.8041 67.3941 21.0385 67.3916 21.2941V22.0868C67.3916 22.4192 67.4524 22.7046 67.574 22.9427C67.6955 23.1784 67.8655 23.3596 68.0838 23.4861C68.3022 23.6101 68.5577 23.6722 68.8505 23.6722C69.0465 23.6722 69.2239 23.6449 69.3827 23.5903C69.5415 23.5332 69.6792 23.4501 69.7958 23.341C69.9124 23.2318 70.0004 23.0966 70.06 22.9353L71.3179 23.0767C71.2385 23.4092 71.0872 23.6995 70.8639 23.9476C70.643 24.1932 70.3602 24.3842 70.0153 24.5207C69.6705 24.6547 69.276 24.7217 68.8319 24.7217Z" fill="#A4AFB7"/>
</g>
</g>
<defs>
<clipPath id="clip0_186_115">
<rect width="229" height="222" fill="white"/>
</clipPath>
</defs>
</svg>
