<svg width="229" height="222" viewBox="0 0 229 222" fill="none" xmlns="http://www.w3.org/2000/svg">
<mask id="mask0_186_2" style="mask-type:luminance" maskUnits="userSpaceOnUse" x="17" y="15" width="194" height="190">
<path d="M210.65 15.1H17.89V204.76H210.65V15.1Z" fill="white"/>
</mask>
<g mask="url(#mask0_186_2)">
<path d="M106.8 72.24H24.46C22.5436 72.24 20.99 73.7936 20.99 75.71V136.15C20.99 138.066 22.5436 139.62 24.46 139.62H106.8C108.716 139.62 110.27 138.066 110.27 136.15V75.71C110.27 73.7936 108.716 72.24 106.8 72.24Z" fill="#F1F3F5"/>
<path d="M195.94 168.77C195.87 168.75 195.82 168.72 195.78 168.69C195.74 168.66 195.72 168.63 195.72 168.61C195.72 168.59 195.72 168.57 195.74 168.54C195.76 168.51 195.77 168.49 195.79 168.47C195.81 168.45 195.82 168.44 195.83 168.44C195.83 168.44 195.83 168.44 195.84 168.44C195.84 168.44 195.84 168.44 195.85 168.44C195.87 168.44 195.88 168.46 195.89 168.46C195.96 168.5 196.04 168.53 196.12 168.56C196.2 168.58 196.29 168.59 196.4 168.58C196.52 168.58 196.62 168.54 196.69 168.49C196.76 168.44 196.79 168.35 196.79 168.23C196.79 168.15 196.77 168.08 196.73 168.03C196.69 167.98 196.64 167.93 196.58 167.9C196.52 167.87 196.44 167.83 196.34 167.79C196.34 167.79 196.34 167.79 196.33 167.79C196.33 167.79 196.33 167.79 196.32 167.79C196.12 167.71 195.97 167.62 195.88 167.52C195.79 167.42 195.74 167.3 195.74 167.16C195.74 167.05 195.77 166.95 195.82 166.86C195.87 166.77 195.95 166.71 196.05 166.66C196.15 166.61 196.28 166.59 196.42 166.59C196.49 166.59 196.56 166.59 196.65 166.62C196.74 166.64 196.81 166.66 196.86 166.69C196.92 166.72 196.95 166.75 196.95 166.78C196.95 166.79 196.95 166.82 196.93 166.84C196.92 166.87 196.9 166.89 196.89 166.91C196.87 166.93 196.86 166.94 196.85 166.94C196.85 166.94 196.83 166.94 196.8 166.92L196.76 166.9C196.65 166.85 196.54 166.82 196.41 166.82C196.28 166.82 196.19 166.85 196.12 166.91C196.05 166.97 196.01 167.05 196.01 167.15C196.01 167.21 196.03 167.27 196.07 167.31C196.11 167.36 196.15 167.39 196.21 167.42C196.26 167.45 196.34 167.49 196.44 167.53C196.66 167.62 196.81 167.72 196.91 167.83C197.01 167.94 197.06 168.06 197.06 168.21C197.06 168.4 197 168.56 196.88 168.67C196.76 168.78 196.59 168.84 196.36 168.84C196.21 168.84 196.06 168.82 195.92 168.77H195.94ZM196.34 168.99V166.47C196.34 166.47 196.37 166.41 196.42 166.41H196.44C196.49 166.41 196.52 166.43 196.52 166.47V168.99C196.52 168.99 196.49 169.05 196.44 169.05H196.42C196.36 169.05 196.34 169.03 196.34 168.99Z" fill="#D5DADF"/>
<path d="M197.29 168.81C197.29 168.81 197.26 168.79 197.26 168.77C197.26 168.76 197.26 168.74 197.29 168.71L197.8 167.96L197.32 167.26C197.32 167.26 197.29 167.22 197.29 167.2C197.29 167.16 197.34 167.15 197.44 167.15H197.47C197.47 167.15 197.53 167.15 197.56 167.15C197.58 167.15 197.6 167.17 197.61 167.19L197.91 167.64C197.91 167.64 197.94 167.68 197.94 167.7C197.94 167.72 197.96 167.73 197.96 167.74V167.76L197.98 167.74C198 167.71 198.02 167.67 198.04 167.64L198.34 167.18C198.34 167.18 198.37 167.15 198.39 167.14C198.41 167.14 198.44 167.14 198.48 167.14H198.49C198.49 167.14 198.57 167.14 198.59 167.15C198.61 167.15 198.62 167.17 198.62 167.19C198.62 167.2 198.62 167.22 198.59 167.25L198.11 167.95L198.62 168.7C198.62 168.7 198.65 168.74 198.65 168.76C198.65 168.8 198.6 168.81 198.5 168.81H198.47C198.47 168.81 198.41 168.81 198.38 168.81C198.36 168.81 198.34 168.79 198.33 168.77L197.99 168.27C197.99 168.27 197.96 168.23 197.96 168.21C197.96 168.19 197.94 168.18 197.94 168.17C197.94 168.17 197.94 168.16 197.94 168.15V168.17C197.94 168.17 197.89 168.24 197.87 168.27L197.53 168.78C197.53 168.78 197.5 168.81 197.48 168.82C197.46 168.82 197.43 168.82 197.39 168.82C197.39 168.82 197.31 168.82 197.29 168.81Z" fill="#D5DADF"/>
<path d="M198.83 168.81C198.83 168.81 198.8 168.79 198.8 168.77C198.8 168.76 198.8 168.74 198.83 168.71L199.34 167.96L198.86 167.26C198.86 167.26 198.83 167.22 198.83 167.2C198.83 167.16 198.88 167.15 198.98 167.15H199.01C199.01 167.15 199.07 167.15 199.1 167.15C199.12 167.15 199.14 167.17 199.15 167.19L199.45 167.64C199.45 167.64 199.48 167.68 199.48 167.7C199.48 167.72 199.5 167.73 199.5 167.74V167.76L199.52 167.74C199.54 167.71 199.56 167.67 199.58 167.64L199.88 167.18C199.88 167.18 199.91 167.15 199.93 167.14C199.95 167.14 199.98 167.14 200.02 167.14H200.03C200.03 167.14 200.11 167.14 200.13 167.15C200.15 167.15 200.16 167.17 200.16 167.19C200.16 167.2 200.16 167.22 200.13 167.25L199.65 167.95L200.16 168.7C200.16 168.7 200.19 168.74 200.19 168.76C200.19 168.8 200.14 168.81 200.04 168.81H200.01C200.01 168.81 199.95 168.81 199.92 168.81C199.9 168.81 199.88 168.79 199.87 168.77L199.53 168.27C199.53 168.27 199.5 168.23 199.5 168.21C199.5 168.19 199.48 168.18 199.48 168.17C199.48 168.17 199.48 168.16 199.48 168.15V168.17C199.48 168.17 199.43 168.24 199.41 168.27L199.07 168.78C199.07 168.78 199.04 168.81 199.02 168.82C199 168.82 198.97 168.82 198.93 168.82C198.93 168.82 198.85 168.82 198.83 168.81Z" fill="#D5DADF"/>
<path d="M200.37 168.81C200.37 168.81 200.34 168.79 200.34 168.77C200.34 168.76 200.34 168.74 200.37 168.71L200.88 167.96L200.4 167.26C200.4 167.26 200.37 167.22 200.37 167.2C200.37 167.16 200.42 167.15 200.52 167.15H200.55C200.55 167.15 200.61 167.15 200.64 167.15C200.66 167.15 200.68 167.17 200.69 167.19L200.99 167.64C200.99 167.64 201.02 167.68 201.02 167.7C201.02 167.72 201.04 167.73 201.04 167.74V167.76L201.06 167.74C201.08 167.71 201.1 167.67 201.12 167.64L201.42 167.18C201.42 167.18 201.45 167.15 201.47 167.14C201.49 167.14 201.52 167.14 201.56 167.14H201.57C201.57 167.14 201.65 167.14 201.67 167.15C201.69 167.15 201.7 167.17 201.7 167.19C201.7 167.2 201.7 167.22 201.67 167.25L201.19 167.95L201.7 168.7C201.7 168.7 201.73 168.74 201.73 168.76C201.73 168.8 201.68 168.81 201.58 168.81H201.55C201.55 168.81 201.49 168.81 201.46 168.81C201.44 168.81 201.42 168.79 201.41 168.77L201.07 168.27C201.07 168.27 201.04 168.23 201.04 168.21C201.04 168.19 201.02 168.18 201.02 168.17C201.02 168.17 201.02 168.16 201.02 168.15V168.17C201.02 168.17 200.97 168.24 200.95 168.27L200.61 168.78C200.61 168.78 200.58 168.81 200.56 168.82C200.54 168.82 200.51 168.82 200.47 168.82C200.47 168.82 200.39 168.82 200.37 168.81Z" fill="#D5DADF"/>
<path d="M201.98 168.76V168.55C201.98 168.55 202.02 168.48 202.11 168.48H202.16C202.24 168.48 202.29 168.5 202.29 168.55V168.76C202.29 168.76 202.25 168.83 202.16 168.83H202.11C202.03 168.83 201.98 168.81 201.98 168.76Z" fill="#D5DADF"/>
<path d="M202.54 168.81C202.54 168.81 202.51 168.79 202.51 168.77C202.51 168.76 202.51 168.74 202.54 168.71L203.05 167.96L202.57 167.26C202.57 167.26 202.54 167.22 202.54 167.2C202.54 167.16 202.59 167.15 202.69 167.15H202.72C202.72 167.15 202.78 167.15 202.81 167.15C202.83 167.15 202.85 167.17 202.86 167.19L203.16 167.64C203.16 167.64 203.19 167.68 203.19 167.7C203.19 167.72 203.21 167.73 203.21 167.74V167.76L203.23 167.74C203.25 167.71 203.27 167.67 203.29 167.64L203.59 167.18C203.59 167.18 203.62 167.15 203.64 167.14C203.66 167.14 203.69 167.14 203.73 167.14H203.74C203.74 167.14 203.82 167.14 203.84 167.15C203.86 167.15 203.87 167.17 203.87 167.19C203.87 167.2 203.87 167.22 203.84 167.25L203.36 167.95L203.87 168.7C203.87 168.7 203.9 168.74 203.9 168.76C203.9 168.8 203.85 168.81 203.75 168.81H203.72C203.72 168.81 203.66 168.81 203.63 168.81C203.61 168.81 203.59 168.79 203.58 168.77L203.24 168.27C203.24 168.27 203.21 168.23 203.21 168.21C203.21 168.19 203.19 168.18 203.19 168.17C203.19 168.17 203.19 168.16 203.19 168.15V168.17C203.19 168.17 203.14 168.24 203.12 168.27L202.78 168.78C202.78 168.78 202.75 168.81 202.73 168.82C202.71 168.82 202.68 168.82 202.64 168.82C202.64 168.82 202.56 168.82 202.54 168.81Z" fill="#D5DADF"/>
<path d="M195.94 176.89C195.87 176.87 195.82 176.84 195.78 176.81C195.74 176.78 195.72 176.75 195.72 176.73C195.72 176.71 195.72 176.69 195.74 176.66C195.76 176.63 195.77 176.61 195.79 176.59C195.81 176.57 195.82 176.56 195.83 176.56C195.83 176.56 195.83 176.56 195.84 176.56C195.84 176.56 195.84 176.56 195.85 176.56C195.87 176.56 195.88 176.58 195.89 176.58C195.96 176.62 196.04 176.65 196.12 176.68C196.2 176.7 196.29 176.71 196.4 176.7C196.52 176.7 196.62 176.66 196.69 176.61C196.76 176.56 196.79 176.47 196.79 176.35C196.79 176.27 196.77 176.2 196.73 176.15C196.69 176.1 196.64 176.05 196.58 176.02C196.52 175.99 196.44 175.95 196.34 175.91C196.34 175.91 196.34 175.91 196.33 175.91C196.33 175.91 196.33 175.91 196.32 175.91C196.12 175.83 195.97 175.74 195.88 175.64C195.79 175.54 195.74 175.42 195.74 175.28C195.74 175.17 195.77 175.07 195.82 174.98C195.87 174.89 195.95 174.83 196.05 174.78C196.15 174.73 196.28 174.71 196.42 174.71C196.49 174.71 196.56 174.71 196.65 174.74C196.74 174.76 196.81 174.78 196.86 174.81C196.92 174.84 196.95 174.87 196.95 174.9C196.95 174.91 196.95 174.94 196.93 174.96C196.92 174.99 196.9 175.01 196.89 175.03C196.87 175.05 196.86 175.06 196.85 175.06C196.85 175.06 196.83 175.06 196.8 175.04L196.76 175.02C196.65 174.97 196.54 174.94 196.41 174.94C196.28 174.94 196.19 174.97 196.12 175.03C196.05 175.09 196.01 175.17 196.01 175.27C196.01 175.33 196.03 175.39 196.07 175.43C196.11 175.48 196.15 175.51 196.21 175.54C196.26 175.57 196.34 175.61 196.44 175.65C196.66 175.74 196.81 175.84 196.91 175.95C197.01 176.06 197.06 176.18 197.06 176.33C197.06 176.52 197 176.68 196.88 176.79C196.76 176.9 196.59 176.96 196.36 176.96C196.21 176.96 196.06 176.94 195.92 176.89H195.94ZM196.34 177.11V174.59C196.34 174.59 196.37 174.53 196.42 174.53H196.44C196.49 174.53 196.52 174.55 196.52 174.59V177.11C196.52 177.11 196.49 177.17 196.44 177.17H196.42C196.36 177.17 196.34 177.15 196.34 177.11Z" fill="#D5DADF"/>
<path d="M197.29 176.94C197.29 176.94 197.26 176.92 197.26 176.9C197.26 176.89 197.26 176.87 197.29 176.84L197.8 176.09L197.32 175.39C197.32 175.39 197.29 175.35 197.29 175.33C197.29 175.29 197.34 175.28 197.44 175.28H197.47C197.47 175.28 197.53 175.28 197.56 175.28C197.58 175.28 197.6 175.3 197.61 175.32L197.91 175.77C197.91 175.77 197.94 175.81 197.94 175.83C197.94 175.85 197.96 175.86 197.96 175.87V175.89L197.98 175.87C198 175.84 198.02 175.8 198.04 175.77L198.34 175.31C198.34 175.31 198.37 175.28 198.39 175.27C198.41 175.27 198.44 175.27 198.48 175.27H198.49C198.49 175.27 198.57 175.27 198.59 175.28C198.61 175.28 198.62 175.3 198.62 175.32C198.62 175.33 198.62 175.35 198.59 175.38L198.11 176.08L198.62 176.83C198.62 176.83 198.65 176.87 198.65 176.89C198.65 176.93 198.6 176.94 198.5 176.94H198.47C198.47 176.94 198.41 176.94 198.38 176.94C198.36 176.94 198.34 176.92 198.33 176.9L197.99 176.4C197.99 176.4 197.96 176.36 197.96 176.34C197.96 176.32 197.94 176.31 197.94 176.3C197.94 176.3 197.94 176.29 197.94 176.28V176.3C197.94 176.3 197.89 176.37 197.87 176.4L197.53 176.91C197.53 176.91 197.5 176.94 197.48 176.95C197.46 176.95 197.43 176.95 197.39 176.95C197.39 176.95 197.31 176.95 197.29 176.94Z" fill="#D5DADF"/>
<path d="M198.83 176.94C198.83 176.94 198.8 176.92 198.8 176.9C198.8 176.89 198.8 176.87 198.83 176.84L199.34 176.09L198.86 175.39C198.86 175.39 198.83 175.35 198.83 175.33C198.83 175.29 198.88 175.28 198.98 175.28H199.01C199.01 175.28 199.07 175.28 199.1 175.28C199.12 175.28 199.14 175.3 199.15 175.32L199.45 175.77C199.45 175.77 199.48 175.81 199.48 175.83C199.48 175.85 199.5 175.86 199.5 175.87V175.89L199.52 175.87C199.54 175.84 199.56 175.8 199.58 175.77L199.88 175.31C199.88 175.31 199.91 175.28 199.93 175.27C199.95 175.27 199.98 175.27 200.02 175.27H200.03C200.03 175.27 200.11 175.27 200.13 175.28C200.15 175.28 200.16 175.3 200.16 175.32C200.16 175.33 200.16 175.35 200.13 175.38L199.65 176.08L200.16 176.83C200.16 176.83 200.19 176.87 200.19 176.89C200.19 176.93 200.14 176.94 200.04 176.94H200.01C200.01 176.94 199.95 176.94 199.92 176.94C199.9 176.94 199.88 176.92 199.87 176.9L199.53 176.4C199.53 176.4 199.5 176.36 199.5 176.34C199.5 176.32 199.48 176.31 199.48 176.3C199.48 176.3 199.48 176.29 199.48 176.28V176.3C199.48 176.3 199.43 176.37 199.41 176.4L199.07 176.91C199.07 176.91 199.04 176.94 199.02 176.95C199 176.95 198.97 176.95 198.93 176.95C198.93 176.95 198.85 176.95 198.83 176.94Z" fill="#D5DADF"/>
<path d="M200.37 176.94C200.37 176.94 200.34 176.92 200.34 176.9C200.34 176.89 200.34 176.87 200.37 176.84L200.88 176.09L200.4 175.39C200.4 175.39 200.37 175.35 200.37 175.33C200.37 175.29 200.42 175.28 200.52 175.28H200.55C200.55 175.28 200.61 175.28 200.64 175.28C200.66 175.28 200.68 175.3 200.69 175.32L200.99 175.77C200.99 175.77 201.02 175.81 201.02 175.83C201.02 175.85 201.04 175.86 201.04 175.87V175.89L201.06 175.87C201.08 175.84 201.1 175.8 201.12 175.77L201.42 175.31C201.42 175.31 201.45 175.28 201.47 175.27C201.49 175.27 201.52 175.27 201.56 175.27H201.57C201.57 175.27 201.65 175.27 201.67 175.28C201.69 175.28 201.7 175.3 201.7 175.32C201.7 175.33 201.7 175.35 201.67 175.38L201.19 176.08L201.7 176.83C201.7 176.83 201.73 176.87 201.73 176.89C201.73 176.93 201.68 176.94 201.58 176.94H201.55C201.55 176.94 201.49 176.94 201.46 176.94C201.44 176.94 201.42 176.92 201.41 176.9L201.07 176.4C201.07 176.4 201.04 176.36 201.04 176.34C201.04 176.32 201.02 176.31 201.02 176.3C201.02 176.3 201.02 176.29 201.02 176.28V176.3C201.02 176.3 200.97 176.37 200.95 176.4L200.61 176.91C200.61 176.91 200.58 176.94 200.56 176.95C200.54 176.95 200.51 176.95 200.47 176.95C200.47 176.95 200.39 176.95 200.37 176.94Z" fill="#D5DADF"/>
<path d="M201.98 176.88V176.67C201.98 176.67 202.02 176.6 202.11 176.6H202.16C202.24 176.6 202.29 176.62 202.29 176.67V176.88C202.29 176.88 202.25 176.95 202.16 176.95H202.11C202.03 176.95 201.98 176.93 201.98 176.88Z" fill="#D5DADF"/>
<path d="M202.54 176.94C202.54 176.94 202.51 176.92 202.51 176.9C202.51 176.89 202.51 176.87 202.54 176.84L203.05 176.09L202.57 175.39C202.57 175.39 202.54 175.35 202.54 175.33C202.54 175.29 202.59 175.28 202.69 175.28H202.72C202.72 175.28 202.78 175.28 202.81 175.28C202.83 175.28 202.85 175.3 202.86 175.32L203.16 175.77C203.16 175.77 203.19 175.81 203.19 175.83C203.19 175.85 203.21 175.86 203.21 175.87V175.89L203.23 175.87C203.25 175.84 203.27 175.8 203.29 175.77L203.59 175.31C203.59 175.31 203.62 175.28 203.64 175.27C203.66 175.27 203.69 175.27 203.73 175.27H203.74C203.74 175.27 203.82 175.27 203.84 175.28C203.86 175.28 203.87 175.3 203.87 175.32C203.87 175.33 203.87 175.35 203.84 175.38L203.36 176.08L203.87 176.83C203.87 176.83 203.9 176.87 203.9 176.89C203.9 176.93 203.85 176.94 203.75 176.94H203.72C203.72 176.94 203.66 176.94 203.63 176.94C203.61 176.94 203.59 176.92 203.58 176.9L203.24 176.4C203.24 176.4 203.21 176.36 203.21 176.34C203.21 176.32 203.19 176.31 203.19 176.3C203.19 176.3 203.19 176.29 203.19 176.28V176.3C203.19 176.3 203.14 176.37 203.12 176.4L202.78 176.91C202.78 176.91 202.75 176.94 202.73 176.95C202.71 176.95 202.68 176.95 202.64 176.95C202.64 176.95 202.56 176.95 202.54 176.94Z" fill="#D5DADF"/>
<path d="M195.94 184.78C195.87 184.76 195.82 184.73 195.78 184.7C195.74 184.67 195.72 184.64 195.72 184.62C195.72 184.6 195.72 184.58 195.74 184.55C195.76 184.52 195.77 184.5 195.79 184.48C195.81 184.46 195.82 184.45 195.83 184.45C195.83 184.45 195.83 184.45 195.84 184.45C195.84 184.45 195.84 184.45 195.85 184.45C195.87 184.45 195.88 184.47 195.89 184.47C195.96 184.51 196.04 184.54 196.12 184.57C196.2 184.59 196.29 184.6 196.4 184.59C196.52 184.59 196.62 184.55 196.69 184.5C196.76 184.45 196.79 184.36 196.79 184.24C196.79 184.16 196.77 184.09 196.73 184.04C196.69 183.99 196.64 183.94 196.58 183.91C196.52 183.88 196.44 183.84 196.34 183.8C196.34 183.8 196.34 183.8 196.33 183.8C196.33 183.8 196.33 183.8 196.32 183.8C196.12 183.72 195.97 183.63 195.88 183.53C195.79 183.43 195.74 183.31 195.74 183.17C195.74 183.06 195.77 182.96 195.82 182.87C195.87 182.78 195.95 182.72 196.05 182.67C196.15 182.62 196.28 182.6 196.42 182.6C196.49 182.6 196.56 182.6 196.65 182.63C196.74 182.65 196.81 182.67 196.86 182.7C196.92 182.73 196.95 182.76 196.95 182.79C196.95 182.8 196.95 182.83 196.93 182.85C196.92 182.88 196.9 182.9 196.89 182.92C196.87 182.94 196.86 182.95 196.85 182.95C196.85 182.95 196.83 182.95 196.8 182.93L196.76 182.91C196.65 182.86 196.54 182.83 196.41 182.83C196.28 182.83 196.19 182.86 196.12 182.92C196.05 182.98 196.01 183.06 196.01 183.16C196.01 183.22 196.03 183.28 196.07 183.32C196.11 183.37 196.15 183.4 196.21 183.43C196.26 183.46 196.34 183.5 196.44 183.54C196.66 183.63 196.81 183.73 196.91 183.84C197.01 183.95 197.06 184.07 197.06 184.22C197.06 184.41 197 184.57 196.88 184.68C196.76 184.79 196.59 184.85 196.36 184.85C196.21 184.85 196.06 184.83 195.92 184.78H195.94ZM196.34 185V182.48C196.34 182.48 196.37 182.42 196.42 182.42H196.44C196.49 182.42 196.52 182.44 196.52 182.48V185C196.52 185 196.49 185.06 196.44 185.06H196.42C196.36 185.06 196.34 185.04 196.34 185Z" fill="#D5DADF"/>
<path d="M197.29 184.82C197.29 184.82 197.26 184.8 197.26 184.78C197.26 184.77 197.26 184.75 197.29 184.72L197.8 183.97L197.32 183.27C197.32 183.27 197.29 183.23 197.29 183.21C197.29 183.17 197.34 183.16 197.44 183.16H197.47C197.47 183.16 197.53 183.16 197.56 183.16C197.58 183.16 197.6 183.18 197.61 183.2L197.91 183.65C197.91 183.65 197.94 183.69 197.94 183.71C197.94 183.73 197.96 183.74 197.96 183.75V183.77L197.98 183.75C198 183.72 198.02 183.68 198.04 183.65L198.34 183.19C198.34 183.19 198.37 183.16 198.39 183.15C198.41 183.15 198.44 183.15 198.48 183.15H198.49C198.49 183.15 198.57 183.15 198.59 183.16C198.61 183.16 198.62 183.18 198.62 183.2C198.62 183.21 198.62 183.23 198.59 183.26L198.11 183.96L198.62 184.71C198.62 184.71 198.65 184.75 198.65 184.77C198.65 184.81 198.6 184.82 198.5 184.82H198.47C198.47 184.82 198.41 184.82 198.38 184.82C198.36 184.82 198.34 184.8 198.33 184.78L197.99 184.28C197.99 184.28 197.96 184.24 197.96 184.22C197.96 184.2 197.94 184.19 197.94 184.18C197.94 184.18 197.94 184.17 197.94 184.16V184.18C197.94 184.18 197.89 184.25 197.87 184.28L197.53 184.79C197.53 184.79 197.5 184.82 197.48 184.83C197.46 184.83 197.43 184.83 197.39 184.83C197.39 184.83 197.31 184.83 197.29 184.82Z" fill="#D5DADF"/>
<path d="M198.83 184.82C198.83 184.82 198.8 184.8 198.8 184.78C198.8 184.77 198.8 184.75 198.83 184.72L199.34 183.97L198.86 183.27C198.86 183.27 198.83 183.23 198.83 183.21C198.83 183.17 198.88 183.16 198.98 183.16H199.01C199.01 183.16 199.07 183.16 199.1 183.16C199.12 183.16 199.14 183.18 199.15 183.2L199.45 183.65C199.45 183.65 199.48 183.69 199.48 183.71C199.48 183.73 199.5 183.74 199.5 183.75V183.77L199.52 183.75C199.54 183.72 199.56 183.68 199.58 183.65L199.88 183.19C199.88 183.19 199.91 183.16 199.93 183.15C199.95 183.15 199.98 183.15 200.02 183.15H200.03C200.03 183.15 200.11 183.15 200.13 183.16C200.15 183.16 200.16 183.18 200.16 183.2C200.16 183.21 200.16 183.23 200.13 183.26L199.65 183.96L200.16 184.71C200.16 184.71 200.19 184.75 200.19 184.77C200.19 184.81 200.14 184.82 200.04 184.82H200.01C200.01 184.82 199.95 184.82 199.92 184.82C199.9 184.82 199.88 184.8 199.87 184.78L199.53 184.28C199.53 184.28 199.5 184.24 199.5 184.22C199.5 184.2 199.48 184.19 199.48 184.18C199.48 184.18 199.48 184.17 199.48 184.16V184.18C199.48 184.18 199.43 184.25 199.41 184.28L199.07 184.79C199.07 184.79 199.04 184.82 199.02 184.83C199 184.83 198.97 184.83 198.93 184.83C198.93 184.83 198.85 184.83 198.83 184.82Z" fill="#D5DADF"/>
<path d="M200.37 184.82C200.37 184.82 200.34 184.8 200.34 184.78C200.34 184.77 200.34 184.75 200.37 184.72L200.88 183.97L200.4 183.27C200.4 183.27 200.37 183.23 200.37 183.21C200.37 183.17 200.42 183.16 200.52 183.16H200.55C200.55 183.16 200.61 183.16 200.64 183.16C200.66 183.16 200.68 183.18 200.69 183.2L200.99 183.65C200.99 183.65 201.02 183.69 201.02 183.71C201.02 183.73 201.04 183.74 201.04 183.75V183.77L201.06 183.75C201.08 183.72 201.1 183.68 201.12 183.65L201.42 183.19C201.42 183.19 201.45 183.16 201.47 183.15C201.49 183.15 201.52 183.15 201.56 183.15H201.57C201.57 183.15 201.65 183.15 201.67 183.16C201.69 183.16 201.7 183.18 201.7 183.2C201.7 183.21 201.7 183.23 201.67 183.26L201.19 183.96L201.7 184.71C201.7 184.71 201.73 184.75 201.73 184.77C201.73 184.81 201.68 184.82 201.58 184.82H201.55C201.55 184.82 201.49 184.82 201.46 184.82C201.44 184.82 201.42 184.8 201.41 184.78L201.07 184.28C201.07 184.28 201.04 184.24 201.04 184.22C201.04 184.2 201.02 184.19 201.02 184.18C201.02 184.18 201.02 184.17 201.02 184.16V184.18C201.02 184.18 200.97 184.25 200.95 184.28L200.61 184.79C200.61 184.79 200.58 184.82 200.56 184.83C200.54 184.83 200.51 184.83 200.47 184.83C200.47 184.83 200.39 184.83 200.37 184.82Z" fill="#D5DADF"/>
<path d="M201.98 184.77V184.56C201.98 184.56 202.02 184.49 202.11 184.49H202.16C202.24 184.49 202.29 184.51 202.29 184.56V184.77C202.29 184.77 202.25 184.84 202.16 184.84H202.11C202.03 184.84 201.98 184.82 201.98 184.77Z" fill="#D5DADF"/>
<path d="M202.54 184.82C202.54 184.82 202.51 184.8 202.51 184.78C202.51 184.77 202.51 184.75 202.54 184.72L203.05 183.97L202.57 183.27C202.57 183.27 202.54 183.23 202.54 183.21C202.54 183.17 202.59 183.16 202.69 183.16H202.72C202.72 183.16 202.78 183.16 202.81 183.16C202.83 183.16 202.85 183.18 202.86 183.2L203.16 183.65C203.16 183.65 203.19 183.69 203.19 183.71C203.19 183.73 203.21 183.74 203.21 183.75V183.77L203.23 183.75C203.25 183.72 203.27 183.68 203.29 183.65L203.59 183.19C203.59 183.19 203.62 183.16 203.64 183.15C203.66 183.15 203.69 183.15 203.73 183.15H203.74C203.74 183.15 203.82 183.15 203.84 183.16C203.86 183.16 203.87 183.18 203.87 183.2C203.87 183.21 203.87 183.23 203.84 183.26L203.36 183.96L203.87 184.71C203.87 184.71 203.9 184.75 203.9 184.77C203.9 184.81 203.85 184.82 203.75 184.82H203.72C203.72 184.82 203.66 184.82 203.63 184.82C203.61 184.82 203.59 184.8 203.58 184.78L203.24 184.28C203.24 184.28 203.21 184.24 203.21 184.22C203.21 184.2 203.19 184.19 203.19 184.18C203.19 184.18 203.19 184.17 203.19 184.16V184.18C203.19 184.18 203.14 184.25 203.12 184.28L202.78 184.79C202.78 184.79 202.75 184.82 202.73 184.83C202.71 184.83 202.68 184.83 202.64 184.83C202.64 184.83 202.56 184.83 202.54 184.82Z" fill="#D5DADF"/>
<path d="M192.76 196.66C192.67 196.63 192.6 196.59 192.55 196.56C192.5 196.52 192.47 196.49 192.47 196.46C192.47 196.44 192.47 196.41 192.5 196.37C192.53 196.33 192.54 196.3 192.56 196.27C192.58 196.24 192.6 196.23 192.62 196.23H192.63C192.63 196.23 192.64 196.23 192.65 196.24C192.67 196.25 192.69 196.26 192.7 196.27C192.8 196.32 192.9 196.37 193 196.4C193.11 196.43 193.23 196.44 193.37 196.43C193.53 196.42 193.66 196.38 193.75 196.31C193.84 196.24 193.88 196.13 193.88 195.97C193.88 195.86 193.85 195.77 193.8 195.7C193.75 195.63 193.68 195.57 193.6 195.52C193.52 195.48 193.42 195.43 193.28 195.37C193.28 195.37 193.27 195.37 193.26 195.37C193.26 195.37 193.25 195.37 193.24 195.37C192.98 195.26 192.78 195.15 192.66 195.02C192.54 194.89 192.48 194.73 192.48 194.55C192.48 194.4 192.51 194.27 192.58 194.16C192.65 194.05 192.75 193.96 192.89 193.9C193.03 193.84 193.19 193.81 193.38 193.81C193.47 193.81 193.57 193.82 193.68 193.84C193.79 193.86 193.89 193.89 193.96 193.93C194.03 193.97 194.07 194 194.07 194.05C194.07 194.07 194.07 194.1 194.04 194.13C194.02 194.17 194 194.2 193.98 194.23C193.96 194.26 193.94 194.27 193.93 194.27C193.93 194.27 193.9 194.27 193.86 194.24L193.8 194.21C193.66 194.14 193.51 194.11 193.34 194.11C193.17 194.11 193.05 194.15 192.95 194.23C192.85 194.31 192.81 194.41 192.81 194.55C192.81 194.63 192.83 194.71 192.88 194.77C192.93 194.83 192.99 194.88 193.06 194.92C193.13 194.96 193.23 195.01 193.36 195.06H193.37C193.65 195.18 193.86 195.31 193.99 195.45C194.12 195.59 194.18 195.76 194.18 195.95C194.18 196.21 194.1 196.41 193.95 196.55C193.8 196.69 193.57 196.77 193.27 196.77C193.07 196.77 192.88 196.74 192.69 196.67L192.76 196.66ZM193.29 196.96V193.65C193.29 193.6 193.33 193.57 193.4 193.57H193.42C193.49 193.57 193.53 193.6 193.53 193.65V196.96C193.53 197.01 193.49 197.03 193.42 197.03H193.4C193.33 197.03 193.29 197.01 193.29 196.96Z" fill="#D5DADF"/>
<path d="M194.54 196.73C194.54 196.73 194.5 196.7 194.5 196.68C194.5 196.66 194.51 196.64 194.53 196.61L195.21 195.63L194.58 194.7C194.58 194.7 194.55 194.64 194.55 194.63C194.55 194.58 194.61 194.56 194.74 194.56H194.78C194.78 194.56 194.86 194.56 194.89 194.57C194.92 194.57 194.94 194.6 194.96 194.62L195.36 195.22C195.36 195.22 195.39 195.27 195.41 195.29C195.42 195.31 195.43 195.33 195.44 195.34V195.36L195.46 195.34C195.48 195.3 195.51 195.25 195.54 195.21L195.94 194.61C195.94 194.61 195.98 194.57 196.01 194.56C196.04 194.56 196.08 194.55 196.13 194.55H196.15C196.21 194.55 196.26 194.55 196.28 194.57C196.31 194.58 196.32 194.6 196.32 194.62C196.32 194.64 196.31 194.66 196.29 194.69L195.66 195.61L196.34 196.6C196.34 196.6 196.37 196.66 196.37 196.67C196.37 196.72 196.31 196.74 196.18 196.74H196.14C196.14 196.74 196.06 196.74 196.03 196.73C196 196.73 195.98 196.7 195.96 196.68L195.52 196.02C195.52 196.02 195.49 195.97 195.47 195.95C195.46 195.93 195.45 195.91 195.44 195.9C195.44 195.89 195.44 195.88 195.43 195.88V195.9C195.43 195.9 195.37 195.99 195.34 196.03L194.89 196.7C194.89 196.7 194.85 196.74 194.82 196.75C194.79 196.75 194.75 196.76 194.7 196.76H194.69C194.63 196.76 194.58 196.76 194.55 196.74L194.54 196.73Z" fill="#D5DADF"/>
<path d="M196.56 196.73C196.56 196.73 196.52 196.7 196.52 196.68C196.52 196.66 196.53 196.64 196.55 196.61L197.23 195.63L196.6 194.7C196.6 194.7 196.57 194.64 196.57 194.63C196.57 194.58 196.63 194.56 196.76 194.56H196.8C196.8 194.56 196.88 194.56 196.91 194.57C196.94 194.57 196.96 194.6 196.98 194.62L197.38 195.22C197.38 195.22 197.41 195.27 197.43 195.29C197.44 195.31 197.45 195.33 197.46 195.34V195.36L197.48 195.34C197.5 195.3 197.53 195.25 197.56 195.21L197.96 194.61C197.96 194.61 198 194.57 198.03 194.56C198.06 194.56 198.1 194.55 198.15 194.55H198.17C198.23 194.55 198.28 194.55 198.3 194.57C198.33 194.58 198.34 194.6 198.34 194.62C198.34 194.64 198.33 194.66 198.31 194.69L197.68 195.61L198.36 196.6C198.36 196.6 198.39 196.66 198.39 196.67C198.39 196.72 198.33 196.74 198.2 196.74H198.16C198.16 196.74 198.08 196.74 198.05 196.73C198.02 196.73 198 196.7 197.98 196.68L197.54 196.02C197.54 196.02 197.51 195.97 197.49 195.95C197.48 195.93 197.47 195.91 197.46 195.9C197.46 195.89 197.46 195.88 197.45 195.88V195.9C197.45 195.9 197.39 195.99 197.36 196.03L196.91 196.7C196.91 196.7 196.87 196.74 196.84 196.75C196.81 196.75 196.77 196.76 196.72 196.76H196.71C196.65 196.76 196.6 196.76 196.57 196.74L196.56 196.73Z" fill="#D5DADF"/>
<path d="M198.59 196.73C198.59 196.73 198.55 196.7 198.55 196.68C198.55 196.66 198.56 196.64 198.58 196.61L199.26 195.63L198.63 194.7C198.63 194.7 198.6 194.64 198.6 194.63C198.6 194.58 198.66 194.56 198.79 194.56H198.83C198.83 194.56 198.91 194.56 198.94 194.57C198.97 194.57 198.99 194.6 199.01 194.62L199.41 195.22C199.41 195.22 199.44 195.27 199.46 195.29C199.47 195.31 199.48 195.33 199.49 195.34V195.36L199.51 195.34C199.53 195.3 199.56 195.25 199.59 195.21L199.99 194.61C199.99 194.61 200.03 194.57 200.06 194.56C200.09 194.56 200.13 194.55 200.18 194.55H200.2C200.26 194.55 200.31 194.55 200.33 194.57C200.36 194.58 200.37 194.6 200.37 194.62C200.37 194.64 200.36 194.66 200.34 194.69L199.71 195.61L200.39 196.6C200.39 196.6 200.42 196.66 200.42 196.67C200.42 196.72 200.36 196.74 200.23 196.74H200.19C200.19 196.74 200.11 196.74 200.08 196.73C200.05 196.73 200.03 196.7 200.01 196.68L199.57 196.02C199.57 196.02 199.54 195.97 199.52 195.95C199.51 195.93 199.5 195.91 199.49 195.9C199.49 195.89 199.49 195.88 199.48 195.88V195.9C199.48 195.9 199.42 195.99 199.39 196.03L198.94 196.7C198.94 196.7 198.9 196.74 198.87 196.75C198.84 196.75 198.8 196.76 198.75 196.76H198.74C198.68 196.76 198.63 196.76 198.6 196.74L198.59 196.73Z" fill="#D5DADF"/>
<path d="M200.7 196.65V196.37C200.7 196.31 200.76 196.28 200.87 196.28H200.94C201.05 196.28 201.11 196.31 201.11 196.37V196.65C201.11 196.71 201.05 196.74 200.94 196.74H200.87C200.76 196.74 200.7 196.71 200.7 196.65Z" fill="#D5DADF"/>
<path d="M201.44 196.73C201.44 196.73 201.4 196.7 201.4 196.68C201.4 196.66 201.41 196.64 201.43 196.61L202.11 195.63L201.48 194.7C201.48 194.7 201.45 194.64 201.45 194.63C201.45 194.58 201.51 194.56 201.64 194.56H201.68C201.68 194.56 201.76 194.56 201.79 194.57C201.82 194.57 201.84 194.6 201.86 194.62L202.26 195.22C202.26 195.22 202.29 195.27 202.31 195.29C202.32 195.31 202.33 195.33 202.34 195.34V195.36L202.36 195.34C202.38 195.3 202.41 195.25 202.44 195.21L202.84 194.61C202.84 194.61 202.88 194.57 202.91 194.56C202.94 194.56 202.98 194.55 203.03 194.55H203.05C203.11 194.55 203.16 194.55 203.18 194.57C203.21 194.58 203.22 194.6 203.22 194.62C203.22 194.64 203.21 194.66 203.19 194.69L202.56 195.61L203.24 196.6C203.24 196.6 203.27 196.66 203.27 196.67C203.27 196.72 203.21 196.74 203.08 196.74H203.04C203.04 196.74 202.96 196.74 202.93 196.73C202.9 196.73 202.88 196.7 202.86 196.68L202.42 196.02C202.42 196.02 202.39 195.97 202.37 195.95C202.36 195.93 202.35 195.91 202.34 195.9C202.34 195.89 202.34 195.88 202.33 195.88V195.9C202.33 195.9 202.27 195.99 202.24 196.03L201.79 196.7C201.79 196.7 201.75 196.74 201.72 196.75C201.69 196.75 201.65 196.76 201.6 196.76H201.59C201.53 196.76 201.48 196.76 201.45 196.74L201.44 196.73Z" fill="#D5DADF"/>
<path d="M124.39 135.14H140.68C140.94 135.14 141.15 135.35 141.15 135.61C141.15 135.87 140.94 136.08 140.68 136.08H124.39C124.13 136.08 123.92 135.87 123.92 135.61C123.92 135.35 124.13 135.14 124.39 135.14Z" fill="#D5DADF"/>
<path d="M121.21 57.75H203.92" stroke="#F3F3F3" stroke-width="0.5" stroke-miterlimit="10"/>
<path d="M121.21 160.72H203.92" stroke="#F3F3F3" stroke-width="0.5" stroke-miterlimit="10"/>
<path d="M121.37 189.76H204.08" stroke="#F3F3F3" stroke-width="0.5" stroke-miterlimit="10"/>
<path d="M202.77 131.6H122.36C121.725 131.6 121.21 132.115 121.21 132.75V138.47C121.21 139.105 121.725 139.62 122.36 139.62H202.77C203.405 139.62 203.92 139.105 203.92 138.47V132.75C203.92 132.115 203.405 131.6 202.77 131.6Z" stroke="#F3F3F3" stroke-width="0.5" stroke-miterlimit="10"/>
<path d="M108.63 51.22H22.63C21.7243 51.22 20.99 51.9543 20.99 52.86V64.58C20.99 65.4858 21.7243 66.22 22.63 66.22H108.63C109.536 66.22 110.27 65.4858 110.27 64.58V52.86C110.27 51.9543 109.536 51.22 108.63 51.22Z" stroke="#E6E9EC" stroke-width="0.77" stroke-miterlimit="10"/>
<path d="M103.92 94.01H27.27C26.6901 94.01 26.22 94.4801 26.22 95.06V99.91C26.22 100.49 26.6901 100.96 27.27 100.96H103.92C104.5 100.96 104.97 100.49 104.97 99.91V95.06C104.97 94.4801 104.5 94.01 103.92 94.01Z" fill="white"/>
<path d="M103.92 126.36H27.27C26.6901 126.36 26.22 126.83 26.22 127.41V132.26C26.22 132.84 26.6901 133.31 27.27 133.31H103.92C104.5 133.31 104.97 132.84 104.97 132.26V127.41C104.97 126.83 104.5 126.36 103.92 126.36Z" fill="white"/>
<path d="M62.43 110.45H26.94C26.5424 110.45 26.22 110.772 26.22 111.17V116.68C26.22 117.078 26.5424 117.4 26.94 117.4H62.43C62.8277 117.4 63.15 117.078 63.15 116.68V111.17C63.15 110.772 62.8277 110.45 62.43 110.45Z" fill="white"/>
<path d="M104.24 110.45H67.5C67.0969 110.45 66.77 110.777 66.77 111.18V116.67C66.77 117.073 67.0969 117.4 67.5 117.4H104.24C104.643 117.4 104.97 117.073 104.97 116.67V111.18C104.97 110.777 104.643 110.45 104.24 110.45Z" fill="white"/>
<path d="M108.64 146.55H22.62C21.7198 146.55 20.99 147.28 20.99 148.18V159.85C20.99 160.75 21.7198 161.48 22.62 161.48H108.64C109.54 161.48 110.27 160.75 110.27 159.85V148.18C110.27 147.28 109.54 146.55 108.64 146.55Z" stroke="#E6E9EC" stroke-width="0.77" stroke-miterlimit="10"/>
<path d="M202.24 132.66H190.9C190.519 132.66 190.21 132.969 190.21 133.35V137.52C190.21 137.901 190.519 138.21 190.9 138.21H202.24C202.621 138.21 202.93 137.901 202.93 137.52V133.35C202.93 132.969 202.621 132.66 202.24 132.66Z" fill="#E6E9EC"/>
<path d="M194.2 135.14H199.21C199.47 135.14 199.68 135.35 199.68 135.61C199.68 135.87 199.47 136.08 199.21 136.08H194.2C193.94 136.08 193.73 135.87 193.73 135.61C193.73 135.35 193.94 135.14 194.2 135.14Z" fill="#D5DADF"/>
<path d="M161.75 124.93H122.04C121.582 124.93 121.21 125.302 121.21 125.76V125.85C121.21 126.308 121.582 126.68 122.04 126.68H161.75C162.208 126.68 162.58 126.308 162.58 125.85V125.76C162.58 125.302 162.208 124.93 161.75 124.93Z" fill="#D5DADF"/>
<path d="M145.32 51.35H122.21C121.73 51.35 121.34 51.7395 121.34 52.22V52.23C121.34 52.7105 121.73 53.1 122.21 53.1H145.32C145.801 53.1 146.19 52.7105 146.19 52.23V52.22C146.19 51.7395 145.801 51.35 145.32 51.35Z" fill="#D5DADF"/>
<path d="M44.69 44.89H21.85C21.3751 44.89 20.99 45.2751 20.99 45.75V45.76C20.99 46.235 21.3751 46.62 21.85 46.62H44.69C45.165 46.62 45.55 46.235 45.55 45.76V45.75C45.55 45.2751 45.165 44.89 44.69 44.89Z" fill="#D5DADF"/>
<path d="M37.04 57.86H25.13C24.6551 57.86 24.27 58.2451 24.27 58.72V58.73C24.27 59.205 24.6551 59.59 25.13 59.59H37.04C37.515 59.59 37.9 59.205 37.9 58.73V58.72C37.9 58.2451 37.515 57.86 37.04 57.86Z" fill="#D5DADF"/>
<path d="M40.44 89.87H27.05C26.5916 89.87 26.22 90.2416 26.22 90.7V90.77C26.22 91.2284 26.5916 91.6 27.05 91.6H40.44C40.8984 91.6 41.27 91.2284 41.27 90.77V90.7C41.27 90.2416 40.8984 89.87 40.44 89.87Z" fill="#D5DADF"/>
<path d="M50.27 80.26H27.05C26.5916 80.26 26.22 80.6316 26.22 81.09V81.16C26.22 81.6184 26.5916 81.99 27.05 81.99H50.27C50.7284 81.99 51.1 81.6184 51.1 81.16V81.09C51.1 80.6316 50.7284 80.26 50.27 80.26Z" fill="#D5DADF"/>
<path d="M37.71 106.59H27.05C26.5916 106.59 26.22 106.962 26.22 107.42V107.49C26.22 107.948 26.5916 108.32 27.05 108.32H37.71C38.1684 108.32 38.54 107.948 38.54 107.49V107.42C38.54 106.962 38.1684 106.59 37.71 106.59Z" fill="#D5DADF"/>
<path d="M79.14 105.38H67.63C67.1551 105.38 66.77 105.765 66.77 106.24V106.25C66.77 106.725 67.1551 107.11 67.63 107.11H79.14C79.615 107.11 80 106.725 80 106.25V106.24C80 105.765 79.615 105.38 79.14 105.38Z" fill="#D5DADF"/>
<path d="M45.15 122.58H27.93C27.4716 122.58 27.1 122.952 27.1 123.41V123.48C27.1 123.938 27.4716 124.31 27.93 124.31H45.15C45.6084 124.31 45.98 123.938 45.98 123.48V123.41C45.98 122.952 45.6084 122.58 45.15 122.58Z" fill="#D5DADF"/>
<path d="M53.46 153.3H25.13C24.6551 153.3 24.27 153.685 24.27 154.16V154.17C24.27 154.645 24.6551 155.03 25.13 155.03H53.46C53.935 155.03 54.32 154.645 54.32 154.17V154.16C54.32 153.685 53.935 153.3 53.46 153.3Z" fill="#D5DADF"/>
<path d="M108.64 167.81H22.62C21.7198 167.81 20.99 168.54 20.99 169.44V181.11C20.99 182.01 21.7198 182.74 22.62 182.74H108.64C109.54 182.74 110.27 182.01 110.27 181.11V169.44C110.27 168.54 109.54 167.81 108.64 167.81Z" stroke="#E6E9EC" stroke-width="0.77" stroke-miterlimit="10"/>
<path d="M53.46 174.56H25.13C24.6551 174.56 24.27 174.945 24.27 175.42V175.43C24.27 175.905 24.6551 176.29 25.13 176.29H53.46C53.935 176.29 54.32 175.905 54.32 175.43V175.42C54.32 174.945 53.935 174.56 53.46 174.56Z" fill="#D5DADF"/>
<path d="M63.63 188.97H21.77C21.3448 188.97 21 189.315 21 189.74V189.93C21 190.355 21.3448 190.7 21.77 190.7H63.63C64.0553 190.7 64.4 190.355 64.4 189.93V189.74C64.4 189.315 64.0553 188.97 63.63 188.97Z" fill="#D5DADF"/>
<path d="M139.55 195.2H122.02C121.545 195.2 121.16 195.585 121.16 196.06V196.07C121.16 196.545 121.545 196.93 122.02 196.93H139.55C140.025 196.93 140.41 196.545 140.41 196.07V196.06C140.41 195.585 140.025 195.2 139.55 195.2Z" fill="#D5DADF"/>
<path d="M141.29 154.35H122.21C121.73 154.35 121.34 154.74 121.34 155.22V155.23C121.34 155.711 121.73 156.1 122.21 156.1H141.29C141.771 156.1 142.16 155.711 142.16 155.23V155.22C142.16 154.74 141.771 154.35 141.29 154.35Z" fill="#D5DADF"/>
<path d="M130.72 167.26H121.63C121.37 167.26 121.16 167.47 121.16 167.73C121.16 167.99 121.37 168.2 121.63 168.2H130.72C130.98 168.2 131.19 167.99 131.19 167.73C131.19 167.47 130.98 167.26 130.72 167.26Z" fill="#D5DADF"/>
<path d="M133.59 175.38H121.63C121.37 175.38 121.16 175.59 121.16 175.85C121.16 176.11 121.37 176.32 121.63 176.32H133.59C133.85 176.32 134.06 176.11 134.06 175.85C134.06 175.59 133.85 175.38 133.59 175.38Z" fill="#D5DADF"/>
<path d="M129.91 183.27H121.63C121.37 183.27 121.16 183.48 121.16 183.74C121.16 184 121.37 184.21 121.63 184.21H129.91C130.17 184.21 130.38 184 130.38 183.74C130.38 183.48 130.17 183.27 129.91 183.27Z" fill="#D5DADF"/>
<path d="M205.55 45.3H119.9C118.547 45.3 117.45 46.3969 117.45 47.75V111.91C117.45 113.263 118.547 114.36 119.9 114.36H205.55C206.903 114.36 208 113.263 208 111.91V47.75C208 46.3969 206.903 45.3 205.55 45.3Z" stroke="#E6E9EC" stroke-width="0.77" stroke-miterlimit="10"/>
<path d="M205.39 119.82H120.06C118.619 119.82 117.45 120.989 117.45 122.43V140.63C117.45 142.071 118.619 143.24 120.06 143.24H205.39C206.831 143.24 208 142.071 208 140.63V122.43C208 120.989 206.831 119.82 205.39 119.82Z" stroke="#E6E9EC" stroke-width="0.77" stroke-miterlimit="10"/>
<path d="M204.05 149.01H121.4C119.218 149.01 117.45 150.778 117.45 152.96V198.87C117.45 201.052 119.218 202.82 121.4 202.82H204.05C206.232 202.82 208 201.052 208 198.87V152.96C208 150.778 206.232 149.01 204.05 149.01Z" stroke="#E6E9EC" stroke-width="0.77" stroke-miterlimit="10"/>
<path d="M109.43 195.02H21.85C21.3806 195.02 21 195.401 21 195.87V201.97C21 202.439 21.3806 202.82 21.85 202.82H109.43C109.899 202.82 110.28 202.439 110.28 201.97V195.87C110.28 195.401 109.899 195.02 109.43 195.02Z" fill="#E6E9EC"/>
<path d="M73.7 198.28H57.57C57.1006 198.28 56.72 198.661 56.72 199.13C56.72 199.599 57.1006 199.98 57.57 199.98H73.7C74.1695 199.98 74.55 199.599 74.55 199.13C74.55 198.661 74.1695 198.28 73.7 198.28Z" fill="#D5DADF"/>
<path d="M46.75 96.92H29.47C29.1718 96.92 28.93 97.1618 28.93 97.46V97.51C28.93 97.8083 29.1718 98.05 29.47 98.05H46.75C47.0483 98.05 47.29 97.8083 47.29 97.51V97.46C47.29 97.1618 47.0483 96.92 46.75 96.92Z" fill="#D5DADF"/>
<path d="M40.56 113.36H28.76C28.4618 113.36 28.22 113.602 28.22 113.9V113.95C28.22 114.248 28.4618 114.49 28.76 114.49H40.56C40.8583 114.49 41.1 114.248 41.1 113.95V113.9C41.1 113.602 40.8583 113.36 40.56 113.36Z" fill="#D5DADF"/>
<path d="M82.03 113.36H69.32C69.0107 113.36 68.76 113.611 68.76 113.92V113.93C68.76 114.239 69.0107 114.49 69.32 114.49H82.03C82.3393 114.49 82.59 114.239 82.59 113.93V113.92C82.59 113.611 82.3393 113.36 82.03 113.36Z" fill="#D5DADF"/>
<path d="M47.6 129.27H29.47C29.1718 129.27 28.93 129.512 28.93 129.81V129.86C28.93 130.158 29.1718 130.4 29.47 130.4H47.6C47.8983 130.4 48.14 130.158 48.14 129.86V129.81C48.14 129.512 47.8983 129.27 47.6 129.27Z" fill="#D5DADF"/>
<path d="M144.21 69.59H157.61C157.87 69.59 158.08 69.8 158.08 70.06C158.08 70.32 157.87 70.53 157.61 70.53H144.21C143.95 70.53 143.74 70.32 143.74 70.06C143.74 69.8 143.95 69.59 144.21 69.59Z" fill="#D5DADF"/>
<path d="M144.21 66.78H160.42C160.68 66.78 160.89 66.99 160.89 67.25C160.89 67.51 160.68 67.72 160.42 67.72H144.21C143.95 67.72 143.74 67.51 143.74 67.25C143.74 66.99 143.95 66.78 144.21 66.78Z" fill="#D5DADF"/>
<path d="M144.21 73.85H149.97C150.23 73.85 150.44 74.06 150.44 74.32C150.44 74.58 150.23 74.79 149.97 74.79H144.21C143.95 74.79 143.74 74.58 143.74 74.32C143.74 74.06 143.95 73.85 144.21 73.85Z" fill="#D5DADF"/>
<path d="M141.21 64.21H122.32V78.24H141.21V64.21Z" fill="#E6E9EC"/>
<path d="M129.66 70.78C130.345 70.78 130.9 70.2248 130.9 69.54C130.9 68.8552 130.345 68.3 129.66 68.3C128.975 68.3 128.42 68.8552 128.42 69.54C128.42 70.2248 128.975 70.78 129.66 70.78Z" fill="#F8F9FA"/>
<path d="M141.21 69.8V78.24H122.32V73.8C123.81 72.51 126.01 71.47 127.95 73.9C131.28 78.06 132.2 70.57 137.03 68.7C138.69 68.06 140.09 68.7 141.22 69.8H141.21Z" fill="#F8F9FA"/>
<path d="M189.81 72.31C189.7 72.27 189.61 72.23 189.55 72.18C189.49 72.13 189.45 72.09 189.45 72.05C189.45 72.02 189.46 71.99 189.48 71.94C189.5 71.89 189.53 71.86 189.56 71.82C189.59 71.79 189.61 71.77 189.63 71.77C189.63 71.77 189.64 71.77 189.65 71.77C189.65 71.77 189.66 71.77 189.67 71.78C189.7 71.79 189.72 71.81 189.74 71.82H189.75C189.87 71.89 190 71.94 190.13 71.98C190.26 72.02 190.41 72.03 190.59 72.02C190.79 72.01 190.95 71.96 191.06 71.87C191.17 71.79 191.23 71.65 191.23 71.45C191.23 71.32 191.2 71.21 191.13 71.12C191.07 71.03 190.99 70.96 190.89 70.9C190.79 70.84 190.66 70.78 190.5 70.72C190.5 70.72 190.49 70.72 190.48 70.72C190.48 70.72 190.47 70.72 190.46 70.72C190.13 70.59 189.89 70.44 189.75 70.28C189.6 70.12 189.53 69.93 189.53 69.7C189.53 69.51 189.57 69.35 189.66 69.21C189.75 69.07 189.87 68.96 190.04 68.88C190.21 68.8 190.41 68.76 190.65 68.76C190.76 68.76 190.88 68.77 191.02 68.8C191.16 68.83 191.28 68.86 191.37 68.91C191.46 68.95 191.51 69 191.51 69.05C191.51 69.07 191.5 69.11 191.48 69.15C191.46 69.19 191.44 69.23 191.41 69.27C191.38 69.3 191.36 69.32 191.35 69.32C191.34 69.32 191.31 69.31 191.26 69.28L191.19 69.24C191.02 69.16 190.83 69.12 190.63 69.12C190.43 69.12 190.27 69.17 190.15 69.26C190.03 69.35 189.97 69.49 189.97 69.65C189.97 69.75 190 69.84 190.06 69.92C190.12 69.99 190.2 70.06 190.28 70.1C190.37 70.15 190.5 70.21 190.66 70.28H190.68C191.03 70.43 191.29 70.59 191.45 70.77C191.61 70.94 191.69 71.15 191.69 71.39C191.69 71.71 191.59 71.95 191.4 72.13C191.21 72.31 190.92 72.4 190.55 72.41C190.31 72.41 190.06 72.37 189.83 72.29L189.81 72.31ZM190.47 72.68V68.58C190.47 68.52 190.51 68.49 190.6 68.49H190.63C190.72 68.49 190.76 68.52 190.76 68.58V72.68C190.76 72.74 190.72 72.77 190.63 72.77H190.6C190.51 72.77 190.47 72.74 190.47 72.68Z" fill="#A4AFB7"/>
<path d="M192.02 72.39C192.02 72.39 191.97 72.35 191.97 72.32C191.97 72.3 191.98 72.27 192.01 72.23L192.85 71.02L192.07 69.87C192.07 69.87 192.03 69.8 192.03 69.78C192.03 69.72 192.11 69.69 192.27 69.69H192.32C192.38 69.69 192.43 69.69 192.46 69.71C192.49 69.72 192.52 69.74 192.54 69.77L193.03 70.51C193.03 70.51 193.07 70.57 193.09 70.6C193.1 70.63 193.12 70.65 193.13 70.66L193.15 70.69L193.17 70.66C193.2 70.6 193.23 70.55 193.26 70.5L193.76 69.76C193.76 69.76 193.81 69.71 193.85 69.7C193.89 69.69 193.94 69.68 194 69.68H194.02C194.1 69.68 194.15 69.68 194.19 69.7C194.22 69.71 194.24 69.74 194.24 69.77C194.24 69.79 194.23 69.82 194.2 69.86L193.42 71L194.26 72.22C194.26 72.22 194.3 72.29 194.3 72.31C194.3 72.37 194.22 72.4 194.06 72.4H194.01C193.95 72.4 193.9 72.4 193.87 72.38C193.84 72.37 193.81 72.35 193.79 72.32L193.24 71.5C193.24 71.5 193.2 71.44 193.18 71.41C193.17 71.38 193.15 71.36 193.14 71.35C193.14 71.34 193.13 71.33 193.12 71.32L193.1 71.35C193.07 71.41 193.04 71.46 193.01 71.51L192.45 72.34C192.45 72.34 192.4 72.39 192.36 72.4C192.32 72.41 192.27 72.42 192.22 72.42H192.2C192.12 72.42 192.06 72.42 192.03 72.4L192.02 72.39Z" fill="#A4AFB7"/>
<path d="M194.52 72.39C194.52 72.39 194.47 72.35 194.47 72.32C194.47 72.3 194.48 72.27 194.51 72.23L195.35 71.02L194.57 69.87C194.57 69.87 194.53 69.8 194.53 69.78C194.53 69.72 194.61 69.69 194.77 69.69H194.82C194.88 69.69 194.93 69.69 194.96 69.71C194.99 69.72 195.02 69.74 195.04 69.77L195.53 70.51C195.53 70.51 195.57 70.57 195.59 70.6C195.6 70.63 195.62 70.65 195.63 70.66L195.65 70.69L195.67 70.66C195.7 70.6 195.73 70.55 195.76 70.5L196.26 69.76C196.26 69.76 196.31 69.71 196.35 69.7C196.39 69.69 196.44 69.68 196.5 69.68H196.52C196.6 69.68 196.65 69.68 196.69 69.7C196.72 69.71 196.74 69.74 196.74 69.77C196.74 69.79 196.73 69.82 196.7 69.86L195.92 71L196.76 72.22C196.76 72.22 196.8 72.29 196.8 72.31C196.8 72.37 196.72 72.4 196.56 72.4H196.51C196.45 72.4 196.4 72.4 196.37 72.38C196.34 72.37 196.31 72.35 196.29 72.32L195.74 71.5C195.74 71.5 195.7 71.44 195.68 71.41C195.67 71.38 195.65 71.36 195.64 71.35C195.64 71.34 195.63 71.33 195.62 71.32L195.6 71.35C195.57 71.41 195.54 71.46 195.51 71.51L194.95 72.34C194.95 72.34 194.9 72.39 194.86 72.4C194.82 72.41 194.77 72.42 194.72 72.42H194.7C194.62 72.42 194.56 72.42 194.53 72.4L194.52 72.39Z" fill="#A4AFB7"/>
<path d="M197.03 72.39C197.03 72.39 196.98 72.35 196.98 72.32C196.98 72.3 196.99 72.27 197.02 72.23L197.86 71.02L197.08 69.87C197.08 69.87 197.04 69.8 197.04 69.78C197.04 69.72 197.12 69.69 197.28 69.69H197.33C197.39 69.69 197.44 69.69 197.47 69.71C197.5 69.72 197.53 69.74 197.55 69.77L198.04 70.51C198.04 70.51 198.08 70.57 198.1 70.6C198.11 70.63 198.13 70.65 198.14 70.66L198.16 70.69L198.18 70.66C198.21 70.6 198.24 70.55 198.27 70.5L198.77 69.76C198.77 69.76 198.82 69.71 198.86 69.7C198.9 69.69 198.95 69.68 199.01 69.68H199.03C199.11 69.68 199.16 69.68 199.2 69.7C199.23 69.71 199.25 69.74 199.25 69.77C199.25 69.79 199.24 69.82 199.21 69.86L198.43 71L199.27 72.22C199.27 72.22 199.31 72.29 199.31 72.31C199.31 72.37 199.23 72.4 199.07 72.4H199.02C198.96 72.4 198.91 72.4 198.88 72.38C198.85 72.37 198.82 72.35 198.8 72.32L198.25 71.5C198.25 71.5 198.21 71.44 198.19 71.41C198.18 71.38 198.16 71.36 198.15 71.35C198.15 71.34 198.14 71.33 198.13 71.32L198.11 71.35C198.08 71.41 198.05 71.46 198.02 71.51L197.46 72.34C197.46 72.34 197.41 72.39 197.37 72.4C197.33 72.41 197.28 72.42 197.23 72.42H197.21C197.13 72.42 197.07 72.42 197.04 72.4L197.03 72.39Z" fill="#A4AFB7"/>
<path d="M199.64 72.3V71.96C199.64 71.88 199.71 71.85 199.85 71.85H199.94C200.08 71.85 200.15 71.89 200.15 71.96V72.3C200.15 72.38 200.08 72.41 199.94 72.41H199.85C199.71 72.41 199.64 72.37 199.64 72.3Z" fill="#A4AFB7"/>
<path d="M200.56 72.39C200.56 72.39 200.51 72.35 200.51 72.32C200.51 72.3 200.52 72.27 200.55 72.23L201.39 71.02L200.61 69.87C200.61 69.87 200.57 69.8 200.57 69.78C200.57 69.72 200.65 69.69 200.81 69.69H200.86C200.92 69.69 200.97 69.69 201 69.71C201.03 69.72 201.06 69.74 201.08 69.77L201.57 70.51C201.57 70.51 201.61 70.57 201.63 70.6C201.64 70.63 201.66 70.65 201.67 70.66L201.69 70.69L201.71 70.66C201.74 70.6 201.77 70.55 201.8 70.5L202.3 69.76C202.3 69.76 202.35 69.71 202.39 69.7C202.43 69.69 202.48 69.68 202.54 69.68H202.56C202.64 69.68 202.69 69.68 202.73 69.7C202.76 69.71 202.78 69.74 202.78 69.77C202.78 69.79 202.77 69.82 202.74 69.86L201.96 71L202.8 72.22C202.8 72.22 202.84 72.29 202.84 72.31C202.84 72.37 202.76 72.4 202.6 72.4H202.55C202.49 72.4 202.44 72.4 202.41 72.38C202.38 72.37 202.35 72.35 202.33 72.32L201.78 71.5C201.78 71.5 201.74 71.44 201.72 71.41C201.71 71.38 201.69 71.36 201.68 71.35C201.68 71.34 201.67 71.33 201.66 71.32L201.64 71.35C201.61 71.41 201.58 71.46 201.55 71.51L200.99 72.34C200.99 72.34 200.94 72.39 200.9 72.4C200.86 72.41 200.81 72.42 200.76 72.42H200.74C200.66 72.42 200.6 72.42 200.57 72.4L200.56 72.39Z" fill="#A4AFB7"/>
<path d="M181.31 68.33H170.18C169.534 68.33 169.01 68.8538 169.01 69.5V72.06C169.01 72.7062 169.534 73.23 170.18 73.23H181.31C181.956 73.23 182.48 72.7062 182.48 72.06V69.5C182.48 68.8538 181.956 68.33 181.31 68.33Z" fill="#E6E9EC"/>
<path d="M171.98 70.95H170.66C170.57 70.95 170.49 70.88 170.49 70.78C170.49 70.68 170.56 70.61 170.66 70.61H171.98C172.07 70.61 172.15 70.68 172.15 70.78C172.15 70.88 172.08 70.95 171.98 70.95Z" fill="#A4AFB7"/>
<path d="M180.81 70.95H179.48C179.39 70.95 179.31 70.88 179.31 70.78C179.31 70.68 179.38 70.61 179.48 70.61H180.81C180.9 70.61 180.98 70.68 180.98 70.78C180.98 70.88 180.91 70.95 180.81 70.95Z" fill="#A4AFB7"/>
<path d="M180.15 71.61C180.06 71.61 179.98 71.54 179.98 71.44V70.11C179.98 70.02 180.05 69.94 180.15 69.94C180.25 69.94 180.32 70.01 180.32 70.11V71.44C180.32 71.53 180.25 71.61 180.15 71.61Z" fill="#A4AFB7"/>
<path d="M175.12 71.66V71.52L175.3 71.34C175.74 70.92 175.94 70.7 175.94 70.44C175.94 70.27 175.86 70.1 175.6 70.1C175.44 70.1 175.31 70.18 175.24 70.25L175.17 70.09C175.29 69.99 175.46 69.92 175.66 69.92C176.03 69.92 176.19 70.17 176.19 70.42C176.19 70.74 175.96 70.99 175.6 71.34L175.46 71.47H176.23V71.66H175.13H175.12Z" fill="#A4AFB7"/>
<path d="M173.69 69.48C173.69 69.4248 173.645 69.38 173.59 69.38C173.535 69.38 173.49 69.4248 173.49 69.48V72.1C173.49 72.1552 173.535 72.2 173.59 72.2C173.645 72.2 173.69 72.1552 173.69 72.1V69.48Z" fill="#A4AFB7"/>
<path d="M177.9 69.48C177.9 69.4248 177.855 69.38 177.8 69.38C177.745 69.38 177.7 69.4248 177.7 69.48V72.1C177.7 72.1552 177.745 72.2 177.8 72.2C177.855 72.2 177.9 72.1552 177.9 72.1V69.48Z" fill="#A4AFB7"/>
<path d="M144.21 90.45H157.61C157.87 90.45 158.08 90.66 158.08 90.92C158.08 91.18 157.87 91.39 157.61 91.39H144.21C143.95 91.39 143.74 91.18 143.74 90.92C143.74 90.66 143.95 90.45 144.21 90.45Z" fill="#D5DADF"/>
<path d="M144.21 87.64H160.42C160.68 87.64 160.89 87.85 160.89 88.11C160.89 88.37 160.68 88.58 160.42 88.58H144.21C143.95 88.58 143.74 88.37 143.74 88.11C143.74 87.85 143.95 87.64 144.21 87.64Z" fill="#D5DADF"/>
<path d="M144.21 94.71H149.97C150.23 94.71 150.44 94.92 150.44 95.18C150.44 95.44 150.23 95.65 149.97 95.65H144.21C143.95 95.65 143.74 95.44 143.74 95.18C143.74 94.92 143.95 94.71 144.21 94.71Z" fill="#D5DADF"/>
<path d="M141.21 85.07H122.32V99.1H141.21V85.07Z" fill="#E6E9EC"/>
<path d="M129.66 91.64C130.345 91.64 130.9 91.0849 130.9 90.4C130.9 89.7152 130.345 89.16 129.66 89.16C128.975 89.16 128.42 89.7152 128.42 90.4C128.42 91.0849 128.975 91.64 129.66 91.64Z" fill="#F8F9FA"/>
<path d="M141.21 90.66V99.1H122.32V94.66C123.81 93.37 126.01 92.33 127.95 94.76C131.28 98.92 132.2 91.43 137.03 89.56C138.69 88.92 140.09 89.56 141.22 90.66H141.21Z" fill="#F8F9FA"/>
<path d="M189.81 93.18C189.7 93.14 189.61 93.1 189.55 93.05C189.49 93 189.45 92.96 189.45 92.92C189.45 92.89 189.46 92.86 189.48 92.81C189.5 92.76 189.53 92.73 189.56 92.69C189.59 92.66 189.61 92.64 189.63 92.64C189.63 92.64 189.64 92.64 189.65 92.64C189.65 92.64 189.66 92.64 189.67 92.65C189.7 92.66 189.72 92.68 189.74 92.69H189.75C189.87 92.76 190 92.81 190.13 92.85C190.26 92.89 190.41 92.9 190.59 92.89C190.79 92.88 190.95 92.83 191.06 92.74C191.17 92.66 191.23 92.52 191.23 92.32C191.23 92.19 191.2 92.08 191.13 91.99C191.07 91.9 190.99 91.83 190.89 91.77C190.79 91.71 190.66 91.65 190.5 91.59C190.5 91.59 190.49 91.59 190.48 91.59C190.48 91.59 190.47 91.59 190.46 91.59C190.13 91.46 189.89 91.31 189.75 91.15C189.6 90.99 189.53 90.8 189.53 90.57C189.53 90.38 189.57 90.22 189.66 90.08C189.75 89.94 189.87 89.83 190.04 89.75C190.21 89.67 190.41 89.63 190.65 89.63C190.76 89.63 190.88 89.64 191.02 89.67C191.16 89.7 191.28 89.73 191.37 89.78C191.46 89.82 191.51 89.87 191.51 89.92C191.51 89.94 191.5 89.98 191.48 90.02C191.46 90.06 191.44 90.1 191.41 90.14C191.38 90.17 191.36 90.19 191.35 90.19C191.34 90.19 191.31 90.18 191.26 90.15L191.19 90.11C191.02 90.03 190.83 89.99 190.63 89.99C190.43 89.99 190.27 90.04 190.15 90.13C190.03 90.22 189.97 90.36 189.97 90.52C189.97 90.62 190 90.71 190.06 90.79C190.12 90.86 190.2 90.93 190.28 90.97C190.37 91.02 190.5 91.08 190.66 91.15H190.68C191.03 91.3 191.29 91.46 191.45 91.64C191.61 91.81 191.69 92.02 191.69 92.26C191.69 92.58 191.59 92.82 191.4 93C191.21 93.18 190.92 93.27 190.55 93.28C190.31 93.28 190.06 93.24 189.83 93.16L189.81 93.18ZM190.47 93.54V89.44C190.47 89.38 190.51 89.35 190.6 89.35H190.63C190.72 89.35 190.76 89.38 190.76 89.44V93.54C190.76 93.6 190.72 93.63 190.63 93.63H190.6C190.51 93.63 190.47 93.6 190.47 93.54Z" fill="#A4AFB7"/>
<path d="M192.02 93.25C192.02 93.25 191.97 93.21 191.97 93.18C191.97 93.16 191.98 93.13 192.01 93.09L192.85 91.88L192.07 90.73C192.07 90.73 192.03 90.66 192.03 90.64C192.03 90.58 192.11 90.55 192.27 90.55H192.32C192.38 90.55 192.43 90.55 192.46 90.57C192.49 90.58 192.52 90.6 192.54 90.63L193.03 91.37C193.03 91.37 193.07 91.43 193.09 91.46C193.1 91.49 193.12 91.51 193.13 91.52L193.15 91.55L193.17 91.52C193.2 91.46 193.23 91.41 193.26 91.36L193.76 90.62C193.76 90.62 193.81 90.57 193.85 90.56C193.89 90.55 193.94 90.54 194 90.54H194.02C194.1 90.54 194.15 90.54 194.19 90.56C194.22 90.57 194.24 90.6 194.24 90.63C194.24 90.65 194.23 90.68 194.2 90.72L193.42 91.86L194.26 93.08C194.26 93.08 194.3 93.15 194.3 93.17C194.3 93.23 194.22 93.26 194.06 93.26H194.01C193.95 93.26 193.9 93.26 193.87 93.24C193.84 93.23 193.81 93.21 193.79 93.18L193.24 92.36C193.24 92.36 193.2 92.3 193.18 92.27C193.17 92.24 193.15 92.22 193.14 92.21C193.14 92.2 193.13 92.19 193.12 92.18L193.1 92.21C193.07 92.27 193.04 92.32 193.01 92.37L192.45 93.2C192.45 93.2 192.4 93.25 192.36 93.26C192.32 93.27 192.27 93.28 192.22 93.28H192.2C192.12 93.28 192.06 93.28 192.03 93.26L192.02 93.25Z" fill="#A4AFB7"/>
<path d="M194.52 93.25C194.52 93.25 194.47 93.21 194.47 93.18C194.47 93.16 194.48 93.13 194.51 93.09L195.35 91.88L194.57 90.73C194.57 90.73 194.53 90.66 194.53 90.64C194.53 90.58 194.61 90.55 194.77 90.55H194.82C194.88 90.55 194.93 90.55 194.96 90.57C194.99 90.58 195.02 90.6 195.04 90.63L195.53 91.37C195.53 91.37 195.57 91.43 195.59 91.46C195.6 91.49 195.62 91.51 195.63 91.52L195.65 91.55L195.67 91.52C195.7 91.46 195.73 91.41 195.76 91.36L196.26 90.62C196.26 90.62 196.31 90.57 196.35 90.56C196.39 90.55 196.44 90.54 196.5 90.54H196.52C196.6 90.54 196.65 90.54 196.69 90.56C196.72 90.57 196.74 90.6 196.74 90.63C196.74 90.65 196.73 90.68 196.7 90.72L195.92 91.86L196.76 93.08C196.76 93.08 196.8 93.15 196.8 93.17C196.8 93.23 196.72 93.26 196.56 93.26H196.51C196.45 93.26 196.4 93.26 196.37 93.24C196.34 93.23 196.31 93.21 196.29 93.18L195.74 92.36C195.74 92.36 195.7 92.3 195.68 92.27C195.67 92.24 195.65 92.22 195.64 92.21C195.64 92.2 195.63 92.19 195.62 92.18L195.6 92.21C195.57 92.27 195.54 92.32 195.51 92.37L194.95 93.2C194.95 93.2 194.9 93.25 194.86 93.26C194.82 93.27 194.77 93.28 194.72 93.28H194.7C194.62 93.28 194.56 93.28 194.53 93.26L194.52 93.25Z" fill="#A4AFB7"/>
<path d="M197.03 93.25C197.03 93.25 196.98 93.21 196.98 93.18C196.98 93.16 196.99 93.13 197.02 93.09L197.86 91.88L197.08 90.73C197.08 90.73 197.04 90.66 197.04 90.64C197.04 90.58 197.12 90.55 197.28 90.55H197.33C197.39 90.55 197.44 90.55 197.47 90.57C197.5 90.58 197.53 90.6 197.55 90.63L198.04 91.37C198.04 91.37 198.08 91.43 198.1 91.46C198.11 91.49 198.13 91.51 198.14 91.52L198.16 91.55L198.18 91.52C198.21 91.46 198.24 91.41 198.27 91.36L198.77 90.62C198.77 90.62 198.82 90.57 198.86 90.56C198.9 90.55 198.95 90.54 199.01 90.54H199.03C199.11 90.54 199.16 90.54 199.2 90.56C199.23 90.57 199.25 90.6 199.25 90.63C199.25 90.65 199.24 90.68 199.21 90.72L198.43 91.86L199.27 93.08C199.27 93.08 199.31 93.15 199.31 93.17C199.31 93.23 199.23 93.26 199.07 93.26H199.02C198.96 93.26 198.91 93.26 198.88 93.24C198.85 93.23 198.82 93.21 198.8 93.18L198.25 92.36C198.25 92.36 198.21 92.3 198.19 92.27C198.18 92.24 198.16 92.22 198.15 92.21C198.15 92.2 198.14 92.19 198.13 92.18L198.11 92.21C198.08 92.27 198.05 92.32 198.02 92.37L197.46 93.2C197.46 93.2 197.41 93.25 197.37 93.26C197.33 93.27 197.28 93.28 197.23 93.28H197.21C197.13 93.28 197.07 93.28 197.04 93.26L197.03 93.25Z" fill="#A4AFB7"/>
<path d="M199.64 93.16V92.82C199.64 92.74 199.71 92.71 199.85 92.71H199.94C200.08 92.71 200.15 92.75 200.15 92.82V93.16C200.15 93.24 200.08 93.27 199.94 93.27H199.85C199.71 93.27 199.64 93.23 199.64 93.16Z" fill="#A4AFB7"/>
<path d="M200.56 93.25C200.56 93.25 200.51 93.21 200.51 93.18C200.51 93.16 200.52 93.13 200.55 93.09L201.39 91.88L200.61 90.73C200.61 90.73 200.57 90.66 200.57 90.64C200.57 90.58 200.65 90.55 200.81 90.55H200.86C200.92 90.55 200.97 90.55 201 90.57C201.03 90.58 201.06 90.6 201.08 90.63L201.57 91.37C201.57 91.37 201.61 91.43 201.63 91.46C201.64 91.49 201.66 91.51 201.67 91.52L201.69 91.55L201.71 91.52C201.74 91.46 201.77 91.41 201.8 91.36L202.3 90.62C202.3 90.62 202.35 90.57 202.39 90.56C202.43 90.55 202.48 90.54 202.54 90.54H202.56C202.64 90.54 202.69 90.54 202.73 90.56C202.76 90.57 202.78 90.6 202.78 90.63C202.78 90.65 202.77 90.68 202.74 90.72L201.96 91.86L202.8 93.08C202.8 93.08 202.84 93.15 202.84 93.17C202.84 93.23 202.76 93.26 202.6 93.26H202.55C202.49 93.26 202.44 93.26 202.41 93.24C202.38 93.23 202.35 93.21 202.33 93.18L201.78 92.36C201.78 92.36 201.74 92.3 201.72 92.27C201.71 92.24 201.69 92.22 201.68 92.21C201.68 92.2 201.67 92.19 201.66 92.18L201.64 92.21C201.61 92.27 201.58 92.32 201.55 92.37L200.99 93.2C200.99 93.2 200.94 93.25 200.9 93.26C200.86 93.27 200.81 93.28 200.76 93.28H200.74C200.66 93.28 200.6 93.28 200.57 93.26L200.56 93.25Z" fill="#A4AFB7"/>
<path d="M181.31 89.19H170.18C169.534 89.19 169.01 89.7138 169.01 90.36V92.92C169.01 93.5662 169.534 94.09 170.18 94.09H181.31C181.956 94.09 182.48 93.5662 182.48 92.92V90.36C182.48 89.7138 181.956 89.19 181.31 89.19Z" fill="#E6E9EC"/>
<path d="M171.98 91.81H170.66C170.57 91.81 170.49 91.74 170.49 91.64C170.49 91.54 170.56 91.47 170.66 91.47H171.98C172.07 91.47 172.15 91.54 172.15 91.64C172.15 91.74 172.08 91.81 171.98 91.81Z" fill="#A4AFB7"/>
<path d="M180.81 91.81H179.48C179.39 91.81 179.31 91.74 179.31 91.64C179.31 91.54 179.38 91.47 179.48 91.47H180.81C180.9 91.47 180.98 91.54 180.98 91.64C180.98 91.74 180.91 91.81 180.81 91.81Z" fill="#A4AFB7"/>
<path d="M180.15 92.47C180.06 92.47 179.98 92.4 179.98 92.3V90.97C179.98 90.88 180.05 90.8 180.15 90.8C180.25 90.8 180.32 90.87 180.32 90.97V92.3C180.32 92.39 180.25 92.47 180.15 92.47Z" fill="#A4AFB7"/>
<path d="M175.12 92.52V92.38L175.3 92.2C175.74 91.78 175.94 91.56 175.94 91.3C175.94 91.13 175.86 90.96 175.6 90.96C175.44 90.96 175.31 91.04 175.24 91.11L175.17 90.95C175.29 90.85 175.46 90.78 175.66 90.78C176.03 90.78 176.19 91.03 176.19 91.28C176.19 91.6 175.96 91.85 175.6 92.2L175.46 92.33H176.23V92.52H175.13H175.12Z" fill="#A4AFB7"/>
<path d="M173.69 90.34C173.69 90.2848 173.645 90.24 173.59 90.24C173.535 90.24 173.49 90.2848 173.49 90.34V92.96C173.49 93.0153 173.535 93.06 173.59 93.06C173.645 93.06 173.69 93.0153 173.69 92.96V90.34Z" fill="#A4AFB7"/>
<path d="M177.9 90.34C177.9 90.2848 177.855 90.24 177.8 90.24C177.745 90.24 177.7 90.2848 177.7 90.34V92.96C177.7 93.0153 177.745 93.06 177.8 93.06C177.855 93.06 177.9 93.0153 177.9 92.96V90.34Z" fill="#A4AFB7"/>
<path d="M102.16 56.35H99C98.2047 56.35 97.56 56.9947 97.56 57.79V60.95C97.56 61.7453 98.2047 62.39 99 62.39H102.16C102.955 62.39 103.6 61.7453 103.6 60.95V57.79C103.6 56.9947 102.955 56.35 102.16 56.35Z" fill="#D5DADF"/>
<path d="M103.53 78.36H100.35C99.5603 78.36 98.92 79.0002 98.92 79.79V82.89C98.92 83.6798 99.5603 84.32 100.35 84.32H103.53C104.32 84.32 104.96 83.6798 104.96 82.89V79.79C104.96 79.0002 104.32 78.36 103.53 78.36Z" fill="#D5DADF"/>
<path d="M96.18 78.36H93C92.2102 78.36 91.57 79.0002 91.57 79.79V82.89C91.57 83.6798 92.2102 84.32 93 84.32H96.18C96.9698 84.32 97.61 83.6798 97.61 82.89V79.79C97.61 79.0002 96.9698 78.36 96.18 78.36Z" fill="#D5DADF"/>
<path d="M88.57 78.36H85.39C84.6003 78.36 83.96 79.0002 83.96 79.79V82.89C83.96 83.6798 84.6003 84.32 85.39 84.32H88.57C89.3598 84.32 90 83.6798 90 82.89V79.79C90 79.0002 89.3598 78.36 88.57 78.36Z" fill="#D5DADF"/>
<path d="M28.2657 19.5598H26.8739C26.8342 19.3316 26.761 19.1294 26.6543 18.9532C26.5476 18.7746 26.4149 18.6232 26.2561 18.4992C26.0973 18.3751 25.9162 18.2821 25.7127 18.22C25.5118 18.1555 25.2947 18.1233 25.0614 18.1233C24.6471 18.1233 24.2799 18.2275 23.9599 18.4359C23.6398 18.6418 23.3892 18.9445 23.2081 19.344C23.027 19.7409 22.9364 20.226 22.9364 20.7991C22.9364 21.3822 23.027 21.8734 23.2081 22.2729C23.3917 22.6698 23.6423 22.97 23.9599 23.1735C24.2799 23.3744 24.6459 23.4749 25.0577 23.4749C25.286 23.4749 25.4993 23.4452 25.6978 23.3856C25.8988 23.3236 26.0787 23.233 26.2375 23.1139C26.3987 22.9948 26.534 22.8485 26.6431 22.6748C26.7548 22.5011 26.8317 22.3026 26.8739 22.0793L28.2657 22.0868C28.2136 22.449 28.1007 22.7889 27.9271 23.1065C27.7559 23.4241 27.5313 23.7044 27.2535 23.9476C26.9756 24.1882 26.6506 24.3768 26.2784 24.5133C25.9062 24.6472 25.4931 24.7142 25.0391 24.7142C24.3692 24.7142 23.7713 24.5592 23.2453 24.249C22.7193 23.9389 22.305 23.4911 22.0023 22.9055C21.6996 22.32 21.5483 21.6179 21.5483 20.7991C21.5483 19.9779 21.7008 19.2757 22.006 18.6927C22.3112 18.1072 22.7268 17.6593 23.2527 17.3492C23.7787 17.0391 24.3742 16.884 25.0391 16.884C25.4634 16.884 25.8579 16.9435 26.2226 17.0626C26.5873 17.1817 26.9123 17.3566 27.1976 17.5874C27.483 17.8156 27.7174 18.096 27.901 18.4285C28.0871 18.7584 28.2087 19.1356 28.2657 19.5598ZM30.8178 21.2606V24.61H29.4706V16.9882H30.788V19.865H30.855C30.989 19.5424 31.1962 19.2881 31.4765 19.1021C31.7594 18.9135 32.1191 18.8192 32.5558 18.8192C32.9528 18.8192 33.2989 18.9023 33.5941 19.0686C33.8894 19.2348 34.1176 19.4779 34.2789 19.798C34.4426 20.1181 34.5245 20.5088 34.5245 20.9703V24.61H33.1773V21.1787C33.1773 20.7941 33.0781 20.4952 32.8796 20.2818C32.6836 20.066 32.4082 19.958 32.0534 19.958C31.8152 19.958 31.6018 20.0101 31.4133 20.1143C31.2272 20.2161 31.0808 20.3637 30.9741 20.5572C30.8699 20.7507 30.8178 20.9852 30.8178 21.2606ZM38.4285 24.7217C37.8553 24.7217 37.3604 24.6026 36.9436 24.3644C36.5292 24.1237 36.2104 23.7838 35.9871 23.3447C35.7638 22.903 35.6522 22.3833 35.6522 21.7853C35.6522 21.1973 35.7638 20.6813 35.9871 20.2371C36.2129 19.7906 36.528 19.4432 36.9324 19.1951C37.3368 18.9445 37.8119 18.8192 38.3578 18.8192C38.7101 18.8192 39.0425 18.8763 39.3551 18.9904C39.6702 19.1021 39.9481 19.2757 40.1888 19.5114C40.4319 19.7471 40.623 20.0473 40.7619 20.4121C40.9008 20.7743 40.9703 21.206 40.9703 21.7072V22.1203H36.2848V21.2122H39.6789C39.6764 20.9542 39.6206 20.7247 39.5114 20.5237C39.4023 20.3203 39.2497 20.1602 39.0537 20.0436C38.8602 19.927 38.6344 19.8687 38.3764 19.8687C38.101 19.8687 37.8591 19.9357 37.6507 20.0697C37.4422 20.2012 37.2797 20.3748 37.1631 20.5907C37.049 20.8041 36.9907 21.0385 36.9882 21.2941V22.0868C36.9882 22.4192 37.049 22.7046 37.1706 22.9427C37.2921 23.1784 37.4621 23.3596 37.6804 23.4861C37.8988 23.6101 38.1543 23.6722 38.4471 23.6722C38.6431 23.6722 38.8205 23.6449 38.9793 23.5903C39.138 23.5332 39.2757 23.4501 39.3924 23.341C39.509 23.2318 39.597 23.0966 39.6566 22.9353L40.9145 23.0767C40.8351 23.4092 40.6837 23.6995 40.4605 23.9476C40.2396 24.1932 39.9568 24.3842 39.6119 24.5207C39.2671 24.6547 38.8726 24.7217 38.4285 24.7217ZM44.6035 24.7217C44.0329 24.7217 43.5429 24.5964 43.1335 24.3458C42.7266 24.0952 42.4127 23.7491 42.1919 23.3075C41.9736 22.8633 41.8644 22.3523 41.8644 21.7742C41.8644 21.1936 41.9761 20.6813 42.1994 20.2371C42.4227 19.7906 42.7378 19.4432 43.1447 19.1951C43.554 18.9445 44.0378 18.8192 44.5961 18.8192C45.06 18.8192 45.4706 18.9048 45.8279 19.076C46.1877 19.2447 46.4742 19.4841 46.6876 19.7943C46.901 20.1019 47.0225 20.4617 47.0523 20.8735H45.7647C45.7125 20.5981 45.5885 20.3686 45.3925 20.185C45.199 19.999 44.9397 19.9059 44.6147 19.9059C44.3393 19.9059 44.0974 19.9804 43.889 20.1292C43.6806 20.2756 43.5181 20.4865 43.4014 20.7619C43.2873 21.0373 43.2302 21.3673 43.2302 21.7518C43.2302 22.1414 43.2873 22.4763 43.4014 22.7567C43.5156 23.0345 43.6756 23.2492 43.8815 23.4005C44.0899 23.5494 44.3343 23.6238 44.6147 23.6238C44.8132 23.6238 44.9906 23.5866 45.1469 23.5121C45.3057 23.4352 45.4384 23.3248 45.5451 23.1809C45.6518 23.037 45.725 22.8621 45.7647 22.6562H47.0523C47.0201 23.0606 46.901 23.4191 46.695 23.7317C46.4891 24.0419 46.2088 24.285 45.854 24.4612C45.4992 24.6348 45.0824 24.7217 44.6035 24.7217ZM49.3867 22.8162L49.383 21.1899H49.5988L51.6531 18.8937H53.2274L50.7004 21.7072H50.4213L49.3867 22.8162ZM48.1586 24.61V16.9882H49.5058V24.61H48.1586ZM51.7462 24.61L49.8854 22.0086L50.7935 21.0596L53.3576 24.61H51.7462ZM56.3833 24.7217C55.825 24.7217 55.3412 24.5989 54.9319 24.3532C54.5225 24.1076 54.2049 23.764 53.9791 23.3223C53.7558 22.8807 53.6442 22.3647 53.6442 21.7742C53.6442 21.1837 53.7558 20.6664 53.9791 20.2223C54.2049 19.7782 54.5225 19.4333 54.9319 19.1877C55.3412 18.942 55.825 18.8192 56.3833 18.8192C56.9415 18.8192 57.4253 18.942 57.8347 19.1877C58.2441 19.4333 58.5604 19.7782 58.7837 20.2223C59.0095 20.6664 59.1224 21.1837 59.1224 21.7742C59.1224 22.3647 59.0095 22.8807 58.7837 23.3223C58.5604 23.764 58.2441 24.1076 57.8347 24.3532C57.4253 24.5989 56.9415 24.7217 56.3833 24.7217ZM56.3907 23.6424C56.6934 23.6424 56.9465 23.5593 57.1499 23.3931C57.3534 23.2243 57.5047 22.9986 57.604 22.7157C57.7057 22.4329 57.7565 22.1178 57.7565 21.7704C57.7565 21.4206 57.7057 21.1043 57.604 20.8214C57.5047 20.5361 57.3534 20.3091 57.1499 20.1404C56.9465 19.9717 56.6934 19.8873 56.3907 19.8873C56.0806 19.8873 55.8226 19.9717 55.6166 20.1404C55.4132 20.3091 55.2606 20.5361 55.1589 20.8214C55.0596 21.1043 55.01 21.4206 55.01 21.7704C55.01 22.1178 55.0596 22.4329 55.1589 22.7157C55.2606 22.9986 55.4132 23.2243 55.6166 23.3931C55.8226 23.5593 56.0806 23.6424 56.3907 23.6424ZM63.9093 22.2059V18.8937H65.2565V24.61H63.9502V23.594H63.8907C63.7616 23.9141 63.5495 24.1758 63.2543 24.3793C62.9615 24.5827 62.6005 24.6844 62.1713 24.6844C61.7966 24.6844 61.4654 24.6013 61.1776 24.4351C60.8923 24.2664 60.669 24.022 60.5077 23.7019C60.3465 23.3794 60.2658 22.9899 60.2658 22.5334V18.8937H61.613V22.325C61.613 22.6872 61.7123 22.975 61.9108 23.1884C62.1093 23.4017 62.3698 23.5084 62.6923 23.5084C62.8908 23.5084 63.0831 23.46 63.2692 23.3633C63.4552 23.2665 63.6078 23.1226 63.7269 22.9316C63.8485 22.7381 63.9093 22.4962 63.9093 22.2059ZM69.4963 18.8937V19.9357H66.2101V18.8937H69.4963ZM67.0214 17.5241H68.3687V22.8906C68.3687 23.0718 68.396 23.2107 68.4505 23.3075C68.5076 23.4017 68.582 23.4662 68.6738 23.501C68.7656 23.5357 68.8674 23.5531 68.979 23.5531C69.0634 23.5531 69.1403 23.5469 69.2097 23.5345C69.2817 23.5221 69.3363 23.5109 69.3735 23.501L69.6005 24.5542C69.5286 24.579 69.4256 24.6063 69.2916 24.6361C69.1601 24.6658 68.9989 24.6832 68.8078 24.6882C68.4704 24.6981 68.1665 24.6472 67.896 24.5356C67.6256 24.4215 67.411 24.2453 67.2522 24.0071C67.0959 23.7689 67.019 23.4712 67.0214 23.1139V17.5241ZM73.2821 24.61V16.9882H76.1403C76.7258 16.9882 77.2171 17.0974 77.614 17.3157C78.0135 17.534 78.3149 17.8342 78.5184 18.2163C78.7243 18.5959 78.8273 19.0276 78.8273 19.5114C78.8273 20.0002 78.7243 20.4344 78.5184 20.814C78.3124 21.1936 78.0085 21.4926 77.6066 21.7109C77.2046 21.9267 76.7097 22.0347 76.1217 22.0347H74.2274V20.8996H75.9356C76.278 20.8996 76.5583 20.84 76.7767 20.721C76.995 20.6019 77.1563 20.4381 77.2605 20.2297C77.3672 20.0213 77.4205 19.7819 77.4205 19.5114C77.4205 19.241 77.3672 19.0028 77.2605 18.7969C77.1563 18.591 76.9938 18.4309 76.7729 18.3168C76.5546 18.2002 76.273 18.1419 75.9281 18.1419H74.6628V24.61H73.2821ZM81.5096 24.7254C81.1474 24.7254 80.8211 24.6609 80.5308 24.5319C80.243 24.4004 80.0148 24.2068 79.846 23.9513C79.6798 23.6957 79.5967 23.3807 79.5967 23.006C79.5967 22.6835 79.6562 22.4168 79.7753 22.2059C79.8944 21.995 80.0569 21.8263 80.2629 21.6997C80.4688 21.5732 80.7008 21.4777 80.9588 21.4132C81.2193 21.3462 81.4885 21.2978 81.7664 21.268C82.1013 21.2333 82.373 21.2023 82.5814 21.175C82.7898 21.1452 82.9412 21.1006 83.0355 21.041C83.1322 20.979 83.1806 20.8835 83.1806 20.7544V20.7321C83.1806 20.4518 83.0975 20.2347 82.9312 20.0808C82.765 19.927 82.5256 19.8501 82.213 19.8501C81.883 19.8501 81.6212 19.9221 81.4277 20.066C81.2367 20.2099 81.1077 20.3798 81.0407 20.5758L79.7828 20.3972C79.882 20.0498 80.0458 19.7595 80.274 19.5263C80.5023 19.2906 80.7814 19.1145 81.1114 18.9979C81.4414 18.8788 81.8061 18.8192 82.2055 18.8192C82.4809 18.8192 82.7551 18.8515 83.028 18.916C83.3009 18.9805 83.5503 19.0872 83.776 19.236C84.0018 19.3824 84.1829 19.5821 84.3194 19.8352C84.4583 20.0883 84.5278 20.4046 84.5278 20.7842V24.61H83.2327V23.8248H83.188C83.1062 23.9835 82.9908 24.1324 82.8419 24.2714C82.6955 24.4078 82.5107 24.5182 82.2874 24.6026C82.0666 24.6844 81.8073 24.7254 81.5096 24.7254ZM81.8594 23.7354C82.1299 23.7354 82.3643 23.6821 82.5628 23.5754C82.7613 23.4662 82.9139 23.3223 83.0206 23.1437C83.1297 22.9651 83.1843 22.7703 83.1843 22.5594V21.8858C83.1421 21.9205 83.0702 21.9528 82.9685 21.9826C82.8692 22.0123 82.7576 22.0384 82.6335 22.0607C82.5095 22.0831 82.3867 22.1029 82.2651 22.1203C82.1435 22.1376 82.0381 22.1525 81.9487 22.1649C81.7478 22.1922 81.5679 22.2369 81.4091 22.2989C81.2503 22.3609 81.125 22.4478 81.0332 22.5594C80.9414 22.6686 80.8955 22.81 80.8955 22.9837C80.8955 23.2318 80.9861 23.4191 81.1672 23.5456C81.3483 23.6722 81.5791 23.7354 81.8594 23.7354ZM88.3685 26.8727C87.8847 26.8727 87.4691 26.807 87.1218 26.6755C86.7744 26.5465 86.4953 26.3728 86.2844 26.1545C86.0735 25.9361 85.9271 25.6942 85.8453 25.4288L87.0585 25.1348C87.1131 25.2464 87.1925 25.3568 87.2967 25.466C87.4009 25.5776 87.5411 25.6694 87.7172 25.7414C87.8959 25.8158 88.1204 25.853 88.3908 25.853C88.7729 25.853 89.0892 25.76 89.3398 25.5739C89.5904 25.3903 89.7157 25.0876 89.7157 24.6658V23.5829H89.6487C89.5793 23.7218 89.4775 23.8645 89.3435 24.0108C89.2121 24.1572 89.0371 24.28 88.8188 24.3793C88.603 24.4785 88.3313 24.5281 88.0038 24.5281C87.5646 24.5281 87.1664 24.4252 86.8091 24.2192C86.4544 24.0108 86.1715 23.7007 85.9606 23.2889C85.7522 22.8745 85.648 22.356 85.648 21.7332C85.648 21.1055 85.7522 20.5758 85.9606 20.1441C86.1715 19.7099 86.4556 19.3812 86.8129 19.1579C87.1701 18.9321 87.5684 18.8192 88.0075 18.8192C88.3424 18.8192 88.6178 18.8763 88.8337 18.9904C89.052 19.1021 89.2257 19.2373 89.3547 19.3961C89.4837 19.5524 89.5817 19.7 89.6487 19.8389H89.7232V18.8937H91.0518V24.7031C91.0518 25.1918 90.9352 25.5962 90.7019 25.9163C90.4687 26.2364 90.1499 26.4758 89.7455 26.6346C89.3411 26.7933 88.8821 26.8727 88.3685 26.8727ZM88.3797 23.4712C88.665 23.4712 88.9081 23.4017 89.1091 23.2628C89.3101 23.1239 89.4626 22.9241 89.5668 22.6636C89.671 22.4031 89.7232 22.0905 89.7232 21.7258C89.7232 21.366 89.671 21.0509 89.5668 20.7805C89.4651 20.5101 89.3138 20.3004 89.1128 20.1515C88.9143 20.0002 88.6699 19.9245 88.3797 19.9245C88.0794 19.9245 87.8289 20.0027 87.6279 20.159C87.4269 20.3153 87.2756 20.5299 87.1739 20.8028C87.0721 21.0733 87.0213 21.3809 87.0213 21.7258C87.0213 22.0756 87.0721 22.382 87.1739 22.645C87.2781 22.9055 87.4307 23.109 87.6316 23.2554C87.8351 23.3993 88.0844 23.4712 88.3797 23.4712ZM94.9631 24.7217C94.39 24.7217 93.8951 24.6026 93.4782 24.3644C93.0639 24.1237 92.7451 23.7838 92.5218 23.3447C92.2985 22.903 92.1868 22.3833 92.1868 21.7853C92.1868 21.1973 92.2985 20.6813 92.5218 20.2371C92.7476 19.7906 93.0627 19.4432 93.4671 19.1951C93.8715 18.9445 94.3466 18.8192 94.8924 18.8192C95.2447 18.8192 95.5772 18.8763 95.8898 18.9904C96.2049 19.1021 96.4828 19.2757 96.7235 19.5114C96.9666 19.7471 97.1576 20.0473 97.2966 20.4121C97.4355 20.7743 97.505 21.206 97.505 21.7072V22.1203H92.8195V21.2122H96.2136C96.2111 20.9542 96.1553 20.7247 96.0461 20.5237C95.937 20.3203 95.7844 20.1602 95.5884 20.0436C95.3949 19.927 95.1691 19.8687 94.911 19.8687C94.6356 19.8687 94.3937 19.9357 94.1853 20.0697C93.9769 20.2012 93.8144 20.3748 93.6978 20.5907C93.5837 20.8041 93.5254 21.0385 93.5229 21.2941V22.0868C93.5229 22.4192 93.5837 22.7046 93.7052 22.9427C93.8268 23.1784 93.9968 23.3596 94.2151 23.4861C94.4334 23.6101 94.689 23.6722 94.9818 23.6722C95.1778 23.6722 95.3552 23.6449 95.5139 23.5903C95.6727 23.5332 95.8104 23.4501 95.927 23.341C96.0436 23.2318 96.1317 23.0966 96.1913 22.9353L97.4492 23.0767C97.3698 23.4092 97.2184 23.6995 96.9951 23.9476C96.7743 24.1932 96.4915 24.3842 96.1466 24.5207C95.8017 24.6547 95.4073 24.7217 94.9631 24.7217Z" fill="#A4AFB7"/>
</g>
</svg>
