<svg width="229" height="222" viewBox="0 0 229 222" fill="none" xmlns="http://www.w3.org/2000/svg">
<mask id="mask0_188_240" style="mask-type:alpha" maskUnits="userSpaceOnUse" x="19" y="16" width="192" height="191">
<rect x="19" y="16" width="192" height="191" fill="#D9D9D9"/>
</mask>
<g mask="url(#mask0_188_240)">
<path d="M21.9532 18.0636H23.646L25.9131 23.597H26.0026L28.2696 18.0636H29.9624V25.7H28.635V20.4537H28.5642L26.4537 25.6776H25.4619L23.3515 20.4426H23.2806V25.7H21.9532V18.0636ZM32.2481 27.8477C32.0642 27.8477 31.8939 27.8328 31.7373 27.803C31.5832 27.7757 31.4601 27.7433 31.3682 27.706L31.6814 26.6546C31.8777 26.7117 32.053 26.7391 32.2071 26.7366C32.3612 26.7341 32.4967 26.6856 32.6135 26.5912C32.7329 26.4992 32.8335 26.3451 32.9156 26.1288L33.0312 25.8193L30.9543 19.9727H32.3861L33.706 24.298H33.7657L35.0894 19.9727H36.5249L34.2318 26.3935C34.1249 26.6968 33.9832 26.9566 33.8067 27.1728C33.6302 27.3916 33.414 27.5581 33.1579 27.6725C32.9044 27.7893 32.6011 27.8477 32.2481 27.8477ZM41.1038 25.7H39.6272L42.3156 18.0636H44.0233L46.7155 25.7H45.2389L43.1993 19.6297H43.1396L41.1038 25.7ZM41.1522 22.7059H45.1792V23.817H41.1522V22.7059ZM49.9855 25.8119C49.4138 25.8119 48.9228 25.6863 48.5127 25.4353C48.105 25.1842 47.7906 24.8374 47.5693 24.395C47.3506 23.95 47.2412 23.4379 47.2412 22.8587C47.2412 22.2771 47.3531 21.7638 47.5768 21.3188C47.8005 20.8714 48.1162 20.5233 48.5239 20.2748C48.934 20.0237 49.4188 19.8982 49.9781 19.8982C50.4429 19.8982 50.8543 19.9839 51.2123 20.1554C51.5727 20.3245 51.8598 20.5644 52.0736 20.8751C52.2874 21.1833 52.4092 21.5438 52.439 21.9564H51.1489C51.0967 21.6805 50.9724 21.4505 50.776 21.2666C50.5821 21.0802 50.3223 20.9869 49.9967 20.9869C49.7208 20.9869 49.4784 21.0615 49.2696 21.2107C49.0608 21.3573 48.898 21.5686 48.7812 21.8445C48.6668 22.1205 48.6096 22.4511 48.6096 22.8364C48.6096 23.2266 48.6668 23.5622 48.7812 23.8431C48.8955 24.1215 49.0558 24.3366 49.2622 24.4882C49.471 24.6373 49.7158 24.7119 49.9967 24.7119C50.1956 24.7119 50.3733 24.6746 50.5299 24.6C50.689 24.523 50.822 24.4124 50.9289 24.2682C51.0358 24.124 51.1091 23.9488 51.1489 23.7424H52.439C52.4067 24.1476 52.2874 24.5068 52.081 24.82C51.8747 25.1308 51.5938 25.3744 51.2384 25.5509C50.8829 25.7249 50.4653 25.8119 49.9855 25.8119ZM56.0456 25.8119C55.4738 25.8119 54.9829 25.6863 54.5727 25.4353C54.1651 25.1842 53.8506 24.8374 53.6294 24.395C53.4106 23.95 53.3013 23.4379 53.3013 22.8587C53.3013 22.2771 53.4131 21.7638 53.6368 21.3188C53.8606 20.8714 54.1763 20.5233 54.5839 20.2748C54.9941 20.0237 55.4788 19.8982 56.0381 19.8982C56.503 19.8982 56.9144 19.9839 57.2723 20.1554C57.6328 20.3245 57.9199 20.5644 58.1337 20.8751C58.3474 21.1833 58.4692 21.5438 58.4991 21.9564H57.2089C57.1567 21.6805 57.0324 21.4505 56.8361 21.2666C56.6422 21.0802 56.3824 20.9869 56.0568 20.9869C55.7808 20.9869 55.5385 21.0615 55.3297 21.2107C55.1209 21.3573 54.958 21.5686 54.8412 21.8445C54.7269 22.1205 54.6697 22.4511 54.6697 22.8364C54.6697 23.2266 54.7269 23.5622 54.8412 23.8431C54.9556 24.1215 55.1159 24.3366 55.3222 24.4882C55.531 24.6373 55.7759 24.7119 56.0568 24.7119C56.2556 24.7119 56.4334 24.6746 56.59 24.6C56.7491 24.523 56.8821 24.4124 56.9889 24.2682C57.0958 24.124 57.1692 23.9488 57.2089 23.7424H58.4991C58.4667 24.1476 58.3474 24.5068 58.1411 24.82C57.9348 25.1308 57.6539 25.3744 57.2984 25.5509C56.943 25.7249 56.5253 25.8119 56.0456 25.8119ZM62.1056 25.8119C61.5463 25.8119 61.0616 25.6888 60.6515 25.4427C60.2413 25.1966 59.9231 24.8524 59.6969 24.4099C59.4732 23.9674 59.3613 23.4504 59.3613 22.8587C59.3613 22.2671 59.4732 21.7488 59.6969 21.3039C59.9231 20.8589 60.2413 20.5134 60.6515 20.2673C61.0616 20.0212 61.5463 19.8982 62.1056 19.8982C62.6649 19.8982 63.1497 20.0212 63.5598 20.2673C63.97 20.5134 64.2869 20.8589 64.5106 21.3039C64.7369 21.7488 64.85 22.2671 64.85 22.8587C64.85 23.4504 64.7369 23.9674 64.5106 24.4099C64.2869 24.8524 63.97 25.1966 63.5598 25.4427C63.1497 25.6888 62.6649 25.8119 62.1056 25.8119ZM62.1131 24.7306C62.4164 24.7306 62.6699 24.6473 62.8738 24.4807C63.0776 24.3117 63.2292 24.0855 63.3287 23.8021C63.4306 23.5187 63.4815 23.203 63.4815 22.855C63.4815 22.5045 63.4306 22.1876 63.3287 21.9042C63.2292 21.6183 63.0776 21.3909 62.8738 21.2219C62.6699 21.0528 62.4164 20.9683 62.1131 20.9683C61.8024 20.9683 61.5439 21.0528 61.3375 21.2219C61.1337 21.3909 60.9808 21.6183 60.8789 21.9042C60.7795 22.1876 60.7298 22.5045 60.7298 22.855C60.7298 23.203 60.7795 23.5187 60.8789 23.8021C60.9808 24.0855 61.1337 24.3117 61.3375 24.4807C61.5439 24.6473 61.8024 24.7306 62.1131 24.7306ZM69.646 23.2913V19.9727H70.9958V25.7H69.687V24.6821H69.6273C69.4981 25.0027 69.2856 25.265 68.9897 25.4688C68.6964 25.6727 68.3347 25.7746 67.9047 25.7746C67.5293 25.7746 67.1975 25.6913 66.9091 25.5248C66.6233 25.3557 66.3995 25.1109 66.238 24.7902C66.0764 24.4671 65.9956 24.0768 65.9956 23.6194V19.9727H67.3454V23.4106C67.3454 23.7735 67.4448 24.0619 67.6437 24.2757C67.8425 24.4894 68.1036 24.5963 68.4267 24.5963C68.6256 24.5963 68.8182 24.5478 69.0047 24.4509C69.1911 24.354 69.344 24.2098 69.4633 24.0184C69.5851 23.8245 69.646 23.5821 69.646 23.2913ZM73.7336 22.3442V25.7H72.3838V19.9727H73.6739V20.9459H73.741C73.8728 20.6253 74.0828 20.3705 74.3712 20.1815C74.662 19.9926 75.0212 19.8982 75.4488 19.8982C75.844 19.8982 76.1883 19.9827 76.4816 20.1517C76.7774 20.3208 77.0061 20.5656 77.1677 20.8863C77.3318 21.2069 77.4125 21.596 77.4101 22.0534V25.7H76.0603V22.2622C76.0603 21.8793 75.9608 21.5798 75.762 21.3635C75.5656 21.1473 75.2934 21.0391 74.9454 21.0391C74.7092 21.0391 74.4992 21.0913 74.3152 21.1958C74.1338 21.2977 73.9909 21.4456 73.8864 21.6395C73.7845 21.8334 73.7336 22.0683 73.7336 22.3442ZM81.6421 19.9727V21.0168H78.3497V19.9727H81.6421ZM79.1625 18.6006H80.5123V23.9774C80.5123 24.1588 80.5397 24.298 80.5944 24.395C80.6515 24.4894 80.7261 24.5541 80.8181 24.5889C80.9101 24.6237 81.012 24.6411 81.1238 24.6411C81.2084 24.6411 81.2854 24.6348 81.355 24.6224C81.4271 24.61 81.4818 24.5988 81.5191 24.5889L81.7465 25.6441C81.6744 25.6689 81.5713 25.6963 81.4371 25.7261C81.3053 25.7559 81.1437 25.7733 80.9523 25.7783C80.6143 25.7883 80.3097 25.7373 80.0388 25.6254C79.7678 25.5111 79.5528 25.3346 79.3937 25.096C79.2371 24.8573 79.1601 24.559 79.1625 24.2011V18.6006ZM85.4351 25.7V18.0636H88.2988C88.8854 18.0636 89.3776 18.173 89.7753 18.3918C90.1756 18.6105 90.4776 18.9113 90.6814 19.2941C90.8877 19.6744 90.9909 20.107 90.9909 20.5917C90.9909 21.0814 90.8877 21.5164 90.6814 21.8967C90.4751 22.2771 90.1706 22.5766 89.7679 22.7954C89.3652 23.0116 88.8693 23.1198 88.2801 23.1198H86.3822V21.9825H88.0937C88.4367 21.9825 88.7176 21.9228 88.9364 21.8035C89.1551 21.6842 89.3167 21.5201 89.4211 21.3113C89.528 21.1025 89.5814 20.8627 89.5814 20.5917C89.5814 20.3208 89.528 20.0821 89.4211 19.8758C89.3167 19.6695 89.1539 19.5091 88.9327 19.3948C88.7139 19.278 88.4318 19.2195 88.0862 19.2195H86.8185V25.7H85.4351ZM93.6784 25.8156C93.3154 25.8156 92.9885 25.751 92.6977 25.6217C92.4094 25.49 92.1807 25.2961 92.0116 25.04C91.8451 24.784 91.7618 24.4683 91.7618 24.0929C91.7618 23.7698 91.8215 23.5026 91.9408 23.2913C92.0601 23.08 92.2229 22.9109 92.4292 22.7842C92.6356 22.6574 92.868 22.5617 93.1265 22.4971C93.3875 22.4299 93.6572 22.3815 93.9356 22.3516C94.2712 22.3168 94.5434 22.2858 94.7522 22.2584C94.961 22.2286 95.1127 22.1839 95.2071 22.1242C95.3041 22.0621 95.3525 21.9663 95.3525 21.8371V21.8147C95.3525 21.5338 95.2693 21.3163 95.1027 21.1622C94.9362 21.0081 94.6963 20.931 94.3831 20.931C94.0525 20.931 93.7902 21.0031 93.5963 21.1473C93.4049 21.2915 93.2757 21.4617 93.2085 21.6581L91.9482 21.4791C92.0477 21.1311 92.2117 20.8403 92.4404 20.6066C92.6691 20.3705 92.9488 20.194 93.2794 20.0771C93.61 19.9578 93.9754 19.8982 94.3756 19.8982C94.6515 19.8982 94.9262 19.9305 95.1997 19.9951C95.4731 20.0597 95.7229 20.1666 95.9491 20.3158C96.1753 20.4624 96.3568 20.6625 96.4935 20.9161C96.6327 21.1696 96.7023 21.4866 96.7023 21.8669V25.7H95.4047V24.9133H95.36C95.278 25.0723 95.1624 25.2215 95.0132 25.3607C94.8666 25.4974 94.6814 25.608 94.4576 25.6926C94.2364 25.7746 93.9766 25.8156 93.6784 25.8156ZM94.0288 24.8238C94.2998 24.8238 94.5347 24.7703 94.7336 24.6634C94.9324 24.5541 95.0853 24.4099 95.1922 24.2309C95.3016 24.0519 95.3563 23.8568 95.3563 23.6455V22.9706C95.314 23.0054 95.2419 23.0377 95.14 23.0676C95.0406 23.0974 94.9287 23.1235 94.8044 23.1459C94.6801 23.1682 94.5571 23.1881 94.4353 23.2055C94.3135 23.2229 94.2078 23.2378 94.1183 23.2503C93.917 23.2776 93.7368 23.3223 93.5777 23.3845C93.4186 23.4466 93.2931 23.5336 93.2011 23.6455C93.1091 23.7549 93.0631 23.8966 93.0631 24.0706C93.0631 24.3192 93.1538 24.5068 93.3353 24.6336C93.5168 24.7604 93.748 24.8238 94.0288 24.8238ZM100.55 27.9671C100.066 27.9671 99.6492 27.9012 99.3012 27.7694C98.9532 27.6402 98.6736 27.4662 98.4623 27.2474C98.251 27.0287 98.1043 26.7863 98.0223 26.5203L99.2378 26.2258C99.2925 26.3376 99.3721 26.4482 99.4765 26.5576C99.5809 26.6695 99.7213 26.7614 99.8978 26.8335C100.077 26.9081 100.302 26.9454 100.573 26.9454C100.956 26.9454 101.272 26.8522 101.524 26.6657C101.775 26.4818 101.9 26.1785 101.9 25.7559V24.6709H101.833C101.763 24.8101 101.661 24.953 101.527 25.0997C101.396 25.2464 101.22 25.3694 101.002 25.4688C100.785 25.5683 100.513 25.618 100.185 25.618C99.7449 25.618 99.346 25.5148 98.988 25.3085C98.6325 25.0997 98.3492 24.789 98.1379 24.3763C97.9291 23.9612 97.8247 23.4417 97.8247 22.8177C97.8247 22.1888 97.9291 21.6581 98.1379 21.2256C98.3492 20.7906 98.6338 20.4612 98.9917 20.2375C99.3497 20.0113 99.7487 19.8982 100.189 19.8982C100.524 19.8982 100.8 19.9553 101.016 20.0697C101.235 20.1815 101.409 20.317 101.538 20.4761C101.668 20.6327 101.766 20.7806 101.833 20.9198H101.908V19.9727H103.239V25.7932C103.239 26.2829 103.122 26.6881 102.888 27.0088C102.655 27.3295 102.335 27.5693 101.93 27.7284C101.525 27.8875 101.065 27.9671 100.55 27.9671ZM100.562 24.559C100.847 24.559 101.091 24.4894 101.292 24.3502C101.494 24.211 101.647 24.0109 101.751 23.7499C101.855 23.4889 101.908 23.1757 101.908 22.8103C101.908 22.4498 101.855 22.1341 101.751 21.8632C101.649 21.5922 101.497 21.3822 101.296 21.233C101.097 21.0814 100.852 21.0056 100.562 21.0056C100.261 21.0056 100.01 21.0839 99.8083 21.2405C99.607 21.3971 99.4553 21.6121 99.3534 21.8856C99.2515 22.1565 99.2005 22.4647 99.2005 22.8103C99.2005 23.1608 99.2515 23.4678 99.3534 23.7313C99.4578 23.9923 99.6107 24.1961 99.8121 24.3428C100.016 24.4869 100.266 24.559 100.562 24.559ZM107.158 25.8119C106.583 25.8119 106.087 25.6926 105.67 25.4539C105.255 25.2128 104.935 24.8722 104.712 24.4323C104.488 23.9898 104.376 23.469 104.376 22.8699C104.376 22.2808 104.488 21.7638 104.712 21.3188C104.938 20.8714 105.253 20.5233 105.659 20.2748C106.064 20.0237 106.54 19.8982 107.087 19.8982C107.44 19.8982 107.773 19.9553 108.086 20.0697C108.402 20.1815 108.68 20.3556 108.921 20.5917C109.165 20.8279 109.356 21.1286 109.495 21.494C109.635 21.857 109.704 22.2895 109.704 22.7916V23.2055H105.01V22.2957H108.41C108.408 22.0372 108.352 21.8073 108.243 21.6059C108.133 21.4021 107.98 21.2417 107.784 21.1249C107.59 21.0081 107.364 20.9497 107.105 20.9497C106.829 20.9497 106.587 21.0168 106.378 21.151C106.169 21.2828 106.007 21.4568 105.89 21.673C105.775 21.8868 105.717 22.1217 105.715 22.3777V23.172C105.715 23.5051 105.775 23.7909 105.897 24.0296C106.019 24.2657 106.189 24.4472 106.408 24.5739C106.627 24.6982 106.883 24.7604 107.176 24.7604C107.373 24.7604 107.55 24.733 107.709 24.6784C107.869 24.6212 108.006 24.5379 108.123 24.4285C108.24 24.3192 108.328 24.1837 108.388 24.0221L109.648 24.1638C109.569 24.4969 109.417 24.7877 109.193 25.0363C108.972 25.2824 108.689 25.4738 108.343 25.6105C107.998 25.7448 107.603 25.8119 107.158 25.8119Z" fill="#A4AFB7"/>
<path d="M50.3 61.4C50.3 64.7 49.2 67.7 47.4 70.1C47.4 70.1 47.3 70.3 47.2 70.3C44.5 73.7 40.4 75.9 35.7 75.9C31 75.9 26.9 73.7 24.2 70.3C24.2 70.3 24.1 70.2 24 70.1C22.2 67.7 21.1 64.7 21.1 61.4C21.1 53.4 27.6 46.9 35.7 46.9C43.8 46.9 50.2 53.4 50.2 61.4H50.3Z" fill="#D5DADF"/>
<path d="M35.8 61.5C38.3957 61.5 40.5 59.3958 40.5 56.8C40.5 54.2043 38.3957 52.1 35.8 52.1C33.2043 52.1 31.1 54.2043 31.1 56.8C31.1 59.3958 33.2043 61.5 35.8 61.5Z" fill="#F8F9FA"/>
<path d="M47.3 70.4C44.6 73.8 40.5 76 35.8 76C31.1 76 27 73.8 24.3 70.4C26 65.8 30.5 62.4 35.8 62.4C41.1 62.4 45.5 65.7 47.3 70.3V70.4Z" fill="#F8F9FA"/>
<path d="M90.1 94.7H23.4C22.185 94.7 21.2 95.685 21.2 96.9V105.3C21.2 106.515 22.185 107.5 23.4 107.5H90.1C91.315 107.5 92.3 106.515 92.3 105.3V96.9C92.3 95.685 91.315 94.7 90.1 94.7Z" fill="#F1F3F5"/>
<path d="M151.3 94.7H107.2C105.874 94.7 104.8 95.7745 104.8 97.1V114.9C104.8 116.226 105.874 117.3 107.2 117.3H151.3C152.625 117.3 153.7 116.226 153.7 114.9V97.1C153.7 95.7745 152.625 94.7 151.3 94.7Z" stroke="#E6E9EC" stroke-width="0.8" stroke-miterlimit="10"/>
<path d="M205.5 94.7H161.6C160.275 94.7 159.2 95.7745 159.2 97.1V114.9C159.2 116.226 160.275 117.3 161.6 117.3H205.5C206.826 117.3 207.9 116.226 207.9 114.9V97.1C207.9 95.7745 206.826 94.7 205.5 94.7Z" stroke="#E6E9EC" stroke-width="0.8" stroke-miterlimit="10"/>
<path d="M151.3 123.5H107.2C105.874 123.5 104.8 124.575 104.8 125.9V143.7C104.8 145.025 105.874 146.1 107.2 146.1H151.3C152.625 146.1 153.7 145.025 153.7 143.7V125.9C153.7 124.575 152.625 123.5 151.3 123.5Z" stroke="#E6E9EC" stroke-width="0.8" stroke-miterlimit="10"/>
<path d="M205.5 123.5H161.6C160.275 123.5 159.2 124.575 159.2 125.9V143.7C159.2 145.025 160.275 146.1 161.6 146.1H205.5C206.826 146.1 207.9 145.025 207.9 143.7V125.9C207.9 124.575 206.826 123.5 205.5 123.5Z" stroke="#E6E9EC" stroke-width="0.8" stroke-miterlimit="10"/>
<path d="M151.3 152.4H107.2C105.874 152.4 104.8 153.475 104.8 154.8V172.6C104.8 173.926 105.874 175 107.2 175H151.3C152.625 175 153.7 173.926 153.7 172.6V154.8C153.7 153.475 152.625 152.4 151.3 152.4Z" stroke="#E6E9EC" stroke-width="0.8" stroke-miterlimit="10"/>
<path d="M205.5 152.4H161.6C160.275 152.4 159.2 153.475 159.2 154.8V172.6C159.2 173.926 160.275 175 161.6 175H205.5C206.826 175 207.9 173.926 207.9 172.6V154.8C207.9 153.475 206.826 152.4 205.5 152.4Z" stroke="#E6E9EC" stroke-width="0.8" stroke-miterlimit="10"/>
<path d="M151.3 181.3H107.2C105.874 181.3 104.8 182.374 104.8 183.7V201.5C104.8 202.825 105.874 203.9 107.2 203.9H151.3C152.625 203.9 153.7 202.825 153.7 201.5V183.7C153.7 182.374 152.625 181.3 151.3 181.3Z" stroke="#E6E9EC" stroke-width="0.8" stroke-miterlimit="10"/>
<path d="M205.5 181.3H161.6C160.275 181.3 159.2 182.374 159.2 183.7V201.5C159.2 202.825 160.275 203.9 161.6 203.9H205.5C206.826 203.9 207.9 202.825 207.9 201.5V183.7C207.9 182.374 206.826 181.3 205.5 181.3Z" stroke="#E6E9EC" stroke-width="0.8" stroke-miterlimit="10"/>
<path d="M49.3 84.1H22.8C22.0268 84.1 21.4 84.7268 21.4 85.5C21.4 86.2732 22.0268 86.9 22.8 86.9H49.3C50.0732 86.9 50.7 86.2732 50.7 85.5C50.7 84.7268 50.0732 84.1 49.3 84.1Z" fill="#D5DADF"/>
<path d="M167.1 55H106.2C105.427 55 104.8 55.6268 104.8 56.4C104.8 57.1732 105.427 57.8 106.2 57.8H167.1C167.873 57.8 168.5 57.1732 168.5 56.4C168.5 55.6268 167.873 55 167.1 55Z" fill="#D5DADF"/>
<path d="M49.4 100H26.2C25.482 100 24.9 100.582 24.9 101.3V101.5C24.9 102.218 25.482 102.8 26.2 102.8H49.4C50.118 102.8 50.7 102.218 50.7 101.5V101.3C50.7 100.582 50.118 100 49.4 100Z" fill="#D5DADF"/>
<path d="M58.5 115.9H22.8C22.0268 115.9 21.4 116.527 21.4 117.3C21.4 118.073 22.0268 118.7 22.8 118.7H58.5C59.2732 118.7 59.9 118.073 59.9 117.3C59.9 116.527 59.2732 115.9 58.5 115.9Z" fill="#D5DADF"/>
<path d="M53.9 131.7H22.8C22.0268 131.7 21.4 132.327 21.4 133.1C21.4 133.873 22.0268 134.5 22.8 134.5H53.9C54.6732 134.5 55.3 133.873 55.3 133.1C55.3 132.327 54.6732 131.7 53.9 131.7Z" fill="#D5DADF"/>
<path d="M44.3 147.6H22.7C21.982 147.6 21.4 148.182 21.4 148.9V149.1C21.4 149.818 21.982 150.4 22.7 150.4H44.3C45.018 150.4 45.6 149.818 45.6 149.1V148.9C45.6 148.182 45.018 147.6 44.3 147.6Z" fill="#D5DADF"/>
<path d="M49.3 163.5H22.8C22.0268 163.5 21.4 164.127 21.4 164.9C21.4 165.673 22.0268 166.3 22.8 166.3H49.3C50.0732 166.3 50.7 165.673 50.7 164.9C50.7 164.127 50.0732 163.5 49.3 163.5Z" fill="#D5DADF"/>
<path d="M45.8 179.4H22.7C21.982 179.4 21.4 179.982 21.4 180.7V180.9C21.4 181.618 21.982 182.2 22.7 182.2H45.8C46.518 182.2 47.1 181.618 47.1 180.9V180.7C47.1 179.982 46.518 179.4 45.8 179.4Z" fill="#D5DADF"/>
<path d="M49.3 195.3H22.8C22.0268 195.3 21.4 195.927 21.4 196.7C21.4 197.473 22.0268 198.1 22.8 198.1H49.3C50.0732 198.1 50.7 197.473 50.7 196.7C50.7 195.927 50.0732 195.3 49.3 195.3Z" fill="#D5DADF"/>
<path d="M84.8 104.7C86.6225 104.7 88.1 103.223 88.1 101.4C88.1 99.5774 86.6225 98.1 84.8 98.1C82.9775 98.1 81.5 99.5774 81.5 101.4C81.5 103.223 82.9775 104.7 84.8 104.7Z" fill="#D5DADF"/>
<path d="M84.8 120.5C86.6225 120.5 88.1 119.023 88.1 117.2C88.1 115.377 86.6225 113.9 84.8 113.9C82.9775 113.9 81.5 115.377 81.5 117.2C81.5 119.023 82.9775 120.5 84.8 120.5Z" fill="#D5DADF"/>
<path d="M84.8 136.4C86.6225 136.4 88.1 134.923 88.1 133.1C88.1 131.277 86.6225 129.8 84.8 129.8C82.9775 129.8 81.5 131.277 81.5 133.1C81.5 134.923 82.9775 136.4 84.8 136.4Z" fill="#D5DADF"/>
<path d="M84.8 152.3C86.6225 152.3 88.1 150.823 88.1 149C88.1 147.177 86.6225 145.7 84.8 145.7C82.9775 145.7 81.5 147.177 81.5 149C81.5 150.823 82.9775 152.3 84.8 152.3Z" fill="#D5DADF"/>
<path d="M84.8 168.2C86.6225 168.2 88.1 166.723 88.1 164.9C88.1 163.077 86.6225 161.6 84.8 161.6C82.9775 161.6 81.5 163.077 81.5 164.9C81.5 166.723 82.9775 168.2 84.8 168.2Z" fill="#D5DADF"/>
<path d="M84.8 184.1C86.6225 184.1 88.1 182.623 88.1 180.8C88.1 178.977 86.6225 177.5 84.8 177.5C82.9775 177.5 81.5 178.977 81.5 180.8C81.5 182.623 82.9775 184.1 84.8 184.1Z" fill="#D5DADF"/>
<path d="M84.8 200C86.6225 200 88.1 198.523 88.1 196.7C88.1 194.877 86.6225 193.4 84.8 193.4C82.9775 193.4 81.5 194.877 81.5 196.7C81.5 198.523 82.9775 200 84.8 200Z" fill="#D5DADF"/>
<path d="M98.6 44.6V222.1" stroke="#F1F3F5" stroke-miterlimit="10"/>
<path d="M135.9 110.6H122.5C121.948 110.6 121.5 111.048 121.5 111.6C121.5 112.152 121.948 112.6 122.5 112.6H135.9C136.452 112.6 136.9 112.152 136.9 111.6C136.9 111.048 136.452 110.6 135.9 110.6Z" fill="#D5DADF"/>
<path d="M126.4 99.6H132.1C132.6 99.6 133 100 133 100.5V106.2C133 106.7 132.6 107.1 132.1 107.1H126.4C125.9 107.1 125.5 106.7 125.5 106.2V100.5C125.5 100 125.9 99.6 126.4 99.6Z" fill="#D5DADF"/>
<path d="M132.9 103.9V106.1C132.9 106.6 132.5 107 132 107H126.3C125.8 107 125.4 106.6 125.4 106.1V104.2C125.4 104.2 125.4 104.2 125.4 104.1C125.7 103.7 126.3 103.4 126.8 103.7C127.1 103.9 127.3 104.2 127.6 104.5C127.8 104.8 128.1 105.1 128.4 105.2C128.7 105.2 129.1 105.1 129.3 104.8C129.9 104.2 130 102.8 131.1 102.8C131.5 102.8 131.8 103 132 103.3C132.3 103.5 132.5 103.8 132.7 104.1L132.9 103.9Z" fill="#F8F9FA"/>
<path d="M128.6 103.1C129.097 103.1 129.5 102.697 129.5 102.2C129.5 101.703 129.097 101.3 128.6 101.3C128.103 101.3 127.7 101.703 127.7 102.2C127.7 102.697 128.103 103.1 128.6 103.1Z" fill="#F8F9FA"/>
<path d="M190.3 110.6H176.9C176.348 110.6 175.9 111.048 175.9 111.6C175.9 112.152 176.348 112.6 176.9 112.6H190.3C190.852 112.6 191.3 112.152 191.3 111.6C191.3 111.048 190.852 110.6 190.3 110.6Z" fill="#D5DADF"/>
<path d="M180.7 99.6H186.4C186.9 99.6 187.3 100 187.3 100.5V106.2C187.3 106.7 186.9 107.1 186.4 107.1H180.7C180.2 107.1 179.8 106.7 179.8 106.2V100.5C179.8 100 180.2 99.6 180.7 99.6Z" fill="#D5DADF"/>
<path d="M187.3 103.9V106.1C187.3 106.6 186.9 107 186.4 107H180.7C180.2 107 179.8 106.6 179.8 106.1V104.2C179.8 104.2 179.8 104.2 179.8 104.1C180.1 103.7 180.7 103.4 181.2 103.7C181.5 103.9 181.7 104.2 182 104.5C182.2 104.8 182.5 105.1 182.8 105.2C183.1 105.2 183.5 105.1 183.7 104.8C184.3 104.2 184.4 102.8 185.5 102.8C185.9 102.8 186.2 103 186.4 103.3C186.7 103.5 186.9 103.8 187.1 104.1L187.3 103.9Z" fill="#F8F9FA"/>
<path d="M182.9 103.1C183.397 103.1 183.8 102.697 183.8 102.2C183.8 101.703 183.397 101.3 182.9 101.3C182.403 101.3 182 101.703 182 102.2C182 102.697 182.403 103.1 182.9 103.1Z" fill="#F8F9FA"/>
<path d="M151.3 65.8H107.2C105.874 65.8 104.8 66.8745 104.8 68.2V86C104.8 87.3255 105.874 88.4 107.2 88.4H151.3C152.625 88.4 153.7 87.3255 153.7 86V68.2C153.7 66.8745 152.625 65.8 151.3 65.8Z" stroke="#E6E9EC" stroke-width="0.8" stroke-miterlimit="10"/>
<path d="M205.5 65.8H161.6C160.275 65.8 159.2 66.8745 159.2 68.2V86C159.2 87.3255 160.275 88.4 161.6 88.4H205.5C206.826 88.4 207.9 87.3255 207.9 86V68.2C207.9 66.8745 206.826 65.8 205.5 65.8Z" stroke="#E6E9EC" stroke-width="0.8" stroke-miterlimit="10"/>
<path d="M135.9 81.7H122.5C121.948 81.7 121.5 82.1477 121.5 82.7C121.5 83.2523 121.948 83.7 122.5 83.7H135.9C136.452 83.7 136.9 83.2523 136.9 82.7C136.9 82.1477 136.452 81.7 135.9 81.7Z" fill="#D5DADF"/>
<path d="M126.4 70.7H132.1C132.6 70.7 133 71.1 133 71.6V77.3C133 77.8 132.6 78.2 132.1 78.2H126.4C125.9 78.2 125.5 77.8 125.5 77.3V71.6C125.5 71.1 125.9 70.7 126.4 70.7Z" fill="#D5DADF"/>
<path d="M132.9 75.1V77.3C132.9 77.8 132.5 78.2 132 78.2H126.3C125.8 78.2 125.4 77.8 125.4 77.3V75.4C125.4 75.4 125.4 75.4 125.4 75.3C125.7 74.9 126.3 74.6 126.8 74.9C127.1 75.1 127.3 75.4 127.6 75.7C127.8 76 128.1 76.3 128.4 76.4C128.7 76.4 129.1 76.3 129.3 76C129.9 75.4 130 74 131.1 74C131.5 74 131.8 74.2 132 74.5C132.3 74.7 132.5 75 132.7 75.3L132.9 75.1Z" fill="#F8F9FA"/>
<path d="M128.6 74.3C129.097 74.3 129.5 73.8971 129.5 73.4C129.5 72.9029 129.097 72.5 128.6 72.5C128.103 72.5 127.7 72.9029 127.7 73.4C127.7 73.8971 128.103 74.3 128.6 74.3Z" fill="#F8F9FA"/>
<path d="M190.3 81.7H176.9C176.348 81.7 175.9 82.1477 175.9 82.7C175.9 83.2523 176.348 83.7 176.9 83.7H190.3C190.852 83.7 191.3 83.2523 191.3 82.7C191.3 82.1477 190.852 81.7 190.3 81.7Z" fill="#D5DADF"/>
<path d="M180.7 70.7H186.4C186.9 70.7 187.3 71.1 187.3 71.6V77.3C187.3 77.8 186.9 78.2 186.4 78.2H180.7C180.2 78.2 179.8 77.8 179.8 77.3V71.6C179.8 71.1 180.2 70.7 180.7 70.7Z" fill="#D5DADF"/>
<path d="M187.3 75.1V77.3C187.3 77.8 186.9 78.2 186.4 78.2H180.7C180.2 78.2 179.8 77.8 179.8 77.3V75.4C179.8 75.4 179.8 75.4 179.8 75.3C180.1 74.9 180.7 74.6 181.2 74.9C181.5 75.1 181.7 75.4 182 75.7C182.2 76 182.5 76.3 182.8 76.4C183.1 76.4 183.5 76.3 183.7 76C184.3 75.4 184.4 74 185.5 74C185.9 74 186.2 74.2 186.4 74.5C186.7 74.7 186.9 75 187.1 75.3L187.3 75.1Z" fill="#F8F9FA"/>
<path d="M182.9 74.3C183.397 74.3 183.8 73.8971 183.8 73.4C183.8 72.9029 183.397 72.5 182.9 72.5C182.403 72.5 182 72.9029 182 73.4C182 73.8971 182.403 74.3 182.9 74.3Z" fill="#F8F9FA"/>
<path d="M135.9 139.3H122.5C121.948 139.3 121.5 139.748 121.5 140.3C121.5 140.852 121.948 141.3 122.5 141.3H135.9C136.452 141.3 136.9 140.852 136.9 140.3C136.9 139.748 136.452 139.3 135.9 139.3Z" fill="#D5DADF"/>
<path d="M126.4 128.3H132.1C132.6 128.3 133 128.7 133 129.2V134.9C133 135.4 132.6 135.8 132.1 135.8H126.4C125.9 135.8 125.5 135.4 125.5 134.9V129.2C125.5 128.7 125.9 128.3 126.4 128.3Z" fill="#D5DADF"/>
<path d="M132.9 132.7V134.9C132.9 135.4 132.5 135.8 132 135.8H126.3C125.8 135.8 125.4 135.4 125.4 134.9V133C125.4 133 125.4 133 125.4 132.9C125.7 132.5 126.3 132.2 126.8 132.5C127.1 132.7 127.3 133 127.6 133.3C127.8 133.6 128.1 133.9 128.4 134C128.7 134 129.1 133.9 129.3 133.6C129.9 133 130 131.6 131.1 131.6C131.5 131.6 131.8 131.8 132 132.1C132.3 132.3 132.5 132.6 132.7 132.9L132.9 132.7Z" fill="#F8F9FA"/>
<path d="M128.6 131.9C129.097 131.9 129.5 131.497 129.5 131C129.5 130.503 129.097 130.1 128.6 130.1C128.103 130.1 127.7 130.503 127.7 131C127.7 131.497 128.103 131.9 128.6 131.9Z" fill="#F8F9FA"/>
<path d="M190.3 139.3H176.9C176.348 139.3 175.9 139.748 175.9 140.3C175.9 140.852 176.348 141.3 176.9 141.3H190.3C190.852 141.3 191.3 140.852 191.3 140.3C191.3 139.748 190.852 139.3 190.3 139.3Z" fill="#D5DADF"/>
<path d="M180.7 128.3H186.4C186.9 128.3 187.3 128.7 187.3 129.2V134.9C187.3 135.4 186.9 135.8 186.4 135.8H180.7C180.2 135.8 179.8 135.4 179.8 134.9V129.2C179.8 128.7 180.2 128.3 180.7 128.3Z" fill="#D5DADF"/>
<path d="M187.3 132.7V134.9C187.3 135.4 186.9 135.8 186.4 135.8H180.7C180.2 135.8 179.8 135.4 179.8 134.9V133C179.8 133 179.8 133 179.8 132.9C180.1 132.5 180.7 132.2 181.2 132.5C181.5 132.7 181.7 133 182 133.3C182.2 133.6 182.5 133.9 182.8 134C183.1 134 183.5 133.9 183.7 133.6C184.3 133 184.4 131.6 185.5 131.6C185.9 131.6 186.2 131.8 186.4 132.1C186.7 132.3 186.9 132.6 187.1 132.9L187.3 132.7Z" fill="#F8F9FA"/>
<path d="M182.9 131.9C183.397 131.9 183.8 131.497 183.8 131C183.8 130.503 183.397 130.1 182.9 130.1C182.403 130.1 182 130.503 182 131C182 131.497 182.403 131.9 182.9 131.9Z" fill="#F8F9FA"/>
<path d="M135.9 168.2H122.5C121.948 168.2 121.5 168.648 121.5 169.2C121.5 169.752 121.948 170.2 122.5 170.2H135.9C136.452 170.2 136.9 169.752 136.9 169.2C136.9 168.648 136.452 168.2 135.9 168.2Z" fill="#D5DADF"/>
<path d="M126.4 157.2H132.1C132.6 157.2 133 157.6 133 158.1V163.8C133 164.3 132.6 164.7 132.1 164.7H126.4C125.9 164.7 125.5 164.3 125.5 163.8V158.1C125.5 157.6 125.9 157.2 126.4 157.2Z" fill="#D5DADF"/>
<path d="M132.9 161.6V163.8C132.9 164.3 132.5 164.7 132 164.7H126.3C125.8 164.7 125.4 164.3 125.4 163.8V161.9C125.4 161.9 125.4 161.9 125.4 161.8C125.7 161.4 126.3 161.1 126.8 161.4C127.1 161.6 127.3 161.9 127.6 162.2C127.8 162.5 128.1 162.8 128.4 162.9C128.7 162.9 129.1 162.8 129.3 162.5C129.9 161.9 130 160.5 131.1 160.5C131.5 160.5 131.8 160.7 132 161C132.3 161.2 132.5 161.5 132.7 161.8L132.9 161.6Z" fill="#F8F9FA"/>
<path d="M128.6 160.8C129.097 160.8 129.5 160.397 129.5 159.9C129.5 159.403 129.097 159 128.6 159C128.103 159 127.7 159.403 127.7 159.9C127.7 160.397 128.103 160.8 128.6 160.8Z" fill="#F8F9FA"/>
<path d="M190.3 168.2H176.9C176.348 168.2 175.9 168.648 175.9 169.2C175.9 169.752 176.348 170.2 176.9 170.2H190.3C190.852 170.2 191.3 169.752 191.3 169.2C191.3 168.648 190.852 168.2 190.3 168.2Z" fill="#D5DADF"/>
<path d="M180.7 157.2H186.4C186.9 157.2 187.3 157.6 187.3 158.1V163.8C187.3 164.3 186.9 164.7 186.4 164.7H180.7C180.2 164.7 179.8 164.3 179.8 163.8V158.1C179.8 157.6 180.2 157.2 180.7 157.2Z" fill="#D5DADF"/>
<path d="M187.3 161.6V163.8C187.3 164.3 186.9 164.7 186.4 164.7H180.7C180.2 164.7 179.8 164.3 179.8 163.8V161.9C179.8 161.9 179.8 161.9 179.8 161.8C180.1 161.4 180.7 161.1 181.2 161.4C181.5 161.6 181.7 161.9 182 162.2C182.2 162.5 182.5 162.8 182.8 162.9C183.1 162.9 183.5 162.8 183.7 162.5C184.3 161.9 184.4 160.5 185.5 160.5C185.9 160.5 186.2 160.7 186.4 161C186.7 161.2 186.9 161.5 187.1 161.8L187.3 161.6Z" fill="#F8F9FA"/>
<path d="M182.9 160.8C183.397 160.8 183.8 160.397 183.8 159.9C183.8 159.403 183.397 159 182.9 159C182.403 159 182 159.403 182 159.9C182 160.397 182.403 160.8 182.9 160.8Z" fill="#F8F9FA"/>
<path d="M135.9 197.1H122.5C121.948 197.1 121.5 197.548 121.5 198.1C121.5 198.652 121.948 199.1 122.5 199.1H135.9C136.452 199.1 136.9 198.652 136.9 198.1C136.9 197.548 136.452 197.1 135.9 197.1Z" fill="#D5DADF"/>
<path d="M126.4 186.1H132.1C132.6 186.1 133 186.5 133 187V192.7C133 193.2 132.6 193.6 132.1 193.6H126.4C125.9 193.6 125.5 193.2 125.5 192.7V187C125.5 186.5 125.9 186.1 126.4 186.1Z" fill="#D5DADF"/>
<path d="M132.9 190.5V192.7C132.9 193.2 132.5 193.6 132 193.6H126.3C125.8 193.6 125.4 193.2 125.4 192.7V190.8C125.4 190.8 125.4 190.8 125.4 190.7C125.7 190.3 126.3 190 126.8 190.3C127.1 190.5 127.3 190.8 127.6 191.1C127.8 191.4 128.1 191.7 128.4 191.8C128.7 191.8 129.1 191.7 129.3 191.4C129.9 190.8 130 189.4 131.1 189.4C131.5 189.4 131.8 189.6 132 189.9C132.3 190.1 132.5 190.4 132.7 190.7L132.9 190.5Z" fill="#F8F9FA"/>
<path d="M128.6 189.7C129.097 189.7 129.5 189.297 129.5 188.8C129.5 188.303 129.097 187.9 128.6 187.9C128.103 187.9 127.7 188.303 127.7 188.8C127.7 189.297 128.103 189.7 128.6 189.7Z" fill="#F8F9FA"/>
<path d="M190.3 197.1H176.9C176.348 197.1 175.9 197.548 175.9 198.1C175.9 198.652 176.348 199.1 176.9 199.1H190.3C190.852 199.1 191.3 198.652 191.3 198.1C191.3 197.548 190.852 197.1 190.3 197.1Z" fill="#D5DADF"/>
<path d="M180.7 186.1H186.4C186.9 186.1 187.3 186.5 187.3 187V192.7C187.3 193.2 186.9 193.6 186.4 193.6H180.7C180.2 193.6 179.8 193.2 179.8 192.7V187C179.8 186.5 180.2 186.1 180.7 186.1Z" fill="#D5DADF"/>
<path d="M187.3 190.5V192.7C187.3 193.2 186.9 193.6 186.4 193.6H180.7C180.2 193.6 179.8 193.2 179.8 192.7V190.8C179.8 190.8 179.8 190.8 179.8 190.7C180.1 190.3 180.7 190 181.2 190.3C181.5 190.5 181.7 190.8 182 191.1C182.2 191.4 182.5 191.7 182.8 191.8C183.1 191.8 183.5 191.7 183.7 191.4C184.3 190.8 184.4 189.4 185.5 189.4C185.9 189.4 186.2 189.6 186.4 189.9C186.7 190.1 186.9 190.4 187.1 190.7L187.3 190.5Z" fill="#F8F9FA"/>
<path d="M182.9 189.7C183.397 189.7 183.8 189.297 183.8 188.8C183.8 188.303 183.397 187.9 182.9 187.9C182.403 187.9 182 188.303 182 188.8C182 189.297 182.403 189.7 182.9 189.7Z" fill="#F8F9FA"/>
</g>
</svg>
