<svg width="229" height="222" viewBox="0 0 229 222" fill="none" xmlns="http://www.w3.org/2000/svg">
<mask id="mask0_190_337" style="mask-type:luminance" maskUnits="userSpaceOnUse" x="20" y="17" width="191" height="185">
<path d="M210.8 17.9H20.8V201.9H210.8V17.9Z" fill="white"/>
</mask>
<g mask="url(#mask0_190_337)">
<path d="M28.7767 21.8818C28.7767 22.7046 28.6225 23.4094 28.3143 23.996C28.0085 24.5802 27.5909 25.0276 27.0615 25.3383C26.5345 25.6491 25.9366 25.8044 25.268 25.8044C24.5993 25.8044 24.0002 25.6491 23.4707 25.3383C22.9437 25.0251 22.5261 24.5764 22.2179 23.9923C21.9121 23.4056 21.7593 22.7021 21.7593 21.8818C21.7593 21.059 21.9121 20.3556 22.2179 19.7714C22.5261 19.1847 22.9437 18.7361 23.4707 18.4253C24.0002 18.1146 24.5993 17.9592 25.268 17.9592C25.9366 17.9592 26.5345 18.1146 27.0615 18.4253C27.5909 18.7361 28.0085 19.1847 28.3143 19.7714C28.6225 20.3556 28.7767 21.059 28.7767 21.8818ZM27.3859 21.8818C27.3859 21.3026 27.2951 20.8142 27.1137 20.4165C26.9347 20.0162 26.6861 19.7142 26.3679 19.5104C26.0497 19.3041 25.6831 19.2009 25.268 19.2009C24.8528 19.2009 24.4862 19.3041 24.168 19.5104C23.8498 19.7142 23.6 20.0162 23.4185 20.4165C23.2395 20.8142 23.1501 21.3026 23.1501 21.8818C23.1501 22.461 23.2395 22.9507 23.4185 23.3509C23.6 23.7487 23.8498 24.0507 24.168 24.257C24.4862 24.4608 24.8528 24.5628 25.268 24.5628C25.6831 24.5628 26.0497 24.4608 26.3679 24.257C26.6861 24.0507 26.9347 23.7487 27.1137 23.3509C27.2951 22.9507 27.3859 22.461 27.3859 21.8818ZM30.0248 25.7V19.9727H31.3336V20.9273H31.3933C31.4977 20.5967 31.6766 20.3419 31.9302 20.1629C32.1862 19.9814 32.4783 19.8907 32.8064 19.8907C32.881 19.8907 32.9643 19.8944 33.0563 19.9019C33.1507 19.9069 33.229 19.9156 33.2912 19.928V21.1696C33.234 21.1498 33.1433 21.1324 33.019 21.1174C32.8972 21.1 32.7791 21.0913 32.6648 21.0913C32.4187 21.0913 32.1974 21.1448 32.001 21.2517C31.8072 21.3561 31.6543 21.5015 31.5424 21.6879C31.4306 21.8744 31.3746 22.0894 31.3746 22.333V25.7H30.0248ZM36.0774 25.8007C35.6275 25.8007 35.2248 25.6851 34.8693 25.4539C34.5139 25.2227 34.233 24.8872 34.0267 24.4472C33.8203 24.0072 33.7172 23.4727 33.7172 22.8438C33.7172 22.2075 33.8216 21.6705 34.0304 21.233C34.2417 20.7931 34.5263 20.4612 34.8843 20.2375C35.2422 20.0113 35.6412 19.8982 36.0812 19.8982C36.4167 19.8982 36.6927 19.9553 36.9089 20.0697C37.1252 20.1815 37.2967 20.317 37.4235 20.4761C37.5503 20.6327 37.6485 20.7806 37.7181 20.9198H37.774V18.0636H39.1275V25.7H37.8001V24.7977H37.7181C37.6485 24.9369 37.5478 25.0848 37.416 25.2414C37.2843 25.3955 37.1103 25.5272 36.894 25.6366C36.6778 25.746 36.4056 25.8007 36.0774 25.8007ZM36.454 24.6933C36.7399 24.6933 36.9835 24.6162 37.1849 24.4621C37.3862 24.3055 37.5391 24.088 37.6435 23.8096C37.7479 23.5312 37.8001 23.2068 37.8001 22.8364C37.8001 22.466 37.7479 22.1441 37.6435 21.8706C37.5416 21.5972 37.3899 21.3847 37.1886 21.233C36.9897 21.0814 36.7449 21.0056 36.454 21.0056C36.1533 21.0056 35.9022 21.0839 35.7008 21.2405C35.4995 21.3971 35.3479 21.6134 35.2459 21.8893C35.144 22.1652 35.0931 22.4809 35.0931 22.8364C35.0931 23.1943 35.144 23.5138 35.2459 23.7946C35.3503 24.0731 35.5032 24.2931 35.7046 24.4546C35.9084 24.6137 36.1582 24.6933 36.454 24.6933ZM43.1014 25.8119C42.5271 25.8119 42.0312 25.6926 41.6136 25.4539C41.1985 25.2128 40.8791 24.8722 40.6553 24.4323C40.4316 23.9898 40.3198 23.469 40.3198 22.8699C40.3198 22.2808 40.4316 21.7638 40.6553 21.3188C40.8815 20.8714 41.1972 20.5233 41.6024 20.2748C42.0076 20.0237 42.4836 19.8982 43.0305 19.8982C43.3835 19.8982 43.7166 19.9553 44.0298 20.0697C44.3455 20.1815 44.6239 20.3556 44.865 20.5917C45.1086 20.8279 45.3 21.1286 45.4393 21.494C45.5785 21.857 45.6481 22.2895 45.6481 22.7916V23.2055H40.9536V22.2957H44.3542C44.3517 22.0372 44.2958 21.8073 44.1864 21.6059C44.077 21.4021 43.9242 21.2417 43.7278 21.1249C43.5339 21.0081 43.3077 20.9497 43.0492 20.9497C42.7732 20.9497 42.5309 21.0168 42.3221 21.151C42.1133 21.2828 41.9504 21.4568 41.8336 21.673C41.7193 21.8868 41.6608 22.1217 41.6584 22.3777V23.172C41.6584 23.5051 41.7193 23.7909 41.8411 24.0296C41.9629 24.2657 42.1331 24.4472 42.3519 24.5739C42.5706 24.6982 42.8267 24.7604 43.12 24.7604C43.3164 24.7604 43.4941 24.733 43.6532 24.6784C43.8123 24.6212 43.9503 24.5379 44.0671 24.4285C44.1839 24.3192 44.2722 24.1837 44.3318 24.0221L45.5921 24.1638C45.5126 24.4969 45.361 24.7877 45.1372 25.0363C44.916 25.2824 44.6326 25.4738 44.2871 25.6105C43.9416 25.7448 43.5463 25.8119 43.1014 25.8119ZM46.79 25.7V19.9727H48.0987V20.9273H48.1584C48.2628 20.5967 48.4418 20.3419 48.6953 20.1629C48.9514 19.9814 49.2435 19.8907 49.5716 19.8907C49.6462 19.8907 49.7294 19.8944 49.8214 19.9019C49.9159 19.9069 49.9942 19.9156 50.0563 19.928V21.1696C49.9991 21.1498 49.9084 21.1324 49.7841 21.1174C49.6623 21.1 49.5442 21.0913 49.4299 21.0913C49.1838 21.0913 48.9626 21.1448 48.7662 21.2517C48.5723 21.3561 48.4194 21.5015 48.3076 21.6879C48.1957 21.8744 48.1398 22.0894 48.1398 22.333V25.7H46.79ZM55.4797 21.4866L54.2492 21.6208C54.2144 21.4965 54.1535 21.3797 54.0665 21.2703C53.982 21.1609 53.8677 21.0727 53.7235 21.0056C53.5793 20.9385 53.4028 20.9049 53.194 20.9049C52.9131 20.9049 52.677 20.9658 52.4856 21.0876C52.2966 21.2094 52.2034 21.3673 52.2059 21.5612C52.2034 21.7277 52.2643 21.8632 52.3886 21.9676C52.5154 22.072 52.7242 22.1578 53.015 22.2249L53.9919 22.4337C54.5338 22.5505 54.9365 22.7357 55.2 22.9893C55.466 23.2428 55.6003 23.5747 55.6027 23.9848C55.6003 24.3453 55.4946 24.6634 55.2858 24.9394C55.0795 25.2128 54.7924 25.4266 54.4245 25.5807C54.0566 25.7348 53.634 25.8119 53.1567 25.8119C52.4557 25.8119 51.8914 25.6652 51.4639 25.3719C51.0363 25.0761 50.7815 24.6647 50.6995 24.1377L52.0157 24.0109C52.0754 24.2694 52.2022 24.4646 52.3961 24.5963C52.59 24.7281 52.8423 24.7939 53.153 24.7939C53.4737 24.7939 53.7309 24.7281 53.9248 24.5963C54.1212 24.4646 54.2194 24.3018 54.2194 24.1079C54.2194 23.9438 54.156 23.8083 54.0292 23.7014C53.9049 23.5945 53.711 23.5125 53.4476 23.4553L52.4706 23.2503C51.9213 23.1359 51.5148 22.9433 51.2514 22.6723C50.9879 22.3989 50.8574 22.0534 50.8598 21.6357C50.8574 21.2828 50.9531 20.977 51.147 20.7185C51.3433 20.4575 51.6155 20.2561 51.9635 20.1144C52.314 19.9703 52.718 19.8982 53.1754 19.8982C53.8465 19.8982 54.3748 20.0411 54.7601 20.327C55.1478 20.6128 55.3877 20.9994 55.4797 21.4866ZM59.3799 25.7V18.0636H62.2435C62.8302 18.0636 63.3224 18.173 63.7201 18.3918C64.1203 18.6105 64.4223 18.9113 64.6262 19.2941C64.8325 19.6744 64.9357 20.107 64.9357 20.5917C64.9357 21.0814 64.8325 21.5164 64.6262 21.8967C64.4199 22.2771 64.1153 22.5766 63.7126 22.7954C63.3099 23.0116 62.814 23.1198 62.2249 23.1198H60.327V21.9825H62.0385C62.3815 21.9825 62.6624 21.9228 62.8811 21.8035C63.0999 21.6842 63.2615 21.5201 63.3659 21.3113C63.4728 21.1025 63.5262 20.8627 63.5262 20.5917C63.5262 20.3208 63.4728 20.0821 63.3659 19.8758C63.2615 19.6695 63.0987 19.5091 62.8774 19.3948C62.6587 19.278 62.3765 19.2195 62.031 19.2195H60.7633V25.7H59.3799ZM67.6231 25.8156C67.2602 25.8156 66.9333 25.751 66.6425 25.6217C66.3541 25.49 66.1254 25.2961 65.9564 25.04C65.7898 24.784 65.7066 24.4683 65.7066 24.0929C65.7066 23.7698 65.7662 23.5026 65.8855 23.2913C66.0049 23.08 66.1677 22.9109 66.374 22.7842C66.5803 22.6574 66.8127 22.5617 67.0713 22.4971C67.3323 22.4299 67.602 22.3815 67.8804 22.3516C68.216 22.3168 68.4882 22.2858 68.697 22.2584C68.9058 22.2286 69.0574 22.1839 69.1519 22.1242C69.2488 22.0621 69.2973 21.9663 69.2973 21.8371V21.8147C69.2973 21.5338 69.214 21.3163 69.0475 21.1622C68.8809 21.0081 68.641 20.931 68.3278 20.931C67.9972 20.931 67.735 21.0031 67.5411 21.1473C67.3497 21.2915 67.2204 21.4617 67.1533 21.6581L65.893 21.4791C65.9924 21.1311 66.1565 20.8403 66.3852 20.6066C66.6139 20.3705 66.8935 20.194 67.2241 20.0771C67.5548 19.9578 67.9202 19.8982 68.3204 19.8982C68.5963 19.8982 68.871 19.9305 69.1444 19.9951C69.4179 20.0597 69.6677 20.1666 69.8939 20.3158C70.1201 20.4624 70.3016 20.6625 70.4383 20.9161C70.5775 21.1696 70.6471 21.4866 70.6471 21.8669V25.7H69.3495V24.9133H69.3048C69.2227 25.0723 69.1071 25.2215 68.958 25.3607C68.8113 25.4974 68.6261 25.608 68.4024 25.6926C68.1812 25.7746 67.9214 25.8156 67.6231 25.8156ZM67.9736 24.8238C68.2446 24.8238 68.4795 24.7703 68.6783 24.6634C68.8772 24.5541 69.0301 24.4099 69.137 24.2309C69.2463 24.0519 69.301 23.8568 69.301 23.6455V22.9706C69.2588 23.0054 69.1867 23.0377 69.0848 23.0676C68.9853 23.0974 68.8735 23.1235 68.7492 23.1459C68.6249 23.1682 68.5018 23.1881 68.38 23.2055C68.2582 23.2229 68.1526 23.2378 68.0631 23.2503C67.8617 23.2776 67.6815 23.3223 67.5224 23.3845C67.3633 23.4466 67.2378 23.5336 67.1458 23.6455C67.0539 23.7549 67.0079 23.8966 67.0079 24.0706C67.0079 24.3192 67.0986 24.5068 67.2801 24.6336C67.4615 24.7604 67.6927 24.8238 67.9736 24.8238ZM74.4951 27.9671C74.0104 27.9671 73.594 27.9012 73.246 27.7694C72.898 27.6402 72.6183 27.4662 72.407 27.2474C72.1957 27.0287 72.0491 26.7863 71.967 26.5203L73.1826 26.2258C73.2373 26.3376 73.3168 26.4482 73.4212 26.5576C73.5256 26.6695 73.6661 26.7614 73.8426 26.8335C74.0216 26.9081 74.2465 26.9454 74.5175 26.9454C74.9003 26.9454 75.2172 26.8522 75.4683 26.6657C75.7193 26.4818 75.8449 26.1785 75.8449 25.7559V24.6709H75.7778C75.7082 24.8101 75.6062 24.953 75.472 25.0997C75.3403 25.2464 75.165 25.3694 74.9463 25.4688C74.73 25.5683 74.4578 25.618 74.1297 25.618C73.6897 25.618 73.2907 25.5148 72.9328 25.3085C72.5773 25.0997 72.2939 24.789 72.0826 24.3763C71.8738 23.9612 71.7694 23.4417 71.7694 22.8177C71.7694 22.1888 71.8738 21.6581 72.0826 21.2256C72.2939 20.7906 72.5785 20.4612 72.9365 20.2375C73.2945 20.0113 73.6934 19.8982 74.1334 19.8982C74.469 19.8982 74.7449 19.9553 74.9612 20.0697C75.1799 20.1815 75.3539 20.317 75.4832 20.4761C75.6125 20.6327 75.7106 20.7806 75.7778 20.9198H75.8523V19.9727H77.1835V25.7932C77.1835 26.2829 77.0667 26.6881 76.833 27.0088C76.5993 27.3295 76.2799 27.5693 75.8747 27.7284C75.4695 27.8875 75.0097 27.9671 74.4951 27.9671ZM74.5063 24.559C74.7921 24.559 75.0358 24.4894 75.2371 24.3502C75.4385 24.211 75.5913 24.0109 75.6957 23.7499C75.8001 23.4889 75.8523 23.1757 75.8523 22.8103C75.8523 22.4498 75.8001 22.1341 75.6957 21.8632C75.5938 21.5922 75.4422 21.3822 75.2408 21.233C75.042 21.0814 74.7971 21.0056 74.5063 21.0056C74.2055 21.0056 73.9544 21.0839 73.7531 21.2405C73.5517 21.3971 73.4001 21.6121 73.2982 21.8856C73.1963 22.1565 73.1453 22.4647 73.1453 22.8103C73.1453 23.1608 73.1963 23.4678 73.2982 23.7313C73.4026 23.9923 73.5555 24.1961 73.7568 24.3428C73.9606 24.4869 74.2105 24.559 74.5063 24.559ZM81.1023 25.8119C80.5281 25.8119 80.0322 25.6926 79.6146 25.4539C79.1995 25.2128 78.88 24.8722 78.6563 24.4323C78.4326 23.9898 78.3207 23.469 78.3207 22.8699C78.3207 22.2808 78.4326 21.7638 78.6563 21.3188C78.8825 20.8714 79.1982 20.5233 79.6034 20.2748C80.0086 20.0237 80.4846 19.8982 81.0315 19.8982C81.3845 19.8982 81.7176 19.9553 82.0308 20.0697C82.3465 20.1815 82.6249 20.3556 82.866 20.5917C83.1096 20.8279 83.301 21.1286 83.4402 21.494C83.5794 21.857 83.649 22.2895 83.649 22.7916V23.2055H78.9546V22.2957H82.3552C82.3527 22.0372 82.2968 21.8073 82.1874 21.6059C82.078 21.4021 81.9251 21.2417 81.7288 21.1249C81.5349 21.0081 81.3087 20.9497 81.0501 20.9497C80.7742 20.9497 80.5318 21.0168 80.323 21.151C80.1142 21.2828 79.9514 21.4568 79.8346 21.673C79.7202 21.8868 79.6618 22.1217 79.6593 22.3777V23.172C79.6593 23.5051 79.7202 23.7909 79.842 24.0296C79.9638 24.2657 80.1341 24.4472 80.3529 24.5739C80.5716 24.6982 80.8277 24.7604 81.121 24.7604C81.3174 24.7604 81.4951 24.733 81.6542 24.6784C81.8133 24.6212 81.9512 24.5379 82.0681 24.4285C82.1849 24.3192 82.2731 24.1837 82.3328 24.0221L83.5931 24.1638C83.5136 24.4969 83.3619 24.7877 83.1382 25.0363C82.917 25.2824 82.6336 25.4738 82.2881 25.6105C81.9425 25.7448 81.5473 25.8119 81.1023 25.8119Z" fill="#A4AFB7"/>
<path d="M35.0304 57.6364H35.9977L37.2932 60.7983H37.3443L38.6397 57.6364H39.6071V62H38.8486V59.0021H38.8081L37.6021 61.9872H37.0353L35.8294 58.9957H35.7889V62H35.0304V57.6364ZM40.9732 63.2273C40.8681 63.2273 40.7708 63.2188 40.6813 63.2017C40.5932 63.1861 40.5229 63.1676 40.4703 63.1463L40.6493 62.5455C40.7615 62.5781 40.8617 62.5938 40.9497 62.5923C41.0378 62.5909 41.1152 62.5632 41.182 62.5092C41.2502 62.4567 41.3077 62.3686 41.3546 62.245L41.4206 62.0682L40.2338 58.7273H41.052L41.8063 61.1989H41.8404L42.5968 58.7273H43.4171L42.1067 62.3963C42.0456 62.5696 41.9647 62.718 41.8638 62.8416C41.763 62.9666 41.6394 63.0618 41.4931 63.1271C41.3482 63.1939 41.1749 63.2273 40.9732 63.2273ZM49.4923 59.8182C49.4923 60.2884 49.4043 60.6911 49.2281 61.0263C49.0534 61.3601 48.8148 61.6158 48.5122 61.7933C48.2111 61.9709 47.8695 62.0597 47.4874 62.0597C47.1053 62.0597 46.7629 61.9709 46.4604 61.7933C46.1592 61.6143 45.9206 61.358 45.7445 61.0241C45.5697 60.6889 45.4824 60.2869 45.4824 59.8182C45.4824 59.348 45.5697 58.946 45.7445 58.6122C45.9206 58.277 46.1592 58.0206 46.4604 57.843C46.7629 57.6655 47.1053 57.5767 47.4874 57.5767C47.8695 57.5767 48.2111 57.6655 48.5122 57.843C48.8148 58.0206 49.0534 58.277 49.2281 58.6122C49.4043 58.946 49.4923 59.348 49.4923 59.8182ZM48.6976 59.8182C48.6976 59.4872 48.6457 59.2081 48.542 58.9808C48.4398 58.7521 48.2977 58.5795 48.1159 58.4631C47.9341 58.3452 47.7246 58.2862 47.4874 58.2862C47.2501 58.2862 47.0406 58.3452 46.8588 58.4631C46.677 58.5795 46.5342 58.7521 46.4305 58.9808C46.3283 59.2081 46.2771 59.4872 46.2771 59.8182C46.2771 60.1491 46.3283 60.429 46.4305 60.6577C46.5342 60.8849 46.677 61.0575 46.8588 61.1754C47.0406 61.2919 47.2501 61.3501 47.4874 61.3501C47.7246 61.3501 47.9341 61.2919 48.1159 61.1754C48.2977 61.0575 48.4398 60.8849 48.542 60.6577C48.6457 60.429 48.6976 60.1491 48.6976 59.8182ZM50.2656 62V58.7273H51.0134V59.2727H51.0475C51.1072 59.0838 51.2095 58.9382 51.3544 58.8359C51.5007 58.7322 51.6676 58.6804 51.8551 58.6804C51.8977 58.6804 51.9453 58.6825 51.9978 58.6868C52.0518 58.6896 52.0965 58.6946 52.1321 58.7017V59.4112C52.0994 59.3999 52.0475 59.3899 51.9765 59.3814C51.9069 59.3714 51.8394 59.3665 51.7741 59.3665C51.6335 59.3665 51.5071 59.397 51.3948 59.4581C51.284 59.5178 51.1967 59.6009 51.1328 59.7074C51.0688 59.8139 51.0369 59.9368 51.0369 60.076V62H50.2656ZM53.7842 62.0575C53.5271 62.0575 53.297 61.9915 53.0939 61.8594C52.8907 61.7273 52.7302 61.5355 52.6123 61.2841C52.4944 61.0327 52.4355 60.7273 52.4355 60.3679C52.4355 60.0043 52.4951 59.6974 52.6145 59.4474C52.7352 59.196 52.8978 59.0064 53.1024 58.8786C53.3069 58.7493 53.5349 58.6847 53.7863 58.6847C53.9781 58.6847 54.1358 58.7173 54.2593 58.7827C54.3829 58.8466 54.4809 58.924 54.5534 59.0149C54.6258 59.1044 54.6819 59.1889 54.7217 59.2685H54.7537V57.6364H55.5271V62H54.7686V61.4844H54.7217C54.6819 61.5639 54.6244 61.6484 54.5491 61.7379C54.4738 61.826 54.3744 61.9013 54.2508 61.9638C54.1272 62.0263 53.9717 62.0575 53.7842 62.0575ZM53.9994 61.4247C54.1628 61.4247 54.302 61.3807 54.417 61.2926C54.5321 61.2031 54.6194 61.0788 54.6791 60.9197C54.7388 60.7607 54.7686 60.5753 54.7686 60.3636C54.7686 60.152 54.7388 59.968 54.6791 59.8118C54.6209 59.6555 54.5342 59.5341 54.4192 59.4474C54.3055 59.3608 54.1656 59.3175 53.9994 59.3175C53.8275 59.3175 53.6841 59.3622 53.569 59.4517C53.454 59.5412 53.3673 59.6648 53.3091 59.8224C53.2508 59.9801 53.2217 60.1605 53.2217 60.3636C53.2217 60.5682 53.2508 60.7507 53.3091 60.9112C53.3687 61.0703 53.4561 61.196 53.5711 61.2884C53.6876 61.3793 53.8304 61.4247 53.9994 61.4247ZM57.8579 62.0639C57.5298 62.0639 57.2464 61.9957 57.0077 61.8594C56.7705 61.7216 56.588 61.527 56.4602 61.2756C56.3323 61.0227 56.2684 60.7251 56.2684 60.3828C56.2684 60.0462 56.3323 59.7507 56.4602 59.4964C56.5894 59.2408 56.7698 59.0419 57.0013 58.8999C57.2329 58.7564 57.5049 58.6847 57.8174 58.6847C58.0191 58.6847 58.2094 58.7173 58.3884 58.7827C58.5688 58.8466 58.7279 58.946 58.8657 59.081C59.0049 59.2159 59.1143 59.3878 59.1938 59.5966C59.2734 59.804 59.3131 60.0511 59.3131 60.3381V60.5746H56.6306V60.0547H58.5738C58.5724 59.907 58.5404 59.7756 58.4779 59.6605C58.4154 59.544 58.3281 59.4524 58.2158 59.3857C58.105 59.3189 57.9758 59.2855 57.8281 59.2855C57.6704 59.2855 57.5319 59.3239 57.4126 59.4006C57.2933 59.4759 57.2002 59.5753 57.1334 59.6989C57.0681 59.821 57.0347 59.9553 57.0333 60.1016V60.5554C57.0333 60.7457 57.0681 60.9091 57.1377 61.0455C57.2073 61.1804 57.3046 61.2841 57.4296 61.3565C57.5546 61.4276 57.7009 61.4631 57.8685 61.4631C57.9808 61.4631 58.0823 61.4474 58.1732 61.4162C58.2641 61.3835 58.343 61.3359 58.4097 61.2734C58.4765 61.2109 58.5269 61.1335 58.561 61.0412L59.2812 61.1222C59.2357 61.3125 59.1491 61.4787 59.0212 61.6207C58.8948 61.7614 58.7329 61.8707 58.5354 61.9489C58.338 62.0256 58.1121 62.0639 57.8579 62.0639ZM60.0257 62V58.7273H60.7735V59.2727H60.8076C60.8673 59.0838 60.9695 58.9382 61.1144 58.8359C61.2607 58.7322 61.4276 58.6804 61.6151 58.6804C61.6578 58.6804 61.7053 58.6825 61.7579 58.6868C61.8119 58.6896 61.8566 58.6946 61.8921 58.7017V59.4112C61.8595 59.3999 61.8076 59.3899 61.7366 59.3814C61.667 59.3714 61.5995 59.3665 61.5342 59.3665C61.3936 59.3665 61.2671 59.397 61.1549 59.4581C61.0441 59.5178 60.9568 59.6009 60.8928 59.7074C60.8289 59.8139 60.797 59.9368 60.797 60.076V62H60.0257ZM65.0512 59.5923L64.3481 59.669C64.3282 59.598 64.2934 59.5312 64.2437 59.4688C64.1954 59.4062 64.13 59.3558 64.0477 59.3175C63.9653 59.2791 63.8644 59.2599 63.7451 59.2599C63.5846 59.2599 63.4496 59.2947 63.3403 59.3643C63.2323 59.4339 63.1791 59.5241 63.1805 59.6349C63.1791 59.7301 63.2139 59.8075 63.2849 59.8672C63.3573 59.9268 63.4766 59.9759 63.6428 60.0142L64.2011 60.1335C64.5107 60.2003 64.7408 60.3061 64.8914 60.451C65.0434 60.5959 65.1201 60.7855 65.1215 61.0199C65.1201 61.2259 65.0597 61.4077 64.9404 61.5653C64.8225 61.7216 64.6585 61.8437 64.4482 61.9318C64.238 62.0199 63.9965 62.0639 63.7238 62.0639C63.3232 62.0639 63.0008 61.9801 62.7565 61.8125C62.5121 61.6435 62.3666 61.4084 62.3197 61.1072L63.0718 61.0348C63.1059 61.1825 63.1783 61.294 63.2891 61.3693C63.3999 61.4446 63.5441 61.4822 63.7217 61.4822C63.9049 61.4822 64.0519 61.4446 64.1627 61.3693C64.2749 61.294 64.331 61.201 64.331 61.0902C64.331 60.9964 64.2948 60.919 64.2224 60.858C64.1514 60.7969 64.0406 60.75 63.89 60.7173L63.3318 60.6001C63.0178 60.5348 62.7856 60.4247 62.635 60.2699C62.4844 60.1136 62.4099 59.9162 62.4113 59.6776C62.4099 59.4759 62.4646 59.3011 62.5754 59.1534C62.6876 59.0043 62.8431 58.8892 63.042 58.8082C63.2423 58.7259 63.4731 58.6847 63.7344 58.6847C64.118 58.6847 64.4198 58.7663 64.64 58.9297C64.8616 59.093 64.9987 59.3139 65.0512 59.5923Z" fill="#A4AFB7"/>
<path d="M89.9247 62H89.1372L90.571 57.9273H91.4818L92.9176 62H92.1301L91.0423 58.7625H91.0105L89.9247 62ZM89.9506 60.4031H92.0983V60.9957H89.9506V60.4031ZM94.1981 57.9273V62H93.4782V57.9273H94.1981ZM95.7143 57.9273V62H94.9944V57.9273H95.7143Z" fill="#A4AFB7"/>
<path d="M72.3 42.6H36.5999C35.8268 42.6 35.2 43.2268 35.2 44C35.2 44.7732 35.8268 45.4 36.5999 45.4H72.3C73.0732 45.4 73.6999 44.7732 73.6999 44C73.6999 43.2268 73.0732 42.6 72.3 42.6Z" fill="#D5DADF"/>
<path d="M96.2 42.6H84.2C83.4268 42.6 82.8 43.2268 82.8 44C82.8 44.7732 83.4268 45.4 84.2 45.4H96.2C96.9732 45.4 97.6 44.7732 97.6 44C97.6 43.2268 96.9732 42.6 96.2 42.6Z" fill="#D5DADF"/>
<path d="M114.7 42.6H102.7C101.927 42.6 101.3 43.2268 101.3 44C101.3 44.7732 101.927 45.4 102.7 45.4H114.7C115.473 45.4 116.1 44.7732 116.1 44C116.1 43.2268 115.473 42.6 114.7 42.6Z" fill="#D5DADF"/>
<path d="M133.3 42.6H121.3C120.527 42.6 119.9 43.2268 119.9 44C119.9 44.7732 120.527 45.4 121.3 45.4H133.3C134.073 45.4 134.7 44.7732 134.7 44C134.7 43.2268 134.073 42.6 133.3 42.6Z" fill="#D5DADF"/>
<path d="M151.8 42.6H139.8C139.027 42.6 138.4 43.2268 138.4 44C138.4 44.7732 139.027 45.4 139.8 45.4H151.8C152.573 45.4 153.2 44.7732 153.2 44C153.2 43.2268 152.573 42.6 151.8 42.6Z" fill="#D5DADF"/>
<path d="M58.0999 74.3H36.5C35.782 74.3 35.2 74.882 35.2 75.6V75.8C35.2 76.518 35.782 77.1 36.5 77.1H58.0999C58.8179 77.1 59.4 76.518 59.4 75.8V75.6C59.4 74.882 58.8179 74.3 58.0999 74.3Z" fill="#D5DADF"/>
<path d="M63.0999 90.2H36.5999C35.8268 90.2 35.2 90.8268 35.2 91.6C35.2 92.3732 35.8268 93 36.5999 93H63.0999C63.8731 93 64.5 92.3732 64.5 91.6C64.5 90.8268 63.8731 90.2 63.0999 90.2Z" fill="#D5DADF"/>
<path d="M59.5999 106.1H36.5C35.782 106.1 35.2 106.682 35.2 107.4V107.6C35.2 108.318 35.782 108.9 36.5 108.9H59.5999C60.3179 108.9 60.9 108.318 60.9 107.6V107.4C60.9 106.682 60.3179 106.1 59.5999 106.1Z" fill="#D5DADF"/>
<path d="M63.0999 122H36.5999C35.8268 122 35.2 122.627 35.2 123.4C35.2 124.173 35.8268 124.8 36.5999 124.8H63.0999C63.8731 124.8 64.5 124.173 64.5 123.4C64.5 122.627 63.8731 122 63.0999 122Z" fill="#D5DADF"/>
<path d="M24.2 47.3C26.0225 47.3 27.5 45.8226 27.5 44C27.5 42.1775 26.0225 40.7 24.2 40.7C22.3774 40.7 20.9 42.1775 20.9 44C20.9 45.8226 22.3774 47.3 24.2 47.3Z" fill="#D5DADF"/>
<path d="M24.2 63.1C26.0225 63.1 27.5 61.6225 27.5 59.8C27.5 57.9775 26.0225 56.5 24.2 56.5C22.3774 56.5 20.9 57.9775 20.9 59.8C20.9 61.6225 22.3774 63.1 24.2 63.1Z" fill="#ACB5BC"/>
<path d="M24.2 79C26.0225 79 27.5 77.5226 27.5 75.7C27.5 73.8775 26.0225 72.4 24.2 72.4C22.3774 72.4 20.9 73.8775 20.9 75.7C20.9 77.5226 22.3774 79 24.2 79Z" fill="#D5DADF"/>
<path d="M24.2 94.9C26.0225 94.9 27.5 93.4226 27.5 91.6C27.5 89.7775 26.0225 88.3 24.2 88.3C22.3774 88.3 20.9 89.7775 20.9 91.6C20.9 93.4226 22.3774 94.9 24.2 94.9Z" fill="#D5DADF"/>
<path d="M24.2 110.8C26.0225 110.8 27.5 109.323 27.5 107.5C27.5 105.677 26.0225 104.2 24.2 104.2C22.3774 104.2 20.9 105.677 20.9 107.5C20.9 109.323 22.3774 110.8 24.2 110.8Z" fill="#D5DADF"/>
<path d="M24.2 126.7C26.0225 126.7 27.5 125.223 27.5 123.4C27.5 121.577 26.0225 120.1 24.2 120.1C22.3774 120.1 20.9 121.577 20.9 123.4C20.9 125.223 22.3774 126.7 24.2 126.7Z" fill="#D5DADF"/>
<path d="M205 70.4H85.9C84.2431 70.4 82.9 71.7432 82.9 73.4V104.9C82.9 106.557 84.2431 107.9 85.9 107.9H205C206.657 107.9 208 106.557 208 104.9V73.4C208 71.7432 206.657 70.4 205 70.4Z" stroke="#E6E9EC" stroke-miterlimit="10"/>
<path d="M205 116.3H85.9C84.2431 116.3 82.9 117.643 82.9 119.3V150.8C82.9 152.457 84.2431 153.8 85.9 153.8H205C206.657 153.8 208 152.457 208 150.8V119.3C208 117.643 206.657 116.3 205 116.3Z" stroke="#E6E9EC" stroke-miterlimit="10"/>
<path d="M205 162.2H85.9C84.2431 162.2 82.9 163.543 82.9 165.2V196.7C82.9 198.357 84.2431 199.7 85.9 199.7H205C206.657 199.7 208 198.357 208 196.7V165.2C208 163.543 206.657 162.2 205 162.2Z" stroke="#E6E9EC" stroke-miterlimit="10"/>
<path d="M118.4 97.3001C118.3 97.3001 118.2 97.3001 118.1 97.2001C118.1 97.2001 118.1 97.2001 118.1 97.1001C118.1 97.0001 118.1 97.1001 118.1 97.0001C118.1 96.9001 118.1 97.0001 118.1 96.9001C118.2 96.9001 118.4 97.0001 118.5 97.1001C118.6 97.1001 118.8 97.1001 119 97.1001C119.2 97.1001 119.4 97.1001 119.5 96.9001C119.6 96.9001 119.7 96.7001 119.7 96.5001C119.7 96.3001 119.7 96.3001 119.7 96.2001C119.7 96.2001 119.6 96.0001 119.4 96.0001C119.3 96.0001 119.2 95.9001 119 95.8001C118.7 95.7001 118.4 95.5001 118.3 95.3001C118.1 95.1001 118.1 94.9001 118.1 94.7001C118.1 94.5001 118.1 94.3001 118.2 94.2001C118.2 94.1001 118.4 93.9001 118.6 93.9001C118.8 93.9001 119 93.8001 119.2 93.8001C119.4 93.8001 119.4 93.8001 119.6 93.8001C119.7 93.8001 119.9 93.8001 120 93.9001C120 93.9001 120.1 93.9001 120.1 94.0001C120.1 94.1001 120.1 94.0001 120.1 94.1001C120.1 94.1001 120.1 94.1001 120.1 94.2001C119.9 94.1001 119.7 94.0001 119.5 94.0001C119.3 94.0001 119.1 94.0001 119 94.1001C118.9 94.2001 118.8 94.3001 118.8 94.5001C118.8 94.7001 118.8 94.7001 118.8 94.8001C118.8 94.8001 118.9 94.9001 119 95.0001C119 95.0001 119.2 95.1001 119.4 95.2001C119.8 95.4001 120 95.5001 120.2 95.7001C120.4 95.9001 120.4 96.1001 120.4 96.3001C120.4 96.5001 120.4 96.9001 120.1 97.1001C119.8 97.3001 119.6 97.4001 119.2 97.4001C118.9 97.4001 118.7 97.4001 118.5 97.3001H118.4ZM119 97.7001V93.5001C119 93.5001 119 93.5001 119.1 93.5001H119.2V97.7001C119.2 97.7001 119.2 97.7001 119.1 97.7001H119Z" fill="#ACB5BC"/>
<path d="M120.6 97.4001L121.5 96.1001L120.7 94.9001C120.7 94.9001 120.7 94.9001 120.9 94.9001H121L121.5 95.7001C121.5 95.7001 121.5 95.6001 121.5 95.5001L122 94.7001C122 94.7001 122 94.7001 122.2 94.7001C122.2 94.7001 122.3 94.7001 122.4 94.7001L121.6 95.9001L122.5 97.2001C122.5 97.2001 122.5 97.2001 122.3 97.2001H122.2L121.6 96.4001C121.6 96.4001 121.6 96.5001 121.6 96.6001L121 97.5001C121 97.5001 121 97.5001 120.9 97.5001C120.9 97.5001 120.8 97.5001 120.7 97.5001L120.6 97.4001Z" fill="#ACB5BC"/>
<path d="M123.2 97.4001L124.1 96.1001L123.3 94.9001C123.3 94.9001 123.3 94.9001 123.5 94.9001H123.6L124.1 95.7001C124.1 95.7001 124.1 95.6001 124.1 95.5001L124.6 94.7001C124.6 94.7001 124.6 94.7001 124.8 94.7001C124.8 94.7001 124.9 94.7001 125 94.7001L124.2 95.9001L125.1 97.2001C125.1 97.2001 125.1 97.2001 124.9 97.2001H124.8L124.2 96.4001C124.2 96.4001 124.2 96.5001 124.2 96.6001L123.6 97.5001C123.6 97.5001 123.6 97.5001 123.5 97.5001C123.5 97.5001 123.4 97.5001 123.3 97.5001L123.2 97.4001Z" fill="#ACB5BC"/>
<path d="M125.8 97.4001L126.7 96.1001L125.9 94.9001C125.9 94.9001 125.9 94.9001 126.1 94.9001H126.2L126.7 95.7001C126.7 95.7001 126.7 95.6001 126.7 95.5001L127.2 94.7001C127.2 94.7001 127.2 94.7001 127.4 94.7001C127.4 94.7001 127.5 94.7001 127.6 94.7001L126.8 95.9001L127.7 97.2001C127.7 97.2001 127.7 97.2001 127.5 97.2001H127.4L126.8 96.4001C126.8 96.4001 126.8 96.5001 126.8 96.6001L126.2 97.5001C126.2 97.5001 126.2 97.5001 126.1 97.5001C126.1 97.5001 126 97.5001 125.9 97.5001L125.8 97.4001Z" fill="#ACB5BC"/>
<path d="M128.5 97.3V96.9C128.5 96.9 128.5 96.8 128.7 96.8C128.8 96.8 128.9 96.8 128.9 96.9V97.3C128.9 97.3 128.9 97.4 128.7 97.4C128.6 97.4 128.5 97.4 128.5 97.3Z" fill="#ACB5BC"/>
<path d="M129.5 97.4001L130.4 96.1001L129.6 94.9001C129.6 94.9001 129.6 94.9001 129.8 94.9001H129.9L130.4 95.7001C130.4 95.7001 130.4 95.6001 130.4 95.5001L130.9 94.7001C130.9 94.7001 130.9 94.7001 131.1 94.7001C131.1 94.7001 131.2 94.7001 131.3 94.7001L130.5 95.9001L131.4 97.2001C131.4 97.2001 131.4 97.2001 131.2 97.2001H131.1L130.5 96.4001C130.5 96.4001 130.5 96.5001 130.5 96.6001L129.9 97.5001C129.9 97.5001 129.9 97.5001 129.8 97.5001C129.8 97.5001 129.7 97.5001 129.6 97.5001L129.5 97.4001Z" fill="#ACB5BC"/>
<path d="M132.4 81.0001H119C118.448 81.0001 118 81.4478 118 82.0001C118 82.5523 118.448 83.0001 119 83.0001H132.4C132.952 83.0001 133.4 82.5523 133.4 82.0001C133.4 81.4478 132.952 81.0001 132.4 81.0001Z" fill="#D5DADF"/>
<path d="M150 87.2H119C118.448 87.2 118 87.6477 118 88.2C118 88.7523 118.448 89.2 119 89.2H150C150.552 89.2 151 88.7523 151 88.2C151 87.6477 150.552 87.2 150 87.2Z" fill="#D5DADF"/>
<path d="M113.6 79V98C113.6 99.6 112.3 100.9 110.7 100.9H91.7C90.1 100.9 88.8 99.6 88.8 98V79C88.8 77.4 90.1 76.1 91.7 76.1H110.7C112.3 76.1 113.6 77.4 113.6 79Z" fill="#D5DADF"/>
<path d="M113.6 90.7V98C113.6 99.6 112.3 100.9 110.7 100.9H91.7C90.1 100.9 88.8 99.6 88.8 98V91.6C88.8 91.4 89 91.3 89.1 91.2C90.1 89.8 92 88.9 93.7 89.7C94.8 90.2 95.5 91.3 96.3 92.3C97 93.3 97.9 94.3 99.1 94.5C100.3 94.7 101.5 94.1 102.3 93.2C104.2 91.1 104.6 86.4 108.2 86.4C109.4 86.4 110.4 87.2 111.3 88C112.2 88.8 112.9 89.7 113.7 90.7H113.6Z" fill="#F8F9FA"/>
<path d="M99 88.0001C100.657 88.0001 102 86.6569 102 85.0001C102 83.3432 100.657 82.0001 99 82.0001C97.3431 82.0001 96 83.3432 96 85.0001C96 86.6569 97.3431 88.0001 99 88.0001Z" fill="#F8F9FA"/>
<path d="M118.4 143.8C118.3 143.8 118.2 143.8 118.1 143.7C118.1 143.7 118.1 143.7 118.1 143.6C118.1 143.5 118.1 143.6 118.1 143.5C118.1 143.4 118.1 143.5 118.1 143.4C118.2 143.4 118.4 143.5 118.5 143.6C118.6 143.6 118.8 143.6 119 143.6C119.2 143.6 119.4 143.6 119.5 143.4C119.6 143.4 119.7 143.2 119.7 143C119.7 142.8 119.7 142.8 119.7 142.7C119.7 142.7 119.6 142.5 119.4 142.5C119.3 142.5 119.2 142.4 119 142.3C118.7 142.2 118.4 142 118.3 141.8C118.1 141.6 118.1 141.4 118.1 141.2C118.1 141 118.1 140.8 118.2 140.7C118.2 140.6 118.4 140.4 118.6 140.4C118.8 140.4 119 140.3 119.2 140.3C119.4 140.3 119.4 140.3 119.6 140.3C119.7 140.3 119.9 140.3 120 140.4C120 140.4 120.1 140.4 120.1 140.5C120.1 140.6 120.1 140.5 120.1 140.6C120.1 140.6 120.1 140.6 120.1 140.7C119.9 140.6 119.7 140.5 119.5 140.5C119.3 140.5 119.1 140.5 119 140.6C118.9 140.7 118.8 140.8 118.8 141C118.8 141.2 118.8 141.2 118.8 141.3C118.8 141.3 118.9 141.4 119 141.5C119 141.5 119.2 141.6 119.4 141.7C119.8 141.9 120 142 120.2 142.2C120.4 142.4 120.4 142.6 120.4 142.8C120.4 143 120.4 143.4 120.1 143.6C119.8 143.8 119.6 143.9 119.2 143.9C118.9 143.9 118.7 143.9 118.5 143.8H118.4ZM119 144.2V140C119 140 119 140 119.1 140H119.2V144.2C119.2 144.2 119.2 144.2 119.1 144.2H119Z" fill="#ACB5BC"/>
<path d="M120.6 143.9L121.5 142.6L120.7 141.4C120.7 141.4 120.7 141.4 120.9 141.4H121L121.5 142.2C121.5 142.2 121.5 142.1 121.5 142L122 141.2C122 141.2 122 141.2 122.2 141.2C122.2 141.2 122.3 141.2 122.4 141.2L121.6 142.4L122.5 143.7C122.5 143.7 122.5 143.7 122.3 143.7H122.2L121.6 142.9C121.6 142.9 121.6 143 121.6 143.1L121 144C121 144 121 144 120.9 144C120.9 144 120.8 144 120.7 144L120.6 143.9Z" fill="#ACB5BC"/>
<path d="M123.2 143.9L124.1 142.6L123.3 141.4C123.3 141.4 123.3 141.4 123.5 141.4H123.6L124.1 142.2C124.1 142.2 124.1 142.1 124.1 142L124.6 141.2C124.6 141.2 124.6 141.2 124.8 141.2C124.8 141.2 124.9 141.2 125 141.2L124.2 142.4L125.1 143.7C125.1 143.7 125.1 143.7 124.9 143.7H124.8L124.2 142.9C124.2 142.9 124.2 143 124.2 143.1L123.6 144C123.6 144 123.6 144 123.5 144C123.5 144 123.4 144 123.3 144L123.2 143.9Z" fill="#ACB5BC"/>
<path d="M125.8 143.9L126.7 142.6L125.9 141.4C125.9 141.4 125.9 141.4 126.1 141.4H126.2L126.7 142.2C126.7 142.2 126.7 142.1 126.7 142L127.2 141.2C127.2 141.2 127.2 141.2 127.4 141.2C127.4 141.2 127.5 141.2 127.6 141.2L126.8 142.4L127.7 143.7C127.7 143.7 127.7 143.7 127.5 143.7H127.4L126.8 142.9C126.8 142.9 126.8 143 126.8 143.1L126.2 144C126.2 144 126.2 144 126.1 144C126.1 144 126 144 125.9 144L125.8 143.9Z" fill="#ACB5BC"/>
<path d="M128.5 143.8V143.4C128.5 143.4 128.5 143.3 128.7 143.3C128.8 143.3 128.9 143.3 128.9 143.4V143.8C128.9 143.8 128.9 143.9 128.7 143.9C128.6 143.9 128.5 143.9 128.5 143.8Z" fill="#ACB5BC"/>
<path d="M129.5 143.9L130.4 142.6L129.6 141.4C129.6 141.4 129.6 141.4 129.8 141.4H129.9L130.4 142.2C130.4 142.2 130.4 142.1 130.4 142L130.9 141.2C130.9 141.2 130.9 141.2 131.1 141.2C131.1 141.2 131.2 141.2 131.3 141.2L130.5 142.4L131.4 143.7C131.4 143.7 131.4 143.7 131.2 143.7H131.1L130.5 142.9C130.5 142.9 130.5 143 130.5 143.1L129.9 144C129.9 144 129.9 144 129.8 144C129.8 144 129.7 144 129.6 144L129.5 143.9Z" fill="#ACB5BC"/>
<path d="M132.4 127.5H119C118.448 127.5 118 127.948 118 128.5C118 129.052 118.448 129.5 119 129.5H132.4C132.952 129.5 133.4 129.052 133.4 128.5C133.4 127.948 132.952 127.5 132.4 127.5Z" fill="#D5DADF"/>
<path d="M150 133.7H119C118.448 133.7 118 134.148 118 134.7C118 135.252 118.448 135.7 119 135.7H150C150.552 135.7 151 135.252 151 134.7C151 134.148 150.552 133.7 150 133.7Z" fill="#D5DADF"/>
<path d="M113.6 125.5V144.5C113.6 146.1 112.3 147.4 110.7 147.4H91.7C90.1 147.4 88.8 146.1 88.8 144.5V125.5C88.8 123.9 90.1 122.6 91.7 122.6H110.7C112.3 122.6 113.6 123.9 113.6 125.5Z" fill="#D5DADF"/>
<path d="M113.6 137.2V144.5C113.6 146.1 112.3 147.4 110.7 147.4H91.7C90.1 147.4 88.8 146.1 88.8 144.5V138.1C88.8 137.9 89 137.8 89.1 137.7C90.1 136.3 92 135.4 93.7 136.2C94.8 136.7 95.5 137.8 96.3 138.8C97 139.8 97.9 140.8 99.1 141C100.3 141.2 101.5 140.6 102.3 139.7C104.2 137.6 104.6 132.9 108.2 132.9C109.4 132.9 110.4 133.7 111.3 134.5C112.2 135.3 112.9 136.2 113.7 137.2H113.6Z" fill="#F8F9FA"/>
<path d="M99 134.5C100.657 134.5 102 133.157 102 131.5C102 129.843 100.657 128.5 99 128.5C97.3431 128.5 96 129.843 96 131.5C96 133.157 97.3431 134.5 99 134.5Z" fill="#F8F9FA"/>
<path d="M118.4 189.7C118.3 189.7 118.2 189.7 118.1 189.6C118.1 189.6 118.1 189.6 118.1 189.5C118.1 189.4 118.1 189.5 118.1 189.4C118.1 189.3 118.1 189.4 118.1 189.3C118.2 189.3 118.4 189.4 118.5 189.5C118.6 189.5 118.8 189.5 119 189.5C119.2 189.5 119.4 189.5 119.5 189.3C119.6 189.3 119.7 189.1 119.7 188.9C119.7 188.7 119.7 188.7 119.7 188.6C119.7 188.6 119.6 188.4 119.4 188.4C119.3 188.4 119.2 188.3 119 188.2C118.7 188.1 118.4 187.9 118.3 187.7C118.1 187.5 118.1 187.3 118.1 187.1C118.1 186.9 118.1 186.7 118.2 186.6C118.2 186.5 118.4 186.3 118.6 186.3C118.8 186.3 119 186.2 119.2 186.2C119.4 186.2 119.4 186.2 119.6 186.2C119.7 186.2 119.9 186.2 120 186.3C120 186.3 120.1 186.3 120.1 186.4C120.1 186.5 120.1 186.4 120.1 186.5C120.1 186.5 120.1 186.5 120.1 186.6C119.9 186.5 119.7 186.4 119.5 186.4C119.3 186.4 119.1 186.4 119 186.5C118.9 186.6 118.8 186.7 118.8 186.9C118.8 187.1 118.8 187.1 118.8 187.2C118.8 187.2 118.9 187.3 119 187.4C119 187.4 119.2 187.5 119.4 187.6C119.8 187.8 120 187.9 120.2 188.1C120.4 188.3 120.4 188.5 120.4 188.7C120.4 188.9 120.4 189.3 120.1 189.5C119.8 189.7 119.6 189.8 119.2 189.8C118.9 189.8 118.7 189.8 118.5 189.7H118.4ZM119 190.1V185.9C119 185.9 119 185.9 119.1 185.9H119.2V190.1C119.2 190.1 119.2 190.1 119.1 190.1H119Z" fill="#ACB5BC"/>
<path d="M120.6 189.8L121.5 188.5L120.7 187.3C120.7 187.3 120.7 187.3 120.9 187.3H121L121.5 188.1C121.5 188.1 121.5 188 121.5 187.9L122 187.1C122 187.1 122 187.1 122.2 187.1C122.2 187.1 122.3 187.1 122.4 187.1L121.6 188.3L122.5 189.6C122.5 189.6 122.5 189.6 122.3 189.6H122.2L121.6 188.8C121.6 188.8 121.6 188.9 121.6 189L121 189.9C121 189.9 121 189.9 120.9 189.9C120.9 189.9 120.8 189.9 120.7 189.9L120.6 189.8Z" fill="#ACB5BC"/>
<path d="M123.2 189.8L124.1 188.5L123.3 187.3C123.3 187.3 123.3 187.3 123.5 187.3H123.6L124.1 188.1C124.1 188.1 124.1 188 124.1 187.9L124.6 187.1C124.6 187.1 124.6 187.1 124.8 187.1C124.8 187.1 124.9 187.1 125 187.1L124.2 188.3L125.1 189.6C125.1 189.6 125.1 189.6 124.9 189.6H124.8L124.2 188.8C124.2 188.8 124.2 188.9 124.2 189L123.6 189.9C123.6 189.9 123.6 189.9 123.5 189.9C123.5 189.9 123.4 189.9 123.3 189.9L123.2 189.8Z" fill="#ACB5BC"/>
<path d="M125.8 189.8L126.7 188.5L125.9 187.3C125.9 187.3 125.9 187.3 126.1 187.3H126.2L126.7 188.1C126.7 188.1 126.7 188 126.7 187.9L127.2 187.1C127.2 187.1 127.2 187.1 127.4 187.1C127.4 187.1 127.5 187.1 127.6 187.1L126.8 188.3L127.7 189.6C127.7 189.6 127.7 189.6 127.5 189.6H127.4L126.8 188.8C126.8 188.8 126.8 188.9 126.8 189L126.2 189.9C126.2 189.9 126.2 189.9 126.1 189.9C126.1 189.9 126 189.9 125.9 189.9L125.8 189.8Z" fill="#ACB5BC"/>
<path d="M128.5 189.7V189.3C128.5 189.3 128.5 189.2 128.7 189.2C128.8 189.2 128.9 189.2 128.9 189.3V189.7C128.9 189.7 128.9 189.8 128.7 189.8C128.6 189.8 128.5 189.8 128.5 189.7Z" fill="#ACB5BC"/>
<path d="M129.5 189.8L130.4 188.5L129.6 187.3C129.6 187.3 129.6 187.3 129.8 187.3H129.9L130.4 188.1C130.4 188.1 130.4 188 130.4 187.9L130.9 187.1C130.9 187.1 130.9 187.1 131.1 187.1C131.1 187.1 131.2 187.1 131.3 187.1L130.5 188.3L131.4 189.6C131.4 189.6 131.4 189.6 131.2 189.6H131.1L130.5 188.8C130.5 188.8 130.5 188.9 130.5 189L129.9 189.9C129.9 189.9 129.9 189.9 129.8 189.9C129.8 189.9 129.7 189.9 129.6 189.9L129.5 189.8Z" fill="#ACB5BC"/>
<path d="M132.4 173.4H119C118.448 173.4 118 173.848 118 174.4C118 174.952 118.448 175.4 119 175.4H132.4C132.952 175.4 133.4 174.952 133.4 174.4C133.4 173.848 132.952 173.4 132.4 173.4Z" fill="#D5DADF"/>
<path d="M150 179.6H119C118.448 179.6 118 180.048 118 180.6C118 181.152 118.448 181.6 119 181.6H150C150.552 181.6 151 181.152 151 180.6C151 180.048 150.552 179.6 150 179.6Z" fill="#D5DADF"/>
<path d="M113.6 171.4V190.4C113.6 192 112.3 193.3 110.7 193.3H91.7C90.1 193.3 88.8 192 88.8 190.4V171.4C88.8 169.8 90.1 168.5 91.7 168.5H110.7C112.3 168.5 113.6 169.8 113.6 171.4Z" fill="#D5DADF"/>
<path d="M113.6 183.1V190.4C113.6 192 112.3 193.3 110.7 193.3H91.7C90.1 193.3 88.8 192 88.8 190.4V184C88.8 183.8 89 183.7 89.1 183.6C90.1 182.2 92 181.3 93.7 182.1C94.8 182.6 95.5 183.7 96.3 184.7C97 185.7 97.9 186.7 99.1 186.9C100.3 187.1 101.5 186.5 102.3 185.6C104.2 183.5 104.6 178.8 108.2 178.8C109.4 178.8 110.4 179.6 111.3 180.4C112.2 181.2 112.9 182.1 113.7 183.1H113.6Z" fill="#F8F9FA"/>
<path d="M99 180.4C100.657 180.4 102 179.057 102 177.4C102 175.743 100.657 174.4 99 174.4C97.3431 174.4 96 175.743 96 177.4C96 179.057 97.3431 180.4 99 180.4Z" fill="#F8F9FA"/>
<path d="M120.9 58.8H115.1C114.548 58.8 114.1 59.2477 114.1 59.8C114.1 60.3523 114.548 60.8 115.1 60.8H120.9C121.452 60.8 121.9 60.3523 121.9 59.8C121.9 59.2477 121.452 58.8 120.9 58.8Z" fill="#D5DADF"/>
<path d="M146.4 58.8H140.6C140.048 58.8 139.6 59.2477 139.6 59.8C139.6 60.3523 140.048 60.8 140.6 60.8H146.4C146.952 60.8 147.4 60.3523 147.4 59.8C147.4 59.2477 146.952 58.8 146.4 58.8Z" fill="#D5DADF"/>
<path d="M201.4 58.8H191C190.448 58.8 190 59.2477 190 59.8C190 60.3523 190.448 60.8 191 60.8H201.4C201.952 60.8 202.4 60.3523 202.4 59.8C202.4 59.2477 201.952 58.8 201.4 58.8Z" fill="#D5DADF"/>
<path d="M97.6 55.3H87.5C84.9595 55.3 82.9 57.3371 82.9 59.85C82.9 62.3629 84.9595 64.4 87.5 64.4H97.6C100.14 64.4 102.2 62.3629 102.2 59.85C102.2 57.3371 100.14 55.3 97.6 55.3Z" stroke="#ACB5BC" stroke-miterlimit="10"/>
<path d="M123 55.3H112.9C110.359 55.3 108.3 57.3371 108.3 59.85C108.3 62.3629 110.359 64.4 112.9 64.4H123C125.54 64.4 127.6 62.3629 127.6 59.85C127.6 57.3371 125.54 55.3 123 55.3Z" stroke="#E6E9EC" stroke-miterlimit="10"/>
<path d="M148.5 55.3H138.4C135.859 55.3 133.8 57.3371 133.8 59.85C133.8 62.3629 135.859 64.4 138.4 64.4H148.5C151.04 64.4 153.1 62.3629 153.1 59.85C153.1 57.3371 151.04 55.3 148.5 55.3Z" stroke="#E6E9EC" stroke-miterlimit="10"/>
<path d="M203.4 55.3H189C186.459 55.3 184.4 57.3371 184.4 59.85C184.4 62.3629 186.459 64.4 189 64.4H203.4C205.94 64.4 208 62.3629 208 59.85C208 57.3371 205.94 55.3 203.4 55.3Z" stroke="#E6E9EC" stroke-miterlimit="10"/>
<path d="M196.2 86.1L199.3 89.2L196.2 92.2" stroke="#ACB5BC" stroke-linecap="round" stroke-linejoin="round"/>
<path d="M196.2 132L199.3 135L196.2 138.1" stroke="#ACB5BC" stroke-linecap="round" stroke-linejoin="round"/>
<path d="M196.2 177.9L199.3 180.9L196.2 183.9" stroke="#ACB5BC" stroke-linecap="round" stroke-linejoin="round"/>
</g>
</svg>
