<svg width="229" height="222" viewBox="0 0 229 222" fill="none" xmlns="http://www.w3.org/2000/svg">
<mask id="mask0_200_42" style="mask-type:alpha" maskUnits="userSpaceOnUse" x="17" y="11" width="196" height="190">
<rect x="17" y="11" width="196" height="190" fill="#D9D9D9"/>
</mask>
<g mask="url(#mask0_200_42)">
<path d="M60.2 145.4H21V174.5H60.2V145.4Z" fill="#E6E9EC"/>
<path d="M36.2 159.1C37.6359 159.1 38.8 157.936 38.8 156.5C38.8 155.064 37.6359 153.9 36.2 153.9C34.7641 153.9 33.6 155.064 33.6 156.5C33.6 157.936 34.7641 159.1 36.2 159.1Z" fill="#F8F9FA"/>
<path d="M60.2 157V174.5H21V165.3C24.1 162.6 28.7 160.5 32.7 165.5C39.6 174.2 41.5 158.6 51.6 154.7C55.1 153.4 58 154.7 60.3 157H60.2Z" fill="#F8F9FA"/>
<path d="M181.6 162.2C181.4 162.2 181.2 162 181.1 161.9C181 161.9 180.9 161.7 180.9 161.6C180.9 161.5 180.9 161.5 180.9 161.4C180.9 161.3 181 161.2 181.1 161.2L181.2 161.1H181.3C181.6 161.2 181.8 161.3 182.1 161.4C182.4 161.4 182.7 161.5 183.1 161.4C183.5 161.4 183.8 161.3 184.1 161.1C184.3 160.9 184.4 160.6 184.4 160.2C184.4 159.8 184.4 159.7 184.2 159.5C184.1 159.3 183.9 159.2 183.7 159C183.5 158.9 183.2 158.8 182.9 158.6C182.2 158.3 181.7 158 181.4 157.7C181.1 157.4 180.9 157 180.9 156.5C180.9 156 180.9 155.8 181.2 155.5C181.4 155.2 181.6 155 182 154.8C182.4 154.6 182.8 154.6 183.3 154.6C183.8 154.6 183.8 154.6 184.1 154.6C184.4 154.6 184.6 154.7 184.8 154.8C185 154.8 185.1 155 185.1 155.1C185.1 155.2 185.1 155.2 185.1 155.3C185.1 155.3 185.1 155.5 185 155.5C185 155.5 185 155.6 184.9 155.6C184.8 155.6 184.9 155.6 184.7 155.6H184.5C184.1 155.4 183.8 155.3 183.3 155.3C182.8 155.3 182.6 155.3 182.3 155.6C182 155.9 181.9 156.1 181.9 156.4C181.9 156.7 181.9 156.8 182.1 157C182.2 157.2 182.4 157.3 182.6 157.4C182.8 157.5 183 157.6 183.4 157.8C184.1 158.1 184.7 158.5 185 158.8C185.3 159.2 185.5 159.6 185.5 160.1C185.5 160.6 185.3 161.3 184.9 161.6C184.5 161.9 183.9 162.2 183.1 162.2C182.6 162.2 182.1 162.2 181.6 162V162.2ZM182.9 163V154.5C182.9 154.4 182.9 154.3 183.2 154.3C183.4 154.3 183.5 154.3 183.5 154.5V163C183.5 163.1 183.5 163.2 183.2 163.2C183 163.2 182.9 163.2 182.9 163Z" fill="#A4AFB7"/>
<path d="M186.2 162.4C186.2 162.4 186.1 162.4 186.1 162.3C186.1 162.2 186.1 162.2 186.1 162.1L187.8 159.6L186.2 157.2C186.2 157.2 186.2 157.1 186.2 157C186.2 156.9 186.4 156.8 186.7 156.8C186.8 156.8 186.9 156.8 187 156.8C187 156.8 187.1 156.8 187.2 156.9L188.2 158.4C188.2 158.4 188.2 158.5 188.3 158.6C188.3 158.6 188.3 158.6 188.3 158.7C188.3 158.6 188.4 158.5 188.5 158.4L189.5 156.9C189.5 156.9 189.5 156.9 189.7 156.8C189.7 156.8 189.9 156.8 190 156.8C190.2 156.8 190.3 156.8 190.3 156.8C190.3 156.8 190.4 156.8 190.4 156.9C190.4 157 190.4 157 190.4 157.1L188.8 159.5L190.5 162C190.5 162 190.5 162.1 190.5 162.2C190.5 162.3 190.3 162.4 190 162.4C189.9 162.4 189.8 162.4 189.7 162.4C189.7 162.4 189.6 162.4 189.5 162.3L188.4 160.6C188.4 160.6 188.4 160.5 188.3 160.4C188.3 160.4 188.3 160.4 188.3 160.3C188.3 160.5 188.2 160.6 188.1 160.7L186.9 162.4C186.9 162.4 186.8 162.4 186.7 162.5C186.7 162.5 186.5 162.5 186.4 162.5C186.2 162.5 186.1 162.5 186 162.5L186.2 162.4Z" fill="#A4AFB7"/>
<path d="M191.4 162.4C191.4 162.4 191.3 162.4 191.3 162.3C191.3 162.2 191.3 162.2 191.3 162.1L193 159.6L191.4 157.2C191.4 157.2 191.4 157.1 191.4 157C191.4 156.9 191.6 156.8 191.9 156.8C192 156.8 192.1 156.8 192.2 156.8C192.2 156.8 192.3 156.8 192.4 156.9L193.4 158.4C193.4 158.4 193.4 158.5 193.5 158.6C193.5 158.6 193.5 158.6 193.5 158.7C193.5 158.6 193.6 158.5 193.7 158.4L194.7 156.9C194.7 156.9 194.7 156.9 194.9 156.8C194.9 156.8 195.1 156.8 195.2 156.8C195.4 156.8 195.5 156.8 195.5 156.8C195.5 156.8 195.6 156.8 195.6 156.9C195.6 157 195.6 157 195.6 157.1L194 159.5L195.7 162C195.7 162 195.7 162.1 195.7 162.2C195.7 162.3 195.5 162.4 195.2 162.4C195.1 162.4 195 162.4 194.9 162.4C194.9 162.4 194.8 162.4 194.7 162.3L193.6 160.6C193.6 160.6 193.6 160.5 193.5 160.4C193.5 160.4 193.5 160.4 193.5 160.3C193.5 160.5 193.4 160.6 193.3 160.7L192.1 162.4C192.1 162.4 192 162.4 191.9 162.5C191.9 162.5 191.7 162.5 191.6 162.5C191.4 162.5 191.3 162.5 191.2 162.5L191.4 162.4Z" fill="#A4AFB7"/>
<path d="M196.6 162.4C196.6 162.4 196.5 162.4 196.5 162.3C196.5 162.2 196.5 162.2 196.5 162.1L198.2 159.6L196.6 157.2C196.6 157.2 196.6 157.1 196.6 157C196.6 156.9 196.8 156.8 197.1 156.8C197.2 156.8 197.3 156.8 197.4 156.8C197.4 156.8 197.5 156.8 197.6 156.9L198.6 158.4C198.6 158.4 198.6 158.5 198.7 158.6C198.7 158.6 198.7 158.6 198.7 158.7C198.7 158.6 198.8 158.5 198.9 158.4L199.9 156.9C199.9 156.9 199.9 156.9 200.1 156.8C200.1 156.8 200.3 156.8 200.4 156.8C200.6 156.8 200.7 156.8 200.7 156.8C200.7 156.8 200.8 156.8 200.8 156.9C200.8 157 200.8 157 200.8 157.1L199.2 159.5L200.9 162C200.9 162 200.9 162.1 200.9 162.2C200.9 162.3 200.7 162.4 200.4 162.4C200.3 162.4 200.2 162.4 200.1 162.4C200.1 162.4 200 162.4 199.9 162.3L198.8 160.6C198.8 160.6 198.8 160.5 198.7 160.4C198.7 160.4 198.7 160.4 198.7 160.3C198.7 160.5 198.6 160.6 198.5 160.7L197.3 162.4C197.3 162.4 197.2 162.4 197.1 162.5C197.1 162.5 196.9 162.5 196.8 162.5C196.6 162.5 196.5 162.5 196.4 162.5L196.6 162.4Z" fill="#A4AFB7"/>
<path d="M202 162.2V161.5C202 161.3 202.1 161.3 202.4 161.3H202.6C202.9 161.3 203 161.3 203 161.5V162.2C203 162.4 202.9 162.4 202.6 162.4H202.4C202.1 162.4 202 162.4 202 162.2Z" fill="#A4AFB7"/>
<path d="M203.9 162.4C203.9 162.4 203.8 162.4 203.8 162.3C203.8 162.2 203.8 162.2 203.8 162.1L205.5 159.6L203.9 157.2C203.9 157.2 203.9 157.1 203.9 157C203.9 156.9 204.1 156.8 204.4 156.8C204.5 156.8 204.6 156.8 204.7 156.8C204.7 156.8 204.8 156.8 204.9 156.9L205.9 158.4C205.9 158.4 205.9 158.5 206 158.6C206 158.6 206 158.6 206 158.7C206 158.6 206.1 158.5 206.2 158.4L207.2 156.9C207.2 156.9 207.2 156.9 207.4 156.8C207.4 156.8 207.6 156.8 207.7 156.8C207.9 156.8 208 156.8 208 156.8C208 156.8 208.1 156.8 208.1 156.9C208.1 157 208.1 157 208.1 157.1L206.5 159.5L208.2 162C208.2 162 208.2 162.1 208.2 162.2C208.2 162.3 208 162.4 207.7 162.4C207.6 162.4 207.5 162.4 207.4 162.4C207.4 162.4 207.3 162.4 207.2 162.3L206.1 160.6C206.1 160.6 206.1 160.5 206 160.4C206 160.4 206 160.4 206 160.3C206 160.5 205.9 160.6 205.8 160.7L204.6 162.4C204.6 162.4 204.5 162.4 204.4 162.5C204.4 162.5 204.2 162.5 204.1 162.5C203.9 162.5 203.8 162.5 203.7 162.5L203.9 162.4Z" fill="#A4AFB7"/>
<path d="M175.1 195.8C174.9 195.8 174.7 195.6 174.6 195.5C174.5 195.5 174.4 195.3 174.4 195.2C174.4 195.1 174.4 195.1 174.4 195C174.4 194.9 174.5 194.8 174.6 194.8L174.7 194.7H174.8C175.1 194.8 175.3 194.9 175.6 195C175.9 195 176.2 195.1 176.6 195C177 195 177.3 194.9 177.6 194.7C177.8 194.5 177.9 194.2 177.9 193.8C177.9 193.4 177.9 193.3 177.7 193.1C177.6 192.9 177.4 192.8 177.2 192.6C177 192.5 176.7 192.4 176.4 192.2C175.7 191.9 175.2 191.6 174.9 191.3C174.6 191 174.4 190.6 174.4 190.1C174.4 189.6 174.4 189.4 174.7 189.1C174.9 188.8 175.1 188.6 175.5 188.4C175.9 188.2 176.3 188.2 176.8 188.2C177.3 188.2 177.3 188.2 177.6 188.2C177.9 188.2 178.1 188.3 178.3 188.4C178.5 188.4 178.6 188.6 178.6 188.7C178.6 188.8 178.6 188.8 178.6 188.9C178.6 188.9 178.6 189.1 178.5 189.1C178.5 189.1 178.5 189.2 178.4 189.2C178.3 189.2 178.4 189.2 178.2 189.2H178C177.6 189 177.3 188.9 176.8 188.9C176.3 188.9 176.1 188.9 175.8 189.2C175.5 189.5 175.4 189.7 175.4 190C175.4 190.3 175.4 190.4 175.6 190.6C175.7 190.8 175.9 190.9 176.1 191C176.3 191.1 176.5 191.2 176.9 191.4C177.6 191.7 178.2 192.1 178.5 192.4C178.8 192.8 179 193.2 179 193.7C179 194.2 178.8 194.9 178.4 195.2C178 195.5 177.4 195.8 176.6 195.8C176.1 195.8 175.6 195.8 175.1 195.6V195.8ZM176.4 196.5V188C176.4 187.9 176.4 187.8 176.7 187.8C176.9 187.8 177 187.8 177 188V196.5C177 196.6 177 196.7 176.7 196.7C176.5 196.7 176.4 196.7 176.4 196.5Z" fill="#A4AFB7"/>
<path d="M179.6 195.9C179.6 195.9 179.5 195.9 179.5 195.8C179.5 195.7 179.5 195.7 179.5 195.6L181.2 193.1L179.6 190.7C179.6 190.7 179.6 190.6 179.6 190.5C179.6 190.4 179.8 190.3 180.1 190.3C180.2 190.3 180.3 190.3 180.4 190.3C180.4 190.3 180.5 190.3 180.6 190.4L181.6 191.9C181.6 191.9 181.6 192 181.7 192.1C181.7 192.1 181.7 192.1 181.7 192.2C181.7 192.1 181.8 192 181.9 191.9L182.9 190.4C182.9 190.4 182.9 190.4 183.1 190.3C183.1 190.3 183.3 190.3 183.4 190.3C183.6 190.3 183.7 190.3 183.7 190.3C183.7 190.3 183.8 190.3 183.8 190.4C183.8 190.5 183.8 190.5 183.8 190.6L182.2 193L183.9 195.5C183.9 195.5 183.9 195.6 183.9 195.7C183.9 195.8 183.7 195.9 183.4 195.9C183.3 195.9 183.2 195.9 183.1 195.9C183.1 195.9 183 195.9 182.9 195.8L181.8 194.1C181.8 194.1 181.8 194 181.7 193.9C181.7 193.9 181.7 193.9 181.7 193.8C181.7 194 181.6 194.1 181.5 194.2L180.3 195.9C180.3 195.9 180.2 195.9 180.1 196C180.1 196 179.9 196 179.8 196C179.6 196 179.5 196 179.4 196L179.6 195.9Z" fill="#A4AFB7"/>
<path d="M184.8 195.9C184.8 195.9 184.7 195.9 184.7 195.8C184.7 195.7 184.7 195.7 184.7 195.6L186.4 193.1L184.8 190.7C184.8 190.7 184.8 190.6 184.8 190.5C184.8 190.4 185 190.3 185.3 190.3C185.4 190.3 185.5 190.3 185.6 190.3C185.6 190.3 185.7 190.3 185.8 190.4L186.8 191.9C186.8 191.9 186.8 192 186.9 192.1C186.9 192.1 186.9 192.1 186.9 192.2C186.9 192.1 187 192 187.1 191.9L188.1 190.4C188.1 190.4 188.1 190.4 188.3 190.3C188.3 190.3 188.5 190.3 188.6 190.3C188.8 190.3 188.9 190.3 188.9 190.3C188.9 190.3 189 190.3 189 190.4C189 190.5 189 190.5 189 190.6L187.4 193L189.1 195.5C189.1 195.5 189.1 195.6 189.1 195.7C189.1 195.8 188.9 195.9 188.6 195.9C188.5 195.9 188.4 195.9 188.3 195.9C188.3 195.9 188.2 195.9 188.1 195.8L187 194.1C187 194.1 187 194 186.9 193.9C186.9 193.9 186.9 193.9 186.9 193.8C186.9 194 186.8 194.1 186.7 194.2L185.5 195.9C185.5 195.9 185.4 195.9 185.3 196C185.3 196 185.1 196 185 196C184.8 196 184.7 196 184.6 196L184.8 195.9Z" fill="#A4AFB7"/>
<path d="M190 195.9C190 195.9 189.9 195.9 189.9 195.8C189.9 195.7 189.9 195.7 189.9 195.6L191.6 193.1L190 190.7C190 190.7 190 190.6 190 190.5C190 190.4 190.2 190.3 190.5 190.3C190.6 190.3 190.7 190.3 190.8 190.3C190.8 190.3 190.9 190.3 191 190.4L192 191.9C192 191.9 192 192 192.1 192.1C192.1 192.1 192.1 192.1 192.1 192.2C192.1 192.1 192.2 192 192.3 191.9L193.3 190.4C193.3 190.4 193.3 190.4 193.5 190.3C193.5 190.3 193.7 190.3 193.8 190.3C194 190.3 194.1 190.3 194.1 190.3C194.1 190.3 194.2 190.3 194.2 190.4C194.2 190.5 194.2 190.5 194.2 190.6L192.6 193L194.3 195.5C194.3 195.5 194.3 195.6 194.3 195.7C194.3 195.8 194.1 195.9 193.8 195.9C193.7 195.9 193.6 195.9 193.5 195.9C193.5 195.9 193.4 195.9 193.3 195.8L192.2 194.1C192.2 194.1 192.2 194 192.1 193.9C192.1 193.9 192.1 193.9 192.1 193.8C192.1 194 192 194.1 191.9 194.2L190.7 195.9C190.7 195.9 190.6 195.9 190.5 196C190.5 196 190.3 196 190.2 196C190 196 189.9 196 189.8 196L190 195.9Z" fill="#A4AFB7"/>
<path d="M195.5 195.7V195C195.5 194.8 195.6 194.8 195.9 194.8H196.1C196.4 194.8 196.5 194.8 196.5 195V195.7C196.5 195.9 196.4 195.9 196.1 195.9H195.9C195.6 195.9 195.5 195.9 195.5 195.7Z" fill="#A4AFB7"/>
<path d="M197.4 195.9C197.4 195.9 197.3 195.9 197.3 195.8C197.3 195.7 197.3 195.7 197.3 195.6L199 193.1L197.4 190.7C197.4 190.7 197.4 190.6 197.4 190.5C197.4 190.4 197.6 190.3 197.9 190.3C198 190.3 198.1 190.3 198.2 190.3C198.2 190.3 198.3 190.3 198.4 190.4L199.4 191.9C199.4 191.9 199.4 192 199.5 192.1C199.5 192.1 199.5 192.1 199.5 192.2C199.5 192.1 199.6 192 199.7 191.9L200.7 190.4C200.7 190.4 200.7 190.4 200.9 190.3C200.9 190.3 201.1 190.3 201.2 190.3C201.4 190.3 201.5 190.3 201.5 190.3C201.5 190.3 201.6 190.3 201.6 190.4C201.6 190.5 201.6 190.5 201.6 190.6L200 193L201.7 195.5C201.7 195.5 201.7 195.6 201.7 195.7C201.7 195.8 201.5 195.9 201.2 195.9C201.1 195.9 201 195.9 200.9 195.9C200.9 195.9 200.8 195.9 200.7 195.8L199.6 194.1C199.6 194.1 199.6 194 199.5 193.9C199.5 193.9 199.5 193.9 199.5 193.8C199.5 194 199.4 194.1 199.3 194.2L198.1 195.9C198.1 195.9 198 195.9 197.9 196C197.9 196 197.7 196 197.6 196C197.4 196 197.3 196 197.2 196L197.4 195.9Z" fill="#A4AFB7"/>
<path d="M143.6 153.9H120.4C119.075 153.9 118 154.975 118 156.3V161.7C118 163.026 119.075 164.1 120.4 164.1H143.6C144.925 164.1 146 163.026 146 161.7V156.3C146 154.975 144.925 153.9 143.6 153.9Z" fill="#E6E9EC"/>
<path d="M124.1 159.4H121.4C121.2 159.4 121.1 159.2 121.1 159.1C121.1 159 121.3 158.8 121.4 158.8H124.1C124.3 158.8 124.4 159 124.4 159.1C124.4 159.2 124.2 159.4 124.1 159.4Z" fill="#A4AFB7"/>
<path d="M142.5 159.4H139.7C139.5 159.4 139.4 159.2 139.4 159.1C139.4 159 139.6 158.8 139.7 158.8H142.5C142.7 158.8 142.8 159 142.8 159.1C142.8 159.2 142.6 159.4 142.5 159.4Z" fill="#A4AFB7"/>
<path d="M141.1 160.8C140.9 160.8 140.8 160.6 140.8 160.5V157.7C140.8 157.5 141 157.4 141.1 157.4C141.2 157.4 141.4 157.6 141.4 157.7V160.5C141.4 160.7 141.2 160.8 141.1 160.8Z" fill="#A4AFB7"/>
<path d="M130.7 160.9V160.6L131.1 160.2C132 159.3 132.4 158.9 132.4 158.3C132.4 157.9 132.2 157.6 131.7 157.6C131.2 157.6 131.1 157.8 130.9 157.9L130.7 157.6C130.9 157.4 131.3 157.2 131.7 157.2C132.5 157.2 132.8 157.7 132.8 158.2C132.8 158.7 132.3 159.4 131.6 160.1L131.3 160.4H132.9V160.8H130.6L130.7 160.9Z" fill="#A4AFB7"/>
<path d="M127.7 156.3C127.7 156.19 127.61 156.1 127.5 156.1C127.39 156.1 127.3 156.19 127.3 156.3V161.7C127.3 161.81 127.39 161.9 127.5 161.9C127.61 161.9 127.7 161.81 127.7 161.7V156.3Z" fill="#A4AFB7"/>
<path d="M136.4 156.3C136.4 156.19 136.31 156.1 136.2 156.1C136.09 156.1 136 156.19 136 156.3V161.7C136 161.81 136.09 161.9 136.2 161.9C136.31 161.9 136.4 161.81 136.4 161.7V156.3Z" fill="#A4AFB7"/>
<path d="M21.6176 19.2233V18.0636H27.7103V19.2233H25.35V25.7H23.9779V19.2233H21.6176ZM30.175 22.3442V25.7H28.8252V18.0636H30.1451V20.9459H30.2123C30.3465 20.6228 30.5541 20.368 30.835 20.1815C31.1183 19.9926 31.4788 19.8982 31.9163 19.8982C32.314 19.8982 32.6608 19.9814 32.9566 20.148C33.2524 20.3145 33.4811 20.5581 33.6427 20.8788C33.8067 21.1995 33.8888 21.591 33.8888 22.0534V25.7H32.539V22.2622C32.539 21.8769 32.4395 21.5773 32.2407 21.3635C32.0443 21.1473 31.7684 21.0391 31.4129 21.0391C31.1743 21.0391 30.9605 21.0913 30.7716 21.1958C30.5851 21.2977 30.4385 21.4456 30.3316 21.6395C30.2272 21.8334 30.175 22.0683 30.175 22.3442ZM36.9127 25.8156C36.5498 25.8156 36.2229 25.751 35.9321 25.6217C35.6437 25.49 35.415 25.2961 35.246 25.04C35.0795 24.784 34.9962 24.4683 34.9962 24.0929C34.9962 23.7698 35.0558 23.5026 35.1752 23.2913C35.2945 23.08 35.4573 22.9109 35.6636 22.7842C35.8699 22.6574 36.1024 22.5617 36.3609 22.4971C36.6219 22.4299 36.8916 22.3815 37.17 22.3516C37.5056 22.3168 37.7778 22.2858 37.9866 22.2584C38.1954 22.2286 38.347 22.1839 38.4415 22.1242C38.5384 22.0621 38.5869 21.9663 38.5869 21.8371V21.8147C38.5869 21.5338 38.5036 21.3163 38.3371 21.1622C38.1705 21.0081 37.9307 20.931 37.6174 20.931C37.2868 20.931 37.0246 21.0031 36.8307 21.1473C36.6393 21.2915 36.51 21.4617 36.4429 21.6581L35.1826 21.4791C35.282 21.1311 35.4461 20.8403 35.6748 20.6066C35.9035 20.3705 36.1831 20.194 36.5138 20.0771C36.8444 19.9578 37.2098 19.8982 37.61 19.8982C37.8859 19.8982 38.1606 19.9305 38.434 19.9951C38.7075 20.0597 38.9573 20.1666 39.1835 20.3158C39.4097 20.4624 39.5912 20.6625 39.7279 20.9161C39.8671 21.1696 39.9367 21.4866 39.9367 21.8669V25.7H38.6391V24.9133H38.5944C38.5123 25.0723 38.3967 25.2215 38.2476 25.3607C38.1009 25.4974 37.9157 25.608 37.692 25.6926C37.4708 25.7746 37.211 25.8156 36.9127 25.8156ZM37.2632 24.8238C37.5342 24.8238 37.7691 24.7703 37.9679 24.6634C38.1668 24.5541 38.3197 24.4099 38.4266 24.2309C38.5359 24.0519 38.5906 23.8568 38.5906 23.6455V22.9706C38.5484 23.0054 38.4763 23.0377 38.3744 23.0676C38.2749 23.0974 38.1631 23.1235 38.0388 23.1459C37.9145 23.1682 37.7915 23.1881 37.6697 23.2055C37.5478 23.2229 37.4422 23.2378 37.3527 23.2503C37.1514 23.2776 36.9711 23.3223 36.8121 23.3845C36.653 23.4466 36.5274 23.5336 36.4355 23.6455C36.3435 23.7549 36.2975 23.8966 36.2975 24.0706C36.2975 24.3192 36.3882 24.5068 36.5697 24.6336C36.7511 24.7604 36.9823 24.8238 37.2632 24.8238ZM42.6437 22.3442V25.7H41.2939V19.9727H42.5841V20.9459H42.6512C42.7829 20.6253 42.993 20.3705 43.2813 20.1815C43.5722 19.9926 43.9314 19.8982 44.3589 19.8982C44.7542 19.8982 45.0984 19.9827 45.3918 20.1517C45.6876 20.3208 45.9163 20.5656 46.0779 20.8863C46.2419 21.2069 46.3227 21.596 46.3202 22.0534V25.7H44.9704V22.2622C44.9704 21.8793 44.871 21.5798 44.6721 21.3635C44.4758 21.1473 44.2036 21.0391 43.8556 21.0391C43.6194 21.0391 43.4094 21.0913 43.2254 21.1958C43.0439 21.2977 42.901 21.4456 42.7966 21.6395C42.6947 21.8334 42.6437 22.0683 42.6437 22.3442ZM48.9228 23.9028L48.9191 22.2733H49.1354L51.1936 19.9727H52.7709L50.2391 22.7916H49.9594L48.9228 23.9028ZM47.6924 25.7V18.0636H49.0422V25.7H47.6924ZM51.2868 25.7L49.4225 23.0937L50.3323 22.1428L52.9014 25.7H51.2868ZM55.8125 18.0636H57.3749L59.2429 21.4418H59.3175L61.1856 18.0636H62.7479L59.97 22.8513V25.7H58.5904V22.8513L55.8125 18.0636ZM65.0998 25.8119C64.5405 25.8119 64.0557 25.6888 63.6456 25.4427C63.2354 25.1966 62.9173 24.8524 62.691 24.4099C62.4673 23.9674 62.3555 23.4504 62.3555 22.8587C62.3555 22.2671 62.4673 21.7488 62.691 21.3039C62.9173 20.8589 63.2354 20.5134 63.6456 20.2673C64.0557 20.0212 64.5405 19.8982 65.0998 19.8982C65.6591 19.8982 66.1438 20.0212 66.554 20.2673C66.9641 20.5134 67.2811 20.8589 67.5048 21.3039C67.731 21.7488 67.8441 22.2671 67.8441 22.8587C67.8441 23.4504 67.731 23.9674 67.5048 24.4099C67.2811 24.8524 66.9641 25.1966 66.554 25.4427C66.1438 25.6888 65.6591 25.8119 65.0998 25.8119ZM65.1072 24.7306C65.4105 24.7306 65.6641 24.6473 65.8679 24.4807C66.0717 24.3117 66.2234 24.0855 66.3228 23.8021C66.4247 23.5187 66.4757 23.203 66.4757 22.855C66.4757 22.5045 66.4247 22.1876 66.3228 21.9042C66.2234 21.6183 66.0717 21.3909 65.8679 21.2219C65.6641 21.0528 65.4105 20.9683 65.1072 20.9683C64.7965 20.9683 64.538 21.0528 64.3317 21.2219C64.1278 21.3909 63.975 21.6183 63.873 21.9042C63.7736 22.1876 63.7239 22.5045 63.7239 22.855C63.7239 23.203 63.7736 23.5187 63.873 23.8021C63.975 24.0855 64.1278 24.3117 64.3317 24.4807C64.538 24.6473 64.7965 24.7306 65.1072 24.7306ZM72.6401 23.2913V19.9727H73.9899V25.7H72.6811V24.6821H72.6215C72.4922 25.0027 72.2797 25.265 71.9839 25.4688C71.6906 25.6727 71.3289 25.7746 70.8988 25.7746C70.5235 25.7746 70.1916 25.6913 69.9033 25.5248C69.6174 25.3557 69.3937 25.1109 69.2321 24.7902C69.0705 24.4671 68.9897 24.0768 68.9897 23.6194V19.9727H70.3395V23.4106C70.3395 23.7735 70.439 24.0619 70.6378 24.2757C70.8367 24.4894 71.0977 24.5963 71.4208 24.5963C71.6197 24.5963 71.8124 24.5478 71.9988 24.4509C72.1852 24.354 72.3381 24.2098 72.4574 24.0184C72.5792 23.8245 72.6401 23.5821 72.6401 23.2913ZM78.0421 25.7V18.0636H80.9057C81.4924 18.0636 81.9845 18.173 82.3823 18.3918C82.7825 18.6105 83.0845 18.9113 83.2883 19.2941C83.4947 19.6744 83.5978 20.107 83.5978 20.5917C83.5978 21.0814 83.4947 21.5164 83.2883 21.8967C83.082 22.2771 82.7775 22.5766 82.3748 22.7954C81.9721 23.0116 81.4762 23.1198 80.8871 23.1198H78.9892V21.9825H80.7006C81.0437 21.9825 81.3246 21.9228 81.5433 21.8035C81.7621 21.6842 81.9236 21.5201 82.028 21.3113C82.1349 21.1025 82.1884 20.8627 82.1884 20.5917C82.1884 20.3208 82.1349 20.0821 82.028 19.8758C81.9236 19.6695 81.7608 19.5091 81.5396 19.3948C81.3208 19.278 81.0387 19.2195 80.6932 19.2195H79.4254V25.7H78.0421ZM86.2853 25.8156C85.9224 25.8156 85.5955 25.751 85.3046 25.6217C85.0163 25.49 84.7876 25.2961 84.6186 25.04C84.452 24.784 84.3687 24.4683 84.3687 24.0929C84.3687 23.7698 84.4284 23.5026 84.5477 23.2913C84.667 23.08 84.8299 22.9109 85.0362 22.7842C85.2425 22.6574 85.4749 22.5617 85.7334 22.4971C85.9944 22.4299 86.2642 22.3815 86.5426 22.3516C86.8781 22.3168 87.1503 22.2858 87.3591 22.2584C87.568 22.2286 87.7196 22.1839 87.814 22.1242C87.911 22.0621 87.9595 21.9663 87.9595 21.8371V21.8147C87.9595 21.5338 87.8762 21.3163 87.7096 21.1622C87.5431 21.0081 87.3032 20.931 86.99 20.931C86.6594 20.931 86.3971 21.0031 86.2033 21.1473C86.0118 21.2915 85.8826 21.4617 85.8155 21.6581L84.5552 21.4791C84.6546 21.1311 84.8187 20.8403 85.0474 20.6066C85.2761 20.3705 85.5557 20.194 85.8863 20.0771C86.2169 19.9578 86.5823 19.8982 86.9825 19.8982C87.2585 19.8982 87.5332 19.9305 87.8066 19.9951C88.08 20.0597 88.3299 20.1666 88.5561 20.3158C88.7823 20.4624 88.9637 20.6625 89.1004 20.9161C89.2397 21.1696 89.3093 21.4866 89.3093 21.8669V25.7H88.0117V24.9133H87.9669C87.8849 25.0723 87.7693 25.2215 87.6202 25.3607C87.4735 25.4974 87.2883 25.608 87.0646 25.6926C86.8433 25.7746 86.5836 25.8156 86.2853 25.8156ZM86.6358 24.8238C86.9067 24.8238 87.1416 24.7703 87.3405 24.6634C87.5394 24.5541 87.6922 24.4099 87.7991 24.2309C87.9085 24.0519 87.9632 23.8568 87.9632 23.6455V22.9706C87.9209 23.0054 87.8488 23.0377 87.7469 23.0676C87.6475 23.0974 87.5356 23.1235 87.4113 23.1459C87.2871 23.1682 87.164 23.1881 87.0422 23.2055C86.9204 23.2229 86.8148 23.2378 86.7253 23.2503C86.5239 23.2776 86.3437 23.3223 86.1846 23.3845C86.0255 23.4466 85.9 23.5336 85.808 23.6455C85.716 23.7549 85.67 23.8966 85.67 24.0706C85.67 24.3192 85.7608 24.5068 85.9422 24.6336C86.1237 24.7604 86.3549 24.8238 86.6358 24.8238ZM93.1573 27.9671C92.6725 27.9671 92.2562 27.9012 91.9082 27.7694C91.5601 27.6402 91.2805 27.4662 91.0692 27.2474C90.8579 27.0287 90.7112 26.7863 90.6292 26.5203L91.8448 26.2258C91.8995 26.3376 91.979 26.4482 92.0834 26.5576C92.1878 26.6695 92.3283 26.7614 92.5047 26.8335C92.6837 26.9081 92.9087 26.9454 93.1796 26.9454C93.5625 26.9454 93.8794 26.8522 94.1305 26.6657C94.3815 26.4818 94.5071 26.1785 94.5071 25.7559V24.6709H94.4399C94.3703 24.8101 94.2684 24.953 94.1342 25.0997C94.0024 25.2464 93.8272 25.3694 93.6084 25.4688C93.3922 25.5683 93.12 25.618 92.7919 25.618C92.3519 25.618 91.9529 25.5148 91.5949 25.3085C91.2395 25.0997 90.9561 24.789 90.7448 24.3763C90.536 23.9612 90.4316 23.4417 90.4316 22.8177C90.4316 22.1888 90.536 21.6581 90.7448 21.2256C90.9561 20.7906 91.2407 20.4612 91.5987 20.2375C91.9566 20.0113 92.3556 19.8982 92.7956 19.8982C93.1312 19.8982 93.4071 19.9553 93.6234 20.0697C93.8421 20.1815 94.0161 20.317 94.1454 20.4761C94.2746 20.6327 94.3728 20.7806 94.4399 20.9198H94.5145V19.9727H95.8457V25.7932C95.8457 26.2829 95.7288 26.6881 95.4952 27.0088C95.2615 27.3295 94.9421 27.5693 94.5369 27.7284C94.1317 27.8875 93.6718 27.9671 93.1573 27.9671ZM93.1685 24.559C93.4543 24.559 93.6979 24.4894 93.8993 24.3502C94.1006 24.211 94.2535 24.0109 94.3579 23.7499C94.4623 23.4889 94.5145 23.1757 94.5145 22.8103C94.5145 22.4498 94.4623 22.1341 94.3579 21.8632C94.256 21.5922 94.1044 21.3822 93.903 21.233C93.7041 21.0814 93.4593 21.0056 93.1685 21.0056C92.8677 21.0056 92.6166 21.0839 92.4153 21.2405C92.2139 21.3971 92.0623 21.6121 91.9604 21.8856C91.8584 22.1565 91.8075 22.4647 91.8075 22.8103C91.8075 23.1608 91.8584 23.4678 91.9604 23.7313C92.0648 23.9923 92.2176 24.1961 92.419 24.3428C92.6228 24.4869 92.8726 24.559 93.1685 24.559ZM99.7645 25.8119C99.1903 25.8119 98.6944 25.6926 98.2768 25.4539C97.8616 25.2128 97.5422 24.8722 97.3185 24.4323C97.0948 23.9898 96.9829 23.469 96.9829 22.8699C96.9829 22.2808 97.0948 21.7638 97.3185 21.3188C97.5447 20.8714 97.8604 20.5233 98.2656 20.2748C98.6708 20.0237 99.1468 19.8982 99.6937 19.8982C100.047 19.8982 100.38 19.9553 100.693 20.0697C101.009 20.1815 101.287 20.3556 101.528 20.5917C101.772 20.8279 101.963 21.1286 102.102 21.494C102.242 21.857 102.311 22.2895 102.311 22.7916V23.2055H97.6168V22.2957H101.017C101.015 22.0372 100.959 21.8073 100.85 21.6059C100.74 21.4021 100.587 21.2417 100.391 21.1249C100.197 21.0081 99.9708 20.9497 99.7123 20.9497C99.4364 20.9497 99.194 21.0168 98.9852 21.151C98.7764 21.2828 98.6136 21.4568 98.4968 21.673C98.3824 21.8868 98.324 22.1217 98.3215 22.3777V23.172C98.3215 23.5051 98.3824 23.7909 98.5042 24.0296C98.626 24.2657 98.7963 24.4472 99.015 24.5739C99.2338 24.6982 99.4898 24.7604 99.7832 24.7604C99.9795 24.7604 100.157 24.733 100.316 24.6784C100.475 24.6212 100.613 24.5379 100.73 24.4285C100.847 24.3192 100.935 24.1837 100.995 24.0221L102.255 24.1638C102.176 24.4969 102.024 24.7877 101.8 25.0363C101.579 25.2824 101.296 25.4738 100.95 25.6105C100.605 25.7448 100.209 25.8119 99.7645 25.8119Z" fill="#A4AFB7"/>
<path d="M139.7 53.6H83.1C81.6088 53.6 80.4 54.7864 80.4 56.25C80.4 57.7135 81.6088 58.9 83.1 58.9H139.7C141.191 58.9 142.4 57.7135 142.4 56.25C142.4 54.7864 141.191 53.6 139.7 53.6Z" fill="#D5DADF"/>
<path d="M129.3 95.7H93.6C92.8268 95.7 92.2 96.3268 92.2 97.1C92.2 97.8732 92.8268 98.5 93.6 98.5H129.3C130.073 98.5 130.7 97.8732 130.7 97.1C130.7 96.3268 130.073 95.7 129.3 95.7Z" fill="#D5DADF"/>
<path d="M91.5 158.6H68.4C67.682 158.6 67.1 159.182 67.1 159.9V160.1C67.1 160.818 67.682 161.4 68.4 161.4H91.5C92.218 161.4 92.8 160.818 92.8 160.1V159.9C92.8 159.182 92.218 158.6 91.5 158.6Z" fill="#D5DADF"/>
<path d="M45.2 124.3H22.1C21.382 124.3 20.8 124.882 20.8 125.6V125.8C20.8 126.518 21.382 127.1 22.1 127.1H45.2C45.918 127.1 46.5 126.518 46.5 125.8V125.6C46.5 124.882 45.918 124.3 45.2 124.3Z" fill="#D5DADF"/>
<path d="M139.2 124.9H124.8C124.027 124.9 123.4 125.527 123.4 126.3C123.4 127.073 124.027 127.7 124.8 127.7H139.2C139.973 127.7 140.6 127.073 140.6 126.3C140.6 125.527 139.973 124.9 139.2 124.9Z" fill="#D5DADF"/>
<path d="M206.8 124.9H186.1C185.327 124.9 184.7 125.527 184.7 126.3C184.7 127.073 185.327 127.7 186.1 127.7H206.8C207.573 127.7 208.2 127.073 208.2 126.3C208.2 125.527 207.573 124.9 206.8 124.9Z" fill="#D5DADF"/>
<path d="M21 111H208" stroke="#E6E9EC" stroke-miterlimit="10"/>
<path d="M21 140.3H208" stroke="#E6E9EC" stroke-miterlimit="10"/>
<path d="M21 179.6H208" stroke="#E6E9EC" stroke-miterlimit="10"/>
<path d="M150.096 190.305V189.455H155.162V190.305H153.12V196H152.135V190.305H150.096ZM157.561 196.099C157.1 196.099 156.699 195.994 156.356 195.783C156.013 195.572 155.746 195.277 155.557 194.897C155.367 194.518 155.272 194.075 155.272 193.568C155.272 193.059 155.367 192.613 155.557 192.232C155.746 191.85 156.013 191.554 156.356 191.343C156.699 191.132 157.1 191.027 157.561 191.027C158.021 191.027 158.422 191.132 158.766 191.343C159.109 191.554 159.375 191.85 159.565 192.232C159.754 192.613 159.849 193.059 159.849 193.568C159.849 194.075 159.754 194.518 159.565 194.897C159.375 195.277 159.109 195.572 158.766 195.783C158.422 195.994 158.021 196.099 157.561 196.099ZM157.564 195.297C157.862 195.297 158.109 195.218 158.305 195.06C158.501 194.903 158.646 194.693 158.74 194.431C158.836 194.169 158.884 193.88 158.884 193.565C158.884 193.251 158.836 192.964 158.74 192.702C158.646 192.437 158.501 192.225 158.305 192.066C158.109 191.906 157.862 191.826 157.564 191.826C157.263 191.826 157.014 191.906 156.816 192.066C156.62 192.225 156.474 192.437 156.378 192.702C156.284 192.964 156.237 193.251 156.237 193.565C156.237 193.88 156.284 194.169 156.378 194.431C156.474 194.693 156.62 194.903 156.816 195.06C157.014 195.218 157.263 195.297 157.564 195.297ZM163.207 191.091V191.858H160.526V191.091H163.207ZM161.245 189.915H162.2V194.559C162.2 194.744 162.228 194.884 162.284 194.977C162.339 195.069 162.41 195.132 162.498 195.166C162.587 195.198 162.684 195.214 162.789 195.214C162.865 195.214 162.932 195.208 162.99 195.198C163.047 195.187 163.092 195.179 163.124 195.172L163.297 195.962C163.241 195.983 163.162 196.004 163.06 196.026C162.958 196.049 162.83 196.062 162.677 196.064C162.425 196.068 162.191 196.023 161.974 195.93C161.756 195.836 161.58 195.691 161.446 195.495C161.312 195.299 161.245 195.053 161.245 194.757V189.915ZM165.693 196.109C165.382 196.109 165.101 196.051 164.849 195.936C164.598 195.819 164.399 195.65 164.252 195.428C164.107 195.206 164.034 194.935 164.034 194.613C164.034 194.336 164.087 194.108 164.194 193.929C164.301 193.75 164.444 193.608 164.625 193.504C164.807 193.4 165.009 193.321 165.233 193.267C165.456 193.214 165.684 193.174 165.917 193.146C166.211 193.112 166.449 193.084 166.633 193.063C166.816 193.039 166.949 193.002 167.032 192.951C167.115 192.9 167.157 192.817 167.157 192.702V192.679C167.157 192.4 167.078 192.184 166.92 192.031C166.765 191.877 166.532 191.8 166.223 191.8C165.902 191.8 165.648 191.872 165.463 192.015C165.28 192.155 165.153 192.312 165.082 192.484L164.184 192.28C164.291 191.982 164.446 191.741 164.651 191.558C164.858 191.372 165.095 191.238 165.364 191.155C165.632 191.07 165.915 191.027 166.211 191.027C166.407 191.027 166.614 191.05 166.834 191.097C167.055 191.142 167.262 191.225 167.454 191.347C167.648 191.468 167.807 191.642 167.93 191.868C168.054 192.091 168.115 192.382 168.115 192.74V196H167.182V195.329H167.144C167.082 195.452 166.989 195.574 166.866 195.693C166.742 195.812 166.584 195.912 166.39 195.99C166.196 196.069 165.964 196.109 165.693 196.109ZM165.901 195.342C166.165 195.342 166.391 195.289 166.578 195.185C166.768 195.081 166.912 194.944 167.01 194.776C167.11 194.605 167.16 194.423 167.16 194.229V193.597C167.126 193.631 167.06 193.663 166.962 193.692C166.866 193.72 166.756 193.745 166.633 193.766C166.509 193.785 166.389 193.803 166.271 193.82C166.154 193.835 166.056 193.848 165.977 193.859C165.792 193.882 165.623 193.922 165.469 193.977C165.318 194.032 165.196 194.112 165.105 194.217C165.015 194.319 164.971 194.455 164.971 194.626C164.971 194.862 165.058 195.041 165.233 195.163C165.407 195.282 165.63 195.342 165.901 195.342ZM170.344 189.455V196H169.388V189.455H170.344Z" fill="#A4AFB7"/>
<path d="M169 70.7H53.8C53.082 70.7 52.5 71.282 52.5 72V81.9C52.5 82.618 53.082 83.2 53.8 83.2H169C169.718 83.2 170.3 82.618 170.3 81.9V72C170.3 71.282 169.718 70.7 169 70.7Z" fill="#D5DADF"/>
</g>
</svg>
